<?xml version="1.0" encoding="UTF-8"?>
<svg version="1.1" xmlns="http://www.w3.org/2000/svg" width="360" height="360">
<path d="M0 0 C15.96707673 8.53223516 23.31068413 30.13333696 28.4140625 46.46484375 C32.07329971 58.8416755 34.97667644 71.45632526 38 84 C39.16015625 84.30292969 40.3203125 84.60585937 41.515625 84.91796875 C55.9575974 88.75934746 68.50550251 93.67033501 81 102 C81 102.66 81 103.32 81 104 C81.99 104.33 82.98 104.66 84 105 C86.58147326 107.44103041 88.75917727 110.24773224 91 113 C91.71800781 113.87011719 92.43601562 114.74023438 93.17578125 115.63671875 C104.77109433 130.31610474 112.44908512 147.15412012 113 166 C113.0515625 166.96550781 113.103125 167.93101562 113.15625 168.92578125 C113.63121313 183.55068762 110.48608981 203.4422354 101 215 C99.07713833 216.98113021 97.29160825 218.40583774 95 220 C94.01 220 93.02 220 92 220 C92 220.66 92 221.32 92 222 C93.09634766 222.12181641 93.09634766 222.12181641 94.21484375 222.24609375 C99.96546801 223.80271434 104.29610721 229.34434148 107.43359375 234.234375 C110.30870622 239.83715827 112.09744796 245.66759914 111 252 C107.42072991 256.88082285 102.77305486 259.22176401 96.87890625 260.4375 C93.53317993 260.92861579 91.23745942 261.07915314 88 260 C87.84144531 260.67804688 87.68289063 261.35609375 87.51953125 262.0546875 C84.92111243 272.41965096 80.70781068 280.71388092 74 289 C73.39800781 289.80824219 72.79601562 290.61648438 72.17578125 291.44921875 C66.39940063 298.22116946 56.25615465 306.26485695 47.46484375 308.703125 C43.8432536 310.60862092 43.39126858 313.03789348 42 316.8125 C39.91261519 322.44013689 37.71766446 327.2011301 32.0625 329.9375 C27.59896499 330.07275864 24.65022497 328.53200225 21.25 325.75 C18.89219803 322.86824203 17.91624186 320.58167273 17 317 C15.81535156 317.16242188 14.63070312 317.32484375 13.41015625 317.4921875 C6.76287181 318.228318 0.11758802 318.14531451 -6.5625 318.125 C-7.83802734 318.12886719 -9.11355469 318.13273437 -10.42773438 318.13671875 C-16.71145946 318.13019698 -22.79043749 317.98663919 -29 317 C-29.12117188 317.61488281 -29.24234375 318.22976563 -29.3671875 318.86328125 C-29.53476563 319.67152344 -29.70234375 320.47976563 -29.875 321.3125 C-30.03742188 322.11300781 -30.19984375 322.91351563 -30.3671875 323.73828125 C-31 326 -31 326 -33 329 C-37.07230244 330.21454634 -39.42591804 330.63633101 -43.38671875 329.03515625 C-50.35546484 324.87694577 -52.50418305 319.82773148 -54.82421875 312.33984375 C-55.78967268 309.87995306 -55.78967268 309.87995306 -57.9609375 308.8828125 C-58.75757813 308.63273437 -59.55421875 308.38265625 -60.375 308.125 C-72.82749834 303.63275673 -84.95045896 296.30356326 -91.0078125 284.16796875 C-91.33523437 283.45253906 -91.66265625 282.73710937 -92 282 C-92.30679688 281.35675781 -92.61359375 280.71351563 -92.9296875 280.05078125 C-96.06554769 273.16682149 -96.16868233 266.74723295 -96.328125 259.27734375 C-97.17015246 255.17001211 -98.5781155 254.26192366 -102 252 C-104.69133108 248.41155857 -104.38477157 244.29940407 -104 240 C-102.51845919 232.88860411 -97.95373273 227.17351451 -92.125 223 C-90.578125 222.01 -90.578125 222.01 -89 221 C-90.08018748 218.56957816 -91.21090086 216.74623311 -92.921875 214.6875 C-104.6134194 199.56760799 -106.3722674 175.56308849 -104.12036133 157.3815918 C-100.75043367 134.43348017 -87.36369114 113.47996994 -69.5234375 98.98828125 C-60.80107702 92.60572858 -49.05991224 86 -38 86 C-38.56920166 85.16976318 -39.13840332 84.33952637 -39.72485352 83.48413086 C-41.88122023 80.33247817 -44.02272764 77.17094699 -46.16040039 74.0065918 C-47.07872186 72.65141602 -48.00078924 71.29876931 -48.92700195 69.94897461 C-58.17640261 56.45921863 -67.34519823 42.24280342 -67.375 25.375 C-67.39949219 24.63765625 -67.42398438 23.9003125 -67.44921875 23.140625 C-67.46936062 19.39423696 -67.15604135 17.24345041 -65.1171875 14.0625 C-62.69551015 11.7033752 -61.30139492 10.75031703 -58 10 C-50.31962095 10.25181571 -44.26391283 12.67278921 -38.5625 17.875 C-25.77749398 31.61670716 -8 62.24184815 -8 81 C-3.545 80.505 -3.545 80.505 1 80 C0.46375 78.659375 -0.0725 77.31875 -0.625 75.9375 C-0.98980469 75.02097656 -1.35460937 74.10445313 -1.73046875 73.16015625 C-2.61650316 70.95461212 -3.5160292 68.75446102 -4.42578125 66.55859375 C-11.76745406 48.66919463 -20.54828804 26.76302035 -15.2421875 7.20703125 C-12.21693356 0.66819497 -7.01351255 -1.57370335 0 0 Z " fill="#FBEDC8" transform="translate(181,21)"/>
<path d="M0 0 C15.96707673 8.53223516 23.31068413 30.13333696 28.4140625 46.46484375 C32.07329971 58.8416755 34.97667644 71.45632526 38 84 C39.16015625 84.30292969 40.3203125 84.60585937 41.515625 84.91796875 C55.9575974 88.75934746 68.50550251 93.67033501 81 102 C81 102.66 81 103.32 81 104 C81.99 104.33 82.98 104.66 84 105 C86.58147326 107.44103041 88.75917727 110.24773224 91 113 C91.71800781 113.87011719 92.43601562 114.74023438 93.17578125 115.63671875 C104.77109433 130.31610474 112.44908512 147.15412012 113 166 C113.0515625 166.96550781 113.103125 167.93101562 113.15625 168.92578125 C113.63121313 183.55068762 110.48608981 203.4422354 101 215 C99.07713833 216.98113021 97.29160825 218.40583774 95 220 C94.01 220 93.02 220 92 220 C92.44760399 214.92715484 94.77197462 212.71222918 98 209 C98.33 208.01 98.66 207.02 99 206 C99.66 206 100.32 206 101 206 C101.10957031 205.30777344 101.21914063 204.61554688 101.33203125 203.90234375 C102.27275712 198.09737679 103.35619631 192.3676897 104.625 186.625 C106.09328217 179.29104236 106.43766599 172.45623704 106 165 C105.96277832 164.33210449 105.92555664 163.66420898 105.88720703 162.97607422 C104.45510596 140.36146727 93.92556662 123.07753532 77.5625 107.7109375 C66.79294803 98.53556263 54.82361552 94.28271734 41.28808594 91.04052734 C39.91571777 90.70335693 39.91571777 90.70335693 38.515625 90.359375 C37.69352539 90.16827148 36.87142578 89.97716797 36.02441406 89.78027344 C34 89 34 89 32 86 C31.42209738 83.23025944 30.91616388 80.47436294 30.4375 77.6875 C25.97241881 53.90047066 19.47641987 23.03467054 -0.33203125 7.07421875 C-2.07640795 5.82439242 -2.07640795 5.82439242 -4.75 5.3125 C-7.17500968 5.81874765 -7.17500968 5.81874765 -8.61328125 8.05859375 C-10.32069267 11.68022979 -10.49286244 14.82466822 -10.4375 18.75 C-10.42940308 19.85903687 -10.42940308 19.85903687 -10.42114258 20.99047852 C-10.19889637 29.30318958 -8.23234866 37.03084356 -6 45 C-5.773125 45.91136719 -5.54625 46.82273438 -5.3125 47.76171875 C-3.59416586 54.25916973 -0.67316596 60.18799674 2.21484375 66.2265625 C9 80.45244565 9 80.45244565 9 85 C5.58661 86.706695 1.8254714 86.31057559 -1.9375 86.375 C-2.76185547 86.41238281 -3.58621094 86.44976562 -4.43554688 86.48828125 C-6.7275311 86.52179524 -8.76051475 86.49343613 -11 86 C-12.97265625 83.6484375 -12.97265625 83.6484375 -14 81 C-14.495 80.0925 -14.99 79.185 -15.5 78.25 C-16.97333546 75.05777318 -18.04480509 71.90751423 -19.11328125 68.56640625 C-20.4858337 64.59386458 -22.15765588 60.75461389 -23.81640625 56.89453125 C-25 54 -25 54 -25.92578125 51.08984375 C-30.56076605 37.75794203 -39.43153918 23.02752648 -52 16 C-55.80095012 15.16046733 -55.80095012 15.16046733 -59 16 C-62.69650691 21.54476036 -61.72035965 30.20122839 -60.5 36.63671875 C-59.80166523 38.84678958 -58.97257432 40.89670919 -58 43 C-57.52433594 44.09054688 -57.52433594 44.09054688 -57.0390625 45.203125 C-50.41415169 59.39265029 -41.10847028 72.98909199 -30.6484375 84.61328125 C-29 87 -29 87 -29.25 89.3125 C-29.4975 89.869375 -29.745 90.42625 -30 91 C-30.94359375 91.15855469 -31.8871875 91.31710938 -32.859375 91.48046875 C-46.69181186 93.99419472 -57.54861141 98.65803955 -69 107 C-69.64582031 107.44730469 -70.29164062 107.89460938 -70.95703125 108.35546875 C-85.92650801 119.7490986 -93.89214024 141.17164949 -97.59765625 158.8515625 C-99.8368339 176.37367107 -97.49992826 195.32348561 -89 211 C-87.62080832 212.76628734 -87.62080832 212.76628734 -86.1875 214.25 C-83.94724477 217.06632086 -83.63073455 217.7259018 -83.5 221.125 C-84 225 -84 225 -85.42578125 226.8125 C-90.88919526 234.40434081 -90.29979609 247.4388586 -90.375 256.4375 C-90.38877686 257.34806152 -90.40255371 258.25862305 -90.41674805 259.19677734 C-90.34267683 270.01512564 -86.41458754 280.77382999 -79.25390625 289.0078125 C-77.26170005 290.85505567 -75.22127794 292.4356128 -73 294 C-72.19433594 294.57234375 -71.38867188 295.1446875 -70.55859375 295.734375 C-64.3688867 299.7141013 -57.92843845 302.34545823 -51 304.75 C-50.21343018 305.03166016 -49.42686035 305.31332031 -48.61645508 305.60351562 C-32.92574211 310.75738822 -16.36025609 311.51909443 0.02075195 311.44604492 C2.96048912 311.43743265 5.89833838 311.46662214 8.83789062 311.49804688 C23.01542018 311.55334895 34.42039708 309.88448864 46.6875 302.25 C47.40663574 301.81389404 48.12577148 301.37778809 48.86669922 300.9284668 C54.61715519 297.37861878 59.94750115 293.49643636 65 289 C65.60714844 288.50886719 66.21429688 288.01773437 66.83984375 287.51171875 C75.5130119 279.90057119 82.55524463 266.38340221 84 255 C84.33446157 248.8813207 84.56627614 242.95184934 83 237 C82.87794671 234.32459184 82.95532687 231.68038762 83 229 C84.32 229.33 85.64 229.66 87 230 C87.2475 231.27875 87.495 232.5575 87.75 233.875 C88.51990586 237.26747318 88.51990586 237.26747318 91.125 239.5 C91.74375 239.665 92.3625 239.83 93 240 C93 240.99 93 241.98 93 243 C92.01 243.66 91.02 244.32 90 245 C89.42006301 247.19454681 89.42006301 247.19454681 89.3125 249.625 C89.21388672 250.85089844 89.21388672 250.85089844 89.11328125 252.1015625 C89.05720703 253.04128906 89.05720703 253.04128906 89 254 C95.65545792 254.54330269 99.45834744 253.77304004 105 250 C104.88437394 248.60335892 104.757008 247.20768801 104.625 245.8125 C104.52058594 244.64654297 104.52058594 244.64654297 104.4140625 243.45703125 C103.21800186 236.35965252 99.26130285 233.131141 94.1171875 228.40234375 C92 226 92 226 92 222 C98.55799903 222.72866656 101.92734294 227.15848619 106 232 C109.85065624 238.00156776 112.24553043 244.81314624 111 252 C107.42072991 256.88082285 102.77305486 259.22176401 96.87890625 260.4375 C93.53317993 260.92861579 91.23745942 261.07915314 88 260 C87.84144531 260.67804688 87.68289063 261.35609375 87.51953125 262.0546875 C84.92111243 272.41965096 80.70781068 280.71388092 74 289 C73.39800781 289.80824219 72.79601562 290.61648438 72.17578125 291.44921875 C66.39940063 298.22116946 56.25615465 306.26485695 47.46484375 308.703125 C43.8432536 310.60862092 43.39126858 313.03789348 42 316.8125 C39.91261519 322.44013689 37.71766446 327.2011301 32.0625 329.9375 C27.59896499 330.07275864 24.65022497 328.53200225 21.25 325.75 C18.89219803 322.86824203 17.91624186 320.58167273 17 317 C15.81535156 317.16242188 14.63070312 317.32484375 13.41015625 317.4921875 C6.76287181 318.228318 0.11758802 318.14531451 -6.5625 318.125 C-7.83802734 318.12886719 -9.11355469 318.13273437 -10.42773438 318.13671875 C-16.71145946 318.13019698 -22.79043749 317.98663919 -29 317 C-29.12117188 317.61488281 -29.24234375 318.22976563 -29.3671875 318.86328125 C-29.53476563 319.67152344 -29.70234375 320.47976563 -29.875 321.3125 C-30.03742188 322.11300781 -30.19984375 322.91351563 -30.3671875 323.73828125 C-31 326 -31 326 -33 329 C-37.07230244 330.21454634 -39.42591804 330.63633101 -43.38671875 329.03515625 C-50.35546484 324.87694577 -52.50418305 319.82773148 -54.82421875 312.33984375 C-55.78967268 309.87995306 -55.78967268 309.87995306 -57.9609375 308.8828125 C-58.75757813 308.63273437 -59.55421875 308.38265625 -60.375 308.125 C-72.82749834 303.63275673 -84.95045896 296.30356326 -91.0078125 284.16796875 C-91.33523437 283.45253906 -91.66265625 282.73710937 -92 282 C-92.30679688 281.35675781 -92.61359375 280.71351563 -92.9296875 280.05078125 C-96.06554769 273.16682149 -96.16868233 266.74723295 -96.328125 259.27734375 C-97.17015246 255.17001211 -98.5781155 254.26192366 -102 252 C-104.69133108 248.41155857 -104.38477157 244.29940407 -104 240 C-102.51845919 232.88860411 -97.95373273 227.17351451 -92.125 223 C-90.578125 222.01 -90.578125 222.01 -89 221 C-90.08018748 218.56957816 -91.21090086 216.74623311 -92.921875 214.6875 C-104.6134194 199.56760799 -106.3722674 175.56308849 -104.12036133 157.3815918 C-100.75043367 134.43348017 -87.36369114 113.47996994 -69.5234375 98.98828125 C-60.80107702 92.60572858 -49.05991224 86 -38 86 C-38.56920166 85.16976318 -39.13840332 84.33952637 -39.72485352 83.48413086 C-41.88122023 80.33247817 -44.02272764 77.17094699 -46.16040039 74.0065918 C-47.07872186 72.65141602 -48.00078924 71.29876931 -48.92700195 69.94897461 C-58.17640261 56.45921863 -67.34519823 42.24280342 -67.375 25.375 C-67.39949219 24.63765625 -67.42398438 23.9003125 -67.44921875 23.140625 C-67.46936062 19.39423696 -67.15604135 17.24345041 -65.1171875 14.0625 C-62.69551015 11.7033752 -61.30139492 10.75031703 -58 10 C-50.31962095 10.25181571 -44.26391283 12.67278921 -38.5625 17.875 C-25.77749398 31.61670716 -8 62.24184815 -8 81 C-3.545 80.505 -3.545 80.505 1 80 C0.46375 78.659375 -0.0725 77.31875 -0.625 75.9375 C-0.98980469 75.02097656 -1.35460937 74.10445313 -1.73046875 73.16015625 C-2.61650316 70.95461212 -3.5160292 68.75446102 -4.42578125 66.55859375 C-11.76745406 48.66919463 -20.54828804 26.76302035 -15.2421875 7.20703125 C-12.21693356 0.66819497 -7.01351255 -1.57370335 0 0 Z " fill="#0A0A08" transform="translate(181,21)"/>
<path d="M0 0 C0.33 0 0.66 0 1 0 C1.37548892 7.50977836 1.37548892 7.50977836 -0.40625 9.8359375 C-5.92385051 17.32797348 -5.30029396 30.49843218 -5.375 39.4375 C-5.38877686 40.34806152 -5.40255371 41.25862305 -5.41674805 42.19677734 C-5.34267683 53.01512564 -1.41458754 63.77382999 5.74609375 72.0078125 C7.73829995 73.85505567 9.77872206 75.4356128 12 77 C13.20849609 77.85851562 13.20849609 77.85851562 14.44140625 78.734375 C20.6311133 82.7141013 27.07156155 85.34545823 34 87.75 C34.78656982 88.03166016 35.57313965 88.31332031 36.38354492 88.60351562 C52.07425789 93.75738822 68.63974391 94.51909443 85.02075195 94.44604492 C87.96048912 94.43743265 90.89833838 94.46662214 93.83789062 94.49804688 C108.01542018 94.55334895 119.42039708 92.88448864 131.6875 85.25 C132.40663574 84.81389404 133.12577148 84.37778809 133.86669922 83.9284668 C139.61715519 80.37861878 144.94750115 76.49643636 150 72 C150.91072266 71.26330078 150.91072266 71.26330078 151.83984375 70.51171875 C160.5130119 62.90057119 167.55524463 49.38340221 169 38 C169.33446157 31.8813207 169.56627614 25.95184934 168 20 C167.87794671 17.32459184 167.95532687 14.68038762 168 12 C169.98 12.495 169.98 12.495 172 13 C172.2475 14.27875 172.495 15.5575 172.75 16.875 C173.51990586 20.26747318 173.51990586 20.26747318 176.125 22.5 C176.74375 22.665 177.3625 22.83 178 23 C178 23.99 178 24.98 178 26 C177.01 26.66 176.02 27.32 175 28 C174.42006301 30.19454681 174.42006301 30.19454681 174.3125 32.625 C174.24675781 33.44226563 174.18101562 34.25953125 174.11328125 35.1015625 C174.05720703 36.04128906 174.05720703 36.04128906 174 37 C180.65545792 37.54330269 184.45834744 36.77304004 190 33 C189.88437394 31.60335892 189.757008 30.20768801 189.625 28.8125 C189.52058594 27.64654297 189.52058594 27.64654297 189.4140625 26.45703125 C188.21800186 19.35965252 184.26130285 16.131141 179.1171875 11.40234375 C177 9 177 9 177 5 C183.55799903 5.72866656 186.92734294 10.15848619 191 15 C194.85065624 21.00156776 197.24553043 27.81314624 196 35 C192.42072991 39.88082285 187.77305486 42.22176401 181.87890625 43.4375 C178.53317993 43.92861579 176.23745942 44.07915314 173 43 C172.84144531 43.67804688 172.68289063 44.35609375 172.51953125 45.0546875 C169.92111243 55.41965096 165.70781068 63.71388092 159 72 C158.09701172 73.21236328 158.09701172 73.21236328 157.17578125 74.44921875 C151.39940063 81.22116946 141.25615465 89.26485695 132.46484375 91.703125 C128.8432536 93.60862092 128.39126858 96.03789348 127 99.8125 C124.91261519 105.44013689 122.71766446 110.2011301 117.0625 112.9375 C112.59896499 113.07275864 109.65022497 111.53200225 106.25 108.75 C103.89219803 105.86824203 102.91624186 103.58167273 102 100 C100.81535156 100.16242188 99.63070312 100.32484375 98.41015625 100.4921875 C91.76287181 101.228318 85.11758802 101.14531451 78.4375 101.125 C77.16197266 101.12886719 75.88644531 101.13273437 74.57226562 101.13671875 C68.28854054 101.13019698 62.20956251 100.98663919 56 100 C55.81824219 100.92232422 55.81824219 100.92232422 55.6328125 101.86328125 C55.46523437 102.67152344 55.29765625 103.47976563 55.125 104.3125 C54.96257812 105.11300781 54.80015625 105.91351563 54.6328125 106.73828125 C54 109 54 109 52 112 C47.92769756 113.21454634 45.57408196 113.63633101 41.61328125 112.03515625 C34.64453516 107.87694577 32.49581695 102.82773148 30.17578125 95.33984375 C29.21032732 92.87995306 29.21032732 92.87995306 27.0390625 91.8828125 C26.24242187 91.63273437 25.44578125 91.38265625 24.625 91.125 C12.17250166 86.63275673 0.04954104 79.30356326 -6.0078125 67.16796875 C-6.33523437 66.45253906 -6.66265625 65.73710937 -7 65 C-7.30679688 64.35675781 -7.61359375 63.71351563 -7.9296875 63.05078125 C-11.06554769 56.16682149 -11.16868233 49.74723295 -11.328125 42.27734375 C-12.17015246 38.17001211 -13.5781155 37.26192366 -17 35 C-19.69133108 31.41155857 -19.38477157 27.29940407 -19 23 C-17.25762355 14.63659302 -11.4152586 8.89949076 -4.734375 4.03125 C-3 3 -3 3 -1 3 C-0.67 2.01 -0.34 1.02 0 0 Z " fill="#0B0B09" transform="translate(96,238)"/>
<path d="M0 0 C-0.54835572 2.55012031 -0.9581801 3.94479774 -2.5625 6.0625 C-4.29792346 7.99946028 -4.29792346 7.99946028 -4 11 C0.25752112 10.27173981 2.22742669 8.13022004 5.21875 5.1796875 C7 4 7 4 9.078125 4.16015625 C11.9195481 5.40183504 13.22369605 7.52586236 15 10 C14.175 10.433125 13.35 10.86625 12.5 11.3125 C11.675 11.869375 10.85 12.42625 10 13 C10 13.99 10 14.98 10 16 C13.3 16 16.6 16 20 16 C23 23.625 23 23.625 23 27 C21.68 27.33 20.36 27.66 19 28 C19.61277612 30.96175123 20.25372522 32.38058783 22 35 C22 40.77378476 18.87456559 44.96158462 15 49 C12 50 12 50 9 50 C8.979375 50.598125 8.95875 51.19625 8.9375 51.8125 C8 54 8 54 4.6875 55.75 C1 57 1 57 -3 57 C-3 54.36 -3 51.72 -3 49 C-4.32 49 -5.64 49 -7 49 C-7.33 51.31 -7.66 53.62 -8 56 C-10.73019786 57.06528748 -11.79298812 57.07998186 -14.578125 56.00390625 C-15.90070313 55.29041016 -15.90070313 55.29041016 -17.25 54.5625 C-18.14203125 54.08941406 -19.0340625 53.61632812 -19.953125 53.12890625 C-20.62859375 52.75636719 -21.3040625 52.38382812 -22 52 C-21.33176566 48.09339925 -20.36042195 46.14722927 -18 43 C-17.28566879 40.35065178 -17.28566879 40.35065178 -17 38 C-19.53910197 38.38520564 -20.72751123 38.70097943 -22.484375 40.62890625 C-22.90203125 41.26699219 -23.3196875 41.90507812 -23.75 42.5625 C-24.17796875 43.20316406 -24.6059375 43.84382813 -25.046875 44.50390625 C-25.36140625 44.99761719 -25.6759375 45.49132812 -26 46 C-28.66404576 44.98949988 -29.97707828 44.02766415 -31.8125 41.8125 C-33.36406904 38.13773123 -32.95595025 35.82380101 -32 32 C-31.34 31.67 -30.68 31.34 -30 31 C-29.34786708 28.97536745 -29.34786708 28.97536745 -29 27 C-30.65 27 -32.3 27 -34 27 C-34 24.69 -34 22.38 -34 20 C-32.02 20.33 -30.04 20.66 -28 21 C-28.49756092 18.24358584 -28.49756092 18.24358584 -30 16 C-30.4375 13.75 -30.4375 13.75 -30 11 C-28.15533163 9.01550254 -26.20759137 7.60970204 -24 6 C-23.67 6.66 -23.34 7.32 -23 8 C-21.04105639 7.88693303 -21.04105639 7.88693303 -19 7 C-18.71125 6.195625 -18.4225 5.39125 -18.125 4.5625 C-17 2 -17 2 -14.5625 0.6875 C-9.68522685 -0.25372815 -4.95047165 -0.15855603 0 0 Z " fill="#FDFCFC" transform="translate(153,257)"/>
<path d="M0 0 C3.25754529 0.63049264 6.50533895 1.30656367 9.75 2 C10.52859375 2.165 11.3071875 2.33 12.109375 2.5 C14 3 14 3 15 4 C15.45378151 9.21848739 15.45378151 9.21848739 13.875 11.9375 C12 13 12 13 9.0625 13 C4.57120513 11.53345474 3.06969673 8.81848445 0.75 4.875 C0 3 0 3 0 0 Z " fill="#E6DAB8" transform="translate(132,333)"/>
<path d="M0 0 C-0.125 2.3125 -0.125 2.3125 -1 5 C-3 6 -5 7 -7 8 C-9.51331424 10.5233675 -11.77139173 13.22412994 -14 16 C-15.32 15.67 -16.64 15.34 -18 15 C-16.88048119 8.99411085 -12.56601083 5.24641678 -7.9375 1.5625 C-4.92739523 -0.03861956 -3.3433707 -0.39333773 0 0 Z " fill="#12110F" transform="translate(166,253)"/>
<path d="M0 0 C-1.33672737 3.59888139 -2.633934 6.95791514 -5 10 C-8.1875 10.8125 -8.1875 10.8125 -11 11 C-13.0625 8.6875 -13.0625 8.6875 -15 6 C-14 3 -14 3 -12.109375 2.05078125 C-4.24325381 -0.41063747 -4.24325381 -0.41063747 0 0 Z " fill="#EADDBB" transform="translate(219,334)"/>
<path d="M0 0 C1.32 0 2.64 0 4 0 C4.27440795 3.02376458 4.27285439 4.57462308 2.609375 7.16796875 C1.99578125 7.83441406 1.3821875 8.50085938 0.75 9.1875 C0.14671875 9.86167969 -0.4565625 10.53585937 -1.078125 11.23046875 C-3.87895129 13.80927832 -5.93426618 14.95155755 -9.75 15.125 C-10.4925 15.08375 -11.235 15.0425 -12 15 C-11.6198489 12.59744502 -11.39368739 11.33685587 -9.51171875 9.7265625 C-8.90972656 9.36304688 -8.30773437 8.99953125 -7.6875 8.625 C-4.80396963 6.73599337 -3.80888096 5.71059117 -1.8125 2.6875 C-1.214375 1.800625 -0.61625 0.91375 0 0 Z " fill="#1B1A17" transform="translate(132,295)"/>
<path d="M0 0 C1.32 0 2.64 0 4 0 C4.474377 7.28695785 4.28670939 11.97181491 0 18 C-1.32 18 -2.64 18 -4 18 C-3.31195504 11.80759538 -1.71951285 5.98044406 0 0 Z " fill="#191815" transform="translate(146,306)"/>
<path d="M0 0 C0.5625 1.9375 0.5625 1.9375 1 4 C-0.90423466 5.90423466 -4.28473113 5.4259749 -6.87109375 5.62109375 C-9.20927403 5.82776636 -9.20927403 5.82776636 -11 8 C-13.625 8.125 -13.625 8.125 -16 8 C-16.33 6.68 -16.66 5.36 -17 4 C-11.01990022 0.17938069 -6.96504398 -0.11608407 0 0 Z " fill="#0E0D0B" transform="translate(179,266)"/>
<path d="M0 0 C2.7841781 0.08188759 4.53384796 0.60480788 6.66796875 2.4140625 C9.51438406 5.4835935 10.91125039 7.1864619 11.375 11.4375 C11.25125 12.283125 11.1275 13.12875 11 14 C6.25 13.25 6.25 13.25 4 11 C3.87625 10.360625 3.7525 9.72125 3.625 9.0625 C2.79321332 6.31760397 1.35780394 5.52116383 -1 4 C-0.67 2.68 -0.34 1.36 0 0 Z " fill="#25231E" transform="translate(172,284)"/>
<path d="M0 0 C1.65 0.33 3.3 0.66 5 1 C4.71382812 1.54140625 4.42765625 2.0828125 4.1328125 2.640625 C2.8592283 5.29319347 1.86453042 7.97931482 0.875 10.75 C0.52179688 11.73484375 0.16859375 12.7196875 -0.1953125 13.734375 C-0.46085938 14.48203125 -0.72640625 15.2296875 -1 16 C-2.32 16 -3.64 16 -5 16 C-4.74213573 9.47603393 -4.17832479 5.12181749 0 0 Z " fill="#1E1C18" transform="translate(136,248)"/>
<path d="M0 0 C1.875 0 1.875 0 4 1 C5.06652192 3.30368736 6.06421005 5.64018187 7 8 C7.5775 8.556875 8.155 9.11375 8.75 9.6875 C9.36875 10.3371875 9.36875 10.3371875 10 11 C9.6875 13.1875 9.6875 13.1875 9 15 C5.31323596 14.4550001 3.95029925 13.20595757 1.75 10.25 C0.96882813 9.23679687 0.96882813 9.23679687 0.171875 8.203125 C-1.21660038 5.59279129 -1.29764719 3.91694248 -1 1 C-0.67 0.67 -0.34 0.34 0 0 Z " fill="#23211D" transform="translate(116,264)"/>
<path d="M0 0 C2 0.3125 2 0.3125 4 1 C5.26237731 3.52475462 5.09856404 5.31200466 5.0625 8.125 C5.05347656 9.03507812 5.04445312 9.94515625 5.03515625 10.8828125 C5.02355469 11.58148438 5.01195312 12.28015625 5 13 C3.34385343 13.38218767 1.67542976 13.71395102 0 14 C-1 13 -1 13 -1.1328125 10.3125 C-1.13023437 9.219375 -1.12765625 8.12625 -1.125 7 C-1.12757813 5.906875 -1.13015625 4.81375 -1.1328125 3.6875 C-1 1 -1 1 0 0 Z " fill="#635E50" transform="translate(162,306)"/>
<path d="M0 0 C1.40629862 2.81259725 0.52778783 4.15159789 -0.375 7.125 C-1.71923779 11.78379672 -2.54516647 16.17876456 -3 21 C-3.99 20.67 -4.98 20.34 -6 20 C-7.90458696 13.96880795 -5.73703302 9.38520133 -3 4 C-2.03344784 2.64222435 -1.04261924 1.30027801 0 0 Z " fill="#E6DAB8" transform="translate(88,249)"/>
<path d="M0 0 C-0.48 4.56 -0.48 4.56 -2.625 6.375 C-5.93928051 7.24717908 -8.67112389 6.64016848 -12 6 C-12 5.01 -12 4.02 -12 3 C-10.75336669 2.49166409 -9.50250613 1.99368855 -8.25 1.5 C-7.55390625 1.2215625 -6.8578125 0.943125 -6.140625 0.65625 C-4 0 -4 0 0 0 Z " fill="#1E1D19" transform="translate(124,284)"/>
<path d="M0 0 C0.66 0.33 1.32 0.66 2 1 C-1.63 4.63 -5.26 8.26 -9 12 C-8.01 12.66 -7.02 13.32 -6 14 C-7.32 14.33 -8.64 14.66 -10 15 C-10.69921875 13.25390625 -10.69921875 13.25390625 -11 11 C-9.70703125 8.96484375 -9.70703125 8.96484375 -7.8125 6.9375 C-7.20019531 6.26589844 -6.58789062 5.59429687 -5.95703125 4.90234375 C-4.07382307 3.07176015 -2.13741171 1.52130634 0 0 Z " fill="#3B3933" transform="translate(159,254)"/>
<path d="M0 0 C0.99 0 1.98 0 3 0 C4.1577506 3.47325181 4.06866652 6.36067448 4 10 C2.68 10 1.36 10 0 10 C0 6.7 0 3.4 0 0 Z " fill="#040403" transform="translate(162,308)"/>
<path d="M0 0 C0.66 0.33 1.32 0.66 2 1 C-1.63 4.63 -5.26 8.26 -9 12 C-9.66 11.67 -10.32 11.34 -11 11 C-7.33333333 7.33333333 -3.66666667 3.66666667 0 0 Z " fill="#C8BDA0" transform="translate(113,126)"/>
<path d="M0 0 C1 2 1 2 0.3125 5 C-1 8 -1 8 -3.125 9.375 C-3.74375 9.58125 -4.3625 9.7875 -5 10 C-3.84414715 6.08788267 -2.64465038 3.1254959 0 0 Z " fill="#C0B59A" transform="translate(88,249)"/>
<path d="M0 0 C3.375 -0.125 3.375 -0.125 7 0 C7.66 0.66 8.32 1.32 9 2 C6.02148438 2.34179688 6.02148438 2.34179688 3.04296875 2.68359375 C0.80603607 2.97170735 0.80603607 2.97170735 -2 4 C-1.34 2.68 -0.68 1.36 0 0 Z " fill="#ADA48B" transform="translate(122,36)"/>
<path d="M0 0 C1.32 0 2.64 0 4 0 C4.05391993 1.79133978 4.09275571 3.58313899 4.125 5.375 C4.14820313 6.37273437 4.17140625 7.37046875 4.1953125 8.3984375 C4 11 4 11 2 13 C2 9.7 2 6.4 2 3 C1.34 2.67 0.68 2.34 0 2 C0 1.34 0 0.68 0 0 Z " fill="#6B675C" transform="translate(146,306)"/>
<path d="M0 0 C0.66 0.33 1.32 0.66 2 1 C0.68 1.33 -0.64 1.66 -2 2 C-2.33 3.32 -2.66 4.64 -3 6 C-1.68 6.33 -0.36 6.66 1 7 C-0.65 7 -2.3 7 -4 7 C-4.33 5.68 -4.66 4.36 -5 3 C-2.625 1.4375 -2.625 1.4375 0 0 Z " fill="#55534D" transform="translate(167,267)"/>
<path d="M0 0 C0.78375 0.04125 1.5675 0.0825 2.375 0.125 C-0.24014317 2.24538635 -2.82137616 4.25591744 -5.625 6.125 C-4.86443086 2.32215429 -4.27658992 0.20364714 0 0 Z " fill="#CFC4A6" transform="translate(176.625,25.875)"/>
</svg>
