<?xml version="1.0" encoding="UTF-8"?>
<svg version="1.1" xmlns="http://www.w3.org/2000/svg" width="360" height="360">
<path d="M0 0 C3.81576113 2.96781421 4.94533212 6.71370975 5.6875 11.3125 C7.52899254 33.31984524 -0.22811229 56.05900626 -10.36157227 75.29443359 C-11.45458517 77.24221982 -11.45458517 77.24221982 -11.3125 79.3125 C-8.6725 79.6425 -6.0325 79.9725 -3.3125 80.3125 C-2.97105957 79.41233154 -2.62961914 78.51216309 -2.27783203 77.5847168 C15.38168071 31.18707564 15.38168071 31.18707564 27.6875 18.3125 C28.25984375 17.71179688 28.8321875 17.11109375 29.421875 16.4921875 C34.61250231 11.56347257 40.2833761 9.3125 47.4375 9.3125 C51.36845124 10.52202346 53.08489379 12.1740631 55.6875 15.3125 C58.8541813 21.64586261 57.04724645 32.21736392 55.1875 38.8125 C50.57614678 51.97172748 42.9265515 63.2689821 34.92236328 74.55761719 C32.43553683 78.09168372 30.06348882 81.70340306 27.6875 85.3125 C28.84636719 85.41433594 30.00523437 85.51617187 31.19921875 85.62109375 C35.66274413 86.1855378 39.41705821 87.53170816 43.5 89.375 C44.19504639 89.68663086 44.89009277 89.99826172 45.60620117 90.31933594 C66.80245413 100.16666483 81.24420359 118.84049049 89.28515625 140.33203125 C97.31255563 162.81193289 95.61927542 185.37711037 86.6875 207.3125 C84.87367468 210.87079849 82.9993105 214.05884858 80.1015625 216.828125 C78.43201983 218.36995593 78.43201983 218.36995593 77.6875 221.3125 C78.409375 221.56 79.13125 221.8075 79.875 222.0625 C86.08893621 224.82424943 89.94686392 229.16715063 92.6875 235.3125 C93.92205264 240.12273864 94.27084203 244.59001428 92.5625 249.3125 C90.44205143 252.70521771 89.3408709 253.06676041 85.6875 254.3125 C85.73390625 255.17230469 85.7803125 256.03210938 85.828125 256.91796875 C86.24087494 270.43552923 83.14310828 282.88139157 74.015625 293.203125 C67.03481031 299.82594919 57.63754642 305.03498419 48.5625 308.125 C45.64443676 309.32022148 44.86699879 309.95461732 43.4296875 312.8203125 C42.77212251 314.76194142 42.15293049 316.71702127 41.57421875 318.68359375 C40.38048668 322.2227201 38.60602085 324.03463007 35.6875 326.3125 C34.924375 326.93125 34.16125 327.55 33.375 328.1875 C30.16874565 329.52965298 27.97646764 329.7822093 24.55859375 329.2265625 C21.30706708 327.63813402 20.50912426 324.78869525 19.28125 321.5390625 C18.6875 319.3125 18.6875 319.3125 18.6875 316.3125 C17.15416016 316.55613281 17.15416016 316.55613281 15.58984375 316.8046875 C9.1657965 317.60468986 2.71303072 317.45709484 -3.75 317.4375 C-5.02166016 317.44136719 -6.29332031 317.44523437 -7.60351562 317.44921875 C-14.25876847 317.44231854 -20.71739432 317.21672559 -27.3125 316.3125 C-27.539375 317.199375 -27.76625 318.08625 -28 319 C-29.54145291 322.89033354 -31.05102349 324.70331879 -34.3125 327.3125 C-40.09879032 329.79233871 -40.09879032 329.79233871 -44 328.25 C-48.47945172 324.49694586 -50.65064338 320.82783697 -52.4375 315.3125 C-54.25404518 310.76280428 -55.52942838 308.59186372 -60 306.5 C-60.86625 306.15195312 -61.7325 305.80390625 -62.625 305.4453125 C-73.0477994 301.05198136 -82.06730634 292.58918024 -88.3125 283.3125 C-89.08787109 282.1678125 -89.08787109 282.1678125 -89.87890625 281 C-93.84294608 274.80059937 -98.3125 266.86544347 -98.3125 259.3125 C-99.16585937 259.51101563 -100.01921875 259.70953125 -100.8984375 259.9140625 C-104.76128521 260.36487539 -107.23396553 259.82371315 -110.9375 258.6875 C-112.04351562 258.36523438 -113.14953125 258.04296875 -114.2890625 257.7109375 C-117.80647654 256.08401989 -119.27205853 254.58306408 -121.3125 251.3125 C-123.1292382 243.9921137 -119.7756769 237.5423693 -116.1796875 231.3671875 C-113.23754093 226.86628778 -109.89550885 224.11322763 -105.3125 221.3125 C-104.3225 221.3125 -103.3325 221.3125 -102.3125 221.3125 C-102.3125 220.6525 -102.3125 219.9925 -102.3125 219.3125 C-102.993125 219.291875 -103.67375 219.27125 -104.375 219.25 C-108.94898943 217.79021614 -111.50723702 215.16008547 -114.3125 211.3125 C-123.58660381 192.81415314 -126.93515652 167.39087555 -121.34375 147.27734375 C-115.84081785 131.45641382 -105.96816133 114.52180003 -93.3125 103.3125 C-92.6525 103.3125 -91.9925 103.3125 -91.3125 103.3125 C-91.3125 102.6525 -91.3125 101.9925 -91.3125 101.3125 C-82.05684876 91.76940617 -66.61095791 87.84342784 -54.0390625 84.73046875 C-52.96479004 84.46387451 -51.89051758 84.19728027 -50.78369141 83.92260742 C-49.96819824 83.72127197 -49.15270508 83.51993652 -48.3125 83.3125 C-47.96638672 81.84949463 -47.96638672 81.84949463 -47.61328125 80.35693359 C-32.58666058 17.16284943 -32.58666058 17.16284943 -13.375 0.8125 C-8.8082335 -1.42428359 -4.94880314 -1.4712658 0 0 Z " fill="#FBEDC8" transform="translate(181.3125,21.6875)"/>
<path d="M0 0 C3.81576113 2.96781421 4.94533212 6.71370975 5.6875 11.3125 C7.52899254 33.31984524 -0.22811229 56.05900626 -10.36157227 75.29443359 C-11.45458517 77.24221982 -11.45458517 77.24221982 -11.3125 79.3125 C-8.6725 79.6425 -6.0325 79.9725 -3.3125 80.3125 C-2.97105957 79.41233154 -2.62961914 78.51216309 -2.27783203 77.5847168 C15.38168071 31.18707564 15.38168071 31.18707564 27.6875 18.3125 C28.25984375 17.71179688 28.8321875 17.11109375 29.421875 16.4921875 C34.61250231 11.56347257 40.2833761 9.3125 47.4375 9.3125 C51.36845124 10.52202346 53.08489379 12.1740631 55.6875 15.3125 C58.8541813 21.64586261 57.04724645 32.21736392 55.1875 38.8125 C50.57614678 51.97172748 42.9265515 63.2689821 34.92236328 74.55761719 C32.43553683 78.09168372 30.06348882 81.70340306 27.6875 85.3125 C28.84636719 85.41433594 30.00523437 85.51617187 31.19921875 85.62109375 C35.66274413 86.1855378 39.41705821 87.53170816 43.5 89.375 C44.19504639 89.68663086 44.89009277 89.99826172 45.60620117 90.31933594 C66.80245413 100.16666483 81.24420359 118.84049049 89.28515625 140.33203125 C97.31255563 162.81193289 95.61927542 185.37711037 86.6875 207.3125 C84.87367468 210.87079849 82.9993105 214.05884858 80.1015625 216.828125 C78.43201983 218.36995593 78.43201983 218.36995593 77.6875 221.3125 C78.409375 221.56 79.13125 221.8075 79.875 222.0625 C86.08893621 224.82424943 89.94686392 229.16715063 92.6875 235.3125 C93.92205264 240.12273864 94.27084203 244.59001428 92.5625 249.3125 C90.44205143 252.70521771 89.3408709 253.06676041 85.6875 254.3125 C85.73390625 255.17230469 85.7803125 256.03210938 85.828125 256.91796875 C86.24087494 270.43552923 83.14310828 282.88139157 74.015625 293.203125 C67.03481031 299.82594919 57.63754642 305.03498419 48.5625 308.125 C45.64443676 309.32022148 44.86699879 309.95461732 43.4296875 312.8203125 C42.77212251 314.76194142 42.15293049 316.71702127 41.57421875 318.68359375 C40.38048668 322.2227201 38.60602085 324.03463007 35.6875 326.3125 C34.924375 326.93125 34.16125 327.55 33.375 328.1875 C30.16874565 329.52965298 27.97646764 329.7822093 24.55859375 329.2265625 C21.30706708 327.63813402 20.50912426 324.78869525 19.28125 321.5390625 C18.6875 319.3125 18.6875 319.3125 18.6875 316.3125 C17.15416016 316.55613281 17.15416016 316.55613281 15.58984375 316.8046875 C9.1657965 317.60468986 2.71303072 317.45709484 -3.75 317.4375 C-5.02166016 317.44136719 -6.29332031 317.44523437 -7.60351562 317.44921875 C-14.25876847 317.44231854 -20.71739432 317.21672559 -27.3125 316.3125 C-27.539375 317.199375 -27.76625 318.08625 -28 319 C-29.54145291 322.89033354 -31.05102349 324.70331879 -34.3125 327.3125 C-40.09879032 329.79233871 -40.09879032 329.79233871 -44 328.25 C-48.47945172 324.49694586 -50.65064338 320.82783697 -52.4375 315.3125 C-54.25404518 310.76280428 -55.52942838 308.59186372 -60 306.5 C-60.86625 306.15195312 -61.7325 305.80390625 -62.625 305.4453125 C-73.0477994 301.05198136 -82.06730634 292.58918024 -88.3125 283.3125 C-89.08787109 282.1678125 -89.08787109 282.1678125 -89.87890625 281 C-93.84294608 274.80059937 -98.3125 266.86544347 -98.3125 259.3125 C-99.16585937 259.51101563 -100.01921875 259.70953125 -100.8984375 259.9140625 C-104.76128521 260.36487539 -107.23396553 259.82371315 -110.9375 258.6875 C-112.04351562 258.36523438 -113.14953125 258.04296875 -114.2890625 257.7109375 C-117.80647654 256.08401989 -119.27205853 254.58306408 -121.3125 251.3125 C-123.1292382 243.9921137 -119.7756769 237.5423693 -116.1796875 231.3671875 C-113.23754093 226.86628778 -109.89550885 224.11322763 -105.3125 221.3125 C-104.3225 221.3125 -103.3325 221.3125 -102.3125 221.3125 C-102.5625 223.6875 -102.5625 223.6875 -103.3125 226.3125 C-105.25 227.375 -105.25 227.375 -107.3125 228.3125 C-108.58054566 230.3460948 -108.58054566 230.3460948 -109.3125 232.3125 C-109.9725 232.3125 -110.6325 232.3125 -111.3125 232.3125 C-111.60125 232.89 -111.89 233.4675 -112.1875 234.0625 C-112.87984111 235.44718221 -113.59635563 236.82045218 -114.3515625 238.171875 C-115.99482374 241.83247321 -116.11672252 245.3990958 -115.3125 249.3125 C-112.70456963 251.98562863 -110.88025765 253.14673351 -107.1328125 253.54296875 C-105.19126478 253.56024231 -103.24952355 253.44608783 -101.3125 253.3125 C-101.25850264 251.85457116 -101.21970823 250.39607288 -101.1875 248.9375 C-101.16429688 248.12539063 -101.14109375 247.31328125 -101.1171875 246.4765625 C-101.09879949 244.09907757 -101.09879949 244.09907757 -103.3125 242.3125 C-103.3125 240.9925 -103.3125 239.6725 -103.3125 238.3125 C-101.9925 237.9825 -100.6725 237.6525 -99.3125 237.3125 C-98.6525 234.6725 -97.9925 232.0325 -97.3125 229.3125 C-95.9925 229.6425 -94.6725 229.9725 -93.3125 230.3125 C-93.4775 231.488125 -93.6425 232.66375 -93.8125 233.875 C-95.86275707 253.36774263 -91.76891851 268.02896565 -80.48828125 283.875 C-77.76031363 286.93110735 -74.74783935 289.33233177 -71.5 291.8125 C-70.90896484 292.27269531 -70.31792969 292.73289062 -69.70898438 293.20703125 C-63.53022918 297.99101837 -57.67032697 302.47263696 -50.3125 305.3125 C-49.1575 305.828125 -48.0025 306.34375 -46.8125 306.875 C-35.02132084 311.17824774 -21.44336515 310.68691459 -9.0625 310.625 C-8.24657379 310.62218018 -7.43064758 310.61936035 -6.58999634 310.61645508 C17.93067234 310.48918881 45.0481048 307.52172686 64.6875 291.3125 C65.3990625 290.75304687 66.110625 290.19359375 66.84375 289.6171875 C74.07849086 283.71672262 77.92814856 276.53919517 79.6875 267.3125 C80.97647046 254.0826183 81.15926852 239.09041598 75 227 C73.22991767 223.3755457 72.76279485 220.2094717 73.6875 216.3125 C75.02104932 214.11927265 76.52906809 212.21470792 78.16015625 210.234375 C82.23505328 205.10688308 83.21273648 199.25902321 84.16015625 192.9609375 C84.70603567 190.21940975 85.63960855 187.89757073 86.6875 185.3125 C90.7967771 170.41305658 88.1700243 151.5493249 80.66796875 138.18359375 C79.5416478 136.03416055 78.79963467 133.85285631 78 131.5625 C71.27877589 114.53714243 55.14031403 102.16037027 38.8125 95 C32.33922622 92.58859834 25.46935293 91.50610612 18.6875 90.3125 C18.6875 85.37914247 20.54714487 83.57701441 23.5625 80 C38.96143429 61.05668814 51.84651629 42.43588242 50.6875 17.3125 C49.08868127 15.71368127 47.46545389 15.8741373 45.25 15.6875 C39.2011803 15.77378844 36.25541459 18.37492583 32.0859375 22.53125 C26.91041163 28.532837 22.49851646 34.88163911 19.6875 42.3125 C19.07891878 43.57057547 18.45441872 44.82110347 17.8125 46.0625 C14.38960302 52.83222957 11.47364092 59.77682719 8.6953125 66.83203125 C7.71155292 69.25329998 6.65144829 71.62447947 5.5625 74 C4.31374223 76.74629151 3.32342925 79.39362296 2.5625 82.3125 C2.27375 83.3025 1.985 84.2925 1.6875 85.3125 C-1.61269163 86.96259582 -5.21492706 86.17379379 -8.8125 85.9375 C-9.59753906 85.89367187 -10.38257813 85.84984375 -11.19140625 85.8046875 C-17.05188968 85.44280516 -17.05188968 85.44280516 -19.3125 84.3125 C-18.79038304 79.82229418 -17.61490789 77.14053253 -15.3125 73.3125 C-14.45630577 71.28876818 -13.64600395 69.24519578 -12.875 67.1875 C-12.44316406 66.03507812 -12.01132813 64.88265625 -11.56640625 63.6953125 C-11.15261719 62.57898438 -10.73882812 61.46265625 -10.3125 60.3125 C-9.80009766 58.97832031 -9.80009766 58.97832031 -9.27734375 57.6171875 C-7.14131809 51.96147583 -5.33715071 46.23266142 -3.625 40.4375 C-3.30305664 39.34840332 -3.30305664 39.34840332 -2.97460938 38.23730469 C-1.03927307 31.57492492 -0.11017388 25.71329348 -0.0625 18.8125 C-0.041875 18.06613281 -0.02125 17.31976563 0 16.55078125 C0.03217226 12.00644882 -0.29437854 8.9626516 -3.3125 5.3125 C-6.18226283 4.47766674 -6.18226283 4.47766674 -9.3125 5.3125 C-25.8000712 15.83648161 -31.49961756 40.65273974 -36.3125 58.3125 C-36.54598145 59.15586914 -36.77946289 59.99923828 -37.02001953 60.86816406 C-39.52515988 69.9451632 -41.90855413 78.9877849 -43.3125 88.3125 C-44.611875 88.539375 -45.91125 88.76625 -47.25 89 C-57.7276881 91.11941839 -68.64648016 93.60710578 -77.74609375 99.39453125 C-79.3125 100.3125 -79.3125 100.3125 -81.3125 100.3125 C-81.3125 100.9725 -81.3125 101.6325 -81.3125 102.3125 C-82.73389894 103.29394212 -84.16063449 104.26855506 -85.61328125 105.203125 C-97.62819331 113.04734345 -107.14742919 126.69050511 -111.3125 140.3125 C-111.9725 140.3125 -112.6325 140.3125 -113.3125 140.3125 C-113.44527344 141.19292969 -113.57804687 142.07335937 -113.71484375 142.98046875 C-113.89144531 144.14191406 -114.06804687 145.30335938 -114.25 146.5 C-114.42402344 147.64855469 -114.59804687 148.79710937 -114.77734375 149.98046875 C-115.08357508 151.88714993 -115.42332552 153.79063296 -115.859375 155.671875 C-118.73256257 172.41562326 -116.7009012 196.3497308 -106.7265625 210.57421875 C-105.67650196 211.94718524 -104.59877365 213.29981416 -103.484375 214.62109375 C-102.3125 216.3125 -102.3125 216.3125 -102.3125 219.3125 C-105.99575659 219.20088616 -108.13505829 217.93528751 -110.8125 215.5625 C-123.62322944 201.91628821 -123.95434288 177.45550191 -123.44433594 159.81933594 C-122.38920755 139.75626496 -109.06875627 119.49126022 -95.5 105.25 C-93.3125 103.3125 -93.3125 103.3125 -91.3125 103.3125 C-91.3125 102.6525 -91.3125 101.9925 -91.3125 101.3125 C-82.05684876 91.76940617 -66.61095791 87.84342784 -54.0390625 84.73046875 C-52.96479004 84.46387451 -51.89051758 84.19728027 -50.78369141 83.92260742 C-49.96819824 83.72127197 -49.15270508 83.51993652 -48.3125 83.3125 C-47.96638672 81.84949463 -47.96638672 81.84949463 -47.61328125 80.35693359 C-32.58666058 17.16284943 -32.58666058 17.16284943 -13.375 0.8125 C-8.8082335 -1.42428359 -4.94880314 -1.4712658 0 0 Z " fill="#0B0A09" transform="translate(181.3125,21.6875)"/>
<path d="M0 0 C7.16740778 1.57682971 11.59228921 4.70181421 15.8125 10.6875 C18.80590542 15.82181998 19.7821664 21.27441791 18.5546875 27.12109375 C17.875 29 17.875 29 16 32 C13.3828125 33.1875 13.3828125 33.1875 11 34 C11.04640625 34.85980469 11.0928125 35.71960938 11.140625 36.60546875 C11.55337494 50.12302923 8.45560828 62.56889157 -0.671875 72.890625 C-7.65268969 79.51344919 -17.04995358 84.72248419 -26.125 87.8125 C-29.04306324 89.00772148 -29.82050121 89.64211732 -31.2578125 92.5078125 C-31.91537749 94.44944142 -32.53456951 96.40452127 -33.11328125 98.37109375 C-34.30701332 101.9102201 -36.08147915 103.72213007 -39 106 C-39.763125 106.61875 -40.52625 107.2375 -41.3125 107.875 C-44.51875435 109.21715298 -46.71103236 109.4697093 -50.12890625 108.9140625 C-53.38043292 107.32563402 -54.17837574 104.47619525 -55.40625 101.2265625 C-56 99 -56 99 -56 96 C-57.02222656 96.16242188 -58.04445312 96.32484375 -59.09765625 96.4921875 C-65.5217035 97.29218986 -71.97446928 97.14459484 -78.4375 97.125 C-80.34499023 97.13080078 -80.34499023 97.13080078 -82.29101562 97.13671875 C-88.94626847 97.12981854 -95.40489432 96.90422559 -102 96 C-102.226875 96.886875 -102.45375 97.77375 -102.6875 98.6875 C-104.22895291 102.57783354 -105.73852349 104.39081879 -109 107 C-114.78629032 109.47983871 -114.78629032 109.47983871 -118.6875 107.9375 C-123.16695172 104.18444586 -125.33814338 100.51533697 -127.125 95 C-128.94154518 90.45030428 -130.21692838 88.27936372 -134.6875 86.1875 C-135.55375 85.83945312 -136.42 85.49140625 -137.3125 85.1328125 C-147.7352994 80.73948136 -156.75480634 72.27668024 -163 63 C-163.51691406 62.236875 -164.03382813 61.47375 -164.56640625 60.6875 C-168.53044608 54.48809937 -173 46.55294347 -173 39 C-174.28003906 39.29777344 -174.28003906 39.29777344 -175.5859375 39.6015625 C-179.44878521 40.05237539 -181.92146553 39.51121315 -185.625 38.375 C-186.73101562 38.05273438 -187.83703125 37.73046875 -188.9765625 37.3984375 C-192.49397654 35.77151989 -193.95955853 34.27056408 -196 31 C-197.8167382 23.6796137 -194.4631769 17.2298693 -190.8671875 11.0546875 C-187.92504093 6.55378778 -184.58300885 3.80072763 -180 1 C-179.01 1 -178.02 1 -177 1 C-177.25 3.375 -177.25 3.375 -178 6 C-179.9375 7.0625 -179.9375 7.0625 -182 8 C-183.26804566 10.0335948 -183.26804566 10.0335948 -184 12 C-184.66 12 -185.32 12 -186 12 C-186.28875 12.5775 -186.5775 13.155 -186.875 13.75 C-187.56734111 15.13468221 -188.28385563 16.50795218 -189.0390625 17.859375 C-190.68232374 21.51997321 -190.80422252 25.0865958 -190 29 C-187.39206963 31.67312863 -185.56775765 32.83423351 -181.8203125 33.23046875 C-179.87876478 33.24774231 -177.93702355 33.13358783 -176 33 C-175.94600264 31.54207116 -175.90720823 30.08357288 -175.875 28.625 C-175.85179687 27.81289063 -175.82859375 27.00078125 -175.8046875 26.1640625 C-175.78629949 23.78657757 -175.78629949 23.78657757 -178 22 C-178 20.68 -178 19.36 -178 18 C-176.68 17.67 -175.36 17.34 -174 17 C-173.34 14.36 -172.68 11.72 -172 9 C-170.68 9.33 -169.36 9.66 -168 10 C-168.165 11.175625 -168.33 12.35125 -168.5 13.5625 C-170.55025707 33.05524263 -166.45641851 47.71646565 -155.17578125 63.5625 C-152.44781363 66.61860735 -149.43533935 69.01983177 -146.1875 71.5 C-145.59646484 71.96019531 -145.00542969 72.42039062 -144.39648438 72.89453125 C-138.21772918 77.67851837 -132.35782697 82.16013696 -125 85 C-123.845 85.515625 -122.69 86.03125 -121.5 86.5625 C-109.70882084 90.86574774 -96.13086515 90.37441459 -83.75 90.3125 C-82.93407379 90.30968018 -82.11814758 90.30686035 -81.27749634 90.30395508 C-56.75682766 90.17668881 -29.6393952 87.20922686 -10 71 C-9.2884375 70.44054687 -8.576875 69.88109375 -7.84375 69.3046875 C-0.60900914 63.40422262 3.24064856 56.22669517 5 47 C6.29098672 33.74942351 6.02994463 19.78700839 0.90625 7.34375 C-0.09963085 4.74233402 -0.15798362 2.76471343 0 0 Z " fill="#0B0B09" transform="translate(256,242)"/>
<path d="M0 0 C0 4.41058884 -0.48664181 4.75357901 -3 8 C-3 8.99 -3 9.98 -3 11 C0.41019899 10.41795291 2.00486226 9.29078344 4.4375 6.875 C7.64827191 4.00799382 7.64827191 4.00799382 10.75 3.9375 C13.10203884 5.04818501 14.4657565 5.90050889 16 8 C16 8.99 16 9.98 16 11 C14.02 11.33 12.04 11.66 10 12 C10 13.65 10 15.3 10 17 C10.86625 16.67 11.7325 16.34 12.625 16 C15.95718275 15.01268659 18.55159538 14.83579026 22 15 C23.59138085 19.17737474 24.21278058 22.53160785 24 27 C22.35 27 20.7 27 19 27 C19 28.65 19 30.3 19 32 C20.32 32.66 21.64 33.32 23 34 C22.73698636 40.31232726 20.62849148 44.61736373 16 49 C13.05633483 49.90574313 11.01622577 50 8 50 C7.938125 50.78375 7.87625 51.5675 7.8125 52.375 C7 55 7 55 4.6875 56.3125 C2 57 2 57 -2 57 C-2.33 54.69 -2.66 52.38 -3 50 C-4.98 50.495 -4.98 50.495 -7 51 C-7.33 52.98 -7.66 54.96 -8 57 C-13.20540698 56.03603575 -17.59913433 55.12319499 -22 52 C-20.99714388 49.30000274 -19.94037507 46.90221511 -18.4375 44.4375 C-17.12887975 42.21853522 -16.46467564 40.50924843 -16 38 C-18.53910197 38.38520564 -19.72751123 38.70097943 -21.484375 40.62890625 C-21.90203125 41.26699219 -22.3196875 41.90507812 -22.75 42.5625 C-23.17796875 43.20316406 -23.6059375 43.84382813 -24.046875 44.50390625 C-24.36140625 44.99761719 -24.6759375 45.49132812 -25 46 C-26.859375 45.7421875 -26.859375 45.7421875 -29 45 C-30.265625 43.2578125 -30.265625 43.2578125 -31.25 41.125 C-31.58515625 40.42632812 -31.9203125 39.72765625 -32.265625 39.0078125 C-33 37 -33 37 -33 34 C-31.515 33.505 -31.515 33.505 -30 33 C-28.77479736 29.99152582 -28.77479736 29.99152582 -28 27 C-29.65 27 -31.3 27 -33 27 C-32.67 25.02 -32.34 23.04 -32 21 C-30.35 21 -28.7 21 -27 21 C-27.57584432 18.61435923 -28.22227595 16.33317216 -29 14 C-26.35462492 11.04340432 -24.64597364 9.2026584 -20.8125 8 C-19.884375 7.67 -18.95625 7.34 -18 7 C-17.67 6.175 -17.34 5.35 -17 4.5 C-16 2 -16 2 -13.5 0.6875 C-8.95892712 -0.20449646 -4.61089441 -0.16402391 0 0 Z " fill="#FDFCFC" transform="translate(209,257)"/>
<path d="M0 0 C-0.53255435 4.52671196 -2.21559872 7.4200555 -5 11 C-8.0255625 13.08007422 -9.14475109 13 -13 13 C-15.29013653 9.5647952 -15.17842973 8.014669 -15 4 C-13.72942818 3.52014033 -12.45853152 3.0411407 -11.1875 2.5625 C-10.47980469 2.29566406 -9.77210938 2.02882813 -9.04296875 1.75390625 C-5.72135992 0.52815003 -3.62883651 0 0 0 Z " fill="#E5D8B7" transform="translate(220,333)"/>
<path d="M0 0 C-0.125 1.8125 -0.125 1.8125 -1 4 C-1.86625 4.4125 -2.7325 4.825 -3.625 5.25 C-8.18374377 7.61379306 -10.82168318 11.04120893 -14 15 C-15.32 14.67 -16.64 14.34 -18 14 C-17.87959573 10.02665924 -16.42754067 8.11062182 -13.75 5.375 C-5.98651961 -1.88147759 -5.98651961 -1.88147759 0 0 Z " fill="#1F1D19" transform="translate(223,254)"/>
<path d="M0 0 C5.05531868 0.77774134 10.01716284 1.85948394 15 3 C14.64005447 5.6635969 14.28838998 7.58183452 12.75 9.8125 C10.31809822 11.46271906 8.89184268 11.38702857 6 11 C4.19921875 9.1015625 4.19921875 9.1015625 2.6875 6.625 C1.91986328 5.40683594 1.91986328 5.40683594 1.13671875 4.1640625 C0 2 0 2 0 0 Z " fill="#ECDFBC" transform="translate(133,334)"/>
<path d="M0 0 C1.32 0 2.64 0 4 0 C3.54420068 4.89984267 2.43739487 7.46970256 -1 11 C-4.76028487 13.96022426 -7.1551904 15.5699776 -12 15 C-12 13.68 -12 12.36 -12 11 C-10.948125 10.484375 -9.89625 9.96875 -8.8125 9.4375 C-5.80822755 7.75971075 -4.18182179 6.12992388 -2.3125 3.25 C-1.549375 2.1775 -0.78625 1.105 0 0 Z " fill="#171613" transform="translate(189,295)"/>
<path d="M0 0 C2.125 0.375 2.125 0.375 4 1 C3.69343615 7.62177926 2.25711277 12.22125154 -1 18 C-2.32 17.67 -3.64 17.34 -5 17 C-4.49396008 14.83125748 -4.00016187 13.00032373 -3 11 C-2.72975292 8.70075503 -2.55502159 6.40198513 -2.37890625 4.09375 C-2 2 -2 2 0 0 Z " fill="#282723" transform="translate(203,306)"/>
<path d="M0 0 C1.32 0 2.64 0 4 0 C3.34309381 3.78239671 2.279869 7.21841526 0.9375 10.8125 C0.57527344 11.78832031 0.21304688 12.76414062 -0.16015625 13.76953125 C-0.57587891 14.87361328 -0.57587891 14.87361328 -1 16 C-2.65 15.67 -4.3 15.34 -6 15 C-5.64017119 9.24273906 -4.099893 4.25460594 0 0 Z " fill="#25231E" transform="translate(193,248)"/>
<path d="M0 0 C4.85042388 0.41575062 6.84319505 2.41659978 10 6 C12.1519437 9.22791555 12.20086443 10.28400809 12 14 C9.75 13.875 9.75 13.875 7 13 C4.875 10.0625 4.875 10.0625 3 7 C2.01 6.34 1.02 5.68 0 5 C-0.1875 2.375 -0.1875 2.375 0 0 Z " fill="#25231E" transform="translate(228,284)"/>
<path d="M0 0 C0.33 1.32 0.66 2.64 1 4 C-0.87422152 4.48220263 -2.74941754 4.96061833 -4.625 5.4375 C-5.66914063 5.70433594 -6.71328125 5.97117187 -7.7890625 6.24609375 C-10.84891124 6.96452539 -13.8948051 7.51976716 -17 8 C-17 6.35 -17 4.7 -17 3 C-11.06108578 0.4084738 -6.45892714 -0.40368295 0 0 Z " fill="#151512" transform="translate(236,266)"/>
<path d="M0 0 C1.32 0 2.64 0 4 0 C4.61875 1.60875 4.61875 1.60875 5.25 3.25 C6.36841497 5.92236654 7.10891642 7.10589096 9.25 9.1875 C9.8275 9.785625 10.405 10.38375 11 11 C10.75 13.25 10.75 13.25 10 15 C6.06667508 14.47671952 4.59450147 12.81069239 2.1875 9.75 C1.56230469 8.98171875 0.93710938 8.2134375 0.29296875 7.421875 C-1 5 -1 5 -0.69921875 2.203125 C-0.46847656 1.47609375 -0.23773438 0.7490625 0 0 Z " fill="#1E1D1A" transform="translate(172,264)"/>
<path d="M0 0 C1.5 1.375 1.5 1.375 3 3 C3 3.66 3 4.32 3 5 C3.66 5 4.32 5 5 5 C7.59227518 9.86051596 7.18689553 14.65271133 7 20 C5.68 20 4.36 20 3 20 C2.86722656 18.97519531 2.73445313 17.95039063 2.59765625 16.89453125 C2.41935912 15.5338426 2.24096877 14.17316615 2.0625 12.8125 C1.97548828 12.13896484 1.88847656 11.46542969 1.79882812 10.77148438 C1.32174523 7.14918834 0.76987965 3.57196415 0 0 Z " fill="#C8BDA0" transform="translate(263,249)"/>
<path d="M0 0 C0.99 0 1.98 0 3 0 C3.8723412 2.99480917 4.10829766 5.63575911 4.0625 8.75 C4.05347656 9.54921875 4.04445312 10.3484375 4.03515625 11.171875 C4.01775391 12.07679688 4.01775391 12.07679688 4 13 C2.0625 13.5625 2.0625 13.5625 0 14 C-1 13 -1 13 -1.1328125 10.3125 C-1.13023437 9.219375 -1.12765625 8.12625 -1.125 7 C-1.12757813 5.906875 -1.13015625 4.81375 -1.1328125 3.6875 C-1 1 -1 1 0 0 Z " fill="#141310" transform="translate(219,306)"/>
<path d="M0 0 C-0.1875 2.375 -0.1875 2.375 -1 5 C-4.05715786 6.92164209 -5.7129895 7.03249175 -9.3125 6.625 C-10.199375 6.41875 -11.08625 6.2125 -12 6 C-11.67 4.68 -11.34 3.36 -11 2 C-7.12315913 0.80712589 -4.08378077 0 0 0 Z " fill="#1D1C18" transform="translate(181,284)"/>
<path d="M0 0 C0.66 0.33 1.32 0.66 2 1 C-2.62 5.62 -7.24 10.24 -12 15 C-12.66 14.67 -13.32 14.34 -14 14 C-9.67106815 8.81580806 -5.23435005 4.27293882 0 0 Z " fill="#CEC2A5" transform="translate(96,125)"/>
<path d="M0 0 C0.99 0 1.98 0 3 0 C3 0.99 3 1.98 3 3 C2.01 3.495 2.01 3.495 1 4 C0.53348793 6.12576782 0.53348793 6.12576782 0.375 8.5625 C0.30023438 9.38878906 0.22546875 10.21507812 0.1484375 11.06640625 C0.09945312 11.70449219 0.05046875 12.34257812 0 13 C-0.33 13 -0.66 13 -1 13 C-1.02686553 11.02090602 -1.04633375 9.04171029 -1.0625 7.0625 C-1.07410156 5.96035156 -1.08570313 4.85820312 -1.09765625 3.72265625 C-1 1 -1 1 0 0 Z " fill="#36342D" transform="translate(219,306)"/>
<path d="M0 0 C0.66 0 1.32 0 2 0 C2 2.31 2 4.62 2 7 C1.01 7.33 0.02 7.66 -1 8 C-1.04241723 5.66705225 -1.04092937 3.33297433 -1 1 C-0.67 0.67 -0.34 0.34 0 0 Z " fill="#F1E4C0" transform="translate(268,262)"/>
<path d="M0 0 C1.32 0 2.64 0 4 0 C3.67 1.32 3.34 2.64 3 4 C3 3.34 3 2.68 3 2 C1.35 3.32 -0.3 4.64 -2 6 C-2.66 5.67 -3.32 5.34 -4 5 C-2.25 2.5 -2.25 2.5 0 0 Z " fill="#413E38" transform="translate(189,295)"/>
<path d="M0 0 C1.32 0 2.64 0 4 0 C3.67 0.99 3.34 1.98 3 3 C2.34 2.67 1.68 2.34 1 2 C0.67 3.32 0.34 4.64 0 6 C-0.38218767 4.34385343 -0.71395102 2.67542976 -1 1 C-0.67 0.67 -0.34 0.34 0 0 Z " fill="#4F4B40" transform="translate(172,264)"/>
<path d="M0 0 C0.66 0 1.32 0 2 0 C0.70700306 2.88437779 -0.65941363 4.87219421 -3 7 C-3.66 6.67 -4.32 6.34 -5 6 C-3.38405168 3.95880212 -1.7143618 1.95927063 0 0 Z " fill="#C7BC9F" transform="translate(168,29)"/>
</svg>
