<?xml version="1.0" encoding="UTF-8"?>
<svg version="1.1" xmlns="http://www.w3.org/2000/svg" width="360" height="360">
<path d="M0 0 C5.34055096 1.81415662 7.44991883 6.51446265 9.83203125 11.2265625 C17.31399939 27.22447899 20.15801808 43.36221176 22.62402344 60.73681641 C22.98179438 63.23997362 23.35509831 65.73953385 23.7421875 68.23828125 C24.58988222 73.80799372 25.13125706 79.04874606 25.046875 84.6953125 C28.676875 84.3653125 32.306875 84.0353125 36.046875 83.6953125 C35.593125 82.0453125 35.139375 80.3953125 34.671875 78.6953125 C29.27580594 56.62513432 25.96326171 26.09453064 38.046875 5.6953125 C40.76499774 2.16909922 42.30553623 0.93359996 46.546875 -0.4296875 C50.046875 -0.3046875 50.046875 -0.3046875 52.734375 1.6328125 C57.14701935 7.47658475 59.69846739 13.85568104 61.609375 20.8828125 C61.81916992 21.64746826 62.02896484 22.41212402 62.24511719 23.19995117 C64.692946 32.56600802 65.94711846 42.09145726 67.046875 51.6953125 C67.17964844 52.8090625 67.31242188 53.9228125 67.44921875 55.0703125 C68.53142743 66.21854434 68.13578662 77.50749537 68.046875 88.6953125 C68.84971924 88.75614014 69.65256348 88.81696777 70.47973633 88.87963867 C85.37835781 90.18950476 99.75505868 98.19951736 111.046875 107.6953125 C111.97886719 108.46617188 112.91085937 109.23703125 113.87109375 110.03125 C130.16409286 124.12369397 138.62483692 141.711244 140.796875 163.0078125 C142.14406156 186.5979091 136.03211799 206.5711364 122.6875 225.97265625 C120.83254991 227.92035384 119.67635293 228.33518835 117.046875 228.6953125 C117.376875 229.3553125 117.706875 230.0153125 118.046875 230.6953125 C119.3771875 231.035625 119.3771875 231.035625 120.734375 231.3828125 C125.71494673 233.35624658 128.38901413 237.01722956 131.1640625 241.5 C133.42906097 247.13242982 133.83622736 254.4038621 132.42578125 260.28515625 C130.78873985 263.93283772 129.37827042 265.478891 125.984375 267.6953125 C123.046875 268.6953125 123.046875 268.6953125 120.046875 268.6953125 C119.98371094 269.2315625 119.92054688 269.7678125 119.85546875 270.3203125 C117.29520435 286.70600464 108.17056212 304.13049637 94.9921875 314.27734375 C88.09595601 319.12433919 80.4222313 323.29439859 72.046875 324.6953125 C71.799375 325.8709375 71.551875 327.0465625 71.296875 328.2578125 C69.9077057 333.80463744 67.93618582 338.43577195 63.046875 341.6953125 C56.12191863 342.47716241 56.12191863 342.47716241 52.296875 339.6953125 C50.48084429 337.27393823 49.21644633 335.19426548 47.90625 332.5078125 C47.55530273 331.79238281 47.20435547 331.07695312 46.84277344 330.33984375 C46.58012695 329.79714844 46.31748047 329.25445312 46.046875 328.6953125 C44.73976563 328.71851563 43.43265625 328.74171875 42.0859375 328.765625 C31.5318327 328.89279486 21.29777305 328.51201878 10.83203125 327.1328125 C7.52168117 326.75019206 4.37350932 326.61201649 1.046875 326.6953125 C0.82773438 327.28699219 0.60859375 327.87867188 0.3828125 328.48828125 C-1.85962048 334.07613254 -3.78102536 337.48861072 -8.953125 340.6953125 C-12.40351123 341.25864086 -14.33017059 340.93262847 -17.578125 339.6953125 C-21.54682752 336.35324722 -23.69257889 332.36694405 -24.19921875 327.171875 C-24.20264915 324.99700182 -24.13368818 322.86207065 -23.953125 320.6953125 C-24.82453125 320.5921875 -25.6959375 320.4890625 -26.59375 320.3828125 C-39.77291811 317.68568042 -50.91143813 306.10982431 -58.265625 295.44921875 C-61.89507244 289.52616216 -63.84813546 283.93729604 -64.765625 277.0703125 C-65.56920688 271.85071643 -67.53266292 269.16753662 -71.296875 265.546875 C-75.13613813 261.25486858 -75.2487481 256.84406766 -75.265625 251.2578125 C-75.28238281 249.98035156 -75.29914063 248.70289063 -75.31640625 247.38671875 C-74.84773475 242.62441155 -73.52286301 239.36494292 -70.234375 235.8671875 C-69.6465625 235.39796875 -69.05875 234.92875 -68.453125 234.4453125 C-67.8653125 233.96578125 -67.2775 233.48625 -66.671875 232.9921875 C-63.35539697 230.48975408 -62.26972125 229.6953125 -57.953125 229.6953125 C-59.42754961 226.54409127 -61.23062632 223.8063241 -63.203125 220.9453125 C-76.09844962 200.74263726 -79.15657765 174.48760723 -75.33203125 151.1171875 C-71.99023796 137.15591775 -65.21137817 124.6951213 -54.953125 114.6953125 C-54.14875 113.8290625 -53.344375 112.9628125 -52.515625 112.0703125 C-39.1295459 99.6637026 -23.36104069 90.93555434 -4.953125 89.6953125 C-6.41147375 85.27372321 -7.88397224 80.86022735 -9.453125 76.4765625 C-14.76743277 61.47156057 -17.19364405 47.77685173 -17.390625 31.8203125 C-17.41302246 30.69117432 -17.43541992 29.56203613 -17.45849609 28.39868164 C-17.43085098 18.50391499 -15.1869016 9.53780564 -8.953125 1.6953125 C-5.61915125 -0.52733666 -3.91047893 -0.67077558 0 0 Z " fill="#FAECC8" transform="translate(149.953125,10.3046875)"/>
<path d="M0 0 C5.34055096 1.81415662 7.44991883 6.51446265 9.83203125 11.2265625 C17.31399939 27.22447899 20.15801808 43.36221176 22.62402344 60.73681641 C22.98179438 63.23997362 23.35509831 65.73953385 23.7421875 68.23828125 C24.58988222 73.80799372 25.13125706 79.04874606 25.046875 84.6953125 C28.676875 84.3653125 32.306875 84.0353125 36.046875 83.6953125 C35.593125 82.0453125 35.139375 80.3953125 34.671875 78.6953125 C29.27580594 56.62513432 25.96326171 26.09453064 38.046875 5.6953125 C40.76499774 2.16909922 42.30553623 0.93359996 46.546875 -0.4296875 C50.046875 -0.3046875 50.046875 -0.3046875 52.734375 1.6328125 C57.14701935 7.47658475 59.69846739 13.85568104 61.609375 20.8828125 C61.81916992 21.64746826 62.02896484 22.41212402 62.24511719 23.19995117 C64.692946 32.56600802 65.94711846 42.09145726 67.046875 51.6953125 C67.17964844 52.8090625 67.31242188 53.9228125 67.44921875 55.0703125 C68.53142743 66.21854434 68.13578662 77.50749537 68.046875 88.6953125 C68.84971924 88.75614014 69.65256348 88.81696777 70.47973633 88.87963867 C85.37835781 90.18950476 99.75505868 98.19951736 111.046875 107.6953125 C111.97886719 108.46617188 112.91085937 109.23703125 113.87109375 110.03125 C130.16409286 124.12369397 138.62483692 141.711244 140.796875 163.0078125 C142.14406156 186.5979091 136.03211799 206.5711364 122.6875 225.97265625 C120.83254991 227.92035384 119.67635293 228.33518835 117.046875 228.6953125 C117.376875 229.3553125 117.706875 230.0153125 118.046875 230.6953125 C119.3771875 231.035625 119.3771875 231.035625 120.734375 231.3828125 C125.71494673 233.35624658 128.38901413 237.01722956 131.1640625 241.5 C133.42906097 247.13242982 133.83622736 254.4038621 132.42578125 260.28515625 C130.78873985 263.93283772 129.37827042 265.478891 125.984375 267.6953125 C123.046875 268.6953125 123.046875 268.6953125 120.046875 268.6953125 C119.98371094 269.2315625 119.92054688 269.7678125 119.85546875 270.3203125 C117.29520435 286.70600464 108.17056212 304.13049637 94.9921875 314.27734375 C88.09595601 319.12433919 80.4222313 323.29439859 72.046875 324.6953125 C71.799375 325.8709375 71.551875 327.0465625 71.296875 328.2578125 C69.9077057 333.80463744 67.93618582 338.43577195 63.046875 341.6953125 C56.12191863 342.47716241 56.12191863 342.47716241 52.296875 339.6953125 C50.48084429 337.27393823 49.21644633 335.19426548 47.90625 332.5078125 C47.55530273 331.79238281 47.20435547 331.07695312 46.84277344 330.33984375 C46.58012695 329.79714844 46.31748047 329.25445312 46.046875 328.6953125 C44.73976563 328.71851563 43.43265625 328.74171875 42.0859375 328.765625 C31.5318327 328.89279486 21.29777305 328.51201878 10.83203125 327.1328125 C7.52168117 326.75019206 4.37350932 326.61201649 1.046875 326.6953125 C0.82773438 327.28699219 0.60859375 327.87867188 0.3828125 328.48828125 C-1.85962048 334.07613254 -3.78102536 337.48861072 -8.953125 340.6953125 C-12.40351123 341.25864086 -14.33017059 340.93262847 -17.578125 339.6953125 C-21.54682752 336.35324722 -23.69257889 332.36694405 -24.19921875 327.171875 C-24.20264915 324.99700182 -24.13368818 322.86207065 -23.953125 320.6953125 C-24.82453125 320.5921875 -25.6959375 320.4890625 -26.59375 320.3828125 C-39.77291811 317.68568042 -50.91143813 306.10982431 -58.265625 295.44921875 C-61.89507244 289.52616216 -63.84813546 283.93729604 -64.765625 277.0703125 C-65.56920688 271.85071643 -67.53266292 269.16753662 -71.296875 265.546875 C-75.13613813 261.25486858 -75.2487481 256.84406766 -75.265625 251.2578125 C-75.28238281 249.98035156 -75.29914063 248.70289063 -75.31640625 247.38671875 C-74.84773475 242.62441155 -73.52286301 239.36494292 -70.234375 235.8671875 C-69.6465625 235.39796875 -69.05875 234.92875 -68.453125 234.4453125 C-67.8653125 233.96578125 -67.2775 233.48625 -66.671875 232.9921875 C-63.35539697 230.48975408 -62.26972125 229.6953125 -57.953125 229.6953125 C-58.078125 231.9453125 -58.078125 231.9453125 -58.953125 234.6953125 C-60.91203381 236.08831432 -62.9170368 237.41776696 -64.953125 238.6953125 C-68.95370608 243.12838883 -70.23232427 246.33781056 -70.1875 252.35546875 C-69.75881287 256.63519522 -68.34765533 260.64453391 -66.953125 264.6953125 C-66.293125 264.6953125 -65.633125 264.6953125 -64.953125 264.6953125 C-64.97632812 264.00566406 -64.99953125 263.31601562 -65.0234375 262.60546875 C-65.2294557 251.87780684 -63.78734714 243.34436397 -56.953125 234.6953125 C-54.7578125 233.41015625 -54.7578125 233.41015625 -52.953125 232.6953125 C-52.30859375 234.4921875 -52.30859375 234.4921875 -51.953125 236.6953125 C-53.17175539 238.40798224 -54.39709663 240.11684474 -55.67578125 241.78515625 C-61.03887032 249.80518853 -60.2363093 262.45456172 -59.953125 271.6953125 C-59.95957031 272.41203125 -59.96601562 273.12875 -59.97265625 273.8671875 C-59.7207626 280.4404123 -56.68037657 285.41402458 -53.44921875 290.97265625 C-51.953125 293.6953125 -51.953125 293.6953125 -51.953125 295.6953125 C-50.963125 296.0253125 -49.973125 296.3553125 -48.953125 296.6953125 C-48.4375 297.5615625 -47.921875 298.4278125 -47.390625 299.3203125 C-44.41247106 304.0853588 -39.59946975 306.73002105 -34.953125 309.6953125 C-34.01726562 310.31986328 -34.01726562 310.31986328 -33.0625 310.95703125 C-29.21610438 313.37450887 -25.5725666 314.42328132 -21.1640625 315.203125 C-18.953125 315.6953125 -18.953125 315.6953125 -16.71484375 316.66015625 C-7.05231244 320.28189712 4.45886809 320.18113648 14.671875 320.8203125 C15.32908539 320.86200562 15.98629578 320.90369873 16.66342163 320.94665527 C26.55987497 321.5629827 36.44184114 321.90137659 46.359375 321.9453125 C47.49004395 321.95449707 48.62071289 321.96368164 49.78564453 321.97314453 C55.69305513 321.95095291 61.14843695 321.50318184 66.90258789 320.13623047 C70.00573324 319.49814775 72.89026163 319.55806844 76.046875 319.6953125 C76.046875 319.0353125 76.046875 318.3753125 76.046875 317.6953125 C76.62953125 317.46199219 77.2121875 317.22867187 77.8125 316.98828125 C90.78734174 311.21488469 102.34647332 299.5635712 108.046875 286.5078125 C108.376875 285.5796875 108.706875 284.6515625 109.046875 283.6953125 C109.706875 283.6953125 110.366875 283.6953125 111.046875 283.6953125 C111.16804687 283.1384375 111.28921875 282.5815625 111.4140625 282.0078125 C111.66542969 280.863125 111.66542969 280.863125 111.921875 279.6953125 C112.16550781 278.5815625 112.16550781 278.5815625 112.4140625 277.4453125 C112.9097616 275.29116334 113.48830575 273.15604838 114.09765625 271.03125 C115.32445635 266.13094174 115.37759915 261.35017664 115.359375 256.3203125 C115.37548828 255.43859375 115.39160156 254.556875 115.40820312 253.6484375 C115.41234818 247.99458839 114.57355271 243.21981731 112.75927734 237.86328125 C111.87667501 235.17736326 111.41517561 232.49439714 111.046875 229.6953125 C112.036875 229.6953125 113.026875 229.6953125 114.046875 229.6953125 C114.088125 229.0146875 114.129375 228.3340625 114.171875 227.6328125 C115.1756486 224.26300112 116.89928063 222.66151502 119.2265625 220.109375 C121.674941 216.86238378 123.43192873 213.39404829 125.234375 209.7578125 C125.56703369 209.08967529 125.89969238 208.42153809 126.24243164 207.7331543 C132.19784974 195.46795352 133.26152643 185.18717162 133.34204102 171.54077148 C133.35352159 170.19431008 133.37391138 168.84789278 133.40356445 167.50170898 C133.74654674 151.83757393 130.32298277 136.87440319 120.046875 124.6953125 C120.046875 124.0353125 120.046875 123.3753125 120.046875 122.6953125 C119.48484375 122.45296875 118.9228125 122.210625 118.34375 121.9609375 C115.59297837 120.4452062 113.58898697 118.59143008 111.296875 116.4453125 C99.10443404 105.31926579 85.78703459 96.2003783 69.11206055 94.34057617 C64.13713426 93.78557176 64.13713426 93.78557176 63.046875 92.6953125 C62.92331243 89.98802978 62.86063246 87.30246359 62.8359375 84.59375 C62.80780671 82.88801226 62.77914208 81.18228326 62.75 79.4765625 C62.70920742 76.79590698 62.67232608 74.11540375 62.64550781 71.43457031 C62.5356566 61.32447095 62.05619559 51.77189888 59.77270508 41.90112305 C59.0374077 38.65349778 58.54374049 35.43288593 58.109375 32.1328125 C56.68326685 22.5861381 54.7371529 13.58789461 49.046875 5.6953125 C46.60207421 5.88360022 46.60207421 5.88360022 44.046875 6.6953125 C42.68667349 8.66289523 42.68667349 8.66289523 42.046875 10.6953125 C41.386875 10.6953125 40.726875 10.6953125 40.046875 10.6953125 C36.94165324 22.90918477 36.8027272 35.39491578 36.734375 47.9453125 C36.73042725 48.62108337 36.72647949 49.29685425 36.72241211 49.99310303 C36.69632946 59.58499587 37.41492258 68.3691381 40.171875 77.578125 C40.98404904 80.47149501 41.22680498 82.71522227 41.046875 85.6953125 C40.386875 85.6953125 39.726875 85.6953125 39.046875 85.6953125 C38.551875 87.6753125 38.551875 87.6753125 38.046875 89.6953125 C35.42160311 89.74913356 32.79742787 89.78889563 30.171875 89.8203125 C29.42550781 89.83707031 28.67914063 89.85382813 27.91015625 89.87109375 C25.95493039 89.8887084 23.99945479 89.79851439 22.046875 89.6953125 C15.63453548 83.28297298 17.15360787 67.20355849 16.52050781 58.32177734 C15.53825273 44.77353918 12.92491718 32.22485095 7.609375 19.6328125 C7.19848633 18.59350586 7.19848633 18.59350586 6.77929688 17.53320312 C4.84010995 12.85164202 2.56310235 9.36344088 -0.953125 5.6953125 C-3.54234273 4.77765364 -3.54234273 4.77765364 -5.953125 5.6953125 C-12.14457045 13.03332192 -11.30481734 23.76778044 -11.265625 32.7578125 C-11.26143555 34.05315918 -11.25724609 35.34850586 -11.25292969 36.68310547 C-11.08748134 50.68109164 -8.50436344 62.61492026 -3.18798828 75.55810547 C-2.63428634 76.90646313 -2.08247216 78.25559742 -1.5324707 79.60546875 C-0.99052587 80.93025823 -0.44118142 82.25205119 0.11645508 83.5703125 C1.49311348 86.90938483 2.046875 89.0107208 2.046875 92.6953125 C0.726875 92.6953125 -0.593125 92.6953125 -1.953125 92.6953125 C-12.55832971 73.51568696 -17.12160498 53.6124124 -17.390625 31.8203125 C-17.41302246 30.69117432 -17.43541992 29.56203613 -17.45849609 28.39868164 C-17.43085098 18.50391499 -15.1869016 9.53780564 -8.953125 1.6953125 C-5.61915125 -0.52733666 -3.91047893 -0.67077558 0 0 Z " fill="#0F0E0C" transform="translate(149.953125,10.3046875)"/>
<path d="M0 0 C5.34055096 1.81415662 7.44991883 6.51446265 9.83203125 11.2265625 C17.31399939 27.22447899 20.15801808 43.36221176 22.62402344 60.73681641 C22.98179438 63.23997362 23.35509831 65.73953385 23.7421875 68.23828125 C24.58988222 73.80799372 25.13125706 79.04874606 25.046875 84.6953125 C28.676875 84.3653125 32.306875 84.0353125 36.046875 83.6953125 C35.593125 82.0453125 35.139375 80.3953125 34.671875 78.6953125 C29.27580594 56.62513432 25.96326171 26.09453064 38.046875 5.6953125 C40.76499774 2.16909922 42.30553623 0.93359996 46.546875 -0.4296875 C50.046875 -0.3046875 50.046875 -0.3046875 52.734375 1.6328125 C57.14701935 7.47658475 59.69846739 13.85568104 61.609375 20.8828125 C61.81916992 21.64746826 62.02896484 22.41212402 62.24511719 23.19995117 C64.692946 32.56600802 65.94711846 42.09145726 67.046875 51.6953125 C67.17964844 52.8090625 67.31242187 53.9228125 67.44921875 55.0703125 C68.53142743 66.21854434 68.13578662 77.50749537 68.046875 88.6953125 C68.84971924 88.75614014 69.65256348 88.81696777 70.47973633 88.87963867 C85.37835781 90.18950476 99.75505868 98.19951736 111.046875 107.6953125 C111.97886719 108.46617188 112.91085937 109.23703125 113.87109375 110.03125 C130.16409286 124.12369397 138.62483692 141.711244 140.796875 163.0078125 C142.14969082 186.69648096 135.82971591 206.28941985 122.8828125 225.97265625 C120.4217335 228.28188144 118.34490152 228.40431016 115.046875 228.6953125 C115.94454807 225.47865068 116.73457279 223.07515759 118.87109375 220.4765625 C121.48214837 217.13891278 123.25674154 213.67731994 125.109375 209.8828125 C125.44775391 209.20927734 125.78613281 208.53574219 126.13476562 207.84179688 C132.21402969 195.5539227 133.26113699 185.25317765 133.34204102 171.54077148 C133.35352159 170.19431008 133.37391138 168.84789278 133.40356445 167.50170898 C133.74654674 151.83757393 130.32298277 136.87440319 120.046875 124.6953125 C120.046875 124.0353125 120.046875 123.3753125 120.046875 122.6953125 C119.48484375 122.45296875 118.9228125 122.210625 118.34375 121.9609375 C115.59297837 120.4452062 113.58898697 118.59143008 111.296875 116.4453125 C99.10443404 105.31926579 85.78703459 96.2003783 69.11206055 94.34057617 C64.13713426 93.78557176 64.13713426 93.78557176 63.046875 92.6953125 C62.92331243 89.98802978 62.86063246 87.30246359 62.8359375 84.59375 C62.80780671 82.88801226 62.77914208 81.18228326 62.75 79.4765625 C62.70920742 76.79590698 62.67232608 74.11540375 62.64550781 71.43457031 C62.5356566 61.32447095 62.05619559 51.77189888 59.77270508 41.90112305 C59.0374077 38.65349778 58.54374049 35.43288593 58.109375 32.1328125 C56.68326685 22.5861381 54.7371529 13.58789461 49.046875 5.6953125 C46.60207421 5.88360022 46.60207421 5.88360022 44.046875 6.6953125 C42.68667349 8.66289523 42.68667349 8.66289523 42.046875 10.6953125 C41.386875 10.6953125 40.726875 10.6953125 40.046875 10.6953125 C36.94165324 22.90918477 36.8027272 35.39491578 36.734375 47.9453125 C36.73042725 48.62108337 36.72647949 49.29685425 36.72241211 49.99310303 C36.69632946 59.58499587 37.41492258 68.3691381 40.171875 77.578125 C40.98404904 80.47149501 41.22680498 82.71522227 41.046875 85.6953125 C40.386875 85.6953125 39.726875 85.6953125 39.046875 85.6953125 C38.551875 87.6753125 38.551875 87.6753125 38.046875 89.6953125 C35.42160311 89.74913356 32.79742787 89.78889563 30.171875 89.8203125 C29.42550781 89.83707031 28.67914063 89.85382813 27.91015625 89.87109375 C25.95493039 89.8887084 23.99945479 89.79851439 22.046875 89.6953125 C15.63453548 83.28297298 17.15360787 67.20355849 16.52050781 58.32177734 C15.53825273 44.77353918 12.92491718 32.22485095 7.609375 19.6328125 C7.19848633 18.59350586 7.19848633 18.59350586 6.77929688 17.53320312 C4.84010995 12.85164202 2.56310235 9.36344088 -0.953125 5.6953125 C-3.54234273 4.77765364 -3.54234273 4.77765364 -5.953125 5.6953125 C-12.14457045 13.03332192 -11.30481734 23.76778044 -11.265625 32.7578125 C-11.26143555 34.05315918 -11.25724609 35.34850586 -11.25292969 36.68310547 C-11.08748134 50.68109164 -8.50436344 62.61492026 -3.18798828 75.55810547 C-2.63428634 76.90646313 -2.08247216 78.25559742 -1.5324707 79.60546875 C-0.99052587 80.93025823 -0.44118142 82.25205119 0.11645508 83.5703125 C1.49311348 86.90938483 2.046875 89.0107208 2.046875 92.6953125 C0.726875 92.6953125 -0.593125 92.6953125 -1.953125 92.6953125 C-12.55832971 73.51568696 -17.12160498 53.6124124 -17.390625 31.8203125 C-17.41302246 30.69117432 -17.43541992 29.56203613 -17.45849609 28.39868164 C-17.43085098 18.50391499 -15.1869016 9.53780564 -8.953125 1.6953125 C-5.61915125 -0.52733666 -3.91047893 -0.67077558 0 0 Z " fill="#0D0C0A" transform="translate(149.953125,10.3046875)"/>
<path d="M0 0 C1.22847656 -0.00515625 2.45695312 -0.0103125 3.72265625 -0.015625 C6.9375 0.25 6.9375 0.25 9.9375 2.25 C7.9575 3.24 7.9575 3.24 5.9375 4.25 C5.9375 4.91 5.9375 5.57 5.9375 6.25 C5.2775 6.889375 4.6175 7.52875 3.9375 8.1875 C1.58942708 10.13012332 1.58942708 10.13012332 1.9375 13.25 C2.9275 13.58 3.9175 13.91 4.9375 14.25 C5.14375 13.5075 5.35 12.765 5.5625 12 C7.38031231 8.36437538 9.3750655 7.13599474 12.9375 5.25 C15.5 4.6875 15.5 4.6875 17.9375 5.25 C20.75 7.625 20.75 7.625 22.9375 10.25 C22.9375 10.91 22.9375 11.57 22.9375 12.25 C21.803125 12.8275 20.66875 13.405 19.5 14 C16.56439703 15.60492635 16.56439703 15.60492635 15 18.5 C14.979375 19.0775 14.95875 19.655 14.9375 20.25 C16.5153125 19.5075 16.5153125 19.5075 18.125 18.75 C21.19202609 17.42220212 23.55884936 16.94284994 26.9375 17.25 C29.18578052 21.74656104 29.10432272 25.32872966 28.9375 30.25 C27.2875 30.25 25.6375 30.25 23.9375 30.25 C24.68900023 33.52773504 24.68900023 33.52773504 27.9375 35.25 C27.69388643 42.07118001 25.81853628 46.3811056 20.9375 51.25 C17.80400268 52.29449911 16.94781744 52.18423645 13.9375 51.25 C13.6590625 52.2090625 13.6590625 52.2090625 13.375 53.1875 C11.9375 55.25 11.9375 55.25 8.4375 56.0625 C4.9375 56.25 4.9375 56.25 2.9375 55.25 C2.9375 53.93 2.9375 52.61 2.9375 51.25 C0.4625 51.745 0.4625 51.745 -2.0625 52.25 C-2.3925 53.24 -2.7225 54.23 -3.0625 55.25 C-4.5214426 54.77269162 -5.97963496 54.29308958 -7.4375 53.8125 C-8.24960938 53.54566406 -9.06171875 53.27882813 -9.8984375 53.00390625 C-12.0625 52.25 -12.0625 52.25 -14.0625 51.25 C-14.28286864 47.39354879 -13.66605101 44.75776784 -12.0625 41.25 C-15.22365776 42.61983503 -16.0552092 43.2390638 -18.0625 46.25 C-22.27323233 44.74616703 -23.89487117 42.04335044 -26.0625 38.25 C-26.0625 37.26 -26.0625 36.27 -26.0625 35.25 C-25.0725 34.755 -25.0725 34.755 -24.0625 34.25 C-23.41036708 32.22536745 -23.41036708 32.22536745 -23.0625 30.25 C-24.3825 30.25 -25.7025 30.25 -27.0625 30.25 C-27.0625 28.6 -27.0625 26.95 -27.0625 25.25 C-26.0725 24.92 -25.0825 24.59 -24.0625 24.25 C-24.13210937 23.6209375 -24.20171875 22.991875 -24.2734375 22.34375 C-24.68345072 15.86163627 -23.59227881 12.58812055 -19.375 7.6484375 C-18.941875 7.18695313 -18.50875 6.72546875 -18.0625 6.25 C-17.794375 6.889375 -17.52625 7.52875 -17.25 8.1875 C-16.17582248 10.58131686 -16.17582248 10.58131686 -13.0625 11.25 C-12.96453125 10.62351562 -12.8665625 9.99703125 -12.765625 9.3515625 C-12.61609375 8.53429687 -12.4665625 7.71703125 -12.3125 6.875 C-12.17328125 6.06289063 -12.0340625 5.25078125 -11.890625 4.4140625 C-11.0625 2.25 -11.0625 2.25 -9.42578125 0.9765625 C-6.22424741 -0.00771071 -3.3454407 -0.01407125 0 0 Z " fill="#FCFCFB" transform="translate(165.0625,256.75)"/>
<path d="M0 0 C-0.33 1.65 -0.66 3.3 -1 5 C-1.65484375 5.01417969 -2.3096875 5.02835937 -2.984375 5.04296875 C-22.46636971 6.06109559 -38.7062645 18.60709605 -51.375 32.5625 C-60.77681001 44.2802984 -65.75275267 58.0062154 -66 73 C-66.02852051 74.07531982 -66.02852051 74.07531982 -66.05761719 75.17236328 C-66.11814855 77.57327527 -66.15720588 79.97352433 -66.1875 82.375 C-66.20744019 83.51739136 -66.20744019 83.51739136 -66.2277832 84.68286133 C-66.23327634 89.21469768 -65.61221167 92.70903662 -64 97 C-63.7765882 98.97879023 -63.55357851 100.95764115 -63.33984375 102.9375 C-62.87421659 105.76337515 -61.88672506 108.23867319 -60.80078125 110.87890625 C-59.93812556 113.1638918 -59.39314853 115.44120634 -58.8125 117.8125 C-56.78299588 124.85029653 -52.13837245 130.86162755 -47 136 C-47.375 138.125 -47.375 138.125 -48 140 C-51.58287889 139.76701842 -52.77791376 139.24217056 -55.24609375 136.55078125 C-70.46624939 114.05967781 -75.81565059 87.3275513 -71.38671875 60.390625 C-67.98820286 46.43724696 -61.26830206 34.00960453 -51 24 C-50.195625 23.13375 -49.39125 22.2675 -48.5625 21.375 C-37.30782045 10.94383359 -16.51156754 -4.37070905 0 0 Z " fill="#090907" transform="translate(146,101)"/>
<path d="M0 0 C0.33 0.66 0.66 1.32 1 2 C1.66 2.33 2.32 2.66 3 3 C2.59007813 3.60328125 2.18015625 4.2065625 1.7578125 4.828125 C0.94957031 6.02695313 0.94957031 6.02695313 0.125 7.25 C-0.40867187 8.03890625 -0.94234375 8.8278125 -1.4921875 9.640625 C-3.77897657 13.2189167 -5.20736958 16.07369576 -5.6328125 20.328125 C-5.71660156 21.12734375 -5.80039063 21.9265625 -5.88671875 22.75 C-5.96535156 23.575 -6.04398437 24.4 -6.125 25.25 C-6.21136719 26.09046875 -6.29773438 26.9309375 -6.38671875 27.796875 C-6.59811722 29.86388223 -6.79999462 31.93185928 -7 34 C-7.66 34 -8.32 34 -9 34 C-12.38265679 26.63064056 -14.65805161 20.87662238 -11.9375 12.875 C-9.13791431 8.72077607 -5.51223683 5.25611841 -1 3 C-0.67 2.01 -0.34 1.02 0 0 Z " fill="#E7DBB9" transform="translate(92,241)"/>
<path d="M0 0 C0.99 0.495 0.99 0.495 2 1 C2.226875 1.680625 2.45375 2.36125 2.6875 3.0625 C4.34050522 6.7620831 6.71546897 9.26650784 9.44140625 12.23046875 C12.70952031 15.94088396 12.26872981 19.46598535 12.21875 24.2265625 C11.93858046 27.77871203 11.11546281 30.12901476 9 33 C6.890625 33.6484375 6.890625 33.6484375 5 34 C4.94392578 32.47632813 4.94392578 32.47632813 4.88671875 30.921875 C4.54161875 23.23027125 3.8520565 16.09367719 1.71875 8.6484375 C0.94127697 5.78361841 0.44723718 2.93284382 0 0 Z " fill="#EDE0BD" transform="translate(266,240)"/>
<path d="M0 0 C4.8333472 -0.08333357 9.23692563 0.04738513 14 1 C13.70980098 4.77258731 13.48342371 7.32665983 11.25 10.4375 C9 12 9 12 6.5 12.625 C4 12 4 12 1.6875 9.375 C-0.07486527 5.85026947 -0.36875341 3.87191078 0 0 Z " fill="#EEE0BE" transform="translate(131,334)"/>
<path d="M0 0 C-3 8.57142857 -3 8.57142857 -6 12 C-8.80705084 11.91979855 -10.48206883 11.54452763 -12.4453125 9.48046875 C-16 4.65625 -16 4.65625 -16 1 C-14.27111445 0.83044205 -12.54187557 0.66448486 -10.8125 0.5 C-9.84957031 0.4071875 -8.88664063 0.314375 -7.89453125 0.21875 C-5.24812333 0.01875156 -2.65239135 -0.03879183 0 0 Z " fill="#E8DCBA" transform="translate(217,336)"/>
<path d="M0 0 C-0.33 1.32 -0.66 2.64 -1 4 C-2.051875 4.268125 -3.10375 4.53625 -4.1875 4.8125 C-8.98761401 6.30761748 -11.9651089 7.4655063 -14.8125 11.6875 C-15.204375 12.450625 -15.59625 13.21375 -16 14 C-17.32 13.67 -18.64 13.34 -20 13 C-19.75 10.625 -19.75 10.625 -19 8 C-16.9375 6.6875 -16.9375 6.6875 -15 6 C-15 5.34 -15 4.68 -15 4 C-13.4470724 3.12855131 -11.88214564 2.27846343 -10.3125 1.4375 C-9.44238281 0.96183594 -8.57226562 0.48617188 -7.67578125 -0.00390625 C-4.61671247 -1.14268368 -3.08136961 -0.92718689 0 0 Z " fill="#201E1B" transform="translate(186,257)"/>
<path d="M0 0 C2.125 0.375 2.125 0.375 4 1 C3.42655063 3.86724686 3.1385485 4.8614515 1 7 C0.38649958 9.1894648 -0.14559812 11.40231857 -0.625 13.625 C-1.01558594 15.40777344 -1.01558594 15.40777344 -1.4140625 17.2265625 C-1.60742188 18.14179688 -1.80078125 19.05703125 -2 20 C-3.32 20 -4.64 20 -6 20 C-6.51554714 13.01147209 -5.96146059 7.89881722 -2 2 C-1.34 1.34 -0.68 0.68 0 0 Z " fill="#37342D" transform="translate(155,248)"/>
<path d="M0 0 C6.43759372 9.65639058 5.66045288 22.80665357 6 34 C5.67 33.34 5.34 32.68 5 32 C3.35 32.66 1.7 33.32 0 34 C-1.01382963 30.3791799 -1.49897691 26.72188582 -2 23 C-1.360625 22.773125 -0.72125 22.54625 -0.0625 22.3125 C2.23876958 21.16123555 2.23876958 21.16123555 2.75 18.5625 C3.04854998 15.93147372 3.04854998 15.93147372 3 13 C2.01 12.67 1.02 12.34 0 12 C0 8.04 0 4.08 0 0 Z " fill="#F3E6C2" transform="translate(161,39)"/>
<path d="M0 0 C0.33 1.32 0.66 2.64 1 4 C-0.10408203 4.16435547 -0.10408203 4.16435547 -1.23046875 4.33203125 C-6.50876977 5.18966801 -10.49454162 5.99636108 -15 9 C-16.32 9 -17.64 9 -19 9 C-18.9375 6.75 -18.9375 6.75 -18 4 C-12.27829877 -0.60223795 -7.13795978 -0.46467731 0 0 Z " fill="#1C1A17" transform="translate(199,268)"/>
<path d="M0 0 C0.99 0.33 1.98 0.66 3 1 C3.52516739 2.96937772 4.04068846 4.9430978 4.4609375 6.9375 C5.15944938 9.61006718 6.56770457 11.65624384 8 14 C8 15.32 8 16.64 8 18 C4.95149775 17.68746447 3.44772909 17.52511437 1.41796875 15.14453125 C-2.85995086 7.03685504 -2.85995086 7.03685504 -2 2 C-1.34 1.34 -0.68 0.68 0 0 Z " fill="#292721" transform="translate(134,263)"/>
<path d="M0 0 C-0.52537408 4.06809929 -1.61400461 6.17603456 -4.375 9.1875 C-4.98085937 9.86167969 -5.58671875 10.53585937 -6.2109375 11.23046875 C-9.29048102 14.2763928 -10.5724245 15 -15 15 C-15 13.68 -15 12.36 -15 11 C-13.59992571 10.03328203 -12.18888112 9.07794066 -10.72265625 8.21484375 C-8.09964147 6.36505328 -6.32865065 3.92682565 -4.39453125 1.390625 C-3 0 -3 0 0 0 Z " fill="#1E1C18" transform="translate(153,298)"/>
<path d="M0 0 C0.99 0.33 1.98 0.66 3 1 C3.58267717 10.90551181 3.58267717 10.90551181 0 15 C-2.1875 15.8125 -2.1875 15.8125 -4 16 C-3.7834375 15.0409375 -3.7834375 15.0409375 -3.5625 14.0625 C-2.94649554 10.70869792 -2.64724972 7.38539538 -2.37890625 3.98828125 C-2 2 -2 2 0 0 Z " fill="#1A1915" transform="translate(164,307)"/>
<path d="M0 0 C1.9375 0.1875 1.9375 0.1875 4 1 C6.8208331 4.52604138 6.14278164 8.71655067 6 13 C4.0625 13.5625 4.0625 13.5625 2 14 C0.19040962 12.19040962 0.28450576 9.44549918 -0.125 7 C-0.31320313 5.906875 -0.50140625 4.81375 -0.6953125 3.6875 C-0.79585937 2.800625 -0.89640625 1.91375 -1 1 C-0.67 0.67 -0.34 0.34 0 0 Z " fill="#27251F" transform="translate(179,307)"/>
<path d="M0 0 C-1.27679803 3.83039408 -2.59435626 3.98757415 -6 6 C-7.68873879 7.64429829 -9.35305515 9.31384218 -11 11 C-12.24611064 12.00484241 -13.49626441 13.00468746 -14.75 14 C-17.7825473 16.53038355 -18.45155036 18.05116257 -19 22 C-20.875 23.1875 -20.875 23.1875 -23 24 C-23.99 24.66 -24.98 25.32 -26 26 C-23.4655828 18.58059213 -8.89878241 0 0 0 Z " fill="#D9CDAD" transform="translate(115,116)"/>
<path d="M0 0 C5.37893899 0.37527481 7.48326533 1.99482996 11 6 C11.66 6.66 12.32 7.32 13 8 C13.125 11.125 13.125 11.125 13 14 C12.01 14 11.02 14 10 14 C9.78085938 13.46890625 9.56171875 12.9378125 9.3359375 12.390625 C6.97739855 7.13664393 4.92312189 4.90911748 0 2 C0 1.34 0 0.68 0 0 Z " fill="#1F1D19" transform="translate(188,287)"/>
<path d="M0 0 C-0.34339653 2.57547398 -0.60006716 3.68894113 -2.6875 5.3125 C-5.72203131 6.21465796 -7.94880471 5.69345348 -11 5 C-11.33 3.68 -11.66 2.36 -12 1 C-7.93631321 0.22596442 -4.13574827 -0.0984702 0 0 Z " fill="#22201C" transform="translate(142,288)"/>
<path d="M0 0 C2.05449993 3.0817499 2.74475809 5.3095757 3.625 8.875 C3.88539063 9.90367188 4.14578125 10.93234375 4.4140625 11.9921875 C4.95301116 14.75879061 5.11394368 17.19284196 5 20 C3.5393715 17.35261084 3 16.10551666 3 13 C2.01 12.67 1.02 12.34 0 12 C0 8.04 0 4.08 0 0 Z " fill="#A59C84" transform="translate(161,39)"/>
<path d="M0 0 C0.33 0 0.66 0 1 0 C1 3.3 1 6.6 1 10 C0.01 10 -0.98 10 -2 10 C-2.1953125 3.9453125 -2.1953125 3.9453125 -2 2 C-1.34 1.34 -0.68 0.68 0 0 Z " fill="#010101" transform="translate(152,257)"/>
<path d="M0 0 C0.99 0.33 1.98 0.66 3 1 C3 3.97 3 6.94 3 10 C2.67 10 2.34 10 2 10 C2 7.69 2 5.38 2 3 C-0.51083114 4.25541557 -0.87125446 5.50063488 -2 8 C-2.125 5.125 -2.125 5.125 -2 2 C-1.34 1.34 -0.68 0.68 0 0 Z " fill="#57544C" transform="translate(164,307)"/>
<path d="M0 0 C-0.33 1.32 -0.66 2.64 -1 4 C-1.66 4 -2.32 4 -3 4 C-4.70680947 5.62553283 -6.37660195 7.29115995 -8 9 C-8.66 8.67 -9.32 8.34 -10 8 C-8.90653119 6.65787938 -7.7998425 5.32652025 -6.6875 4 C-5.76517578 2.88625 -5.76517578 2.88625 -4.82421875 1.75 C-3 0 -3 0 0 0 Z " fill="#3B3831" transform="translate(153,298)"/>
<path d="M0 0 C-1 3 -1 3 -4.0625 4.6875 C-5.031875 5.120625 -6.00125 5.55375 -7 6 C-5.52522876 2.59668175 -4.14385429 0 0 0 Z " fill="#D6CAAB" transform="translate(115,116)"/>
<path d="M0 0 C2.50037734 2.17424117 3.43628586 3.73045798 4 7 C3.01 7 2.02 7 1 7 C0.67 4.69 0.34 2.38 0 0 Z " fill="#DACEAE" transform="translate(193,292)"/>
</svg>
