<?xml version="1.0" encoding="UTF-8"?>
<svg version="1.1" xmlns="http://www.w3.org/2000/svg" width="360" height="360">
<path d="M0 0 C3.81576113 2.96781421 4.94533212 6.71370975 5.6875 11.3125 C7.52899254 33.31984524 -0.22811229 56.05900626 -10.36157227 75.29443359 C-11.45458517 77.24221982 -11.45458517 77.24221982 -11.3125 79.3125 C-8.6725 79.6425 -6.0325 79.9725 -3.3125 80.3125 C-2.97105957 79.41233154 -2.62961914 78.51216309 -2.27783203 77.5847168 C15.38168071 31.18707564 15.38168071 31.18707564 27.6875 18.3125 C28.25984375 17.71179688 28.8321875 17.11109375 29.421875 16.4921875 C34.61250231 11.56347257 40.2833761 9.3125 47.4375 9.3125 C51.36845124 10.52202346 53.08489379 12.1740631 55.6875 15.3125 C58.8541813 21.64586261 57.04724645 32.21736392 55.1875 38.8125 C50.57614678 51.97172748 42.9265515 63.2689821 34.92236328 74.55761719 C32.43553683 78.09168372 30.06348882 81.70340306 27.6875 85.3125 C28.84636719 85.41433594 30.00523437 85.51617187 31.19921875 85.62109375 C35.66274413 86.1855378 39.41705821 87.53170816 43.5 89.375 C44.19504639 89.68663086 44.89009277 89.99826172 45.60620117 90.31933594 C66.80245413 100.16666483 81.24420359 118.84049049 89.28515625 140.33203125 C97.31255563 162.81193289 95.61927542 185.37711037 86.6875 207.3125 C84.87367468 210.87079849 82.9993105 214.05884858 80.1015625 216.828125 C78.43201983 218.36995593 78.43201983 218.36995593 77.6875 221.3125 C78.409375 221.56 79.13125 221.8075 79.875 222.0625 C86.08893621 224.82424943 89.94686392 229.16715063 92.6875 235.3125 C93.92205264 240.12273864 94.27084203 244.59001428 92.5625 249.3125 C90.44205143 252.70521771 89.3408709 253.06676041 85.6875 254.3125 C85.73390625 255.17230469 85.7803125 256.03210938 85.828125 256.91796875 C86.24087494 270.43552923 83.14310828 282.88139157 74.015625 293.203125 C67.03481031 299.82594919 57.63754642 305.03498419 48.5625 308.125 C45.64443676 309.32022148 44.86699879 309.95461732 43.4296875 312.8203125 C42.77212251 314.76194142 42.15293049 316.71702127 41.57421875 318.68359375 C40.38048668 322.2227201 38.60602085 324.03463007 35.6875 326.3125 C34.924375 326.93125 34.16125 327.55 33.375 328.1875 C30.16874565 329.52965298 27.97646764 329.7822093 24.55859375 329.2265625 C21.30706708 327.63813402 20.50912426 324.78869525 19.28125 321.5390625 C18.6875 319.3125 18.6875 319.3125 18.6875 316.3125 C17.15416016 316.55613281 17.15416016 316.55613281 15.58984375 316.8046875 C9.1657965 317.60468986 2.71303072 317.45709484 -3.75 317.4375 C-5.02166016 317.44136719 -6.29332031 317.44523437 -7.60351562 317.44921875 C-14.25876847 317.44231854 -20.71739432 317.21672559 -27.3125 316.3125 C-27.539375 317.199375 -27.76625 318.08625 -28 319 C-29.54145291 322.89033354 -31.05102349 324.70331879 -34.3125 327.3125 C-40.09879032 329.79233871 -40.09879032 329.79233871 -44 328.25 C-48.47945172 324.49694586 -50.65064338 320.82783697 -52.4375 315.3125 C-54.25404518 310.76280428 -55.52942838 308.59186372 -60 306.5 C-60.86625 306.15195312 -61.7325 305.80390625 -62.625 305.4453125 C-73.0477994 301.05198136 -82.06730634 292.58918024 -88.3125 283.3125 C-89.08787109 282.1678125 -89.08787109 282.1678125 -89.87890625 281 C-93.84294608 274.80059937 -98.3125 266.86544347 -98.3125 259.3125 C-99.16585937 259.51101563 -100.01921875 259.70953125 -100.8984375 259.9140625 C-104.76128521 260.36487539 -107.23396553 259.82371315 -110.9375 258.6875 C-112.04351562 258.36523438 -113.14953125 258.04296875 -114.2890625 257.7109375 C-117.80647654 256.08401989 -119.27205853 254.58306408 -121.3125 251.3125 C-123.1292382 243.9921137 -119.7756769 237.5423693 -116.1796875 231.3671875 C-113.23754093 226.86628778 -109.89550885 224.11322763 -105.3125 221.3125 C-104.3225 221.3125 -103.3325 221.3125 -102.3125 221.3125 C-102.3125 220.6525 -102.3125 219.9925 -102.3125 219.3125 C-102.993125 219.291875 -103.67375 219.27125 -104.375 219.25 C-108.94898943 217.79021614 -111.50723702 215.16008547 -114.3125 211.3125 C-123.58660381 192.81415314 -126.93515652 167.39087555 -121.34375 147.27734375 C-115.84081785 131.45641382 -105.96816133 114.52180003 -93.3125 103.3125 C-92.6525 103.3125 -91.9925 103.3125 -91.3125 103.3125 C-91.3125 102.6525 -91.3125 101.9925 -91.3125 101.3125 C-82.05684876 91.76940617 -66.61095791 87.84342784 -54.0390625 84.73046875 C-52.96479004 84.46387451 -51.89051758 84.19728027 -50.78369141 83.92260742 C-49.96819824 83.72127197 -49.15270508 83.51993652 -48.3125 83.3125 C-47.96638672 81.84949463 -47.96638672 81.84949463 -47.61328125 80.35693359 C-32.58666058 17.16284943 -32.58666058 17.16284943 -13.375 0.8125 C-8.8082335 -1.42428359 -4.94880314 -1.4712658 0 0 Z " fill="#FBEDC8" transform="translate(181.3125,21.6875)"/>
<path d="M0 0 C3.81576113 2.96781421 4.94533212 6.71370975 5.6875 11.3125 C7.52899254 33.31984524 -0.22811229 56.05900626 -10.36157227 75.29443359 C-11.45458517 77.24221982 -11.45458517 77.24221982 -11.3125 79.3125 C-8.6725 79.6425 -6.0325 79.9725 -3.3125 80.3125 C-2.97105957 79.41233154 -2.62961914 78.51216309 -2.27783203 77.5847168 C15.38168071 31.18707564 15.38168071 31.18707564 27.6875 18.3125 C28.25984375 17.71179688 28.8321875 17.11109375 29.421875 16.4921875 C34.61250231 11.56347257 40.2833761 9.3125 47.4375 9.3125 C51.36845124 10.52202346 53.08489379 12.1740631 55.6875 15.3125 C58.8541813 21.64586261 57.04724645 32.21736392 55.1875 38.8125 C50.57614678 51.97172748 42.9265515 63.2689821 34.92236328 74.55761719 C32.43553683 78.09168372 30.06348882 81.70340306 27.6875 85.3125 C28.84636719 85.41433594 30.00523437 85.51617187 31.19921875 85.62109375 C35.66274413 86.1855378 39.41705821 87.53170816 43.5 89.375 C44.19504639 89.68663086 44.89009277 89.99826172 45.60620117 90.31933594 C66.80245413 100.16666483 81.24420359 118.84049049 89.28515625 140.33203125 C97.31255563 162.81193289 95.61927542 185.37711037 86.6875 207.3125 C84.87367468 210.87079849 82.9993105 214.05884858 80.1015625 216.828125 C78.43201983 218.36995593 78.43201983 218.36995593 77.6875 221.3125 C78.409375 221.56 79.13125 221.8075 79.875 222.0625 C86.08893621 224.82424943 89.94686392 229.16715063 92.6875 235.3125 C93.92205264 240.12273864 94.27084203 244.59001428 92.5625 249.3125 C90.44205143 252.70521771 89.3408709 253.06676041 85.6875 254.3125 C85.73390625 255.17230469 85.7803125 256.03210938 85.828125 256.91796875 C86.24087494 270.43552923 83.14310828 282.88139157 74.015625 293.203125 C67.03481031 299.82594919 57.63754642 305.03498419 48.5625 308.125 C45.64443676 309.32022148 44.86699879 309.95461732 43.4296875 312.8203125 C42.77212251 314.76194142 42.15293049 316.71702127 41.57421875 318.68359375 C40.38048668 322.2227201 38.60602085 324.03463007 35.6875 326.3125 C34.924375 326.93125 34.16125 327.55 33.375 328.1875 C30.16874565 329.52965298 27.97646764 329.7822093 24.55859375 329.2265625 C21.30706708 327.63813402 20.50912426 324.78869525 19.28125 321.5390625 C18.6875 319.3125 18.6875 319.3125 18.6875 316.3125 C17.15416016 316.55613281 17.15416016 316.55613281 15.58984375 316.8046875 C9.1657965 317.60468986 2.71303072 317.45709484 -3.75 317.4375 C-5.02166016 317.44136719 -6.29332031 317.44523437 -7.60351562 317.44921875 C-14.25876847 317.44231854 -20.71739432 317.21672559 -27.3125 316.3125 C-27.539375 317.199375 -27.76625 318.08625 -28 319 C-29.54145291 322.89033354 -31.05102349 324.70331879 -34.3125 327.3125 C-40.09879032 329.79233871 -40.09879032 329.79233871 -44 328.25 C-48.47945172 324.49694586 -50.65064338 320.82783697 -52.4375 315.3125 C-54.25404518 310.76280428 -55.52942838 308.59186372 -60 306.5 C-60.86625 306.15195312 -61.7325 305.80390625 -62.625 305.4453125 C-73.0477994 301.05198136 -82.06730634 292.58918024 -88.3125 283.3125 C-89.08787109 282.1678125 -89.08787109 282.1678125 -89.87890625 281 C-93.84294608 274.80059937 -98.3125 266.86544347 -98.3125 259.3125 C-99.16585937 259.51101563 -100.01921875 259.70953125 -100.8984375 259.9140625 C-104.76128521 260.36487539 -107.23396553 259.82371315 -110.9375 258.6875 C-112.04351562 258.36523438 -113.14953125 258.04296875 -114.2890625 257.7109375 C-117.80647654 256.08401989 -119.27205853 254.58306408 -121.3125 251.3125 C-123.1292382 243.9921137 -119.7756769 237.5423693 -116.1796875 231.3671875 C-113.23754093 226.86628778 -109.89550885 224.11322763 -105.3125 221.3125 C-104.3225 221.3125 -103.3325 221.3125 -102.3125 221.3125 C-102.5625 223.6875 -102.5625 223.6875 -103.3125 226.3125 C-105.25 227.375 -105.25 227.375 -107.3125 228.3125 C-108.01644612 229.62653276 -108.67595658 230.9645257 -109.3125 232.3125 C-110.158125 233.158125 -111.00375 234.00375 -111.875 234.875 C-115.4915721 238.99151 -115.20982008 244.06648977 -115.3125 249.3125 C-110.40325703 253.23989438 -107.57329448 253.74427893 -101.3125 253.3125 C-101.25850264 251.85457116 -101.21970823 250.39607288 -101.1875 248.9375 C-101.16429688 248.12539063 -101.14109375 247.31328125 -101.1171875 246.4765625 C-101.09879949 244.09907757 -101.09879949 244.09907757 -103.3125 242.3125 C-103.3125 240.9925 -103.3125 239.6725 -103.3125 238.3125 C-101.9925 237.9825 -100.6725 237.6525 -99.3125 237.3125 C-98.6525 234.6725 -97.9925 232.0325 -97.3125 229.3125 C-95.9925 229.6425 -94.6725 229.9725 -93.3125 230.3125 C-93.4775 231.488125 -93.6425 232.66375 -93.8125 233.875 C-95.8377954 253.13042042 -92.0999558 269.31742011 -79.81640625 284.51171875 C-77.69469908 286.88498558 -75.72219485 288.78888827 -73.1875 290.6875 C-72.4140625 291.26757812 -71.640625 291.84765625 -70.84375 292.4453125 C-70.0084375 293.06148438 -69.173125 293.67765625 -68.3125 294.3125 C-67.3946875 295.01117188 -66.476875 295.70984375 -65.53125 296.4296875 C-60.61849538 300.11425347 -56.12512423 303.19881846 -50.3125 305.3125 C-49.58933594 305.65023438 -48.86617188 305.98796875 -48.12109375 306.3359375 C-21.65862721 318.31413263 21.03223916 310.90555908 47.2421875 301.49609375 C53.80138661 298.98513283 59.25004035 295.80026636 64.6875 291.3125 C65.3990625 290.75304687 66.110625 290.19359375 66.84375 289.6171875 C72.04008282 285.37919475 74.69545807 281.78663626 76.6875 275.3125 C77.19539062 274.16652344 77.70328125 273.02054687 78.2265625 271.83984375 C80.23584415 266.49603561 80.13835858 261.27402455 80.0625 255.625 C80.05452393 254.56297363 80.04654785 253.50094727 80.03833008 252.40673828 C79.87565115 243.4326272 79.135355 235.11754871 75 227 C73.231385 223.37855024 72.75811985 220.20704538 73.6875 216.3125 C75.03193755 214.21551564 76.54794483 212.38060094 78.15234375 210.4765625 C80.75284483 206.81071619 81.67593536 202.64270654 82.6875 198.3125 C83.3475 198.3125 84.0075 198.3125 84.6875 198.3125 C84.873125 196.3634375 84.873125 196.3634375 85.0625 194.375 C85.36622862 191.18584948 85.95124919 188.17636353 86.70703125 185.0703125 C87.76988573 180.38298847 88.03336614 175.92026269 88 171.125 C87.99653564 170.30346436 87.99307129 169.48192871 87.98950195 168.63549805 C87.80752627 158.29706714 85.49025241 148.90992276 81.6875 139.3125 C81.6875 138.3225 81.6875 137.3325 81.6875 136.3125 C81.0275 136.3125 80.3675 136.3125 79.6875 136.3125 C79.3575 134.3325 79.0275 132.3525 78.6875 130.3125 C78.0275 130.3125 77.3675 130.3125 76.6875 130.3125 C76.3575 129.36375 76.0275 128.415 75.6875 127.4375 C69.06257099 112.15394284 53.60614278 101.5363853 38.875 95.0625 C32.38388851 92.59778991 25.50239159 91.51192092 18.6875 90.3125 C18.6875 85.73844453 19.13482216 85.34683211 22 82.0625 C27.74105022 75.14898178 32.73700446 67.80268568 37.6875 60.3125 C38.44643555 59.17240479 38.44643555 59.17240479 39.22070312 58.00927734 C47.62463445 45.65747176 47.62463445 45.65747176 50.6875 31.3125 C50.72875 30.07757813 50.77 28.84265625 50.8125 27.5703125 C50.86778905 24.1354803 50.89517599 20.74156864 50.6875 17.3125 C49.08868127 15.71368127 47.46545389 15.8741373 45.25 15.6875 C39.2011803 15.77378844 36.25541459 18.37492583 32.0859375 22.53125 C26.88985255 28.55667749 22.56978594 34.88946993 19.6875 42.3125 C18.61697023 44.42320947 17.53224125 46.52674595 16.4375 48.625 C13.40893369 54.53564045 10.95142499 60.55001809 8.72949219 66.8059082 C7.30205798 70.80588926 5.59554908 74.52312522 3.6875 78.3125 C3.336875 79.570625 2.98625 80.82875 2.625 82.125 C2.315625 83.176875 2.00625 84.22875 1.6875 85.3125 C-1.6407731 86.97663655 -5.30983973 86.13117406 -8.9375 85.875 C-9.73929687 85.82279297 -10.54109375 85.77058594 -11.3671875 85.71679688 C-13.34929103 85.58701629 -15.33094499 85.45040265 -17.3125 85.3125 C-18.421875 83.5546875 -18.421875 83.5546875 -19.3125 81.3125 C-18.703125 79.3828125 -18.703125 79.3828125 -17.5625 77.4375 C-15.66923908 74.14429262 -14.49018768 70.92555692 -13.3125 67.3125 C-12.38810324 64.994731 -11.44958398 62.68256425 -10.5 60.375 C-4.9598349 46.67999877 -0.23499862 33.39796591 0 18.5 C0.01780518 17.76990723 0.03561035 17.03981445 0.05395508 16.28759766 C0.04724307 11.80501216 -0.44622703 8.82098036 -3.3125 5.3125 C-6.18226283 4.47766674 -6.18226283 4.47766674 -9.3125 5.3125 C-20.09491493 12.19489251 -24.72155295 24.95109361 -29.3125 36.3125 C-29.80105469 37.50101563 -30.28960937 38.68953125 -30.79296875 39.9140625 C-32.86650074 45.10701358 -34.5260986 50.08558835 -35.68530273 55.54467773 C-37.08009165 61.69988284 -38.79725972 67.78134176 -40.4375 73.875 C-40.81397713 75.27924996 -41.19028057 76.68354649 -41.56640625 78.08789062 C-42.47976991 81.49663283 -43.39547946 84.9047395 -44.3125 88.3125 C-45.35148437 88.56644531 -46.39046875 88.82039063 -47.4609375 89.08203125 C-51.75053569 90.13652957 -56.03298325 91.21786112 -60.3125 92.3125 C-61.29347656 92.56257813 -62.27445313 92.81265625 -63.28515625 93.0703125 C-68.48967484 94.50547293 -72.87808339 96.52630852 -77.5 99.32421875 C-79.3125 100.3125 -79.3125 100.3125 -81.3125 100.3125 C-81.3125 100.9725 -81.3125 101.6325 -81.3125 102.3125 C-82.66050105 103.24326263 -84.01299943 104.17073907 -85.4140625 105.01953125 C-90.75678613 108.65829981 -94.86606681 112.80535121 -98.8125 117.875 C-99.2873584 118.48126221 -99.7622168 119.08752441 -100.25146484 119.7121582 C-105.0625367 126.02411999 -108.79351019 132.75553056 -111.3125 140.3125 C-111.9725 140.3125 -112.6325 140.3125 -113.3125 140.3125 C-113.62548952 142.33325757 -113.93786704 144.35410994 -114.25 146.375 C-114.42402344 147.50035156 -114.59804687 148.62570313 -114.77734375 149.78515625 C-114.95394531 150.94917969 -115.13054687 152.11320313 -115.3125 153.3125 C-115.49554688 154.43140625 -115.67859375 155.5503125 -115.8671875 156.703125 C-116.37602819 160.82741273 -116.50444484 164.84896003 -116.5 169 C-116.4987915 170.17985474 -116.4987915 170.17985474 -116.49755859 171.38354492 C-116.42184843 178.64949407 -116.04669391 186.04927331 -113.28125 192.84765625 C-112.31911711 195.29566371 -111.99173467 197.33846671 -111.6875 199.9375 C-110.64802783 205.71523279 -107.62689653 209.46996337 -103.9921875 213.96484375 C-102.3125 216.3125 -102.3125 216.3125 -102.3125 219.3125 C-105.99575659 219.20088616 -108.13505829 217.93528751 -110.8125 215.5625 C-123.62322944 201.91628821 -123.95434288 177.45550191 -123.44433594 159.81933594 C-122.38920755 139.75626496 -109.06875627 119.49126022 -95.5 105.25 C-93.3125 103.3125 -93.3125 103.3125 -91.3125 103.3125 C-91.3125 102.6525 -91.3125 101.9925 -91.3125 101.3125 C-82.05684876 91.76940617 -66.61095791 87.84342784 -54.0390625 84.73046875 C-52.96479004 84.46387451 -51.89051758 84.19728027 -50.78369141 83.92260742 C-49.96819824 83.72127197 -49.15270508 83.51993652 -48.3125 83.3125 C-47.96638672 81.84949463 -47.96638672 81.84949463 -47.61328125 80.35693359 C-32.58666058 17.16284943 -32.58666058 17.16284943 -13.375 0.8125 C-8.8082335 -1.42428359 -4.94880314 -1.4712658 0 0 Z " fill="#0A0908" transform="translate(181.3125,21.6875)"/>
<path d="M0 0 C0.33 1.32 0.66 2.64 1 4 C1.66 4 2.32 4 3 4 C3 4.66 3 5.32 3 6 C3.721875 6.2475 4.44375 6.495 5.1875 6.75 C11.40143621 9.51174943 15.25936392 13.85465063 18 20 C19.23455264 24.81023864 19.58334203 29.27751428 17.875 34 C15.75455143 37.39271771 14.6533709 37.75426041 11 39 C11.04640625 39.85980469 11.0928125 40.71960938 11.140625 41.60546875 C11.55337494 55.12302923 8.45560828 67.56889157 -0.671875 77.890625 C-7.65268969 84.51344919 -17.04995358 89.72248419 -26.125 92.8125 C-29.04306324 94.00772148 -29.82050121 94.64211732 -31.2578125 97.5078125 C-31.91537749 99.44944142 -32.53456951 101.40452127 -33.11328125 103.37109375 C-34.30701332 106.9102201 -36.08147915 108.72213007 -39 111 C-39.763125 111.61875 -40.52625 112.2375 -41.3125 112.875 C-44.51875435 114.21715298 -46.71103236 114.4697093 -50.12890625 113.9140625 C-53.38043292 112.32563402 -54.17837574 109.47619525 -55.40625 106.2265625 C-56 104 -56 104 -56 101 C-57.02222656 101.16242188 -58.04445312 101.32484375 -59.09765625 101.4921875 C-65.5217035 102.29218986 -71.97446928 102.14459484 -78.4375 102.125 C-80.34499023 102.13080078 -80.34499023 102.13080078 -82.29101562 102.13671875 C-88.94626847 102.12981854 -95.40489432 101.90422559 -102 101 C-102.226875 101.886875 -102.45375 102.77375 -102.6875 103.6875 C-104.22895291 107.57783354 -105.73852349 109.39081879 -109 112 C-114.78629032 114.47983871 -114.78629032 114.47983871 -118.6875 112.9375 C-123.16695172 109.18444586 -125.33814338 105.51533697 -127.125 100 C-128.94154518 95.45030428 -130.21692838 93.27936372 -134.6875 91.1875 C-135.55375 90.83945312 -136.42 90.49140625 -137.3125 90.1328125 C-147.7352994 85.73948136 -156.75480634 77.27668024 -163 68 C-163.77537109 66.8553125 -163.77537109 66.8553125 -164.56640625 65.6875 C-168.53044608 59.48809937 -173 51.55294347 -173 44 C-174.28003906 44.29777344 -174.28003906 44.29777344 -175.5859375 44.6015625 C-179.44878521 45.05237539 -181.92146553 44.51121315 -185.625 43.375 C-186.73101562 43.05273438 -187.83703125 42.73046875 -188.9765625 42.3984375 C-192.49397654 40.77151989 -193.95955853 39.27056408 -196 36 C-197.8167382 28.6796137 -194.4631769 22.2298693 -190.8671875 16.0546875 C-187.92504093 11.55378778 -184.58300885 8.80072763 -180 6 C-179.01 6 -178.02 6 -177 6 C-177.25 8.375 -177.25 8.375 -178 11 C-179.9375 12.0625 -179.9375 12.0625 -182 13 C-182.70394612 14.31403276 -183.36345658 15.6520257 -184 17 C-184.845625 17.845625 -185.69125 18.69125 -186.5625 19.5625 C-190.1790721 23.67901 -189.89732008 28.75398977 -190 34 C-185.09075703 37.92739438 -182.26079448 38.43177893 -176 38 C-175.94600264 36.54207116 -175.90720823 35.08357288 -175.875 33.625 C-175.85179687 32.81289063 -175.82859375 32.00078125 -175.8046875 31.1640625 C-175.78629949 28.78657757 -175.78629949 28.78657757 -178 27 C-178 25.68 -178 24.36 -178 23 C-176.68 22.67 -175.36 22.34 -174 22 C-173.34 19.36 -172.68 16.72 -172 14 C-170.68 14.33 -169.36 14.66 -168 15 C-168.165 16.175625 -168.33 17.35125 -168.5 18.5625 C-170.5252954 37.81792042 -166.7874558 54.00492011 -154.50390625 69.19921875 C-152.38219908 71.57248558 -150.40969485 73.47638827 -147.875 75.375 C-147.1015625 75.95507812 -146.328125 76.53515625 -145.53125 77.1328125 C-144.6959375 77.74898438 -143.860625 78.36515625 -143 79 C-142.0821875 79.69867188 -141.164375 80.39734375 -140.21875 81.1171875 C-135.30599538 84.80175347 -130.81262423 87.88631846 -125 90 C-124.27683594 90.33773437 -123.55367188 90.67546875 -122.80859375 91.0234375 C-96.34612721 103.00163263 -53.65526084 95.59305908 -27.4453125 86.18359375 C-20.88611339 83.67263283 -15.43745965 80.48776636 -10 76 C-9.2884375 75.44054687 -8.576875 74.88109375 -7.84375 74.3046875 C-2.64741718 70.06669475 0.00795807 66.47413626 2 60 C2.50789062 58.85402344 3.01578125 57.70804687 3.5390625 56.52734375 C5.54834415 51.18353561 5.45085858 45.96152455 5.375 40.3125 C5.36702393 39.25047363 5.35904785 38.18844727 5.35083008 37.09423828 C5.18815115 28.1201272 4.447855 19.80504871 0.3125 11.6875 C-1.52821742 7.91841194 -1.28245578 5.16622272 -1 1 C-0.67 0.67 -0.34 0.34 0 0 Z " fill="#0B0A09" transform="translate(256,237)"/>
<path d="M0 0 C0.58984375 1.87109375 0.58984375 1.87109375 1 4 C0.04701223 5.36733028 -0.95374591 6.70264493 -2 8 C-2 8.99 -2 9.98 -2 11 C1.41019899 10.41795291 3.00486226 9.29078344 5.4375 6.875 C8.65511725 4.00802053 8.65511725 4.00802053 11.6875 3.9375 C14.08923146 5.04099824 15.99028178 6.28801781 18 8 C17.67 8.99 17.34 9.98 17 11 C15.02 11.33 13.04 11.66 11 12 C11 13.65 11 15.3 11 17 C11.86625 16.67 12.7325 16.34 13.625 16 C16.95718275 15.01268659 19.55159538 14.83579026 23 15 C24.59138085 19.17737474 25.21278058 22.53160785 25 27 C23.35 27 21.7 27 20 27 C21.07401108 29.91517292 21.77810176 31.77810176 24 34 C24 39.61322932 22.17835627 43.04605169 18.69140625 47.3984375 C15.73140763 50.20120756 12.84604256 50 9 50 C8.938125 50.78375 8.87625 51.5675 8.8125 52.375 C8 55 8 55 5.6875 56.3125 C3 57 3 57 -1 57 C-1.33 54.69 -1.66 52.38 -2 50 C-3.98 50.495 -3.98 50.495 -6 51 C-6.33 52.98 -6.66 54.96 -7 57 C-12.20540698 56.03603575 -16.59913433 55.12319499 -21 52 C-19.82732735 48.0309541 -18.49989338 45.26073049 -16 42 C-15.29485154 39.85266073 -15.29485154 39.85266073 -15 38 C-17.53910197 38.38520564 -18.72751123 38.70097943 -20.484375 40.62890625 C-20.90203125 41.26699219 -21.3196875 41.90507812 -21.75 42.5625 C-22.17796875 43.20316406 -22.6059375 43.84382813 -23.046875 44.50390625 C-23.36140625 44.99761719 -23.6759375 45.49132812 -24 46 C-25.859375 45.77734375 -25.859375 45.77734375 -28 45 C-29.265625 43.00390625 -29.265625 43.00390625 -30.25 40.5625 C-30.58515625 39.75941406 -30.9203125 38.95632813 -31.265625 38.12890625 C-32 36 -32 36 -32 34 C-30.515 33.505 -30.515 33.505 -29 33 C-27.77479736 29.99152582 -27.77479736 29.99152582 -27 27 C-28.65 27 -30.3 27 -32 27 C-31.67 25.02 -31.34 23.04 -31 21 C-29.35 21 -27.7 21 -26 21 C-26.57584432 18.61435923 -27.22227595 16.33317216 -28 14 C-26.5 10.8125 -26.5 10.8125 -24 8 C-20.25 7.625 -20.25 7.625 -17 8 C-16.79375 7.05125 -16.5875 6.1025 -16.375 5.125 C-15 2 -15 2 -12.4375 0.625 C-8.23844743 -0.1384641 -4.25307297 -0.17012292 0 0 Z " fill="#FCFCFC" transform="translate(208,257)"/>
<path d="M0 0 C-0.45286631 4.86831281 -1.58321469 7.48559226 -5 11 C-8.05975443 13.00796384 -9.14485886 13 -13 13 C-15.29013653 9.5647952 -15.17842973 8.014669 -15 4 C-14.37351563 3.79503906 -13.74703125 3.59007812 -13.1015625 3.37890625 C-12.28429687 3.10949219 -11.46703125 2.84007812 -10.625 2.5625 C-9.81289062 2.29566406 -9.00078125 2.02882813 -8.1640625 1.75390625 C-3.12953368 0 -3.12953368 0 0 0 Z " fill="#E5D8B7" transform="translate(220,333)"/>
<path d="M0 0 C-0.125 1.8125 -0.125 1.8125 -1 4 C-1.86625 4.4125 -2.7325 4.825 -3.625 5.25 C-8.18374377 7.61379306 -10.82168318 11.04120893 -14 15 C-15.32 14.67 -16.64 14.34 -18 14 C-17.87959573 10.02665924 -16.42754067 8.11062182 -13.75 5.375 C-5.98651961 -1.88147759 -5.98651961 -1.88147759 0 0 Z " fill="#1F1D19" transform="translate(223,254)"/>
<path d="M0 0 C5.05531868 0.77774134 10.01716284 1.85948394 15 3 C14.64005447 5.6635969 14.28838998 7.58183452 12.75 9.8125 C10.31809822 11.46271906 8.89184268 11.38702857 6 11 C4.19921875 9.1015625 4.19921875 9.1015625 2.6875 6.625 C1.91986328 5.40683594 1.91986328 5.40683594 1.13671875 4.1640625 C0 2 0 2 0 0 Z " fill="#EBDEBC" transform="translate(133,334)"/>
<path d="M0 0 C1.32 0 2.64 0 4 0 C3.54420068 4.89984267 2.43739487 7.46970256 -1 11 C-4.76028487 13.96022426 -7.1551904 15.5699776 -12 15 C-12 13.68 -12 12.36 -12 11 C-10.948125 10.484375 -9.89625 9.96875 -8.8125 9.4375 C-5.80822755 7.75971075 -4.18182179 6.12992388 -2.3125 3.25 C-1.549375 2.1775 -0.78625 1.105 0 0 Z " fill="#161512" transform="translate(189,295)"/>
<path d="M0 0 C2.125 0.375 2.125 0.375 4 1 C3.52013969 6.56890517 2.70084819 11.67067568 1 17 C-0.98 17.33 -2.96 17.66 -5 18 C-4.125 13.25 -4.125 13.25 -3 11 C-2.72975292 8.70075503 -2.55502159 6.40198513 -2.37890625 4.09375 C-2 2 -2 2 0 0 Z " fill="#2C2B27" transform="translate(203,306)"/>
<path d="M0 0 C4.85042388 0.41575062 6.84319505 2.41659978 10 6 C12.1519437 9.22791555 12.20086443 10.28400809 12 14 C10.35 13.67 8.7 13.34 7 13 C6.67 11.68 6.34 10.36 6 9 C5.34 9 4.68 9 4 9 C0.88002198 5.69649386 0 4.67590167 0 0 Z " fill="#24231E" transform="translate(228,284)"/>
<path d="M0 0 C1.32 0 2.64 0 4 0 C3.37183502 3.94949704 2.1354471 7.19892028 0.4375 10.8125 C-0.01753906 11.78832031 -0.47257813 12.76414062 -0.94140625 13.76953125 C-1.29074219 14.50558594 -1.64007813 15.24164063 -2 16 C-3.32 15.67 -4.64 15.34 -6 15 C-5.64017119 9.24273906 -4.099893 4.25460594 0 0 Z " fill="#1D1B17" transform="translate(193,248)"/>
<path d="M0 0 C0.33 1.32 0.66 2.64 1 4 C-0.87422152 4.48220263 -2.74941754 4.96061833 -4.625 5.4375 C-5.66914063 5.70433594 -6.71328125 5.97117187 -7.7890625 6.24609375 C-10.84891124 6.96452539 -13.8948051 7.51976716 -17 8 C-17 6.35 -17 4.7 -17 3 C-11.06108578 0.4084738 -6.45892714 -0.40368295 0 0 Z " fill="#161512" transform="translate(236,266)"/>
<path d="M0 0 C1.32 0 2.64 0 4 0 C4.61875 1.60875 4.61875 1.60875 5.25 3.25 C6.36841497 5.92236654 7.10891642 7.10589096 9.25 9.1875 C9.8275 9.785625 10.405 10.38375 11 11 C10.75 13.25 10.75 13.25 10 15 C6.06667508 14.47671952 4.59450147 12.81069239 2.1875 9.75 C1.56230469 8.98171875 0.93710938 8.2134375 0.29296875 7.421875 C-1 5 -1 5 -0.69921875 2.203125 C-0.46847656 1.47609375 -0.23773438 0.7490625 0 0 Z " fill="#1F1E1B" transform="translate(172,264)"/>
<path d="M0 0 C1.5 1.375 1.5 1.375 3 3 C3 3.66 3 4.32 3 5 C3.66 5 4.32 5 5 5 C7.59227518 9.86051596 7.18689553 14.65271133 7 20 C5.68 20.33 4.36 20.66 3 21 C2.86722656 19.90300781 2.73445313 18.80601562 2.59765625 17.67578125 C2.41937015 16.22134199 2.2409792 14.76691558 2.0625 13.3125 C1.97548828 12.59126953 1.88847656 11.87003906 1.79882812 11.12695312 C1.33686195 7.37989416 0.80832321 3.69207089 0 0 Z " fill="#C5BA9D" transform="translate(263,249)"/>
<path d="M0 0 C0.99 0 1.98 0 3 0 C4.32229189 2.64458379 4.09677194 4.67761301 4.0625 7.625 C4.05347656 8.62789063 4.04445312 9.63078125 4.03515625 10.6640625 C4.02355469 11.43492187 4.01195312 12.20578125 4 13 C2.0625 13.5625 2.0625 13.5625 0 14 C-1 13 -1 13 -1.1328125 10.3125 C-1.13023437 9.219375 -1.12765625 8.12625 -1.125 7 C-1.12757813 5.906875 -1.13015625 4.81375 -1.1328125 3.6875 C-1 1 -1 1 0 0 Z " fill="#13120F" transform="translate(219,306)"/>
<path d="M0 0 C-0.1875 2.375 -0.1875 2.375 -1 5 C-4.05715786 6.92164209 -5.7129895 7.03249175 -9.3125 6.625 C-10.199375 6.41875 -11.08625 6.2125 -12 6 C-11.67 4.68 -11.34 3.36 -11 2 C-7.12315913 0.80712589 -4.08378077 0 0 0 Z " fill="#1D1C18" transform="translate(181,284)"/>
<path d="M0 0 C0.66 0.33 1.32 0.66 2 1 C-2.29 5.29 -6.58 9.58 -11 14 C-11.66 13.67 -12.32 13.34 -13 13 C-9.0580583 8.11950075 -4.88049925 3.9419417 0 0 Z " fill="#CEC3A5" transform="translate(96,125)"/>
<path d="M0 0 C0.99 0 1.98 0 3 0 C3.33 1.98 3.66 3.96 4 6 C3.67 5.01 3.34 4.02 3 3 C2.01 3.495 2.01 3.495 1 4 C0.53348793 6.12576782 0.53348793 6.12576782 0.375 8.5625 C0.30023438 9.38878906 0.22546875 10.21507812 0.1484375 11.06640625 C0.09945312 11.70449219 0.05046875 12.34257812 0 13 C-0.33 13 -0.66 13 -1 13 C-1.02686553 11.02090602 -1.04633375 9.04171029 -1.0625 7.0625 C-1.07410156 5.96035156 -1.08570313 4.85820312 -1.09765625 3.72265625 C-1 1 -1 1 0 0 Z " fill="#3A3831" transform="translate(219,306)"/>
<path d="M0 0 C0.66 0 1.32 0 2 0 C2 2.31 2 4.62 2 7 C1.01 7.33 0.02 7.66 -1 8 C-1.04241723 5.66705225 -1.04092937 3.33297433 -1 1 C-0.67 0.67 -0.34 0.34 0 0 Z " fill="#F1E4C0" transform="translate(268,262)"/>
<path d="M0 0 C1.32 0 2.64 0 4 0 C3.67 1.32 3.34 2.64 3 4 C3 3.34 3 2.68 3 2 C1.35 3.32 -0.3 4.64 -2 6 C-2.66 5.67 -3.32 5.34 -4 5 C-2.25 2.5 -2.25 2.5 0 0 Z " fill="#413E38" transform="translate(189,295)"/>
<path d="M0 0 C1.32 0 2.64 0 4 0 C3.67 1.32 3.34 2.64 3 4 C3 3.34 3 2.68 3 2 C1.02 3.32 -0.96 4.64 -3 6 C-1.125 1.125 -1.125 1.125 0 0 Z " fill="#302D27" transform="translate(193,248)"/>
<path d="M0 0 C0.33 1.32 0.66 2.64 1 4 C1.66 4 2.32 4 3 4 C3 4.66 3 5.32 3 6 C1 7.625 1 7.625 -1 9 C-1.09765625 2.84765625 -1.09765625 2.84765625 -1 1 C-0.67 0.67 -0.34 0.34 0 0 Z " fill="#312F28" transform="translate(256,237)"/>
<path d="M0 0 C1.32 0 2.64 0 4 0 C3.67 0.99 3.34 1.98 3 3 C2.34 2.67 1.68 2.34 1 2 C0.67 3.32 0.34 4.64 0 6 C-0.38218767 4.34385343 -0.71395102 2.67542976 -1 1 C-0.67 0.67 -0.34 0.34 0 0 Z " fill="#4F4B40" transform="translate(172,264)"/>
<path d="M0 0 C0.66 0 1.32 0 2 0 C0.70700306 2.88437779 -0.65941363 4.87219421 -3 7 C-3.66 6.67 -4.32 6.34 -5 6 C-3.38405168 3.95880212 -1.7143618 1.95927063 0 0 Z " fill="#C7BC9F" transform="translate(168,29)"/>
</svg>
