<?xml version="1.0" encoding="UTF-8"?>
<svg version="1.1" xmlns="http://www.w3.org/2000/svg" width="360" height="360">
<path d="M0 0 C2.75329021 1.79562405 4.52627461 3.05254922 6 6 C7.92349714 30.65860271 -6.67679568 50.90557788 -22 69 C-20.02 69.495 -20.02 69.495 -18 70 C-17.41734375 69.030625 -16.8346875 68.06125 -16.234375 67.0625 C-10.4429302 57.54747008 -4.1884047 48.55419676 2.63964844 39.75537109 C3.85655047 38.18510448 5.05822752 36.60306644 6.2578125 35.01953125 C13.26770551 25.93416011 21.88262973 17.70579009 33 14 C38.34113819 13.535884 43.26325529 13.26522339 48.25 15.375 C51.01251847 19.5187777 50.73099855 23.17540957 50 28 C45.28880143 46.63995954 27.16299613 61.00626099 14 74 C15.03833984 74.29390625 15.03833984 74.29390625 16.09765625 74.59375 C38.96368271 81.58310196 58.54001607 96.59786691 70.06640625 117.73046875 C80.57776973 137.62413487 83.88775069 158.41793462 78.11328125 180.37109375 C76.36692739 185.45829848 74.12518078 189.64706963 71 194 C71 194.66 71 195.32 71 196 C72.16965793 197.04497358 73.38768092 198.036096 74.625 199 C83.49673374 206.5684525 88.25605286 217.94387424 89.203125 229.47265625 C89.46778966 244.09537897 84.55716167 258.18483543 74.3671875 268.85546875 C67.78157639 274.82164119 60.56959867 279.28970814 52.63037109 283.17285156 C44.17218778 287.32755038 38.67726393 291.95393644 32.578125 299.08984375 C28.28876993 303.93161576 24.62672852 306.56221191 18.25 307.625 C15 307 15 307 12.625 304.75 C11.20022363 302.33883999 10.58308496 300.67533098 10 298 C8.97261719 298.0721875 7.94523438 298.144375 6.88671875 298.21875 C-4.64534186 299.00486819 -15.50638335 299.48581466 -26.95703125 297.4375 C-30.08554637 296.98770065 -32.84920199 296.69367242 -36 297 C-37.87196769 298.39870926 -37.87196769 298.39870926 -39.1875 300.375 C-41.10413711 302.94107613 -42.24721478 304.16480985 -45 306 C-50.22665392 306.69835741 -55.25441771 307.15049742 -59.75 304.1875 C-61.91486443 298.6670957 -61.87272969 292.61818907 -60 287 C-61.155 286.690625 -62.31 286.38125 -63.5 286.0625 C-80.68508213 280.22605701 -96.02320295 268.15798393 -106 253 C-106.81708498 251.19881581 -107.60960567 249.38624995 -108.375 247.5625 C-110.01404773 243.98502746 -110.01404773 243.98502746 -113.24609375 241.953125 C-114.96292066 241.52457156 -116.68896107 241.13143469 -118.421875 240.7734375 C-122.84498161 239.44650552 -125.91527878 236.3424525 -129 233 C-131.10787371 228.78425259 -130.50441731 223.82851275 -129.28125 219.39453125 C-127.28676839 214.07859438 -124.89899974 210.11561083 -121 206 C-121.45890625 205.55011719 -121.9178125 205.10023438 -122.390625 204.63671875 C-132.32115139 194.226356 -136.41352639 176.20286097 -137 162 C-137.03996094 161.12730469 -137.07992187 160.25460938 -137.12109375 159.35546875 C-137.58476334 138.98128162 -133.37030375 118.24385993 -119.5 102.625 C-118.00928332 101.07435501 -116.51005381 99.53182035 -115 98 C-114.45988281 97.38769531 -113.91976562 96.77539062 -113.36328125 96.14453125 C-101.8989006 83.52504927 -85.0424528 77.18918443 -69 73 C-68.16597656 72.77183594 -67.33195312 72.54367188 -66.47265625 72.30859375 C-63.15660401 71.42554818 -60.46485802 71 -57 71 C-56.82984375 70.45980225 -56.6596875 69.91960449 -56.484375 69.36303711 C-50.06278538 49.48557004 -39.97340435 27.94049577 -25 13 C-24.34 13 -23.68 13 -23 13 C-23 12.34 -23 11.68 -23 11 C-16.37322143 4.83159545 -9.50437962 -1.20964832 0 0 Z " fill="#FBEDC8" transform="translate(196,44)"/>
<path d="M0 0 C2.75329021 1.79562405 4.52627461 3.05254922 6 6 C7.92349714 30.65860271 -6.67679568 50.90557788 -22 69 C-20.02 69.495 -20.02 69.495 -18 70 C-17.41734375 69.030625 -16.8346875 68.06125 -16.234375 67.0625 C-10.4429302 57.54747008 -4.1884047 48.55419676 2.63964844 39.75537109 C3.85655047 38.18510448 5.05822752 36.60306644 6.2578125 35.01953125 C13.26770551 25.93416011 21.88262973 17.70579009 33 14 C38.34113819 13.535884 43.26325529 13.26522339 48.25 15.375 C51.01251847 19.5187777 50.73099855 23.17540957 50 28 C45.28880143 46.63995954 27.16299613 61.00626099 14 74 C15.03833984 74.29390625 15.03833984 74.29390625 16.09765625 74.59375 C38.96368271 81.58310196 58.54001607 96.59786691 70.06640625 117.73046875 C80.57776973 137.62413487 83.88775069 158.41793462 78.11328125 180.37109375 C76.36692739 185.45829848 74.12518078 189.64706963 71 194 C71 194.66 71 195.32 71 196 C72.16965793 197.04497358 73.38768092 198.036096 74.625 199 C83.49673374 206.5684525 88.25605286 217.94387424 89.203125 229.47265625 C89.46778966 244.09537897 84.55716167 258.18483543 74.3671875 268.85546875 C67.78157639 274.82164119 60.56959867 279.28970814 52.63037109 283.17285156 C44.17218778 287.32755038 38.67726393 291.95393644 32.578125 299.08984375 C28.28876993 303.93161576 24.62672852 306.56221191 18.25 307.625 C15 307 15 307 12.625 304.75 C11.20022363 302.33883999 10.58308496 300.67533098 10 298 C8.97261719 298.0721875 7.94523438 298.144375 6.88671875 298.21875 C-4.64534186 299.00486819 -15.50638335 299.48581466 -26.95703125 297.4375 C-30.08554637 296.98770065 -32.84920199 296.69367242 -36 297 C-37.87196769 298.39870926 -37.87196769 298.39870926 -39.1875 300.375 C-41.10413711 302.94107613 -42.24721478 304.16480985 -45 306 C-50.22665392 306.69835741 -55.25441771 307.15049742 -59.75 304.1875 C-61.91486443 298.6670957 -61.87272969 292.61818907 -60 287 C-61.155 286.690625 -62.31 286.38125 -63.5 286.0625 C-80.68508213 280.22605701 -96.02320295 268.15798393 -106 253 C-106.81708498 251.19881581 -107.60960567 249.38624995 -108.375 247.5625 C-110.01404773 243.98502746 -110.01404773 243.98502746 -113.24609375 241.953125 C-114.96292066 241.52457156 -116.68896107 241.13143469 -118.421875 240.7734375 C-122.84498161 239.44650552 -125.91527878 236.3424525 -129 233 C-131.10787371 228.78425259 -130.50441731 223.82851275 -129.28125 219.39453125 C-127.28676839 214.07859438 -124.89899974 210.11561083 -121 206 C-121.45890625 205.55011719 -121.9178125 205.10023438 -122.390625 204.63671875 C-132.32115139 194.226356 -136.41352639 176.20286097 -137 162 C-137.03996094 161.12730469 -137.07992187 160.25460938 -137.12109375 159.35546875 C-137.58476334 138.98128162 -133.37030375 118.24385993 -119.5 102.625 C-118.00928332 101.07435501 -116.51005381 99.53182035 -115 98 C-114.45988281 97.38769531 -113.91976562 96.77539062 -113.36328125 96.14453125 C-101.8989006 83.52504927 -85.0424528 77.18918443 -69 73 C-68.16597656 72.77183594 -67.33195312 72.54367188 -66.47265625 72.30859375 C-63.15660401 71.42554818 -60.46485802 71 -57 71 C-56.82984375 70.45980225 -56.6596875 69.91960449 -56.484375 69.36303711 C-50.06278538 49.48557004 -39.97340435 27.94049577 -25 13 C-24.34 13 -23.68 13 -23 13 C-23 12.34 -23 11.68 -23 11 C-16.37322143 4.83159545 -9.50437962 -1.20964832 0 0 Z M-15 11 C-15.845625 11.61875 -16.69125 12.2375 -17.5625 12.875 C-32.78856136 26.14900221 -42.69328438 45.97167979 -49.61328125 64.6328125 C-50.07089844 65.74398437 -50.52851563 66.85515625 -51 68 C-51.34659668 68.93392578 -51.34659668 68.93392578 -51.70019531 69.88671875 C-53.03869463 72.88620963 -54.08026392 74.58008606 -57.12719727 75.97119141 C-59.78112369 76.71334953 -62.41309549 77.26140268 -65.125 77.75 C-66.94071419 78.11678467 -68.75582469 78.48657075 -70.5703125 78.859375 C-71.91851074 79.13128662 -71.91851074 79.13128662 -73.29394531 79.40869141 C-87.35105319 82.48035464 -97.72922554 88.97648492 -108 99 C-109.3303125 100.2684375 -109.3303125 100.2684375 -110.6875 101.5625 C-111.450625 102.366875 -112.21375 103.17125 -113 104 C-113.52980469 104.5465625 -114.05960938 105.093125 -114.60546875 105.65625 C-130.01941391 122.26111807 -131.86713707 140.81604452 -131.3125 162.61328125 C-130.79053143 175.32880835 -129.08043054 190.97671725 -119.515625 200.47387695 C-116.81346806 202.79077833 -114.60251699 204.58432496 -111 205 C-111 205.99 -111 206.98 -111 208 C-114.465 208.99 -114.465 208.99 -118 210 C-118 210.66 -118 211.32 -118 212 C-118.99 212.33 -119.98 212.66 -121 213 C-124.71614647 217.98386199 -125.81029222 222.92280838 -125 229 C-122.44529449 232.63554246 -119.11953842 234.4454572 -115 236 C-110.66499275 236.56676773 -107.07556857 236.37315644 -102.9375 234.9375 C-100.63266572 233.03026917 -100.63266572 233.03026917 -100.5625 229.4375 C-100.65113568 225.94074886 -100.65113568 225.94074886 -103 224 C-105.66242821 223.53709779 -105.66242821 223.53709779 -108.625 223.375 C-109.62789062 223.30023438 -110.63078125 223.22546875 -111.6640625 223.1484375 C-112.82035156 223.07496094 -112.82035156 223.07496094 -114 223 C-113.67 221.68 -113.34 220.36 -113 219 C-107.71008638 218.42524077 -103.29367886 218.1439057 -98.875 221.4375 C-96.30505961 224.00744039 -95.48020888 225.93973926 -95.25 229.5625 C-95.53340358 233.0755236 -95.97877584 233.97288024 -98.25 236.875 C-99.1575 237.57625 -100.065 238.2775 -101 239 C-101.763125 239.598125 -102.52625 240.19625 -103.3125 240.8125 C-103.869375 241.204375 -104.42625 241.59625 -105 242 C-103.66593693 246.85511478 -101.52691181 250.46584085 -98.4375 254.375 C-97.77041016 255.2259021 -97.77041016 255.2259021 -97.08984375 256.09399414 C-90.78285168 263.95869678 -83.2614789 270.77714952 -74 275 C-72.68 275 -71.36 275 -70 275 C-70 275.66 -70 276.32 -70 277 C-69.15695313 277.34933594 -68.31390625 277.69867188 -67.4453125 278.05859375 C-66.34960938 278.51363281 -65.25390625 278.96867187 -64.125 279.4375 C-62.48917969 280.11619141 -62.48917969 280.11619141 -60.8203125 280.80859375 C-59.19441376 281.49543463 -57.57868226 282.21065887 -56 283 C-56.01160156 283.97582031 -56.02320313 284.95164062 -56.03515625 285.95703125 C-56.04417969 287.22933594 -56.05320312 288.50164062 -56.0625 289.8125 C-56.07410156 291.07707031 -56.08570313 292.34164063 -56.09765625 293.64453125 C-56.16159116 296.99605237 -56.16159116 296.99605237 -55 300 C-49.98384047 300.29506821 -47.00318771 300.13763361 -43 297 C-41.63360658 295.3603279 -40.29486821 293.69672386 -39 292 C-34.00807465 289.50403732 -26.09951723 291.60836002 -20.875 293.0625 C-9.67516024 295.74072255 2.36190612 294.32270552 13.4296875 291.80078125 C18.90711612 290.57225514 24.44595751 289.79611064 30 289 C30 290.32 30 291.64 30 293 C28.989375 293.12375 27.97875 293.2475 26.9375 293.375 C23.12062388 293.98085335 19.68499888 294.87193912 16 296 C16.33 297.65 16.66 299.3 17 301 C22.39135718 301.42414523 24.58363796 299.53361657 28.6484375 296.25 C31.10395799 293.90053189 32.9044591 291.45096772 34.875 288.6875 C40.10150969 281.97033086 46.88263725 279.04143929 54.38671875 275.328125 C66.91595297 269.11813749 75.10312475 260.72391237 81 248 C81.66840854 245.37014192 81.66840854 245.37014192 81 243 C78.78307606 241.33542672 78.78307606 241.33542672 76 240 C71.23116003 236.64013548 71.23116003 236.64013548 70.1875 233.75 C70.125625 233.1725 70.06375 232.595 70 232 C75.08938811 233.59043379 78.87456643 236.7446951 83 240 C83.0543965 237.62468606 83.09385864 235.25064117 83.125 232.875 C83.15013672 231.87726563 83.15013672 231.87726563 83.17578125 230.859375 C83.21829658 226.52281098 82.81690323 222.9586832 81 219 C78.01668694 218.00556231 76.79161241 217.97547935 73.76953125 218.33984375 C72.96708984 218.43330078 72.16464844 218.52675781 71.33789062 218.62304688 C70.50451172 218.72681641 69.67113281 218.83058594 68.8125 218.9375 C67.96751953 219.03740234 67.12253906 219.13730469 66.25195312 219.24023438 C64.16725803 219.48757108 62.08352716 219.74301041 60 220 C60.33 219.01 60.66 218.02 61 217 C66.51686417 214.8871584 72.14154439 214.44793021 78 214 C76.29307736 206.40825835 72.02659117 202.81842376 65.7421875 198.61328125 C61.41201423 196.06575766 56.14572641 193 51 193 C51.33 192.01 51.66 191.02 52 190 C57.0302076 190.52537724 62.01885239 191.10594786 67 192 C74.9834259 180.85598027 76.9194066 161.38859925 75 148 C73.71661008 141.55860486 71.9283574 135.27404855 70 129 C69.34 129 68.68 129 68 129 C67.95875 128.21625 67.9175 127.4325 67.875 126.625 C64.46607545 112.5023126 50.55359779 99.04593273 39 91 C37.65615234 90.06220703 37.65615234 90.06220703 36.28515625 89.10546875 C25.26042036 81.76079898 16.15611502 79.35082973 3 79 C3 78.01 3 77.02 3 76 C4.59521484 74.53833008 4.59521484 74.53833008 6.8359375 72.95703125 C12.58729781 68.6677095 17.56786371 63.76285363 22.625 58.6875 C23.52734375 57.80126953 24.4296875 56.91503906 25.359375 56.00195312 C32.56994612 48.79663752 39.06454582 41.29546282 42.9375 31.75 C43.33839844 30.79609375 43.73929688 29.8421875 44.15234375 28.859375 C45.08208245 25.72311358 45.29870054 23.25353824 45 20 C43.0571192 17.65847757 43.0571192 17.65847757 39.5625 17.5 C29.36679548 17.81343034 20.71120919 26.07807781 14 33 C8.85800321 38.67321799 4.21174796 44.6012343 0 51 C-1.06272291 52.52470933 -2.12948422 54.04660805 -3.19921875 55.56640625 C-3.76833984 56.38173828 -4.33746094 57.19707031 -4.92382812 58.03710938 C-6.10529241 59.72884063 -7.29286521 61.41632129 -8.48632812 63.09960938 C-9.05158203 63.91365234 -9.61683594 64.72769531 -10.19921875 65.56640625 C-10.71315186 66.29802979 -11.22708496 67.02965332 -11.7565918 67.78344727 C-13.33270613 70.32582651 -13.33270613 70.32582651 -14 75 C-20.27 75 -26.54 75 -33 75 C-33 73.68 -33 72.36 -33 71 C-31.91332031 70.690625 -31.91332031 70.690625 -30.8046875 70.375 C-27.23618306 68.62553821 -25.39579594 66.14393739 -23.125 63 C-22.69082764 62.41549072 -22.25665527 61.83098145 -21.80932617 61.22875977 C-20.52740922 59.4943458 -19.26238077 57.74866154 -18 56 C-17.35417969 55.12214844 -16.70835937 54.24429688 -16.04296875 53.33984375 C-6.07027933 39.49513947 3.34901129 24.72885367 1 7 C-0.85184234 4.77328432 -0.85184234 4.77328432 -3.625 4.5 C-8.51689417 5.22472506 -11.28349804 7.88742961 -15 11 Z " fill="#0B0B09" transform="translate(196,44)"/>
<path d="M0 0 C0.66 0.66 1.32 1.32 2 2 C1.6390625 2.47050781 1.278125 2.94101563 0.90625 3.42578125 C0.4421875 4.04839844 -0.021875 4.67101562 -0.5 5.3125 C-0.9640625 5.92738281 -1.428125 6.54226562 -1.90625 7.17578125 C-3.25711283 9.07433005 -3.25711283 9.07433005 -3 12 C1.41510774 11.51286902 3.30446645 10.14946803 6.3125 6.9375 C7.00988281 6.20402344 7.70726562 5.47054687 8.42578125 4.71484375 C9.20501953 3.86599609 9.20501953 3.86599609 10 3 C13.40212299 4.61382757 16.10324519 6.58603766 19 9 C18.67 9.99 18.34 10.98 18 12 C15.66666667 12.66666667 13.33333333 13.33333333 11 14 C10.67 14.99 10.34 15.98 10 17 C10.59538574 16.92894043 11.19077148 16.85788086 11.80419922 16.78466797 C14.49328335 16.47012757 17.18396561 16.17237215 19.875 15.875 C21.28072266 15.70677734 21.28072266 15.70677734 22.71484375 15.53515625 C23.61074219 15.43847656 24.50664062 15.34179688 25.4296875 15.2421875 C26.25710449 15.1479248 27.08452148 15.05366211 27.93701172 14.95654297 C30 15 30 15 32 17 C33.22627884 21.21870771 33.11667336 25.45779555 33.0625 29.8125 C33.05798828 30.50537109 33.05347656 31.19824219 33.04882812 31.91210938 C33.03713156 33.60811068 33.01919924 35.30406703 33 37 C32.48050781 36.59007812 31.96101563 36.18015625 31.42578125 35.7578125 C27.7576223 32.92363424 24.48550294 30.40171967 20 29 C21.24976756 32.65316671 21.67098753 33.78065836 25 36 C24.1875 38.9375 24.1875 38.9375 23 42 C22.01 42.33 21.02 42.66 20 43 C20 43.66 20 44.32 20 45 C19.34 45 18.68 45 18 45 C17.34 46.32 16.68 47.64 16 49 C13.69 49 11.38 49 9 49 C8.9175 49.61875 8.835 50.2375 8.75 50.875 C8 53 8 53 6.3125 54.25 C3.45766881 55.1758912 0.98225393 55.135557 -2 55 C-2.495 52.525 -2.495 52.525 -3 50 C-3.99 50 -4.98 50 -6 50 C-6.33 51.32 -6.66 52.64 -7 54 C-12.65394631 54.34615998 -16.03006806 53.43425238 -21 51 C-19.58192622 46.52761347 -17.88695626 42.28853694 -16 38 C-18.37948772 38.17625835 -19.70225849 38.69719773 -21.37890625 40.40234375 C-22.62115486 41.90649092 -23.81376056 43.45129851 -25 45 C-26.75 44.9375 -26.75 44.9375 -29 44 C-31.00840495 41.29950956 -33 38.44873267 -33 35 C-31.66666667 34 -30.33333333 33 -29 32 C-29 31.34 -29 30.68 -29 30 C-31.475 29.01 -31.475 29.01 -34 28 C-33.34 26.02 -32.68 24.04 -32 22 C-30.35 22 -28.7 22 -27 22 C-26.67 20.68 -26.34 19.36 -26 18 C-26.99 17.67 -27.98 17.34 -29 17 C-28.70473074 13.55519195 -27.95938703 11.94505304 -25.875 9.125 C-23 7 -23 7 -19.1875 7.1875 C-18.135625 7.455625 -17.08375 7.72375 -16 8 C-15.4740625 6.576875 -15.4740625 6.576875 -14.9375 5.125 C-13 2 -13 2 -9.6875 0.625 C-6.32010869 0.05425571 -3.39839739 -0.31612999 0 0 Z " fill="#FCFCFB" transform="translate(246,247)"/>
<path d="M0 0 C1.43575636 4.11182582 1.11613857 8.50078446 1.0625 12.8125 C1.05798828 13.50537109 1.05347656 14.19824219 1.04882812 14.91210938 C1.03713156 16.60811068 1.01919924 18.30406703 1 20 C-1.64 18.02 -4.28 16.04 -7 14 C-6.34 13.67 -5.68 13.34 -5 13 C-5.31008884 11.39536551 -5.62316287 9.79130769 -5.9375 8.1875 C-6.11152344 7.29417969 -6.28554688 6.40085937 -6.46484375 5.48046875 C-6.97741153 2.88602829 -6.97741153 2.88602829 -8 0 C-10.64 0 -13.28 0 -16 0 C-16 -0.33 -16 -0.66 -16 -1 C-14.08496326 -1.22281874 -12.16783494 -1.42771076 -10.25 -1.625 C-9.18265625 -1.74101562 -8.1153125 -1.85703125 -7.015625 -1.9765625 C-3.90078464 -2.0007711 -2.42822069 -1.94030719 0 0 Z " fill="#E7DBBB" transform="translate(278,264)"/>
<path d="M0 0 C1.32 0 2.64 0 4 0 C4 4.80238371 2.38505396 6.97800445 -0.875 10.25 C-3.18661972 12.45073021 -5.33411732 14.22274488 -8 16 C-10.1875 15.625 -10.1875 15.625 -12 15 C-11.48645416 10.97271946 -9.61288468 9.47053944 -6.5625 6.9375 C-3.84539342 4.66524875 -1.97974488 2.96961731 0 0 Z " fill="#0F0E0C" transform="translate(226,285)"/>
<path d="M0 0 C0.33 0 0.66 0 1 0 C1.55353075 16.70842825 1.55353075 16.70842825 -2 25 C-3.33332095 22.3333581 -2.67102033 20.83319697 -2 18 C-2.58265625 17.89300781 -3.1653125 17.78601563 -3.765625 17.67578125 C-6.30028935 16.90917822 -7.73354227 15.8894248 -9.75 14.1875 C-10.36359375 13.68605469 -10.9771875 13.18460937 -11.609375 12.66796875 C-13 11 -13 11 -13 7 C-7.55674846 7.32989403 -4.84412796 10.45737227 -1 14 C-0.67 9.38 -0.34 4.76 0 0 Z " fill="#1B1A17" transform="translate(279,269)"/>
<path d="M0 0 C0.70125 0.2475 1.4025 0.495 2.125 0.75 C0.98814577 4.16056269 -0.02831969 4.94934165 -2.75 7.1875 C-5.56361414 9.50795299 -7.78241794 11.75589673 -9.875 14.75 C-11.195 14.42 -12.515 14.09 -13.875 13.75 C-13.20662236 7.90169563 -10.41377977 4.99411982 -5.9375 1.375 C-2.875 -0.25 -2.875 -0.25 0 0 Z " fill="#1E1C19" transform="translate(255.875,245.25)"/>
<path d="M0 0 C2 3 2 3 3 7 C-7.395 7.495 -7.395 7.495 -18 8 C-17.67 6.68 -17.34 5.36 -17 4 C-11.21642935 1.98832325 -6.09781001 1.77915376 0 2 C0 1.34 0 0.68 0 0 Z " fill="#211F1B" transform="translate(274,256)"/>
<path d="M0 0 C1.11375 0.185625 1.11375 0.185625 2.25 0.375 C1.75996298 2.58016659 1.16277645 4.59015143 0.3125 6.6875 C-0.94253437 9.86199869 -1.84690092 13.08513905 -2.75 16.375 C-4.07 16.045 -5.39 15.715 -6.75 15.375 C-7.13271922 10.59100972 -7.15139256 7.2223843 -5.0625 2.8125 C-2.75 0.375 -2.75 0.375 0 0 Z " fill="#24221D" transform="translate(232.75,239.625)"/>
<path d="M0 0 C1.32 0.33 2.64 0.66 4 1 C4.21755666 6.4389165 4.10428384 10.87080814 2 16 C0.68 16 -0.64 16 -2 16 C-2.05449838 14.27119018 -2.09301688 12.54187288 -2.125 10.8125 C-2.14820313 9.84957031 -2.17140625 8.88664062 -2.1953125 7.89453125 C-1.9913544 4.87187222 -1.26874632 2.73230015 0 0 Z " fill="#272520" transform="translate(240,296)"/>
<path d="M0 0 C1.75 0.0625 1.75 0.0625 4 1 C5.52956035 3.23932036 6.71657623 5.60427563 8 8 C8.66 8.33 9.32 8.66 10 9 C9.67 10.65 9.34 12.3 9 14 C6.21289282 13.64174439 5.17568733 13.19463788 3.26171875 11.07421875 C2.48248047 9.89279297 2.48248047 9.89279297 1.6875 8.6875 C1.15511719 7.90761719 0.62273437 7.12773437 0.07421875 6.32421875 C-1 4 -1 4 -0.66796875 1.70703125 C-0.44753906 1.14371094 -0.22710937 0.58039063 0 0 Z " fill="#1E1C18" transform="translate(210,256)"/>
<path d="M0 0 C0.66 1.32 1.32 2.64 2 4 C0.89764064 4.96041171 -0.20696624 5.91824407 -1.3125 6.875 C-1.92738281 7.40867187 -2.54226562 7.94234375 -3.17578125 8.4921875 C-6.65153446 11.36507988 -8.53489529 12.24135701 -13 12 C-13.33 10.35 -13.66 8.7 -14 7 C-12.4188708 6.49307308 -10.83498617 5.99473557 -9.25 5.5 C-8.36828125 5.2215625 -7.4865625 4.943125 -6.578125 4.65625 C-4 4 -4 4 0 4 C0 2.68 0 1.36 0 0 Z " fill="#DDD1B0" transform="translate(226,333)"/>
<path d="M0 0 C1.65 0 3.3 0 5 0 C5.98248524 4.0527516 6.08159574 7.83861737 6 12 C4.0625 12.5625 4.0625 12.5625 2 13 C0.18884044 11.18884044 0.61800552 8.38721773 0.4375 5.9375 C0.35371094 4.83277344 0.26992187 3.72804688 0.18359375 2.58984375 C0.09271484 1.30787109 0.09271484 1.30787109 0 0 Z " fill="#22201C" transform="translate(255,295)"/>
<path d="M0 0 C-1.875 3.875 -1.875 3.875 -3 5 C-5.33944736 4.71269945 -7.6739143 4.38063221 -10 4 C-10 2.68 -10 1.36 -10 0 C-6.33694766 -0.74926071 -3.57644848 -1.2380014 0 0 Z " fill="#211F1B" transform="translate(218,277)"/>
<path d="M0 0 C0.33 0.66 0.66 1.32 1 2 C0.53851563 2.38929688 0.07703125 2.77859375 -0.3984375 3.1796875 C-6.22136647 8.1740574 -11.62707922 13.52798847 -17 19 C-17.66 18.67 -18.32 18.34 -19 18 C-13.25770117 11.26501653 -7.39888962 4.93259308 0 0 Z " fill="#CDC1A4" transform="translate(97,135)"/>
<path d="M0 0 C1.32 0.33 2.64 0.66 4 1 C3.49210938 1.42410156 2.98421875 1.84820312 2.4609375 2.28515625 C-2.16626354 6.22780882 -6.15591946 10.29100134 -10 15 C-9.34 15.33 -8.68 15.66 -8 16 C-9.32 15.67 -10.64 15.34 -12 15 C-11.48645416 10.97271946 -9.61288468 9.47053944 -6.5625 6.9375 C-3.84539342 4.66524875 -1.97974488 2.96961731 0 0 Z " fill="#302E28" transform="translate(226,285)"/>
<path d="M0 0 C0.33 0 0.66 0 1 0 C1.55353075 16.70842825 1.55353075 16.70842825 -2 25 C-3.33332095 22.3333581 -2.67102033 20.83319697 -2 18 C-3.32 17.67 -4.64 17.34 -6 17 C-5.01 16.67 -4.02 16.34 -3 16 C-0.14206684 13.14206684 -0.59200059 10.85334416 -0.375 6.875 C-0.30023438 5.59367187 -0.22546875 4.31234375 -0.1484375 2.9921875 C-0.09945313 2.00476563 -0.05046875 1.01734375 0 0 Z " fill="#403D34" transform="translate(279,269)"/>
<path d="M0 0 C0.66 0.33 1.32 0.66 2 1 C1.28082397 1.7113208 1.28082397 1.7113208 0.54711914 2.43701172 C-1.61701838 4.58040335 -3.77729647 6.7276439 -5.9375 8.875 C-6.69224609 9.62136719 -7.44699219 10.36773437 -8.22460938 11.13671875 C-8.94326172 11.85214844 -9.66191406 12.56757812 -10.40234375 13.3046875 C-11.06741943 13.96452637 -11.73249512 14.62436523 -12.41772461 15.30419922 C-14.0813711 16.92673932 -14.0813711 16.92673932 -15 19 C-15.66 18.67 -16.32 18.34 -17 18 C-13.1362481 13.51270313 -9.24577917 9.13404814 -5 5 C-3.6078125 3.6078125 -3.6078125 3.6078125 -2.1875 2.1875 C-1.465625 1.465625 -0.74375 0.74375 0 0 Z " fill="#D2C7A8" transform="translate(184,52)"/>
<path d="M0 0 C0.90492187 0.02320313 1.80984375 0.04640625 2.7421875 0.0703125 C4.10730469 0.09738281 4.10730469 0.09738281 5.5 0.125 C6.19867188 0.14820313 6.89734375 0.17140625 7.6171875 0.1953125 C7.6171875 0.5253125 7.6171875 0.8553125 7.6171875 1.1953125 C4.6471875 1.1953125 1.6771875 1.1953125 -1.3828125 1.1953125 C-1.3828125 1.8553125 -1.3828125 2.5153125 -1.3828125 3.1953125 C1.2571875 3.8553125 3.8971875 4.5153125 6.6171875 5.1953125 C6.6171875 5.5253125 6.6171875 5.8553125 6.6171875 6.1953125 C3.3171875 6.1953125 0.0171875 6.1953125 -3.3828125 6.1953125 C-3.7128125 4.8753125 -4.0428125 3.5553125 -4.3828125 2.1953125 C-2.3828125 0.1953125 -2.3828125 0.1953125 0 0 Z " fill="#544F44" transform="translate(85.3828125,261.8046875)"/>
<path d="M0 0 C0.66 0.33 1.32 0.66 2 1 C-0.64 3.64 -3.28 6.28 -6 9 C-6.66 8.67 -7.32 8.34 -8 8 C-5.58443874 4.80800833 -3.31996462 2.25283313 0 0 Z " fill="#32302B" transform="translate(251,246)"/>
<path d="M0 0 C0.66 0 1.32 0 2 0 C0.50902342 3.7952131 -1.75700849 5.61042731 -5 8 C-4.1875 5.5625 -4.1875 5.5625 -3 3 C-2.01 2.67 -1.02 2.34 0 2 C0 1.34 0 0.68 0 0 Z " fill="#C4B99D" transform="translate(78,254)"/>
</svg>
