<?xml version="1.0" encoding="UTF-8"?>
<svg version="1.1" xmlns="http://www.w3.org/2000/svg" width="360" height="360">
<path d="M0 0 C10.66550163 8.30258321 22.11535614 19.15816522 27.265625 31.921875 C30.48608109 35.8230779 35.11017511 36.32944367 39.875 37.5625 C63.48509254 44.2196332 84.89081172 57.02463967 97.4375 78.74609375 C103.95493147 91.79550454 107.45337522 104.69284279 108.1875 119.25 C108.25130859 120.49716797 108.25130859 120.49716797 108.31640625 121.76953125 C108.66893295 135.18904764 103.22493553 148.27548115 94.80078125 158.578125 C93.1875 160.25 93.1875 160.25 90.1875 162.25 C91.22841826 164.37561345 92.30425396 166.45485013 93.4765625 168.51171875 C96.59146534 174.16772655 98.44717519 178.77666914 97.1875 185.25 C95.07402997 191.57916822 91.83957276 195.42396362 85.8125 198.4375 C83.1875 199.25 83.1875 199.25 79.875 199.1875 C73.82306951 200.93127658 71.55086712 206.1805771 68.1875 211.25 C58.09217986 225.26664284 40.32282108 234.15110436 24.1875 239.25 C24.3525 240.054375 24.5175 240.85875 24.6875 241.6875 C26.24578687 252.79029397 26.24578687 252.79029397 23.375 256.75 C20.04445707 259.03380087 16.80270881 259.76433241 12.7734375 259.734375 C6.28440161 258.51890604 -1.27429632 254.65803939 -6.02148438 250.15429688 C-9.61255357 247.7041272 -12.54909426 247.73890403 -16.73828125 247.859375 C-17.48587204 247.86503479 -18.23346283 247.87069458 -19.00370789 247.87652588 C-21.37813911 247.89881532 -23.75102938 247.94899344 -26.125 248 C-27.74021249 248.02007481 -29.35544877 248.03832387 -30.97070312 248.0546875 C-34.91855733 248.09865514 -38.86526792 248.16762739 -42.8125 248.25 C-42.77382812 249.34441406 -42.73515625 250.43882812 -42.6953125 251.56640625 C-42.8125 255.25 -42.8125 255.25 -44.6875 258.1875 C-49.19713949 261.16386206 -52.55907608 261.25830668 -57.8125 260.25 C-66.15236541 257.32720132 -76.70463465 251.46573071 -80.8125 243.25 C-83.61691785 242.2358892 -86.40335015 241.31595946 -89.25 240.4375 C-100.85034052 236.69296412 -110.23035024 231.90131056 -119.8125 224.25 C-120.53566406 223.67894531 -121.25882813 223.10789062 -122.00390625 222.51953125 C-131.20138944 214.3659894 -137.18724154 200.80132893 -138.078125 188.6171875 C-138.07296875 187.46476563 -138.0678125 186.31234375 -138.0625 185.125 C-138.06765625 183.96742188 -138.0728125 182.80984375 -138.078125 181.6171875 C-137.80766989 178.18877121 -136.94113935 175.47992726 -135.8125 172.25 C-136.09889786 169.47252318 -136.09889786 169.47252318 -136.8125 167.25 C-134.875 166.6875 -134.875 166.6875 -132.8125 166.25 C-132.4825 166.58 -132.1525 166.91 -131.8125 167.25 C-130.39685166 164.41870331 -130.57025505 162.39918438 -130.8125 159.25 C-131.34875 158.21875 -131.885 157.1875 -132.4375 156.125 C-133.8125 153.25 -133.8125 153.25 -133 150.875 C-132.4121875 150.070625 -132.4121875 150.070625 -131.8125 149.25 C-130.8225 149.58 -129.8325 149.91 -128.8125 150.25 C-128.125 152.3125 -128.125 152.3125 -127.8125 154.25 C-127.1525 154.25 -126.4925 154.25 -125.8125 154.25 C-125.585625 153.528125 -125.35875 152.80625 -125.125 152.0625 C-123.54914872 148.68567583 -121.60373384 146.69232961 -118.8125 144.25 C-118.1525 144.25 -117.4925 144.25 -116.8125 144.25 C-116.52375 143.363125 -116.235 142.47625 -115.9375 141.5625 C-114.8125 138.25 -114.8125 138.25 -113.5625 135.9375 C-112.74250398 132.99918095 -112.98030618 132.06458479 -113.75 129.19921875 C-114.93037508 124.20876584 -115.12164461 119.48706572 -115.0625 114.375 C-115.05283203 113.49295898 -115.04316406 112.61091797 -115.03320312 111.70214844 C-114.7224482 94.85301639 -109.01202767 80.95763184 -97.8125 68.25 C-97.19761719 67.50492187 -96.58273438 66.75984375 -95.94921875 65.9921875 C-86.51258514 54.83464476 -73.93603586 45.46228263 -59.8125 41.25 C-56.8125 41.0625 -56.8125 41.0625 -54.8125 41.25 C-54.8125 40.59 -54.8125 39.93 -54.8125 39.25 C-55.63234375 39.00378906 -56.4521875 38.75757813 -57.296875 38.50390625 C-70.2156327 33.896216 -84.01054381 26.55905237 -90.9375 14.3125 C-93.08261044 9.37643942 -94.15691519 4.55244873 -92.8125 -0.75 C-90.7552934 -3.63405812 -88.19170951 -5.15234254 -84.9375 -6.5625 C-66.6017283 -8.18036221 -52.47572876 2.25792285 -38.8125 13.25 C-37.4841727 14.25664013 -36.15312756 15.25980027 -34.8125 16.25 C-35.21082031 15.693125 -35.60914063 15.13625 -36.01953125 14.5625 C-40.79372632 7.68580053 -45.12431126 0.94074963 -43.8125 -7.75 C-41.57101108 -10.69595686 -40.03791493 -12.40994233 -36.43359375 -13.41015625 C-23.93156078 -15.03113519 -9.94222838 -6.87754728 0 0 Z M-27.8125 23.25 C-27.43738281 23.68570313 -27.06226563 24.12140625 -26.67578125 24.5703125 C-26.16402344 25.16585937 -25.65226562 25.76140625 -25.125 26.375 C-24.29548828 27.32439453 -24.29548828 27.32439453 -23.44921875 28.29296875 C-21.8125 30.25 -21.8125 30.25 -20.58203125 32.05078125 C-18.91802971 34.43036025 -17.66024095 36.09946656 -14.72265625 36.62109375 C-12.2507903 36.66356458 -12.2507903 36.66356458 -8.8125 36.25 C-12.2938608 33.43326263 -15.82771307 30.71266038 -19.4375 28.0625 C-20.37851563 27.36769531 -21.31953125 26.67289063 -22.2890625 25.95703125 C-24.76733598 24.11526027 -24.76733598 24.11526027 -27.8125 23.25 Z " fill="#FBEDC8" transform="translate(201.8125,91.75)"/>
<path d="M0 0 C10.66550163 8.30258321 22.11535614 19.15816522 27.265625 31.921875 C30.48608109 35.8230779 35.11017511 36.32944367 39.875 37.5625 C63.48509254 44.2196332 84.89081172 57.02463967 97.4375 78.74609375 C103.95493147 91.79550454 107.45337522 104.69284279 108.1875 119.25 C108.25130859 120.49716797 108.25130859 120.49716797 108.31640625 121.76953125 C108.66893295 135.18904764 103.22493553 148.27548115 94.80078125 158.578125 C93.1875 160.25 93.1875 160.25 90.1875 162.25 C91.22841826 164.37561345 92.30425396 166.45485013 93.4765625 168.51171875 C96.59146534 174.16772655 98.44717519 178.77666914 97.1875 185.25 C95.07402997 191.57916822 91.83957276 195.42396362 85.8125 198.4375 C83.1875 199.25 83.1875 199.25 79.875 199.1875 C73.82306951 200.93127658 71.55086712 206.1805771 68.1875 211.25 C58.09217986 225.26664284 40.32282108 234.15110436 24.1875 239.25 C24.3525 240.054375 24.5175 240.85875 24.6875 241.6875 C26.24578687 252.79029397 26.24578687 252.79029397 23.375 256.75 C20.04445707 259.03380087 16.80270881 259.76433241 12.7734375 259.734375 C6.28440161 258.51890604 -1.27429632 254.65803939 -6.02148438 250.15429688 C-9.61255357 247.7041272 -12.54909426 247.73890403 -16.73828125 247.859375 C-17.48587204 247.86503479 -18.23346283 247.87069458 -19.00370789 247.87652588 C-21.37813911 247.89881532 -23.75102938 247.94899344 -26.125 248 C-27.74021249 248.02007481 -29.35544877 248.03832387 -30.97070312 248.0546875 C-34.91855733 248.09865514 -38.86526792 248.16762739 -42.8125 248.25 C-42.77382812 249.34441406 -42.73515625 250.43882812 -42.6953125 251.56640625 C-42.8125 255.25 -42.8125 255.25 -44.6875 258.1875 C-49.19713949 261.16386206 -52.55907608 261.25830668 -57.8125 260.25 C-66.15236541 257.32720132 -76.70463465 251.46573071 -80.8125 243.25 C-83.61691785 242.2358892 -86.40335015 241.31595946 -89.25 240.4375 C-100.85034052 236.69296412 -110.23035024 231.90131056 -119.8125 224.25 C-120.53566406 223.67894531 -121.25882813 223.10789062 -122.00390625 222.51953125 C-131.20138944 214.3659894 -137.18724154 200.80132893 -138.078125 188.6171875 C-138.07296875 187.46476563 -138.0678125 186.31234375 -138.0625 185.125 C-138.06765625 183.96742188 -138.0728125 182.80984375 -138.078125 181.6171875 C-137.80766989 178.18877121 -136.94113935 175.47992726 -135.8125 172.25 C-136.09889786 169.47252318 -136.09889786 169.47252318 -136.8125 167.25 C-135.125 166.4375 -135.125 166.4375 -132.8125 166.25 C-130.1875 168.5625 -130.1875 168.5625 -127.8125 171.25 C-127.1525 171.91 -126.4925 172.57 -125.8125 173.25 C-126.1875 175.375 -126.1875 175.375 -126.8125 177.25 C-128.4625 176.92 -130.1125 176.59 -131.8125 176.25 C-131.72467358 179.08467342 -131.61769098 181.91653416 -131.5 184.75 C-131.47744141 185.54148437 -131.45488281 186.33296875 -131.43164062 187.1484375 C-131.18050116 192.71916746 -130.0121181 197.14797827 -127.8125 202.25 C-127.38710937 203.47589844 -127.38710937 203.47589844 -126.953125 204.7265625 C-122.18772282 216.2220502 -110.94932225 225.57068211 -99.6875 230.375 C-97.08628629 231.41124064 -94.46418615 232.35179239 -91.8125 233.25 C-90.72324219 233.63285156 -89.63398437 234.01570312 -88.51171875 234.41015625 C-85.29907736 235.46236632 -82.07858326 236.37804221 -78.8125 237.25 C-78.17231934 237.42660156 -77.53213867 237.60320312 -76.87255859 237.78515625 C-74.77424704 238.35737756 -72.67022035 238.90104671 -70.5625 239.4375 C-68.66757813 239.92283203 -68.66757813 239.92283203 -66.734375 240.41796875 C-56.35265517 242.48056968 -45.44823845 242.29364918 -34.90234375 242.35546875 C-33.21679561 242.37029968 -31.53124873 242.38527422 -29.84570312 242.40039062 C-27.27827772 242.42335154 -24.71229311 242.43731979 -22.14477539 242.42504883 C-4.90442509 242.36505701 -4.90442509 242.36505701 0.75952148 247.82250977 C1.23075439 248.29358154 1.7019873 248.76465332 2.1875 249.25 C8.05654959 251.96272932 13.79016117 252.60540771 20.1875 252.25 C20.04642253 250.79119891 19.89947585 249.33296449 19.75 247.875 C19.66878906 247.06289063 19.58757812 246.25078125 19.50390625 245.4140625 C19.29659886 243.20727195 19.29659886 243.20727195 18.1875 241.25 C16.16286745 240.59786708 16.16286745 240.59786708 14.1875 240.25 C14.1875 238.93 14.1875 237.61 14.1875 236.25 C15.19554687 235.82203125 16.20359375 235.3940625 17.2421875 234.953125 C48.29379837 222.32030222 48.29379837 222.32030222 70.1875 198.25 C69.61 198.20875 69.0325 198.1675 68.4375 198.125 C64.89570775 196.74763635 63.90337719 194.55919173 62.1875 191.25 C61.5 187.75 61.5 187.75 62.1875 184.25 C65.61186395 179.96218612 69.83398178 177.43967072 75.1875 176.25 C76.5075 176.25 77.8275 176.25 79.1875 176.25 C79.1875 177.9 79.1875 179.55 79.1875 181.25 C78.37345703 181.54003906 78.37345703 181.54003906 77.54296875 181.8359375 C76.82753906 182.09632813 76.11210937 182.35671875 75.375 182.625 C74.66730469 182.88023437 73.95960938 183.13546875 73.23046875 183.3984375 C70.93976641 184.2765769 70.93976641 184.2765769 68.1875 186.25 C68.5175 188.56 68.8475 190.87 69.1875 193.25 C71.41605574 193.3314222 73.64547655 193.38938079 75.875 193.4375 C77.11636719 193.47230469 78.35773438 193.50710938 79.63671875 193.54296875 C84.37575632 193.15195905 86.93986152 191.71274856 90 188.125 C91.90677223 183.50860406 92.24796959 178.88374842 90.35546875 174.18359375 C87.35466578 168.80013075 84.98609817 167.01479075 79.1875 165.25 C80.68328209 161.53946873 82.77865013 159.78294147 85.875 157.3125 C93.73726998 150.41736888 98.26087608 141.46110678 100.1875 131.25 C100.5175 130.59 100.8475 129.93 101.1875 129.25 C102.72873749 105.42398443 97.69891482 85.03691187 81.828125 66.90234375 C77.67167389 62.72744685 73.1006235 59.47018505 68.1875 56.25 C67.39085937 55.68410156 66.59421875 55.11820312 65.7734375 54.53515625 C61.08172881 51.238062 56.61698859 49.03474278 51.1875 47.25 C49.81045943 46.73458595 48.43543644 46.21374888 47.0625 45.6875 C41.50869331 43.5780069 36.21494003 41.96820572 30.3125 41.125 C29.16007813 40.95742187 28.00765625 40.78984375 26.8203125 40.6171875 C25.51707031 40.43542969 25.51707031 40.43542969 24.1875 40.25 C23.81625 39.115625 23.445 37.98125 23.0625 36.8125 C19.5403338 27.53420107 13.00935481 20.29442756 6.1875 13.25 C5.44886719 12.48558594 4.71023437 11.72117187 3.94921875 10.93359375 C-4.75738274 2.51965113 -18.16006052 -6.58337422 -30.52734375 -8.078125 C-31.26082031 -8.05234375 -31.99429688 -8.0265625 -32.75 -8 C-33.50152344 -7.98453125 -34.25304687 -7.9690625 -35.02734375 -7.953125 C-36.83495085 -7.93509267 -36.83495085 -7.93509267 -37.8125 -6.75 C-38.075582 1.66862386 -34.80959985 7.78276684 -29.421875 14.015625 C-23.50848488 20.19934152 -17.24786797 24.98798222 -9.8125 29.25 C-9.00941406 29.76433594 -8.20632812 30.27867188 -7.37890625 30.80859375 C-4.52317999 32.4124948 -1.75328392 33.35264146 1.375 34.3125 C6.96685943 36.02935943 6.96685943 36.02935943 9.1875 38.25 C9.1875 39.24 9.1875 40.23 9.1875 41.25 C-12.33091323 44.59273746 -12.33091323 44.59273746 -21.00732422 39.30175781 C-26.86889866 34.38372557 -31.70109941 28.65549521 -36.56518555 22.77612305 C-39.91313477 19.01281717 -43.70312451 16.13172301 -47.8125 13.25 C-48.77833008 12.5530603 -48.77833008 12.5530603 -49.76367188 11.84204102 C-59.78968615 4.7033818 -68.67642484 -1.2020934 -81.3671875 -1.18359375 C-84.2231384 -0.67718712 -85.65360462 0.35720103 -87.8125 2.25 C-87.49446921 9.72372356 -84.18130726 15.0381857 -78.80078125 20.16796875 C-65.60763689 30.8977612 -48.72925122 37.86338105 -31.8125 39.25 C-31.1525 39.58 -30.4925 39.91 -29.8125 40.25 C-29.8125 41.24 -29.8125 42.23 -29.8125 43.25 C-33.40932905 44.11771751 -36.8427959 44.35199664 -40.53540039 44.43847656 C-52.38140384 44.77712578 -63.32534817 47.30504523 -73.2265625 54.1796875 C-75.29298425 55.5742677 -77.46232432 56.44212711 -79.8125 57.25 C-79.8125 57.91 -79.8125 58.57 -79.8125 59.25 C-81.28125 60.66015625 -81.28125 60.66015625 -83.3125 62.3125 C-90.44778393 68.4103845 -96.04091201 74.60677752 -99.8125 83.25 C-100.4725 83.25 -101.1325 83.25 -101.8125 83.25 C-102.25216502 84.54093133 -102.68905299 85.83280836 -103.125 87.125 C-103.36863281 87.84429687 -103.61226562 88.56359375 -103.86328125 89.3046875 C-104.17652344 90.27664062 -104.48976562 91.24859375 -104.8125 92.25 C-105.19063843 93.32822021 -105.19063843 93.32822021 -105.57641602 94.42822266 C-107.65790701 100.7029876 -108.24537868 106.28787849 -108.125 112.875 C-108.12822266 113.76445312 -108.13144531 114.65390625 -108.13476562 115.5703125 C-108.08970598 121.14132364 -107.27305607 125.8849295 -105.8125 131.25 C-105.8125 132.57 -105.8125 133.89 -105.8125 135.25 C-104.95785156 134.92515625 -104.10320312 134.6003125 -103.22265625 134.265625 C-99.71197869 133.22006238 -96.90084439 132.9827587 -93.25 133 C-92.15558594 132.99484375 -91.06117187 132.9896875 -89.93359375 132.984375 C-86.83163386 133.24837159 -84.61473963 133.93498252 -81.8125 135.25 C-81.8125 136.57 -81.8125 137.89 -81.8125 139.25 C-83.4625 139.25 -85.1125 139.25 -86.8125 139.25 C-86.8125 140.24 -86.8125 141.23 -86.8125 142.25 C-87.534375 142.641875 -88.25625 143.03375 -89 143.4375 C-92.88532882 145.94137857 -94.59378496 149.2751956 -96.8125 153.25 C-98.1325 152.92 -99.4525 152.59 -100.8125 152.25 C-100.49283924 146.97559742 -97.42213971 143.81176651 -93.8125 140.25 C-93.1525 139.92 -92.4925 139.59 -91.8125 139.25 C-98.07794851 138.86640111 -102.16487759 139.53914124 -107.8125 142.25 C-108.8025 142.25 -109.7925 142.25 -110.8125 142.25 C-111.1425 143.9 -111.4725 145.55 -111.8125 147.25 C-113.4625 147.25 -115.1125 147.25 -116.8125 147.25 C-116.18442343 139.71308113 -116.18442343 139.71308113 -114.21875 137.265625 C-112.58414868 135.37177281 -112.58414868 135.37177281 -112.95703125 133.15625 C-113.17746094 132.3621875 -113.39789063 131.568125 -113.625 130.75 C-117.74575558 111.70750215 -114.58932959 93.83284962 -104.8125 77.25 C-102.6777012 74.0408556 -100.35864937 71.13900834 -97.8125 68.25 C-97.19761719 67.50492187 -96.58273438 66.75984375 -95.94921875 65.9921875 C-86.51258514 54.83464476 -73.93603586 45.46228263 -59.8125 41.25 C-56.8125 41.0625 -56.8125 41.0625 -54.8125 41.25 C-54.8125 40.59 -54.8125 39.93 -54.8125 39.25 C-55.63234375 39.00378906 -56.4521875 38.75757813 -57.296875 38.50390625 C-70.2156327 33.896216 -84.01054381 26.55905237 -90.9375 14.3125 C-93.08261044 9.37643942 -94.15691519 4.55244873 -92.8125 -0.75 C-90.7552934 -3.63405812 -88.19170951 -5.15234254 -84.9375 -6.5625 C-66.6017283 -8.18036221 -52.47572876 2.25792285 -38.8125 13.25 C-37.4841727 14.25664013 -36.15312756 15.25980027 -34.8125 16.25 C-35.21082031 15.693125 -35.60914063 15.13625 -36.01953125 14.5625 C-40.79372632 7.68580053 -45.12431126 0.94074963 -43.8125 -7.75 C-41.57101108 -10.69595686 -40.03791493 -12.40994233 -36.43359375 -13.41015625 C-23.93156078 -15.03113519 -9.94222838 -6.87754728 0 0 Z M-27.8125 23.25 C-27.43738281 23.68570313 -27.06226563 24.12140625 -26.67578125 24.5703125 C-26.16402344 25.16585937 -25.65226562 25.76140625 -25.125 26.375 C-24.29548828 27.32439453 -24.29548828 27.32439453 -23.44921875 28.29296875 C-21.8125 30.25 -21.8125 30.25 -20.58203125 32.05078125 C-18.91802971 34.43036025 -17.66024095 36.09946656 -14.72265625 36.62109375 C-12.2507903 36.66356458 -12.2507903 36.66356458 -8.8125 36.25 C-12.2938608 33.43326263 -15.82771307 30.71266038 -19.4375 28.0625 C-20.37851563 27.36769531 -21.31953125 26.67289063 -22.2890625 25.95703125 C-24.76733598 24.11526027 -24.76733598 24.11526027 -27.8125 23.25 Z " fill="#0C0B0A" transform="translate(201.8125,91.75)"/>
<path d="M0 0 C0.91652344 0.01160156 1.83304688 0.02320313 2.77734375 0.03515625 C3.69644531 0.04417969 4.61554688 0.05320313 5.5625 0.0625 C6.27277344 0.07410156 6.98304687 0.08570313 7.71484375 0.09765625 C6.97234375 0.79890625 6.22984375 1.50015625 5.46484375 2.22265625 C0.37482424 7.38699631 0.37482424 7.38699631 -1.28515625 14.09765625 C1.72279542 14.44274753 1.72279542 14.44274753 3.3203125 12.56640625 C3.84238281 11.91671875 4.36445312 11.26703125 4.90234375 10.59765625 C5.43214844 9.94796875 5.96195313 9.29828125 6.5078125 8.62890625 C6.90613281 8.12359375 7.30445313 7.61828125 7.71484375 7.09765625 C13.7120965 9.20479911 13.7120965 9.20479911 15.71484375 12.09765625 C15.46484375 14.03515625 15.46484375 14.03515625 14.71484375 16.09765625 C14.43640625 17.21140625 14.43640625 17.21140625 14.15234375 18.34765625 C14.00796875 18.92515625 13.86359375 19.50265625 13.71484375 20.09765625 C16.35484375 20.09765625 18.99484375 20.09765625 21.71484375 20.09765625 C23.21305434 23.46863008 23.71484375 25.30207744 23.71484375 29.09765625 C22.72484375 29.59265625 22.72484375 29.59265625 21.71484375 30.09765625 C21.43174981 33.4004189 21.35783094 34.66677873 23.52734375 37.28515625 C24.71484375 40.09765625 24.71484375 40.09765625 23.94140625 42.56640625 C20.25003056 50.35185315 20.25003056 50.35185315 15.71484375 52.09765625 C15.38484375 51.10765625 15.05484375 50.11765625 14.71484375 49.09765625 C12.73484375 49.59265625 12.73484375 49.59265625 10.71484375 50.09765625 C10.38484375 52.40765625 10.05484375 54.71765625 9.71484375 57.09765625 C6.41484375 57.09765625 3.11484375 57.09765625 -0.28515625 57.09765625 C-0.61515625 55.44765625 -0.94515625 53.79765625 -1.28515625 52.09765625 C-4.39847873 52.76633939 -4.39847873 52.76633939 -5.47265625 55.16015625 C-5.74078125 55.79953125 -6.00890625 56.43890625 -6.28515625 57.09765625 C-11.49056323 56.133692 -15.88429058 55.22085124 -20.28515625 52.09765625 C-19.29515625 48.46765625 -18.30515625 44.83765625 -17.28515625 41.09765625 C-21.39934378 41.65561208 -21.39934378 41.65561208 -23.03515625 44.66015625 C-23.44765625 45.46453125 -23.86015625 46.26890625 -24.28515625 47.09765625 C-25.27515625 46.76765625 -26.26515625 46.43765625 -27.28515625 46.09765625 C-28.47265625 43.53515625 -28.47265625 43.53515625 -29.28515625 41.09765625 C-28.62515625 40.43765625 -27.96515625 39.77765625 -27.28515625 39.09765625 C-26.64263275 37.02891591 -26.64263275 37.02891591 -26.28515625 35.09765625 C-27.08953125 34.78828125 -27.89390625 34.47890625 -28.72265625 34.16015625 C-31.28515625 33.09765625 -31.28515625 33.09765625 -32.28515625 32.09765625 C-32.27926304 30.36799769 -32.230126 28.63840904 -32.16015625 26.91015625 C-32.08511979 22.08281037 -32.99295163 19.36949213 -35.28515625 15.09765625 C-34.47265625 12.72265625 -34.47265625 12.72265625 -33.28515625 11.09765625 C-32.29515625 11.42765625 -31.30515625 11.75765625 -30.28515625 12.09765625 C-29.59765625 14.16015625 -29.59765625 14.16015625 -29.28515625 16.09765625 C-28.62515625 16.09765625 -27.96515625 16.09765625 -27.28515625 16.09765625 C-27.05828125 15.37578125 -26.83140625 14.65390625 -26.59765625 13.91015625 C-25.02180497 10.53333208 -23.07639009 8.53998586 -20.28515625 6.09765625 C-19.62515625 6.09765625 -18.96515625 6.09765625 -18.28515625 6.09765625 C-18.28515625 7.08765625 -18.28515625 8.07765625 -18.28515625 9.09765625 C-16.63515625 9.09765625 -14.98515625 9.09765625 -13.28515625 9.09765625 C-12.95515625 7.44765625 -12.62515625 5.79765625 -12.28515625 4.09765625 C-11.32802734 3.79021484 -11.32802734 3.79021484 -10.3515625 3.4765625 C-9.52527344 3.20714844 -8.69898437 2.93773437 -7.84765625 2.66015625 C-7.02394531 2.39332031 -6.20023438 2.12648437 -5.3515625 1.8515625 C-0.31324614 0.01338659 -0.31324614 0.01338659 0 0 Z " fill="#FBFBFB" transform="translate(103.28515625,229.90234375)"/>
<path d="M0 0 C5.40123215 -0.11476722 10.58208638 0.32082158 15.9375 1 C17.10635742 1.14308594 17.10635742 1.14308594 18.29882812 1.2890625 C20.19968207 1.52229611 22.09991047 1.76061864 24 2 C24.1328125 4.35546875 24.1328125 4.35546875 24 7 C21.4633692 9.76045117 19.90743268 10.89903565 16.15625 11.31640625 C12.39613992 10.93946452 10.64871893 9.84965807 7.625 7.625 C6.75101563 6.99851562 5.87703125 6.37203125 4.9765625 5.7265625 C4.32429687 5.15679687 3.67203125 4.58703125 3 4 C3 3.34 3 2.68 3 2 C2.01 1.67 1.02 1.34 0 1 C0 0.67 0 0.34 0 0 Z " fill="#E2D5B4" transform="translate(131,337)"/>
<path d="M0 0 C9.41002278 -0.18451025 9.41002278 -0.18451025 14 1 C14 1.33 14 1.66 14 2 C12.35 2 10.7 2 9 2 C9 2.99 9 3.98 9 5 C8.278125 5.391875 7.55625 5.78375 6.8125 6.1875 C2.92717118 8.69137857 1.21871504 12.0251956 -1 16 C-2.32 15.67 -3.64 15.34 -5 15 C-4.68033924 9.72559742 -1.60963971 6.56176651 2 3 C2.66 2.67 3.32 2.34 4 2 C2.68 1.34 1.36 0.68 0 0 Z " fill="#1A1916" transform="translate(106,229)"/>
<path d="M0 0 C1.32 0 2.64 0 4 0 C3.59579069 5.65893033 1.79663015 8.02257794 -2 12 C-5 14 -5 14 -7.6875 13.625 C-8.450625 13.41875 -9.21375 13.2125 -10 13 C-9.875 11.25 -9.875 11.25 -9 9 C-7.00669158 7.65668346 -5.00615134 6.32405988 -3 5 C-2.195625 3.63875 -2.195625 3.63875 -1.375 2.25 C-0.92125 1.5075 -0.4675 0.765 0 0 Z " fill="#23221E" transform="translate(82,271)"/>
<path d="M0 0 C3.63534004 1.21178001 4.07521045 2.26088627 6.0625 5.4375 C7.61468524 7.89808881 8.93883462 9.93883462 11 12 C10.625 14.125 10.625 14.125 10 16 C7.5625 15.1875 7.5625 15.1875 5 14 C4.67 13.01 4.34 12.02 4 11 C3.01 10.67 2.02 10.34 1 10 C-0.8125 7.1875 -0.8125 7.1875 -2 4 C-1.1875 1.625 -1.1875 1.625 0 0 Z " fill="#0F0E0C" transform="translate(70,241)"/>
<path d="M0 0 C1.75570312 0.04060547 1.75570312 0.04060547 3.546875 0.08203125 C4.43890625 0.11683594 5.3309375 0.15164062 6.25 0.1875 C5.92 1.8375 5.59 3.4875 5.25 5.1875 C4.25419922 5.27837891 4.25419922 5.27837891 3.23828125 5.37109375 C-3.29908081 5.98613507 -3.29908081 5.98613507 -9.75 7.1875 C-10.08 5.8675 -10.41 4.5475 -10.75 3.1875 C-7.26391463 -0.10012011 -4.6928191 -0.14078457 0 0 Z " fill="#201F1B" transform="translate(126.75,243.8125)"/>
<path d="M0 0 C0.625 1.8125 0.625 1.8125 1 4 C0.01 5.485 0.01 5.485 -1 7 C-0.01 8.98 0.98 10.96 2 13 C1.030625 13.391875 0.06125 13.78375 -0.9375 14.1875 C-4.22176391 15.67594887 -4.22176391 15.67594887 -4.875 18.6875 C-4.936875 19.8321875 -4.936875 19.8321875 -5 21 C-5.33 21 -5.66 21 -6 21 C-6 15.06 -6 9.12 -6 3 C-4.35 3 -2.7 3 -1 3 C-0.67 2.01 -0.34 1.02 0 0 Z " fill="#EEE2C2" transform="translate(76,265)"/>
<path d="M0 0 C3.86299412 0.5518563 5.30653421 2.30653421 8 5 C10.63222962 6.25436187 10.63222962 6.25436187 13 7 C13 8.32 13 9.64 13 11 C9.91085345 11.45207023 7.76824346 11.45542577 5.04296875 9.83984375 C0.14267406 5.93757242 0.14267406 5.93757242 -0.4375 2.125 C-0.2209375 1.073125 -0.2209375 1.073125 0 0 Z " fill="#21201B" transform="translate(124,260)"/>
<path d="M0 0 C0.99 0.33 1.98 0.66 3 1 C3 2.65 3 4.3 3 6 C2.34 6 1.68 6 1 6 C1 8.64 1 11.28 1 14 C-0.9375 14.5625 -0.9375 14.5625 -3 15 C-4 14 -4 14 -4.25 10.8125 C-3.97697764 6.64890907 -3.0452602 3.0452602 0 0 Z " fill="#1C1A17" transform="translate(100,281)"/>
<path d="M0 0 C1.98 0.495 1.98 0.495 4 1 C4 4.63 4 8.26 4 12 C0 11 0 11 -1 10 C-1.0979057 8.50261876 -1.12974864 7.00057108 -1.125 5.5 C-1.12757812 4.6853125 -1.13015625 3.870625 -1.1328125 3.03125 C-1 1 -1 1 0 0 Z " fill="#49463D" transform="translate(115,278)"/>
<path d="M0 0 C1.37478516 0.01740234 1.37478516 0.01740234 2.77734375 0.03515625 C3.69644531 0.04417969 4.61554688 0.05320313 5.5625 0.0625 C6.27277344 0.07410156 6.98304687 0.08570313 7.71484375 0.09765625 C6.06484375 1.74765625 4.41484375 3.39765625 2.71484375 5.09765625 C2.38484375 4.10765625 2.05484375 3.11765625 1.71484375 2.09765625 C0.70164062 2.43990234 0.70164062 2.43990234 -0.33203125 2.7890625 C-1.67007813 3.22025391 -1.67007813 3.22025391 -3.03515625 3.66015625 C-3.916875 3.95019531 -4.79859375 4.24023438 -5.70703125 4.5390625 C-8.36349941 5.1146306 -9.75546731 4.99013996 -12.28515625 4.09765625 C-11.64707031 3.89269531 -11.00898437 3.68773437 -10.3515625 3.4765625 C-9.52527344 3.20714844 -8.69898437 2.93773437 -7.84765625 2.66015625 C-7.02394531 2.39332031 -6.20023437 2.12648437 -5.3515625 1.8515625 C-0.31324614 0.01338659 -0.31324614 0.01338659 0 0 Z " fill="#BAB197" transform="translate(103.28515625,229.90234375)"/>
<path d="M0 0 C0.66 0.33 1.32 0.66 2 1 C0.63875 1.86625 0.63875 1.86625 -0.75 2.75 C-6.03435915 6.27603566 -6.03435915 6.27603566 -8.75 11.75 C-8.8325 12.4925 -8.915 13.235 -9 14 C-9.33 14 -9.66 14 -10 14 C-10.4375 10.875 -10.4375 10.875 -10 7 C-7.20660701 3.60587733 -4.15920691 1.3864023 0 0 Z " fill="#4A463C" transform="translate(274,269)"/>
<path d="M0 0 C0.99 0 1.98 0 3 0 C3 2.97 3 5.94 3 9 C2.01 9 1.02 9 0 9 C0 6.03 0 3.06 0 0 Z " fill="#040403" transform="translate(115,280)"/>
<path d="M0 0 C0.91058531 3.07322544 1.08886184 5.80097361 1 9 C1.66 9 2.32 9 3 9 C3.33 7.68 3.66 6.36 4 5 C4 6.65 4 8.3 4 10 C2.0625 10.5625 2.0625 10.5625 0 11 C-1 10 -1 10 -1.125 6.625 C-1 3 -1 3 0 0 Z " fill="#4A463C" transform="translate(97,285)"/>
<path d="M0 0 C9.41002278 -0.18451025 9.41002278 -0.18451025 14 1 C14 1.33 14 1.66 14 2 C12.35 2 10.7 2 9 2 C8.67 2.99 8.34 3.98 8 5 C8 4.01 8 3.02 8 2 C5.36 1.67 2.72 1.34 0 1 C0 0.67 0 0.34 0 0 Z " fill="#35332B" transform="translate(106,229)"/>
<path d="M0 0 C0.66 0.66 1.32 1.32 2 2 C1.625 4.625 1.625 4.625 1 7 C1.66 7.33 2.32 7.66 3 8 C2.34 8.66 1.68 9.32 1 10 C-0.83691257 6.21812119 -1.15837626 4.05431692 0 0 Z " fill="#CFC4A6" transform="translate(114,93)"/>
<path d="M0 0 C0.66 0.33 1.32 0.66 2 1 C0.02 3.31 -1.96 5.62 -4 8 C-4.33 6.68 -4.66 5.36 -5 4 C-3.35 2.68 -1.7 1.36 0 0 Z " fill="#C3B99C" transform="translate(274,274)"/>
</svg>
