<?xml version="1.0" encoding="UTF-8"?>
<svg version="1.1" xmlns="http://www.w3.org/2000/svg" width="360" height="360">
<path d="M0 0 C15.96707673 8.53223516 23.31068413 30.13333696 28.4140625 46.46484375 C32.07329971 58.8416755 34.97667644 71.45632526 38 84 C39.16015625 84.30292969 40.3203125 84.60585937 41.515625 84.91796875 C55.9575974 88.75934746 68.50550251 93.67033501 81 102 C81 102.66 81 103.32 81 104 C81.99 104.33 82.98 104.66 84 105 C86.58147326 107.44103041 88.75917727 110.24773224 91 113 C91.71800781 113.87011719 92.43601562 114.74023438 93.17578125 115.63671875 C104.77109433 130.31610474 112.44908512 147.15412012 113 166 C113.0515625 166.96550781 113.103125 167.93101562 113.15625 168.92578125 C113.63121313 183.55068762 110.48608981 203.4422354 101 215 C99.07713833 216.98113021 97.29160825 218.40583774 95 220 C94.01 220 93.02 220 92 220 C92 220.66 92 221.32 92 222 C93.09634766 222.12181641 93.09634766 222.12181641 94.21484375 222.24609375 C99.96546801 223.80271434 104.29610721 229.34434148 107.43359375 234.234375 C110.30870622 239.83715827 112.09744796 245.66759914 111 252 C107.42072991 256.88082285 102.77305486 259.22176401 96.87890625 260.4375 C93.53317993 260.92861579 91.23745942 261.07915314 88 260 C87.84144531 260.67804688 87.68289063 261.35609375 87.51953125 262.0546875 C84.92111243 272.41965096 80.70781068 280.71388092 74 289 C73.39800781 289.80824219 72.79601562 290.61648438 72.17578125 291.44921875 C66.39940063 298.22116946 56.25615465 306.26485695 47.46484375 308.703125 C43.8432536 310.60862092 43.39126858 313.03789348 42 316.8125 C39.91261519 322.44013689 37.71766446 327.2011301 32.0625 329.9375 C27.59896499 330.07275864 24.65022497 328.53200225 21.25 325.75 C18.89219803 322.86824203 17.91624186 320.58167273 17 317 C15.81535156 317.16242188 14.63070312 317.32484375 13.41015625 317.4921875 C6.76287181 318.228318 0.11758802 318.14531451 -6.5625 318.125 C-7.83802734 318.12886719 -9.11355469 318.13273437 -10.42773438 318.13671875 C-16.71145946 318.13019698 -22.79043749 317.98663919 -29 317 C-29.12117188 317.61488281 -29.24234375 318.22976563 -29.3671875 318.86328125 C-29.53476563 319.67152344 -29.70234375 320.47976563 -29.875 321.3125 C-30.03742188 322.11300781 -30.19984375 322.91351563 -30.3671875 323.73828125 C-31 326 -31 326 -33 329 C-37.07230244 330.21454634 -39.42591804 330.63633101 -43.38671875 329.03515625 C-50.35546484 324.87694577 -52.50418305 319.82773148 -54.82421875 312.33984375 C-55.78967268 309.87995306 -55.78967268 309.87995306 -57.9609375 308.8828125 C-58.75757813 308.63273437 -59.55421875 308.38265625 -60.375 308.125 C-72.82749834 303.63275673 -84.95045896 296.30356326 -91.0078125 284.16796875 C-91.33523437 283.45253906 -91.66265625 282.73710937 -92 282 C-92.30679688 281.35675781 -92.61359375 280.71351563 -92.9296875 280.05078125 C-96.06554769 273.16682149 -96.16868233 266.74723295 -96.328125 259.27734375 C-97.17015246 255.17001211 -98.5781155 254.26192366 -102 252 C-104.69133108 248.41155857 -104.38477157 244.29940407 -104 240 C-102.51845919 232.88860411 -97.95373273 227.17351451 -92.125 223 C-90.578125 222.01 -90.578125 222.01 -89 221 C-90.08018748 218.56957816 -91.21090086 216.74623311 -92.921875 214.6875 C-104.6134194 199.56760799 -106.3722674 175.56308849 -104.12036133 157.3815918 C-100.75043367 134.43348017 -87.36369114 113.47996994 -69.5234375 98.98828125 C-60.80107702 92.60572858 -49.05991224 86 -38 86 C-38.56920166 85.16976318 -39.13840332 84.33952637 -39.72485352 83.48413086 C-41.88122023 80.33247817 -44.02272764 77.17094699 -46.16040039 74.0065918 C-47.07872186 72.65141602 -48.00078924 71.29876931 -48.92700195 69.94897461 C-58.17640261 56.45921863 -67.34519823 42.24280342 -67.375 25.375 C-67.39949219 24.63765625 -67.42398438 23.9003125 -67.44921875 23.140625 C-67.46936062 19.39423696 -67.15604135 17.24345041 -65.1171875 14.0625 C-62.69551015 11.7033752 -61.30139492 10.75031703 -58 10 C-50.31962095 10.25181571 -44.26391283 12.67278921 -38.5625 17.875 C-25.77749398 31.61670716 -8 62.24184815 -8 81 C-3.545 80.505 -3.545 80.505 1 80 C0.46375 78.659375 -0.0725 77.31875 -0.625 75.9375 C-0.98980469 75.02097656 -1.35460937 74.10445313 -1.73046875 73.16015625 C-2.61650316 70.95461212 -3.5160292 68.75446102 -4.42578125 66.55859375 C-11.76745406 48.66919463 -20.54828804 26.76302035 -15.2421875 7.20703125 C-12.21693356 0.66819497 -7.01351255 -1.57370335 0 0 Z " fill="#FBEDC8" transform="translate(181,21)"/>
<path d="M0 0 C15.96707673 8.53223516 23.31068413 30.13333696 28.4140625 46.46484375 C32.07329971 58.8416755 34.97667644 71.45632526 38 84 C39.16015625 84.30292969 40.3203125 84.60585937 41.515625 84.91796875 C55.9575974 88.75934746 68.50550251 93.67033501 81 102 C81 102.66 81 103.32 81 104 C81.99 104.33 82.98 104.66 84 105 C86.58147326 107.44103041 88.75917727 110.24773224 91 113 C91.71800781 113.87011719 92.43601562 114.74023438 93.17578125 115.63671875 C104.77109433 130.31610474 112.44908512 147.15412012 113 166 C113.0515625 166.96550781 113.103125 167.93101562 113.15625 168.92578125 C113.63121313 183.55068762 110.48608981 203.4422354 101 215 C99.07713833 216.98113021 97.29160825 218.40583774 95 220 C94.01 220 93.02 220 92 220 C92.374334 215.75754799 93.95028412 213.78876569 96.73046875 210.6640625 C106.99880496 197.20464335 107.61187463 172.87647532 105.49609375 156.72265625 C102.22407312 135.61139982 90.76666053 118.15599434 74.0625 105.125 C66.59577907 99.84598075 59.53756556 95.63902981 50.4921875 93.828125 C35.13528078 90.67218252 35.13528078 90.67218252 31.8359375 85.8125 C30.97977589 82.47138151 30.46159799 79.4063461 30.19677734 75.98486328 C29.88975164 72.88794144 29.03244362 69.98902979 28.1875 67 C27.85621094 65.77152344 27.52492187 64.54304688 27.18359375 63.27734375 C26.79039801 61.85119362 26.39573426 60.42544781 26 59 C25.75910645 58.12746582 25.51821289 57.25493164 25.27001953 56.35595703 C17.39179568 27.65637014 17.39179568 27.65637014 -2 6 C-4.67858968 5.0793426 -4.67858968 5.0793426 -7 6 C-10.17108826 10.04640075 -10.50820525 13.77554376 -10.4375 18.75 C-10.43137695 19.4915332 -10.42525391 20.23306641 -10.41894531 20.99707031 C-10.19127392 29.30182215 -8.27233799 37.04878272 -6 45 C-5.66484375 46.21300781 -5.3296875 47.42601562 -4.984375 48.67578125 C-3.40032244 54.12567636 -1.62598481 59.17861963 1.06640625 64.17578125 C2.35637087 66.69633973 3.2563689 69.31756373 4.20703125 71.98046875 C5.33316908 74.84851437 6.76437231 77.53121929 8.23046875 80.23828125 C9 82 9 82 9 85 C5.59807562 86.70096219 1.87602241 86.3523829 -1.875 86.4375 C-2.69097656 86.48326172 -3.50695312 86.52902344 -4.34765625 86.57617188 C-6.70651441 86.62042452 -8.70948124 86.57178469 -11 86 C-14.2913375 82.44355476 -15 80.86963018 -15 76 C-15.66 76 -16.32 76 -17 76 C-17.226875 74.948125 -17.45375 73.89625 -17.6875 72.8125 C-19.22268901 66.67174396 -21.62949663 60.8573906 -24 55 C-24.30808594 54.2265625 -24.61617188 53.453125 -24.93359375 52.65625 C-30.62416225 39.10005127 -38.81270676 23.4658221 -52 16 C-55.80095012 15.16046733 -55.80095012 15.16046733 -59 16 C-62.69650691 21.54476036 -61.72035965 30.20122839 -60.5 36.63671875 C-59.80101637 38.84884308 -58.97751852 40.89638014 -58 43 C-57.63648438 43.79664063 -57.27296875 44.59328125 -56.8984375 45.4140625 C-50.00954593 59.76962364 -40.79677371 72.97104972 -30.30078125 84.9140625 C-29 87 -29 87 -29.29296875 89.2734375 C-29.52628906 89.84320313 -29.75960937 90.41296875 -30 91 C-30.94359375 91.15855469 -31.8871875 91.31710938 -32.859375 91.48046875 C-46.69018234 93.9938986 -57.55161463 98.65569579 -69 107 C-69.65742187 107.45890625 -70.31484375 107.9178125 -70.9921875 108.390625 C-84.27037995 118.54813628 -91.79467921 137.51405569 -96 153 C-96.35707031 154.07765625 -96.71414062 155.1553125 -97.08203125 156.265625 C-101.35267618 173.63897204 -97.45237785 195.38587684 -89 211 C-87.62180526 212.80029621 -87.62180526 212.80029621 -86.1875 214.3125 C-84 217 -84 217 -83.5 220.5625 C-84 224 -84 224 -85.42578125 226.28125 C-90.4268414 234.91831667 -90.29372764 246.70534042 -90.375 256.4375 C-90.38877686 257.34814209 -90.40255371 258.25878418 -90.41674805 259.19702148 C-90.3748582 265.31461507 -89.29832787 270.34045602 -87 276 C-86.62359375 276.93070312 -86.2471875 277.86140625 -85.859375 278.8203125 C-79.45404237 292.1271655 -67.66987711 298.66883863 -54.25 303.75 C-38.18873814 309.10978975 -22.479374 311.17821859 -5.61865234 311.13037109 C-3.40064496 311.12506139 -1.18284458 311.13031546 1.03515625 311.13671875 C20.59673317 311.5590917 20.59673317 311.5590917 39 306 C40.17433594 305.43023437 41.34867188 304.86046875 42.55859375 304.2734375 C61.08402745 295.04370921 75.46635778 281.52276547 82.375 261.6875 C85.25869721 251.61250807 84.32630926 241.27889676 83 231 C84.32 230.67 85.64 230.34 87 230 C87.226875 231.27875 87.45375 232.5575 87.6875 233.875 C88.16100084 236.06932132 88.16100084 236.06932132 89 238 C91.48313064 239.59688639 91.48313064 239.59688639 94 240 C93 243 93 243 90 245 C89.42006301 247.19454681 89.42006301 247.19454681 89.3125 249.625 C89.21388672 250.85089844 89.21388672 250.85089844 89.11328125 252.1015625 C89.05720703 253.04128906 89.05720703 253.04128906 89 254 C95.65545792 254.54330269 99.45834744 253.77304004 105 250 C104.88437394 248.60335892 104.757008 247.20768801 104.625 245.8125 C104.52058594 244.64654297 104.52058594 244.64654297 104.4140625 243.45703125 C103.21800186 236.35965252 99.26130285 233.131141 94.1171875 228.40234375 C92 226 92 226 92 222 C98.55799903 222.72866656 101.92734294 227.15848619 106 232 C109.85065624 238.00156776 112.24553043 244.81314624 111 252 C107.42072991 256.88082285 102.77305486 259.22176401 96.87890625 260.4375 C93.53317993 260.92861579 91.23745942 261.07915314 88 260 C87.84144531 260.67804688 87.68289063 261.35609375 87.51953125 262.0546875 C84.92111243 272.41965096 80.70781068 280.71388092 74 289 C73.39800781 289.80824219 72.79601562 290.61648438 72.17578125 291.44921875 C66.39940063 298.22116946 56.25615465 306.26485695 47.46484375 308.703125 C43.8432536 310.60862092 43.39126858 313.03789348 42 316.8125 C39.91261519 322.44013689 37.71766446 327.2011301 32.0625 329.9375 C27.59896499 330.07275864 24.65022497 328.53200225 21.25 325.75 C18.89219803 322.86824203 17.91624186 320.58167273 17 317 C15.81535156 317.16242188 14.63070312 317.32484375 13.41015625 317.4921875 C6.76287181 318.228318 0.11758802 318.14531451 -6.5625 318.125 C-7.83802734 318.12886719 -9.11355469 318.13273437 -10.42773438 318.13671875 C-16.71145946 318.13019698 -22.79043749 317.98663919 -29 317 C-29.12117188 317.61488281 -29.24234375 318.22976563 -29.3671875 318.86328125 C-29.53476563 319.67152344 -29.70234375 320.47976563 -29.875 321.3125 C-30.03742188 322.11300781 -30.19984375 322.91351563 -30.3671875 323.73828125 C-31 326 -31 326 -33 329 C-37.07230244 330.21454634 -39.42591804 330.63633101 -43.38671875 329.03515625 C-50.35546484 324.87694577 -52.50418305 319.82773148 -54.82421875 312.33984375 C-55.78967268 309.87995306 -55.78967268 309.87995306 -57.9609375 308.8828125 C-58.75757813 308.63273437 -59.55421875 308.38265625 -60.375 308.125 C-72.82749834 303.63275673 -84.95045896 296.30356326 -91.0078125 284.16796875 C-91.33523437 283.45253906 -91.66265625 282.73710937 -92 282 C-92.30679688 281.35675781 -92.61359375 280.71351563 -92.9296875 280.05078125 C-96.06554769 273.16682149 -96.16868233 266.74723295 -96.328125 259.27734375 C-97.17015246 255.17001211 -98.5781155 254.26192366 -102 252 C-104.69133108 248.41155857 -104.38477157 244.29940407 -104 240 C-102.51845919 232.88860411 -97.95373273 227.17351451 -92.125 223 C-90.578125 222.01 -90.578125 222.01 -89 221 C-90.08018748 218.56957816 -91.21090086 216.74623311 -92.921875 214.6875 C-104.6134194 199.56760799 -106.3722674 175.56308849 -104.12036133 157.3815918 C-100.75043367 134.43348017 -87.36369114 113.47996994 -69.5234375 98.98828125 C-60.80107702 92.60572858 -49.05991224 86 -38 86 C-38.56920166 85.16976318 -39.13840332 84.33952637 -39.72485352 83.48413086 C-41.88122023 80.33247817 -44.02272764 77.17094699 -46.16040039 74.0065918 C-47.07872186 72.65141602 -48.00078924 71.29876931 -48.92700195 69.94897461 C-58.17640261 56.45921863 -67.34519823 42.24280342 -67.375 25.375 C-67.39949219 24.63765625 -67.42398438 23.9003125 -67.44921875 23.140625 C-67.46936062 19.39423696 -67.15604135 17.24345041 -65.1171875 14.0625 C-62.69551015 11.7033752 -61.30139492 10.75031703 -58 10 C-50.31962095 10.25181571 -44.26391283 12.67278921 -38.5625 17.875 C-25.77749398 31.61670716 -8 62.24184815 -8 81 C-3.545 80.505 -3.545 80.505 1 80 C0.46375 78.659375 -0.0725 77.31875 -0.625 75.9375 C-0.98980469 75.02097656 -1.35460937 74.10445313 -1.73046875 73.16015625 C-2.61650316 70.95461212 -3.5160292 68.75446102 -4.42578125 66.55859375 C-11.76745406 48.66919463 -20.54828804 26.76302035 -15.2421875 7.20703125 C-12.21693356 0.66819497 -7.01351255 -1.57370335 0 0 Z " fill="#0A0908" transform="translate(181,21)"/>
<path d="M0 0 C0.33 0 0.66 0 1 0 C1.37555887 6.38450075 1.37555887 6.38450075 -0.40625 9.3046875 C-5.46711968 17.86351123 -5.29411351 29.75154687 -5.375 39.4375 C-5.38877686 40.34814209 -5.40255371 41.25878418 -5.41674805 42.19702148 C-5.3748582 48.31461507 -4.29832787 53.34045602 -2 59 C-1.62359375 59.93070312 -1.2471875 60.86140625 -0.859375 61.8203125 C5.54595763 75.1271655 17.33012289 81.66883863 30.75 86.75 C46.81126186 92.10978975 62.520626 94.17821859 79.38134766 94.13037109 C81.59935504 94.12506139 83.81715542 94.13031546 86.03515625 94.13671875 C105.59673317 94.5590917 105.59673317 94.5590917 124 89 C125.17433594 88.43023437 126.34867188 87.86046875 127.55859375 87.2734375 C146.08402745 78.04370921 160.46635778 64.52276547 167.375 44.6875 C170.25869721 34.61250807 169.32630926 24.27889676 168 14 C169.32 13.67 170.64 13.34 172 13 C172.226875 14.27875 172.45375 15.5575 172.6875 16.875 C173.16100084 19.06932132 173.16100084 19.06932132 174 21 C176.48313064 22.59688639 176.48313064 22.59688639 179 23 C178 26 178 26 175 28 C174.42006301 30.19454681 174.42006301 30.19454681 174.3125 32.625 C174.24675781 33.44226563 174.18101562 34.25953125 174.11328125 35.1015625 C174.05720703 36.04128906 174.05720703 36.04128906 174 37 C180.65545792 37.54330269 184.45834744 36.77304004 190 33 C189.88437394 31.60335892 189.757008 30.20768801 189.625 28.8125 C189.52058594 27.64654297 189.52058594 27.64654297 189.4140625 26.45703125 C188.21800186 19.35965252 184.26130285 16.131141 179.1171875 11.40234375 C177 9 177 9 177 5 C183.55799903 5.72866656 186.92734294 10.15848619 191 15 C194.85065624 21.00156776 197.24553043 27.81314624 196 35 C192.42072991 39.88082285 187.77305486 42.22176401 181.87890625 43.4375 C178.53317993 43.92861579 176.23745942 44.07915314 173 43 C172.84144531 43.67804688 172.68289063 44.35609375 172.51953125 45.0546875 C169.92111243 55.41965096 165.70781068 63.71388092 159 72 C158.09701172 73.21236328 158.09701172 73.21236328 157.17578125 74.44921875 C151.39940063 81.22116946 141.25615465 89.26485695 132.46484375 91.703125 C128.8432536 93.60862092 128.39126858 96.03789348 127 99.8125 C124.91261519 105.44013689 122.71766446 110.2011301 117.0625 112.9375 C112.59896499 113.07275864 109.65022497 111.53200225 106.25 108.75 C103.89219803 105.86824203 102.91624186 103.58167273 102 100 C100.81535156 100.16242188 99.63070312 100.32484375 98.41015625 100.4921875 C91.76287181 101.228318 85.11758802 101.14531451 78.4375 101.125 C77.16197266 101.12886719 75.88644531 101.13273437 74.57226562 101.13671875 C68.28854054 101.13019698 62.20956251 100.98663919 56 100 C55.81824219 100.92232422 55.81824219 100.92232422 55.6328125 101.86328125 C55.46523437 102.67152344 55.29765625 103.47976563 55.125 104.3125 C54.96257812 105.11300781 54.80015625 105.91351563 54.6328125 106.73828125 C54 109 54 109 52 112 C47.92769756 113.21454634 45.57408196 113.63633101 41.61328125 112.03515625 C34.64453516 107.87694577 32.49581695 102.82773148 30.17578125 95.33984375 C29.21032732 92.87995306 29.21032732 92.87995306 27.0390625 91.8828125 C26.24242187 91.63273437 25.44578125 91.38265625 24.625 91.125 C12.17250166 86.63275673 0.04954104 79.30356326 -6.0078125 67.16796875 C-6.33523437 66.45253906 -6.66265625 65.73710937 -7 65 C-7.30679688 64.35675781 -7.61359375 63.71351563 -7.9296875 63.05078125 C-11.06554769 56.16682149 -11.16868233 49.74723295 -11.328125 42.27734375 C-12.17015246 38.17001211 -13.5781155 37.26192366 -17 35 C-19.69133108 31.41155857 -19.38477157 27.29940407 -19 23 C-17.33442517 15.00524081 -12.2359111 9.63113124 -5.6875 5.125 C-4.82511719 4.57070312 -3.96273437 4.01640625 -3.07421875 3.4453125 C-0.88266487 2.16380824 -0.88266487 2.16380824 0 0 Z " fill="#0C0B0A" transform="translate(96,238)"/>
<path d="M0 0 C-0.61277612 2.96175123 -1.25372522 4.38058783 -3 7 C-3.38499891 8.65549531 -3.72793135 10.3222433 -4 12 C0.98061928 9.35577605 0.98061928 9.35577605 5.1875 5.6875 C7 4 7 4 9 3.9375 C11.7697841 5.4089478 13.19083529 7.48009201 15 10 C14.175 10.433125 13.35 10.86625 12.5 11.3125 C11.675 11.869375 10.85 12.42625 10 13 C10 13.99 10 14.98 10 16 C13.21667249 16.08935201 15.90226756 15.84062397 19 15 C19.67667998 16.24460783 20.34094719 17.49596896 21 18.75 C21.37125 19.44609375 21.7425 20.1421875 22.125 20.859375 C23 23 23 23 23 27 C21.68 27.33 20.36 27.66 19 28 C19.61277612 30.96175123 20.25372522 32.38058783 22 35 C22 40.77378476 18.87456559 44.96158462 15 49 C12 50 12 50 9 50 C8.979375 50.598125 8.95875 51.19625 8.9375 51.8125 C8 54 8 54 4.6875 55.75 C1 57 1 57 -3 57 C-3.33 55.02 -3.66 53.04 -4 51 C-4.99 51 -5.98 51 -7 51 C-7.66 52.98 -8.32 54.96 -9 57 C-14.28137429 56.48474397 -17.57221156 54.74522883 -22 52 C-21.45658377 48.08740311 -20.33420118 46.11226824 -18 43 C-17.28566879 40.35065178 -17.28566879 40.35065178 -17 38 C-19.52499557 38.38062566 -20.70005429 38.6456732 -22.37890625 40.62890625 C-22.76949219 41.26699219 -23.16007813 41.90507812 -23.5625 42.5625 C-24.75390625 44.50390625 -24.75390625 44.50390625 -26 46 C-26.99 46 -27.98 46 -29 46 C-33.03264925 40.01212687 -33.03264925 40.01212687 -32.875 35.125 C-32.58625 34.09375 -32.2975 33.0625 -32 32 C-31.34 31.67 -30.68 31.34 -30 31 C-29.34786708 28.97536745 -29.34786708 28.97536745 -29 27 C-30.98 27 -32.96 27 -35 27 C-34.34 25.02 -33.68 23.04 -33 21 C-31.35 21 -29.7 21 -28 21 C-28.49756092 18.24358584 -28.49756092 18.24358584 -30 16 C-30.4375 13.75 -30.4375 13.75 -30 11 C-27.3125 8.125 -27.3125 8.125 -24 6 C-21.125 6.1875 -21.125 6.1875 -19 7 C-18.79375 6.21625 -18.5875 5.4325 -18.375 4.625 C-17 2 -17 2 -14.5625 0.6875 C-9.68522685 -0.25372815 -4.95047165 -0.15855603 0 0 Z " fill="#FCFCFB" transform="translate(153,257)"/>
<path d="M0 0 C3.25754529 0.63049264 6.50533895 1.30656367 9.75 2 C10.52859375 2.165 11.3071875 2.33 12.109375 2.5 C14 3 14 3 15 4 C15.45378151 9.21848739 15.45378151 9.21848739 13.875 11.9375 C12 13 12 13 9.0625 13 C4.57120513 11.53345474 3.06969673 8.81848445 0.75 4.875 C0 3 0 3 0 0 Z " fill="#E8DBB9" transform="translate(132,333)"/>
<path d="M0 0 C-1.45431839 4.12056877 -3.23301613 7.60056268 -6 11 C-8.4375 11.6875 -8.4375 11.6875 -11 11 C-13.8125 8.6875 -13.8125 8.6875 -16 6 C-16 5.01 -16 4.02 -16 3 C-14.08487728 2.49411853 -12.16783078 1.99551609 -10.25 1.5 C-8.64898437 1.08234375 -8.64898437 1.08234375 -7.015625 0.65625 C-4 0 -4 0 0 0 Z " fill="#E8DBB9" transform="translate(219,334)"/>
<path d="M0 0 C-0.125 2.3125 -0.125 2.3125 -1 5 C-3 6 -5 7 -7 8 C-8.9197384 10.03743906 -10.66020727 12.15267824 -12.38671875 14.35546875 C-12.91910156 14.89816406 -13.45148438 15.44085938 -14 16 C-14.99 16 -15.98 16 -17 16 C-17.08642612 11.85154638 -16.83733028 9.92564245 -14 6.7890625 C-6.17022283 -0.16237428 -6.17022283 -0.16237428 0 0 Z " fill="#171613" transform="translate(166,253)"/>
<path d="M0 0 C1.32 0 2.64 0 4 0 C4.27440795 3.02376458 4.27285439 4.57462308 2.609375 7.16796875 C1.99578125 7.83441406 1.3821875 8.50085938 0.75 9.1875 C0.14671875 9.86167969 -0.4565625 10.53585937 -1.078125 11.23046875 C-3.87895129 13.80927832 -5.93426618 14.95155755 -9.75 15.125 C-10.4925 15.08375 -11.235 15.0425 -12 15 C-11.6198489 12.59744502 -11.39368739 11.33685587 -9.51171875 9.7265625 C-8.90972656 9.36304688 -8.30773437 8.99953125 -7.6875 8.625 C-4.80396963 6.73599337 -3.80888096 5.71059117 -1.8125 2.6875 C-1.214375 1.800625 -0.61625 0.91375 0 0 Z " fill="#1C1B18" transform="translate(132,295)"/>
<path d="M0 0 C0.5625 1.9375 0.5625 1.9375 1 4 C-0.90423466 5.90423466 -4.28473113 5.4259749 -6.87109375 5.62109375 C-9.20927403 5.82776636 -9.20927403 5.82776636 -11 8 C-13.625 8.125 -13.625 8.125 -16 8 C-16.33 6.68 -16.66 5.36 -17 4 C-11.01990022 0.17938069 -6.96504398 -0.11608407 0 0 Z " fill="#0E0D0B" transform="translate(179,266)"/>
<path d="M0 0 C2.7841781 0.08188759 4.53384796 0.60480788 6.66796875 2.4140625 C9.51438406 5.4835935 10.91125039 7.1864619 11.375 11.4375 C11.25125 12.283125 11.1275 13.12875 11 14 C6.25 13.25 6.25 13.25 4 11 C3.87625 10.360625 3.7525 9.72125 3.625 9.0625 C2.79321332 6.31760397 1.35780394 5.52116383 -1 4 C-0.67 2.68 -0.34 1.36 0 0 Z " fill="#26241E" transform="translate(172,284)"/>
<path d="M0 0 C-0.65690619 3.78239671 -1.720131 7.21841526 -3.0625 10.8125 C-3.42472656 11.78832031 -3.78695312 12.76414062 -4.16015625 13.76953125 C-4.57587891 14.87361328 -4.57587891 14.87361328 -5 16 C-6.32 16 -7.64 16 -9 16 C-9.54080143 9.94302402 -8.69309617 6.61854941 -5.484375 1.46875 C-4 0 -4 0 0 0 Z " fill="#211F1B" transform="translate(140,248)"/>
<path d="M0 0 C2.0625 0.4375 2.0625 0.4375 4 1 C3.47606294 6.86809507 2.23891142 11.54873741 0 17 C-1.65 16.67 -3.3 16.34 -5 16 C-4.20004179 12.76170764 -3.36054011 9.53522271 -2.5 6.3125 C-2.2421875 5.33925781 -1.984375 4.36601562 -1.71875 3.36328125 C-1 1 -1 1 0 0 Z " fill="#1F1D19" transform="translate(146,307)"/>
<path d="M0 0 C1.875 0 1.875 0 4 1 C5.06652192 3.30368736 6.06421005 5.64018187 7 8 C7.5775 8.556875 8.155 9.11375 8.75 9.6875 C9.36875 10.3371875 9.36875 10.3371875 10 11 C9.6875 13.1875 9.6875 13.1875 9 15 C5.31323596 14.4550001 3.95029925 13.20595757 1.75 10.25 C0.96882813 9.23679687 0.96882813 9.23679687 0.171875 8.203125 C-1.21660038 5.59279129 -1.29764719 3.91694248 -1 1 C-0.67 0.67 -0.34 0.34 0 0 Z " fill="#23211D" transform="translate(116,264)"/>
<path d="M0 0 C2 0.3125 2 0.3125 4 1 C5.32229189 3.64458379 5.09677194 5.67761301 5.0625 8.625 C5.05347656 9.62789063 5.04445312 10.63078125 5.03515625 11.6640625 C5.02355469 12.43492187 5.01195312 13.20578125 5 14 C3.33388095 14.042721 1.66617115 14.04063832 0 14 C-1 13 -1 13 -1.1328125 10.3125 C-1.13023437 9.219375 -1.12765625 8.12625 -1.125 7 C-1.12757813 5.906875 -1.13015625 4.81375 -1.1328125 3.6875 C-1 1 -1 1 0 0 Z " fill="#3A372F" transform="translate(162,306)"/>
<path d="M0 0 C1.13667209 3.41001627 0.87448905 3.92676657 -0.375 7.125 C-2.04966881 11.78195573 -2.60914123 16.07517953 -3 21 C-3.99 20.67 -4.98 20.34 -6 20 C-6.44405497 13.00613417 -5.53427678 8.10114203 -2 2 C-1.34 1.34 -0.68 0.68 0 0 Z " fill="#DED1B1" transform="translate(88,249)"/>
<path d="M0 0 C-0.48 4.56 -0.48 4.56 -2.625 6.375 C-5.93928051 7.24717908 -8.67112389 6.64016848 -12 6 C-11.67 4.68 -11.34 3.36 -11 2 C-7.12315913 0.80712589 -4.08378077 0 0 0 Z " fill="#22201C" transform="translate(124,284)"/>
<path d="M0 0 C0.66 0.33 1.32 0.66 2 1 C-1.63 4.63 -5.26 8.26 -9 12 C-9.33 11.34 -9.66 10.68 -10 10 C-6.92118304 6.12948725 -3.99926986 2.97088618 0 0 Z " fill="#2A2823" transform="translate(159,254)"/>
<path d="M0 0 C0.66 0.33 1.32 0.66 2 1 C-1.63 4.63 -5.26 8.26 -9 12 C-9.66 11.67 -10.32 11.34 -11 11 C-7.33333333 7.33333333 -3.66666667 3.66666667 0 0 Z " fill="#C7BC9F" transform="translate(113,126)"/>
<path d="M0 0 C3.375 -0.125 3.375 -0.125 7 0 C7.66 0.66 8.32 1.32 9 2 C6.02148438 2.34179688 6.02148438 2.34179688 3.04296875 2.68359375 C0.80603607 2.97170735 0.80603607 2.97170735 -2 4 C-1.34 2.68 -0.68 1.36 0 0 Z " fill="#ADA48B" transform="translate(122,36)"/>
<path d="M0 0 C0.66 0.33 1.32 0.66 2 1 C0.68 1.33 -0.64 1.66 -2 2 C-2.33 3.32 -2.66 4.64 -3 6 C-1.68 6.33 -0.36 6.66 1 7 C-0.65 7 -2.3 7 -4 7 C-4.33 5.68 -4.66 4.36 -5 3 C-2.625 1.4375 -2.625 1.4375 0 0 Z " fill="#55534D" transform="translate(167,267)"/>
<path d="M0 0 C0.78375 0.04125 1.5675 0.0825 2.375 0.125 C-0.24014317 2.24538635 -2.82137616 4.25591744 -5.625 6.125 C-4.86443086 2.32215429 -4.27658992 0.20364714 0 0 Z " fill="#CFC4A6" transform="translate(176.625,25.875)"/>
</svg>
