<?xml version="1.0" encoding="UTF-8"?>
<svg version="1.1" xmlns="http://www.w3.org/2000/svg" width="360" height="360">
<path d="M0 0 C5.34055096 1.81415662 7.44991883 6.51446265 9.83203125 11.2265625 C17.31399939 27.22447899 20.15801808 43.36221176 22.62402344 60.73681641 C22.98179438 63.23997362 23.35509831 65.73953385 23.7421875 68.23828125 C24.58988222 73.80799372 25.13125706 79.04874606 25.046875 84.6953125 C28.676875 84.3653125 32.306875 84.0353125 36.046875 83.6953125 C35.593125 82.0453125 35.139375 80.3953125 34.671875 78.6953125 C29.27580594 56.62513432 25.96326171 26.09453064 38.046875 5.6953125 C40.76499774 2.16909922 42.30553623 0.93359996 46.546875 -0.4296875 C50.046875 -0.3046875 50.046875 -0.3046875 52.734375 1.6328125 C57.14701935 7.47658475 59.69846739 13.85568104 61.609375 20.8828125 C61.81916992 21.64746826 62.02896484 22.41212402 62.24511719 23.19995117 C64.692946 32.56600802 65.94711846 42.09145726 67.046875 51.6953125 C67.17964844 52.8090625 67.31242188 53.9228125 67.44921875 55.0703125 C68.53142743 66.21854434 68.13578662 77.50749537 68.046875 88.6953125 C68.84971924 88.75614014 69.65256348 88.81696777 70.47973633 88.87963867 C85.37835781 90.18950476 99.75505868 98.19951736 111.046875 107.6953125 C111.97886719 108.46617188 112.91085937 109.23703125 113.87109375 110.03125 C130.16409286 124.12369397 138.62483692 141.711244 140.796875 163.0078125 C142.14406156 186.5979091 136.03211799 206.5711364 122.6875 225.97265625 C120.83254991 227.92035384 119.67635293 228.33518835 117.046875 228.6953125 C117.376875 229.3553125 117.706875 230.0153125 118.046875 230.6953125 C119.3771875 231.035625 119.3771875 231.035625 120.734375 231.3828125 C125.71494673 233.35624658 128.38901413 237.01722956 131.1640625 241.5 C133.42906097 247.13242982 133.83622736 254.4038621 132.42578125 260.28515625 C130.78873985 263.93283772 129.37827042 265.478891 125.984375 267.6953125 C123.046875 268.6953125 123.046875 268.6953125 120.046875 268.6953125 C119.98371094 269.2315625 119.92054688 269.7678125 119.85546875 270.3203125 C117.29520435 286.70600464 108.17056212 304.13049637 94.9921875 314.27734375 C88.09595601 319.12433919 80.4222313 323.29439859 72.046875 324.6953125 C71.799375 325.8709375 71.551875 327.0465625 71.296875 328.2578125 C69.9077057 333.80463744 67.93618582 338.43577195 63.046875 341.6953125 C56.12191863 342.47716241 56.12191863 342.47716241 52.296875 339.6953125 C50.48084429 337.27393823 49.21644633 335.19426548 47.90625 332.5078125 C47.55530273 331.79238281 47.20435547 331.07695312 46.84277344 330.33984375 C46.58012695 329.79714844 46.31748047 329.25445312 46.046875 328.6953125 C44.73976563 328.71851563 43.43265625 328.74171875 42.0859375 328.765625 C31.5318327 328.89279486 21.29777305 328.51201878 10.83203125 327.1328125 C7.52168117 326.75019206 4.37350932 326.61201649 1.046875 326.6953125 C0.82773438 327.28699219 0.60859375 327.87867188 0.3828125 328.48828125 C-1.85962048 334.07613254 -3.78102536 337.48861072 -8.953125 340.6953125 C-12.40351123 341.25864086 -14.33017059 340.93262847 -17.578125 339.6953125 C-21.54682752 336.35324722 -23.69257889 332.36694405 -24.19921875 327.171875 C-24.20264915 324.99700182 -24.13368818 322.86207065 -23.953125 320.6953125 C-24.82453125 320.5921875 -25.6959375 320.4890625 -26.59375 320.3828125 C-39.77291811 317.68568042 -50.91143813 306.10982431 -58.265625 295.44921875 C-61.89507244 289.52616216 -63.84813546 283.93729604 -64.765625 277.0703125 C-65.56920688 271.85071643 -67.53266292 269.16753662 -71.296875 265.546875 C-75.13613813 261.25486858 -75.2487481 256.84406766 -75.265625 251.2578125 C-75.28238281 249.98035156 -75.29914063 248.70289063 -75.31640625 247.38671875 C-74.84773475 242.62441155 -73.52286301 239.36494292 -70.234375 235.8671875 C-69.6465625 235.39796875 -69.05875 234.92875 -68.453125 234.4453125 C-67.8653125 233.96578125 -67.2775 233.48625 -66.671875 232.9921875 C-63.35539697 230.48975408 -62.26972125 229.6953125 -57.953125 229.6953125 C-59.42754961 226.54409127 -61.23062632 223.8063241 -63.203125 220.9453125 C-76.09844962 200.74263726 -79.15657765 174.48760723 -75.33203125 151.1171875 C-71.99023796 137.15591775 -65.21137817 124.6951213 -54.953125 114.6953125 C-54.14875 113.8290625 -53.344375 112.9628125 -52.515625 112.0703125 C-39.1295459 99.6637026 -23.36104069 90.93555434 -4.953125 89.6953125 C-6.41147375 85.27372321 -7.88397224 80.86022735 -9.453125 76.4765625 C-14.76743277 61.47156057 -17.19364405 47.77685173 -17.390625 31.8203125 C-17.41302246 30.69117432 -17.43541992 29.56203613 -17.45849609 28.39868164 C-17.43085098 18.50391499 -15.1869016 9.53780564 -8.953125 1.6953125 C-5.61915125 -0.52733666 -3.91047893 -0.67077558 0 0 Z " fill="#FAECC8" transform="translate(149.953125,10.3046875)"/>
<path d="M0 0 C5.34055096 1.81415662 7.44991883 6.51446265 9.83203125 11.2265625 C17.31399939 27.22447899 20.15801808 43.36221176 22.62402344 60.73681641 C22.98179438 63.23997362 23.35509831 65.73953385 23.7421875 68.23828125 C24.58988222 73.80799372 25.13125706 79.04874606 25.046875 84.6953125 C28.676875 84.3653125 32.306875 84.0353125 36.046875 83.6953125 C35.593125 82.0453125 35.139375 80.3953125 34.671875 78.6953125 C29.27580594 56.62513432 25.96326171 26.09453064 38.046875 5.6953125 C40.76499774 2.16909922 42.30553623 0.93359996 46.546875 -0.4296875 C50.046875 -0.3046875 50.046875 -0.3046875 52.734375 1.6328125 C57.14701935 7.47658475 59.69846739 13.85568104 61.609375 20.8828125 C61.81916992 21.64746826 62.02896484 22.41212402 62.24511719 23.19995117 C64.692946 32.56600802 65.94711846 42.09145726 67.046875 51.6953125 C67.17964844 52.8090625 67.31242188 53.9228125 67.44921875 55.0703125 C68.53142743 66.21854434 68.13578662 77.50749537 68.046875 88.6953125 C68.84971924 88.75614014 69.65256348 88.81696777 70.47973633 88.87963867 C85.37835781 90.18950476 99.75505868 98.19951736 111.046875 107.6953125 C111.97886719 108.46617188 112.91085937 109.23703125 113.87109375 110.03125 C130.16409286 124.12369397 138.62483692 141.711244 140.796875 163.0078125 C142.14406156 186.5979091 136.03211799 206.5711364 122.6875 225.97265625 C120.83254991 227.92035384 119.67635293 228.33518835 117.046875 228.6953125 C117.376875 229.3553125 117.706875 230.0153125 118.046875 230.6953125 C119.3771875 231.035625 119.3771875 231.035625 120.734375 231.3828125 C125.71494673 233.35624658 128.38901413 237.01722956 131.1640625 241.5 C133.42906097 247.13242982 133.83622736 254.4038621 132.42578125 260.28515625 C130.78873985 263.93283772 129.37827042 265.478891 125.984375 267.6953125 C123.046875 268.6953125 123.046875 268.6953125 120.046875 268.6953125 C119.98371094 269.2315625 119.92054688 269.7678125 119.85546875 270.3203125 C117.29520435 286.70600464 108.17056212 304.13049637 94.9921875 314.27734375 C88.09595601 319.12433919 80.4222313 323.29439859 72.046875 324.6953125 C71.799375 325.8709375 71.551875 327.0465625 71.296875 328.2578125 C69.9077057 333.80463744 67.93618582 338.43577195 63.046875 341.6953125 C56.12191863 342.47716241 56.12191863 342.47716241 52.296875 339.6953125 C50.48084429 337.27393823 49.21644633 335.19426548 47.90625 332.5078125 C47.55530273 331.79238281 47.20435547 331.07695312 46.84277344 330.33984375 C46.58012695 329.79714844 46.31748047 329.25445312 46.046875 328.6953125 C44.73976563 328.71851563 43.43265625 328.74171875 42.0859375 328.765625 C31.5318327 328.89279486 21.29777305 328.51201878 10.83203125 327.1328125 C7.52168117 326.75019206 4.37350932 326.61201649 1.046875 326.6953125 C0.82773438 327.28699219 0.60859375 327.87867188 0.3828125 328.48828125 C-1.85962048 334.07613254 -3.78102536 337.48861072 -8.953125 340.6953125 C-12.40351123 341.25864086 -14.33017059 340.93262847 -17.578125 339.6953125 C-21.54682752 336.35324722 -23.69257889 332.36694405 -24.19921875 327.171875 C-24.20264915 324.99700182 -24.13368818 322.86207065 -23.953125 320.6953125 C-24.82453125 320.5921875 -25.6959375 320.4890625 -26.59375 320.3828125 C-39.77291811 317.68568042 -50.91143813 306.10982431 -58.265625 295.44921875 C-61.89507244 289.52616216 -63.84813546 283.93729604 -64.765625 277.0703125 C-65.56920688 271.85071643 -67.53266292 269.16753662 -71.296875 265.546875 C-75.13613813 261.25486858 -75.2487481 256.84406766 -75.265625 251.2578125 C-75.28238281 249.98035156 -75.29914063 248.70289063 -75.31640625 247.38671875 C-74.84773475 242.62441155 -73.52286301 239.36494292 -70.234375 235.8671875 C-69.6465625 235.39796875 -69.05875 234.92875 -68.453125 234.4453125 C-67.8653125 233.96578125 -67.2775 233.48625 -66.671875 232.9921875 C-63.35539697 230.48975408 -62.26972125 229.6953125 -57.953125 229.6953125 C-58.078125 231.9453125 -58.078125 231.9453125 -58.953125 234.6953125 C-61.828125 236.8203125 -61.828125 236.8203125 -64.953125 238.6953125 C-67.77750596 241.01533972 -68.93648264 243.17616586 -69.953125 246.6953125 C-70.5085568 253.24940779 -69.08088443 258.51467798 -66.953125 264.6953125 C-66.293125 264.6953125 -65.633125 264.6953125 -64.953125 264.6953125 C-64.89705078 263.22771484 -64.89705078 263.22771484 -64.83984375 261.73046875 C-64.24769504 249.92232679 -62.69476814 241.89007959 -54.953125 232.6953125 C-53.963125 233.0253125 -52.973125 233.3553125 -51.953125 233.6953125 C-52.39080111 236.54020723 -53.09312094 237.87595242 -54.890625 240.1953125 C-60.20635232 247.89209261 -59.29261649 259.67703547 -59.265625 268.6328125 C-59.28173828 269.72916016 -59.29785156 270.82550781 -59.31445312 271.95507812 C-59.31509766 273.01275391 -59.31574219 274.07042969 -59.31640625 275.16015625 C-59.31938721 276.1049585 -59.32236816 277.04976074 -59.32543945 278.02319336 C-58.88558752 281.1800323 -57.60709091 283.003757 -55.953125 285.6953125 C-55.953125 287.0153125 -55.953125 288.3353125 -55.953125 289.6953125 C-55.293125 289.6953125 -54.633125 289.6953125 -53.953125 289.6953125 C-52.90962661 291.33509568 -51.92130492 293.00996226 -50.953125 294.6953125 C-41.70919634 309.00190442 -29.35389266 314.06275109 -13.1159668 317.60961914 C1.48887785 320.55010682 16.18171335 321.32845447 31.046875 321.6953125 C32.97249268 321.75090332 32.97249268 321.75090332 34.93701172 321.80761719 C56.1684311 322.35514007 76.08159181 322.09979823 93.046875 307.6953125 C99.53575515 300.87152241 106.03487787 292.73130388 109.046875 283.6953125 C109.706875 283.6953125 110.366875 283.6953125 111.046875 283.6953125 C111.2015625 282.2721875 111.2015625 282.2721875 111.359375 280.8203125 C111.77982455 277.75741977 112.57220536 275.01787028 113.56640625 272.09375 C115.20384752 266.71718025 115.49620748 261.78676658 115.421875 256.1953125 C115.43927734 254.88626953 115.43927734 254.88626953 115.45703125 253.55078125 C115.43211908 247.94554402 114.54945447 243.17829457 112.75708008 237.86767578 C111.878353 235.17984025 111.41527174 232.49512769 111.046875 229.6953125 C112.036875 229.6953125 113.026875 229.6953125 114.046875 229.6953125 C114.088125 229.0146875 114.129375 228.3340625 114.171875 227.6328125 C115.1756486 224.26300112 116.89928063 222.66151502 119.2265625 220.109375 C121.674941 216.86238378 123.43192873 213.39404829 125.234375 209.7578125 C125.56703369 209.08967529 125.89969238 208.42153809 126.24243164 207.7331543 C132.19784974 195.46795352 133.26152643 185.18717162 133.34204102 171.54077148 C133.35352159 170.19431008 133.37391138 168.84789278 133.40356445 167.50170898 C133.72133304 152.98909347 130.92573961 139.70626967 122.296875 127.8203125 C120.046875 124.6953125 120.046875 124.6953125 120.046875 122.6953125 C119.49 122.4684375 118.933125 122.2415625 118.359375 122.0078125 C116.046875 120.6953125 116.046875 120.6953125 113.78125 118.41796875 C105.69121196 110.3626023 96.08121071 104.04895212 86.046875 98.6953125 C84.95375 98.0971875 83.860625 97.4990625 82.734375 96.8828125 C78.24939467 95.4384968 73.77492315 94.86063706 69.11206055 94.34057617 C64.13713426 93.78557176 64.13713426 93.78557176 63.046875 92.6953125 C62.83909177 89.64011536 62.69137289 86.60216615 62.58203125 83.54296875 C62.5034153 81.63215487 62.42463375 79.72134779 62.34570312 77.81054688 C62.22673986 74.79591505 62.11025189 71.78122113 61.99731445 68.76635742 C61.88658173 65.85824231 61.76602877 62.95065132 61.64453125 60.04296875 C61.61424332 59.15714615 61.58395538 58.27132355 61.55274963 57.35865784 C61.32767164 52.09796589 60.6628355 47.14987214 59.49388123 42.01341248 C59.01670218 39.53884127 58.84765303 37.14841919 58.734375 34.6328125 C58.32541699 29.52083741 57.14581366 24.79305838 55.734375 19.8828125 C55.53352295 19.16536865 55.3326709 18.4479248 55.12573242 17.70874023 C53.73701117 13.08702853 51.9094127 9.58323684 49.046875 5.6953125 C46.60207421 5.88360022 46.60207421 5.88360022 44.046875 6.6953125 C42.68667349 8.66289523 42.68667349 8.66289523 42.046875 10.6953125 C41.386875 10.6953125 40.726875 10.6953125 40.046875 10.6953125 C39.73368356 12.09099085 39.42135712 13.48686332 39.109375 14.8828125 C38.93535156 15.66011719 38.76132813 16.43742187 38.58203125 17.23828125 C38.40542969 18.04910156 38.22882813 18.85992188 38.046875 19.6953125 C37.78910278 20.79214355 37.78910278 20.79214355 37.52612305 21.91113281 C36.48955364 27.93305717 36.80559003 34.15745838 36.796875 40.2578125 C36.79337036 41.3662149 36.79337036 41.3662149 36.78979492 42.49700928 C36.77710002 53.12639615 37.39296239 63.330499 39.390625 73.796875 C40.02911083 77.58978489 40.16726613 80.87289398 40.046875 84.6953125 C39.386875 84.6953125 38.726875 84.6953125 38.046875 84.6953125 C38.046875 86.3453125 38.046875 87.9953125 38.046875 89.6953125 C32.766875 89.6953125 27.486875 89.6953125 22.046875 89.6953125 C20.79799153 85.32422037 19.76459724 81.59711154 19.1171875 77.203125 C18.9639502 76.1807373 18.81071289 75.15834961 18.65283203 74.10498047 C18.49411621 73.02104004 18.33540039 71.93709961 18.171875 70.8203125 C17.81778698 68.49217554 17.46361821 66.16405085 17.109375 63.8359375 C16.41655884 59.22469373 15.75315724 54.6105067 15.109375 49.9921875 C11.72045122 25.96568885 11.72045122 25.96568885 -0.953125 5.6953125 C-3.36794913 5.19471334 -3.36794913 5.19471334 -5.953125 5.6953125 C-12.13142536 13.01774256 -11.30543199 23.72258646 -11.265625 32.6953125 C-11.26071045 33.99025635 -11.2557959 35.2852002 -11.25073242 36.61938477 C-11.03743255 54.05856322 -7.07553585 68.98518261 0.265625 84.8515625 C1.21468804 87.09135127 1.73588893 89.28517045 2.046875 91.6953125 C0.726875 92.0253125 -0.593125 92.3553125 -1.953125 92.6953125 C-12.55832971 73.51568696 -17.12160498 53.6124124 -17.390625 31.8203125 C-17.41302246 30.69117432 -17.43541992 29.56203613 -17.45849609 28.39868164 C-17.43085098 18.50391499 -15.1869016 9.53780564 -8.953125 1.6953125 C-5.61915125 -0.52733666 -3.91047893 -0.67077558 0 0 Z " fill="#0F0E0C" transform="translate(149.953125,10.3046875)"/>
<path d="M0 0 C5.34055096 1.81415662 7.44991883 6.51446265 9.83203125 11.2265625 C17.31399939 27.22447899 20.15801808 43.36221176 22.62402344 60.73681641 C22.98179438 63.23997362 23.35509831 65.73953385 23.7421875 68.23828125 C24.58988222 73.80799372 25.13125706 79.04874606 25.046875 84.6953125 C28.676875 84.3653125 32.306875 84.0353125 36.046875 83.6953125 C35.593125 82.0453125 35.139375 80.3953125 34.671875 78.6953125 C29.27580594 56.62513432 25.96326171 26.09453064 38.046875 5.6953125 C40.76499774 2.16909922 42.30553623 0.93359996 46.546875 -0.4296875 C50.046875 -0.3046875 50.046875 -0.3046875 52.734375 1.6328125 C57.14701935 7.47658475 59.69846739 13.85568104 61.609375 20.8828125 C61.81916992 21.64746826 62.02896484 22.41212402 62.24511719 23.19995117 C64.692946 32.56600802 65.94711846 42.09145726 67.046875 51.6953125 C67.17964844 52.8090625 67.31242187 53.9228125 67.44921875 55.0703125 C68.53142743 66.21854434 68.13578662 77.50749537 68.046875 88.6953125 C68.84971924 88.75614014 69.65256348 88.81696777 70.47973633 88.87963867 C85.37835781 90.18950476 99.75505868 98.19951736 111.046875 107.6953125 C111.97886719 108.46617188 112.91085937 109.23703125 113.87109375 110.03125 C130.16409286 124.12369397 138.62483692 141.711244 140.796875 163.0078125 C142.14969082 186.69648096 135.82971591 206.28941985 122.8828125 225.97265625 C120.4217335 228.28188144 118.34490152 228.40431016 115.046875 228.6953125 C115.94454807 225.47865068 116.73457279 223.07515759 118.87109375 220.4765625 C121.48214837 217.13891278 123.25674154 213.67731994 125.109375 209.8828125 C125.44775391 209.20927734 125.78613281 208.53574219 126.13476562 207.84179688 C132.21402969 195.5539227 133.26113699 185.25317765 133.34204102 171.54077148 C133.35352159 170.19431008 133.37391138 168.84789278 133.40356445 167.50170898 C133.72133304 152.98909347 130.92573961 139.70626967 122.296875 127.8203125 C120.046875 124.6953125 120.046875 124.6953125 120.046875 122.6953125 C119.49 122.4684375 118.933125 122.2415625 118.359375 122.0078125 C116.046875 120.6953125 116.046875 120.6953125 113.78125 118.41796875 C105.69121196 110.3626023 96.08121071 104.04895212 86.046875 98.6953125 C84.95375 98.0971875 83.860625 97.4990625 82.734375 96.8828125 C78.24939467 95.4384968 73.77492315 94.86063706 69.11206055 94.34057617 C64.13713426 93.78557176 64.13713426 93.78557176 63.046875 92.6953125 C62.83909177 89.64011536 62.69137289 86.60216615 62.58203125 83.54296875 C62.5034153 81.63215487 62.42463375 79.72134779 62.34570312 77.81054688 C62.22673986 74.79591505 62.11025189 71.78122113 61.99731445 68.76635742 C61.88658173 65.85824231 61.76602877 62.95065132 61.64453125 60.04296875 C61.61424332 59.15714615 61.58395538 58.27132355 61.55274963 57.35865784 C61.32767164 52.09796589 60.6628355 47.14987214 59.49388123 42.01341248 C59.01670218 39.53884127 58.84765303 37.14841919 58.734375 34.6328125 C58.32541699 29.52083741 57.14581366 24.79305838 55.734375 19.8828125 C55.53352295 19.16536865 55.3326709 18.4479248 55.12573242 17.70874023 C53.73701117 13.08702853 51.9094127 9.58323684 49.046875 5.6953125 C46.60207421 5.88360022 46.60207421 5.88360022 44.046875 6.6953125 C42.68667349 8.66289523 42.68667349 8.66289523 42.046875 10.6953125 C41.386875 10.6953125 40.726875 10.6953125 40.046875 10.6953125 C39.73368356 12.09099085 39.42135712 13.48686332 39.109375 14.8828125 C38.93535156 15.66011719 38.76132813 16.43742187 38.58203125 17.23828125 C38.40542969 18.04910156 38.22882813 18.85992188 38.046875 19.6953125 C37.87502686 20.4265332 37.70317871 21.15775391 37.52612305 21.91113281 C36.48955364 27.93305717 36.80559003 34.15745838 36.796875 40.2578125 C36.79337036 41.3662149 36.79337036 41.3662149 36.78979492 42.49700928 C36.77710002 53.12639615 37.39296239 63.330499 39.390625 73.796875 C40.02911083 77.58978489 40.16726613 80.87289398 40.046875 84.6953125 C39.386875 84.6953125 38.726875 84.6953125 38.046875 84.6953125 C38.046875 86.3453125 38.046875 87.9953125 38.046875 89.6953125 C32.766875 89.6953125 27.486875 89.6953125 22.046875 89.6953125 C20.79799153 85.32422037 19.76459724 81.59711154 19.1171875 77.203125 C18.9639502 76.1807373 18.81071289 75.15834961 18.65283203 74.10498047 C18.49411621 73.02104004 18.33540039 71.93709961 18.171875 70.8203125 C17.81778698 68.49217554 17.46361821 66.16405085 17.109375 63.8359375 C16.41655884 59.22469373 15.75315724 54.6105067 15.109375 49.9921875 C11.72045122 25.96568885 11.72045122 25.96568885 -0.953125 5.6953125 C-3.36794913 5.19471334 -3.36794913 5.19471334 -5.953125 5.6953125 C-12.13142536 13.01774256 -11.30543199 23.72258646 -11.265625 32.6953125 C-11.26071045 33.99025635 -11.2557959 35.2852002 -11.25073242 36.61938477 C-11.03743255 54.05856322 -7.07553585 68.98518261 0.265625 84.8515625 C1.21468804 87.09135127 1.73588893 89.28517045 2.046875 91.6953125 C0.066875 92.1903125 0.066875 92.1903125 -1.953125 92.6953125 C-12.55832971 73.51568696 -17.12160498 53.6124124 -17.390625 31.8203125 C-17.41302246 30.69117432 -17.43541992 29.56203613 -17.45849609 28.39868164 C-17.43085098 18.50391499 -15.1869016 9.53780564 -8.953125 1.6953125 C-5.61915125 -0.52733666 -3.91047893 -0.67077558 0 0 Z " fill="#0C0C0A" transform="translate(149.953125,10.3046875)"/>
<path d="M0 0 C1.22847656 -0.00515625 2.45695312 -0.0103125 3.72265625 -0.015625 C6.9375 0.25 6.9375 0.25 9.9375 2.25 C7.9575 3.24 7.9575 3.24 5.9375 4.25 C5.9375 4.91 5.9375 5.57 5.9375 6.25 C5.2775 6.889375 4.6175 7.52875 3.9375 8.1875 C1.58942708 10.13012332 1.58942708 10.13012332 1.9375 13.25 C2.9275 13.58 3.9175 13.91 4.9375 14.25 C5.14375 13.5075 5.35 12.765 5.5625 12 C7.38031231 8.36437538 9.3750655 7.13599474 12.9375 5.25 C15.5 4.6875 15.5 4.6875 17.9375 5.25 C20.75 7.625 20.75 7.625 22.9375 10.25 C22.9375 10.91 22.9375 11.57 22.9375 12.25 C21.803125 12.8275 20.66875 13.405 19.5 14 C16.56439703 15.60492635 16.56439703 15.60492635 15 18.5 C14.979375 19.0775 14.95875 19.655 14.9375 20.25 C16.5153125 19.5075 16.5153125 19.5075 18.125 18.75 C21.19202609 17.42220212 23.55884936 16.94284994 26.9375 17.25 C29.18578052 21.74656104 29.10432272 25.32872966 28.9375 30.25 C27.2875 30.25 25.6375 30.25 23.9375 30.25 C24.68900023 33.52773504 24.68900023 33.52773504 27.9375 35.25 C27.69388643 42.07118001 25.81853628 46.3811056 20.9375 51.25 C17.80400268 52.29449911 16.94781744 52.18423645 13.9375 51.25 C13.2775 52.57 12.6175 53.89 11.9375 55.25 C8.9675 55.25 5.9975 55.25 2.9375 55.25 C2.9375 53.93 2.9375 52.61 2.9375 51.25 C0.50032742 51.52034634 0.50032742 51.52034634 -2.0625 52.25 C-2.7225 53.24 -3.3825 54.23 -4.0625 55.25 C-5.35467171 54.77219697 -6.64622046 54.29270894 -7.9375 53.8125 C-8.65679687 53.54566406 -9.37609375 53.27882813 -10.1171875 53.00390625 C-12.0625 52.25 -12.0625 52.25 -14.0625 51.25 C-14.28286864 47.39354879 -13.66605101 44.75776784 -12.0625 41.25 C-15.22365776 42.61983503 -16.0552092 43.2390638 -18.0625 46.25 C-19.8125 46.1875 -19.8125 46.1875 -22.0625 45.25 C-24.50977466 42.0338181 -26.0625 39.32605096 -26.0625 35.25 C-25.0725 34.755 -25.0725 34.755 -24.0625 34.25 C-23.41036708 32.22536745 -23.41036708 32.22536745 -23.0625 30.25 C-24.3825 30.25 -25.7025 30.25 -27.0625 30.25 C-26.6875 27.8125 -26.6875 27.8125 -26.0625 25.25 C-25.4025 24.92 -24.7425 24.59 -24.0625 24.25 C-24.13210937 23.6209375 -24.20171875 22.991875 -24.2734375 22.34375 C-24.68345072 15.86163627 -23.59227881 12.58812055 -19.375 7.6484375 C-18.941875 7.18695313 -18.50875 6.72546875 -18.0625 6.25 C-17.794375 6.889375 -17.52625 7.52875 -17.25 8.1875 C-16.17582248 10.58131686 -16.17582248 10.58131686 -13.0625 11.25 C-12.96453125 10.62351562 -12.8665625 9.99703125 -12.765625 9.3515625 C-12.61609375 8.53429687 -12.4665625 7.71703125 -12.3125 6.875 C-12.17328125 6.06289063 -12.0340625 5.25078125 -11.890625 4.4140625 C-11.0625 2.25 -11.0625 2.25 -9.42578125 0.9765625 C-6.22424741 -0.00771071 -3.3454407 -0.01407125 0 0 Z " fill="#FCFCFB" transform="translate(165.0625,256.75)"/>
<path d="M0 0 C-0.33 1.65 -0.66 3.3 -1 5 C-1.65484375 5.01417969 -2.3096875 5.02835937 -2.984375 5.04296875 C-11.12598898 5.46844858 -19.33044699 7.39040687 -25.91015625 12.4765625 C-28 14 -28 14 -31.33984375 15.328125 C-35.49204024 17.0328391 -38.36501532 19.657453 -41.5625 22.75 C-42.1304126 23.28931152 -42.6983252 23.82862305 -43.28344727 24.38427734 C-56.43652099 36.99681379 -64.41200952 51.20654929 -65.1081543 69.9050293 C-65.17070514 73.35400615 -65.18561501 76.80047442 -65.1875 80.25 C-65.19974609 81.41402344 -65.21199219 82.57804687 -65.22460938 83.77734375 C-65.24193028 94.08905692 -64.05111317 103.49360295 -60 113 C-59.31357422 114.68029297 -59.31357422 114.68029297 -58.61328125 116.39453125 C-56.1567405 122.31871744 -53.58423509 127.65848334 -50 133 C-50 133.66 -50 134.32 -50 135 C-49.01 135.33 -48.02 135.66 -47 136 C-47.33 137.32 -47.66 138.64 -48 140 C-51.58287889 139.76701842 -52.77791376 139.24217056 -55.24609375 136.55078125 C-70.46624939 114.05967781 -75.81565059 87.3275513 -71.38671875 60.390625 C-67.98820286 46.43724696 -61.26830206 34.00960453 -51 24 C-50.195625 23.13375 -49.39125 22.2675 -48.5625 21.375 C-37.30782045 10.94383359 -16.51156754 -4.37070905 0 0 Z " fill="#0D0D0B" transform="translate(146,101)"/>
<path d="M0 0 C0.33 0.66 0.66 1.32 1 2 C1.66 2.33 2.32 2.66 3 3 C2.38511719 3.85271484 2.38511719 3.85271484 1.7578125 4.72265625 C0.94957031 5.88087891 0.94957031 5.88087891 0.125 7.0625 C-0.40867187 7.81660156 -0.94234375 8.57070312 -1.4921875 9.34765625 C-4.60128587 14.81676971 -5.38891236 20.78935816 -6.125 26.9375 C-6.21136719 27.62134766 -6.29773438 28.30519531 -6.38671875 29.00976562 C-6.59602285 30.67257046 -6.79871722 32.33620513 -7 34 C-7.66 34 -8.32 34 -9 34 C-12.38265679 26.63064056 -14.65805161 20.87662238 -11.9375 12.875 C-9.13791431 8.72077607 -5.51223683 5.25611841 -1 3 C-0.67 2.01 -0.34 1.02 0 0 Z " fill="#E3D7B6" transform="translate(92,241)"/>
<path d="M0 0 C0.99 0.495 0.99 0.495 2 1 C2.226875 1.680625 2.45375 2.36125 2.6875 3.0625 C4.34050522 6.7620831 6.71546897 9.26650784 9.44140625 12.23046875 C12.72165215 15.9546577 12.26877183 19.51978993 12.21875 24.296875 C11.94947927 27.62429183 11.24387717 29.51570742 9 32 C7.68365508 32.69961295 6.35178419 33.37158793 5 34 C4.94392578 32.47632813 4.94392578 32.47632813 4.88671875 30.921875 C4.54161875 23.23027125 3.8520565 16.09367719 1.71875 8.6484375 C0.94127697 5.78361841 0.44723718 2.93284382 0 0 Z " fill="#EDE0BD" transform="translate(266,240)"/>
<path d="M0 0 C4.62 0.66 9.24 1.32 14 2 C13 9 13 9 11.25 11.4375 C8.59267675 13.28286337 7.1685371 13.35205968 4 13 C0.66722461 7.79253845 0 6.6233989 0 0 Z " fill="#EDE0BD" transform="translate(131,333)"/>
<path d="M0 0 C-2.89066059 9.59453303 -2.89066059 9.59453303 -6 13 C-8.80705084 12.91979855 -10.48206883 12.54452763 -12.4453125 10.48046875 C-16 5.65625 -16 5.65625 -16 2 C-13.70858188 1.66496236 -11.41685737 1.33201958 -9.125 1 C-7.21074219 0.7215625 -7.21074219 0.7215625 -5.2578125 0.4375 C-2 0 -2 0 0 0 Z " fill="#E5D9B7" transform="translate(217,335)"/>
<path d="M0 0 C0.33 1.32 0.66 2.64 1 4 C0.39671875 4.26554687 -0.2065625 4.53109375 -0.828125 4.8046875 C-1.62734375 5.15789062 -2.4265625 5.51109375 -3.25 5.875 C-4.03890625 6.22304688 -4.8278125 6.57109375 -5.640625 6.9296875 C-6.41921875 7.28289062 -7.1978125 7.63609375 -8 8 C-8.721875 8.3196875 -9.44375 8.639375 -10.1875 8.96875 C-12.74876688 10.42602254 -13.65245184 12.4396585 -15 15 C-16.32 14.67 -17.64 14.34 -19 14 C-18.75 11.625 -18.75 11.625 -18 9 C-15.9375 7.6875 -15.9375 7.6875 -14 7 C-14 6.34 -14 5.68 -14 5 C-12.61217515 4.1533966 -11.21430603 3.32324661 -9.8125 2.5 C-9.03519531 2.0359375 -8.25789062 1.571875 -7.45703125 1.09375 C-4.75896614 -0.10729647 -2.9193018 -0.20741043 0 0 Z " fill="#21201C" transform="translate(185,256)"/>
<path d="M0 0 C2 2 2 2 2 5 C0.78763672 5.05607422 0.78763672 5.05607422 -0.44921875 5.11328125 C-1.51785156 5.17902344 -2.58648437 5.24476563 -3.6875 5.3125 C-4.74324219 5.37050781 -5.79898438 5.42851562 -6.88671875 5.48828125 C-10.25515425 6.04193878 -12.13051673 7.22501284 -15 9 C-16.32 9 -17.64 9 -19 9 C-18.9375 6.75 -18.9375 6.75 -18 4 C-12.49308727 -0.42947328 -6.9446375 -0.99044581 0 0 Z " fill="#26241F" transform="translate(199,268)"/>
<path d="M0 0 C2.125 0.375 2.125 0.375 4 1 C4 2.32 4 3.64 4 5 C3.01 5 2.02 5 1 5 C0.87882813 5.90363281 0.75765625 6.80726563 0.6328125 7.73828125 C0.46523437 8.91777344 0.29765625 10.09726562 0.125 11.3125 C-0.03742188 12.48425781 -0.19984375 13.65601563 -0.3671875 14.86328125 C-1 18 -1 18 -3 21 C-3.99 20.67 -4.98 20.34 -6 20 C-6.51554714 13.01147209 -5.96146059 7.89881722 -2 2 C-1.34 1.34 -0.68 0.68 0 0 Z " fill="#333029" transform="translate(155,248)"/>
<path d="M0 0 C1.32 0 2.64 0 4 0 C4.268125 1.216875 4.53625 2.43375 4.8125 3.6875 C5.68608475 7.25097162 7.08489896 9.86619829 9 13 C9 14.32 9 15.64 9 17 C5.77299345 16.76096248 4.73157368 15.7503011 2.3125 13.5 C-0.63921353 9.76721767 -1.13784618 5.67692383 -1 1 C-0.67 0.67 -0.34 0.34 0 0 Z " fill="#24221E" transform="translate(133,264)"/>
<path d="M0 0 C-0.52537408 4.06809929 -1.61400461 6.17603456 -4.375 9.1875 C-4.98085937 9.86167969 -5.58671875 10.53585937 -6.2109375 11.23046875 C-9.29048102 14.2763928 -10.5724245 15 -15 15 C-15 13.68 -15 12.36 -15 11 C-13.59992571 10.03328203 -12.18888112 9.07794066 -10.72265625 8.21484375 C-8.09964147 6.36505328 -6.32865065 3.92682565 -4.39453125 1.390625 C-3 0 -3 0 0 0 Z " fill="#1F1E19" transform="translate(153,298)"/>
<path d="M0 0 C0.99 0.33 1.98 0.66 3 1 C3.35050464 6.841744 3.16727335 10.8531808 0 16 C-1.32 16 -2.64 16 -4 16 C-3.7834375 15.0409375 -3.7834375 15.0409375 -3.5625 14.0625 C-2.94649554 10.70869792 -2.64724972 7.38539538 -2.37890625 3.98828125 C-2 2 -2 2 0 0 Z " fill="#201F1A" transform="translate(164,307)"/>
<path d="M0 0 C5.37893899 0.37527481 7.48326533 1.99482996 11 6 C11.66 6.66 12.32 7.32 13 8 C13.125 11.125 13.125 11.125 13 14 C11.68 14 10.36 14 9 14 C8.443125 12.4221875 8.443125 12.4221875 7.875 10.8125 C6.11650918 6.61590837 3.54399967 4.75644419 0 2 C0 1.34 0 0.68 0 0 Z " fill="#292721" transform="translate(188,287)"/>
<path d="M0 0 C2.47407292 0.32987639 3.6637767 0.57972087 5.25 2.5625 C6.34127575 6.10914618 6.12349053 9.29528399 6 13 C4.68 13 3.36 13 2 13 C1.46605821 11.5882217 0.94834896 10.17029756 0.4375 8.75 C0.14746094 7.96109375 -0.14257812 7.1721875 -0.44140625 6.359375 C-1.04522837 3.80896548 -0.8473932 2.44677771 0 0 Z " fill="#25241E" transform="translate(179,307)"/>
<path d="M0 0 C-0.375 1.9375 -0.375 1.9375 -1 4 C-4.21451269 5.60725635 -7.43612536 5.05748185 -11 5 C-11.33 3.68 -11.66 2.36 -12 1 C-7.93631321 0.22596442 -4.13574827 -0.0984702 0 0 Z " fill="#1C1B17" transform="translate(142,288)"/>
<path d="M0 0 C0 3.63 0 7.26 0 11 C-1.32 11 -2.64 11 -4 11 C-4 7.7 -4 4.4 -4 1 C-1 0 -1 0 0 0 Z " fill="#1A1815" transform="translate(153,257)"/>
<path d="M0 0 C0.33 0 0.66 0 1 0 C1.33 3.63 1.66 7.26 2 11 C1.01 11.66 0.02 12.32 -1 13 C-2.5 11.6875 -2.5 11.6875 -4 10 C-4 9.01 -4 8.02 -4 7 C-3 6 -2 5 -1 4 C-0.28552357 1.89667109 -0.28552357 1.89667109 0 0 Z " fill="#EEE1BE" transform="translate(163,47)"/>
<path d="M0 0 C0.33 0 0.66 0 1 0 C1.33 4.62 1.66 9.24 2 14 C1.34 13.67 0.68 13.34 0 13 C-0.85486376 8.33710678 -1.30042194 4.62372246 0 0 Z M-4 10 C-3.01 10 -2.02 10 -1 10 C-2 12 -2 12 -4 13 C-4 12.01 -4 11.02 -4 10 Z " fill="#E7DAB8" transform="translate(165,59)"/>
<path d="M0 0 C5.75 0.75 5.75 0.75 8 3 C7.01 3.99 6.02 4.98 5 6 C3.2925002 4.71937515 1.62626404 3.38232443 0 2 C0 1.34 0 0.68 0 0 Z " fill="#22201C" transform="translate(188,287)"/>
<path d="M0 0 C0.99 0.33 1.98 0.66 3 1 C3 3.97 3 6.94 3 10 C2.67 10 2.34 10 2 10 C2 7.69 2 5.38 2 3 C1.01 3 0.02 3 -1 3 C-1 4.65 -1 6.3 -1 8 C-1.33 8 -1.66 8 -2 8 C-2.125 5.125 -2.125 5.125 -2 2 C-1.34 1.34 -0.68 0.68 0 0 Z " fill="#5B584F" transform="translate(164,307)"/>
<path d="M0 0 C-0.33 1.32 -0.66 2.64 -1 4 C-1.66 4 -2.32 4 -3 4 C-4.37310707 5.29233607 -5.71034824 6.62437146 -7 8 C-7.66 7.67 -8.32 7.34 -9 7 C-8.07347299 5.82460004 -7.13336613 4.65989423 -6.1875 3.5 C-5.66542969 2.8503125 -5.14335937 2.200625 -4.60546875 1.53125 C-3 0 -3 0 0 0 Z " fill="#3A3831" transform="translate(153,298)"/>
</svg>
