<?xml version="1.0" encoding="UTF-8"?>
<svg version="1.1" xmlns="http://www.w3.org/2000/svg" width="360" height="360">
<path d="M0 0 C7.65747686 4.37570106 9.72072804 12.65047534 12.09375 20.71875 C13.27645931 25.66884696 13.54479451 30.61513077 13.75 35.6875 C13.79092773 36.68700684 13.83185547 37.68651367 13.87402344 38.71630859 C14.30281924 52.74942485 14.44121545 71.1175691 8 84 C13.445 84.495 13.445 84.495 19 85 C19.17015625 83.4015625 19.3403125 81.803125 19.515625 80.15625 C25.91169812 21.49782293 25.91169812 21.49782293 40.4375 2.875 C43.79787614 0.41618819 45.83341244 -0.14619605 50 0 C55.68416611 3.34362712 58.13319532 7.76235938 60 14 C65.45740412 40.26375735 58.77270138 65.65220446 49 90 C49.64324219 90.01417969 50.28648437 90.02835937 50.94921875 90.04296875 C70.44715857 91.07210395 89.04501726 102.89405805 102 117 C115.33130502 132.29887715 120.22528665 149.02178607 121 169 C121.07927734 170.35158203 121.07927734 170.35158203 121.16015625 171.73046875 C121.78321658 189.63668071 116.23288892 209.29536605 106 224 C105.50886719 224.7115625 105.01773438 225.423125 104.51171875 226.15625 C103.36330736 227.78667067 102.18537737 229.39625414 101 231 C101.99 230.566875 101.99 230.566875 103 230.125 C107.82661292 229.92389113 110.54418225 232.86532895 114 236 C118.74906172 240.77239863 120.13019649 244.53821947 120.3125 251.1875 C120.25262734 256.7930778 119.09552156 261.29906468 116 266 C115.15695312 266.77472656 114.31390625 267.54945313 113.4453125 268.34765625 C110.53662912 271.50260196 110.17866033 273.36401216 109.5625 277.5625 C107.25372571 289.76966571 101.78042789 298.35488693 93 307 C92.3503125 307.64839844 91.700625 308.29679687 91.03125 308.96484375 C85.43687434 314.20383899 78.63052416 318.64806981 71.23046875 320.80859375 C70.49441406 321.20175781 69.75835937 321.59492188 69 322 C68.14085432 324.66295944 68.14085432 324.66295944 68 327.75 C67.24011775 333.50438106 66.57268321 336.3219722 62 340 C58.08819507 341.37784222 55.11812642 341.43200339 51.25 339.9375 C46.53587596 335.87811541 44.8435665 332.04837184 44 326 C43.25016846 326.09087891 42.50033691 326.18175781 41.7277832 326.27539062 C38.25691651 326.69147854 34.78476831 327.09578208 31.3125 327.5 C30.13365234 327.64308594 28.95480469 327.78617187 27.74023438 327.93359375 C17.76654208 329.08125149 7.92434849 329.85256965 -2 328 C-2.15855469 328.59167969 -2.31710938 329.18335938 -2.48046875 329.79296875 C-4.01374357 334.98577242 -5.33244597 338.85447446 -10 342 C-13.20802343 342.82424262 -15.80221104 342.89515571 -19 342 C-22.94147191 339.00214319 -25.73967992 334.7892163 -27 330 C-27.125 327.1875 -27.125 327.1875 -27 325 C-28.60875 324.690625 -28.60875 324.690625 -30.25 324.375 C-41.02193446 321.61540548 -49.27775586 315.81641785 -57 308 C-57.95519531 307.07767578 -57.95519531 307.07767578 -58.9296875 306.13671875 C-66.67812877 298.09555859 -70.57560666 287.94552204 -73.4375 277.375 C-74.74937179 272.31764669 -74.74937179 272.31764669 -77.9453125 268.3125 C-80.02979919 267.3520181 -80.02979919 267.3520181 -82.12890625 266.671875 C-84 266 -84 266 -86.5 263.625 C-89.11756519 257.29921745 -89.15781979 250.12391992 -87.3046875 243.5234375 C-85.13272639 238.79622803 -81.9660648 235.31854402 -78 232 C-75.125 231.125 -75.125 231.125 -73 231 C-74.10021484 229.95972656 -74.10021484 229.95972656 -75.22265625 228.8984375 C-90.38152535 213.69154664 -96.21223202 191.42062859 -96.4375 170.625 C-96.40292952 160.50787347 -95.33015848 151.57420562 -92 142 C-91.71125 141.15953125 -91.4225 140.3190625 -91.125 139.453125 C-82.49569521 117.72576829 -62.98520984 102.38470079 -42.18359375 93.21875 C-35.93239974 90.82565487 -29.71462671 89 -23 89 C-23.11915771 87.95622192 -23.11915771 87.95622192 -23.24072266 86.89135742 C-24.07105343 78.61590853 -23.92347822 70.60334056 -23.375 62.3125 C-23.33154449 61.64413116 -23.28808899 60.97576233 -23.24331665 60.28713989 C-21.96872699 41.35523112 -19.96650432 18.14358504 -9 2 C-5.45870816 -0.36086122 -4.17249782 -0.57269578 0 0 Z " fill="#FAECC8" transform="translate(153,10)"/>
<path d="M0 0 C7.65747686 4.37570106 9.72072804 12.65047534 12.09375 20.71875 C13.27645931 25.66884696 13.54479451 30.61513077 13.75 35.6875 C13.79092773 36.68700684 13.83185547 37.68651367 13.87402344 38.71630859 C14.30281924 52.74942485 14.44121545 71.1175691 8 84 C13.445 84.495 13.445 84.495 19 85 C19.17015625 83.4015625 19.3403125 81.803125 19.515625 80.15625 C25.91169812 21.49782293 25.91169812 21.49782293 40.4375 2.875 C43.79787614 0.41618819 45.83341244 -0.14619605 50 0 C55.68416611 3.34362712 58.13319532 7.76235938 60 14 C65.21861965 39.11460707 59.93899354 66.01615839 49 89 C47.3203125 91.41015625 47.3203125 91.41015625 46 93 C44.68 92.67 43.36 92.34 42 92 C42.40756967 88.73944266 43.33074026 86.21909373 44.85546875 83.3515625 C48.47311659 76.23961418 50.67542497 68.61064161 53 61 C53.34675781 59.90042969 53.69351563 58.80085938 54.05078125 57.66796875 C56.19687771 49.58196551 56.30452965 41.58060215 56.375 33.25 C56.38901855 32.10088135 56.40303711 30.9517627 56.41748047 29.76782227 C56.36957336 21.27168086 55.84319947 12.65214446 50 6 C47.54412036 5.16643587 47.54412036 5.16643587 45 6 C41.90067204 10.13660305 39.60013858 14.57481279 37.4375 19.25 C37.00147461 20.15685547 37.00147461 20.15685547 36.55664062 21.08203125 C31.48473958 31.95201157 30.14085999 42.87474441 29 54.6875 C25.93495912 86.06504088 25.93495912 86.06504088 22 90 C19.25514407 90.14507695 16.61519457 90.18652423 13.875 90.125 C13.12089844 90.11597656 12.36679688 90.10695313 11.58984375 90.09765625 C9.72642746 90.0740687 7.86317407 90.03819719 6 90 C3.14219042 86.02668854 4.1846743 81.92391678 4.8125 77.375 C5.00716098 75.84122826 5.2011671 74.30737327 5.39453125 72.7734375 C5.49483643 71.98839844 5.5951416 71.20335938 5.69848633 70.39453125 C9.78259687 38.20292417 9.78259687 38.20292417 1 8 C-0.81551542 5.72147558 -0.81551542 5.72147558 -3.43359375 5.95703125 C-6.27185502 6.80753391 -6.27185502 6.80753391 -7.66015625 9.82421875 C-8.15453312 11.10188301 -8.61996773 12.3909663 -9.0625 13.6875 C-9.31217529 14.38504395 -9.56185059 15.08258789 -9.8190918 15.80126953 C-16.51679563 35.65094567 -17.14774676 56.52022076 -17.55224609 77.23852539 C-17.6037377 79.8062559 -17.66098766 82.37381038 -17.71875 84.94140625 C-17.73232544 85.73607803 -17.74590088 86.53074982 -17.7598877 87.34950256 C-17.88697201 92.88697201 -17.88697201 92.88697201 -19 94 C-20.70750683 94.08203325 -22.41619348 94.13965342 -24.125 94.1875 C-42.33702144 95.59508786 -56.87707544 107.30234672 -70 119 C-70.71542969 119.63035156 -71.43085937 120.26070313 -72.16796875 120.91015625 C-85.52188606 133.37970818 -88.83002014 150.84420294 -89.44335938 168.30078125 C-89.48267578 169.52152344 -89.52199219 170.74226562 -89.5625 172 C-89.60568359 173.25167969 -89.64886719 174.50335938 -89.69335938 175.79296875 C-89.79878017 178.86188523 -89.90090342 181.93087389 -90 185 C-89.34 185 -88.68 185 -88 185 C-87.90203125 185.90621094 -87.8040625 186.81242188 -87.703125 187.74609375 C-86.78637286 195.2144625 -85.56244686 201.38066804 -82 208 C-81.57847656 208.85980469 -81.15695313 209.71960938 -80.72265625 210.60546875 C-77.47642448 216.98103198 -73.59144843 222.12219899 -68.7578125 227.39453125 C-66.6031641 230.58819898 -66.55117391 232.21490002 -67 236 C-67.44665064 237.55795998 -67.94940586 239.10066992 -68.5 240.625 C-73.02392603 256.51285504 -70.4307231 275.05925197 -62.6015625 289.46875 C-55.96980426 299.95016302 -47.807729 311.15580349 -36 316 C-36 316.66 -36 317.32 -36 318 C-34.56278243 318.29305521 -33.12520173 318.58432935 -31.6875 318.875 C-30.48673828 319.11863281 -30.48673828 319.11863281 -29.26171875 319.3671875 C-28.18535156 319.57601563 -27.10898438 319.78484375 -26 320 C-25.22640137 320.16757812 -24.45280273 320.33515625 -23.65576172 320.5078125 C-16.30527994 322.00599987 -9.23867414 322.31029279 -1.75 322.25 C0.12606934 322.23876099 0.12606934 322.23876099 2.04003906 322.22729492 C49.85514668 322.33730135 49.85514668 322.33730135 91 301 C93.98448839 297.53518708 96.49954561 293.82513044 99 290 C99.53496094 289.23558594 100.06992188 288.47117187 100.62109375 287.68359375 C106.54181892 277.50263007 105.62790642 262.00762609 103.23046875 250.765625 C101.60386456 245.14055551 99.36585334 240.73712692 96 236 C96.33 235.01 96.66 234.02 97 233 C100 233 100 233 101.4296875 234.23046875 C107.59500055 242.57863588 108.9685347 253.03218603 111 263 C114.61164814 256.34042658 115.00335063 251.63714605 113 244.375 C110.7322733 240.5482112 108.21317644 238.29897347 104.7421875 235.578125 C103 234 103 234 102 231 C103.75390625 230.33984375 103.75390625 230.33984375 106 230 C111.2769501 232.6961753 117.71440095 238.08551573 119.609375 243.85546875 C121.04925769 251.7604247 120.48342512 259.19136013 116 266 C115.15695312 266.77472656 114.31390625 267.54945313 113.4453125 268.34765625 C110.53662912 271.50260196 110.17866033 273.36401216 109.5625 277.5625 C107.25372571 289.76966571 101.78042789 298.35488693 93 307 C92.3503125 307.64839844 91.700625 308.29679687 91.03125 308.96484375 C85.43687434 314.20383899 78.63052416 318.64806981 71.23046875 320.80859375 C70.49441406 321.20175781 69.75835937 321.59492188 69 322 C68.14085432 324.66295944 68.14085432 324.66295944 68 327.75 C67.24011775 333.50438106 66.57268321 336.3219722 62 340 C58.08819507 341.37784222 55.11812642 341.43200339 51.25 339.9375 C46.53587596 335.87811541 44.8435665 332.04837184 44 326 C43.25016846 326.09087891 42.50033691 326.18175781 41.7277832 326.27539062 C38.25691651 326.69147854 34.78476831 327.09578208 31.3125 327.5 C30.13365234 327.64308594 28.95480469 327.78617187 27.74023438 327.93359375 C17.76654208 329.08125149 7.92434849 329.85256965 -2 328 C-2.15855469 328.59167969 -2.31710938 329.18335938 -2.48046875 329.79296875 C-4.01374357 334.98577242 -5.33244597 338.85447446 -10 342 C-13.20802343 342.82424262 -15.80221104 342.89515571 -19 342 C-22.94147191 339.00214319 -25.73967992 334.7892163 -27 330 C-27.125 327.1875 -27.125 327.1875 -27 325 C-28.60875 324.690625 -28.60875 324.690625 -30.25 324.375 C-41.02193446 321.61540548 -49.27775586 315.81641785 -57 308 C-57.95519531 307.07767578 -57.95519531 307.07767578 -58.9296875 306.13671875 C-66.67812877 298.09555859 -70.57560666 287.94552204 -73.4375 277.375 C-74.74937179 272.31764669 -74.74937179 272.31764669 -77.9453125 268.3125 C-80.02979919 267.3520181 -80.02979919 267.3520181 -82.12890625 266.671875 C-84 266 -84 266 -86.5 263.625 C-89.11756519 257.29921745 -89.15781979 250.12391992 -87.3046875 243.5234375 C-85.13272639 238.79622803 -81.9660648 235.31854402 -78 232 C-75.125 231.125 -75.125 231.125 -73 231 C-74.10021484 229.95972656 -74.10021484 229.95972656 -75.22265625 228.8984375 C-90.38152535 213.69154664 -96.21223202 191.42062859 -96.4375 170.625 C-96.40292952 160.50787347 -95.33015848 151.57420562 -92 142 C-91.71125 141.15953125 -91.4225 140.3190625 -91.125 139.453125 C-82.49569521 117.72576829 -62.98520984 102.38470079 -42.18359375 93.21875 C-35.93239974 90.82565487 -29.71462671 89 -23 89 C-23.11915771 87.95622192 -23.11915771 87.95622192 -23.24072266 86.89135742 C-24.07105343 78.61590853 -23.92347822 70.60334056 -23.375 62.3125 C-23.33154449 61.64413116 -23.28808899 60.97576233 -23.24331665 60.28713989 C-21.96872699 41.35523112 -19.96650432 18.14358504 -9 2 C-5.45870816 -0.36086122 -4.17249782 -0.57269578 0 0 Z " fill="#0C0C0A" transform="translate(153,10)"/>
<path d="M0 0 C7.65747686 4.37570106 9.72072804 12.65047534 12.09375 20.71875 C13.27645931 25.66884696 13.54479451 30.61513077 13.75 35.6875 C13.79092773 36.68700684 13.83185547 37.68651367 13.87402344 38.71630859 C14.30281924 52.74942485 14.44121545 71.1175691 8 84 C13.445 84.495 13.445 84.495 19 85 C19.17015625 83.4015625 19.3403125 81.803125 19.515625 80.15625 C25.91169812 21.49782293 25.91169812 21.49782293 40.4375 2.875 C43.79787614 0.41618819 45.83341244 -0.14619605 50 0 C55.68416611 3.34362712 58.13319532 7.76235938 60 14 C65.21861965 39.11460707 59.93899354 66.01615839 49 89 C47.3203125 91.41015625 47.3203125 91.41015625 46 93 C44.68 92.67 43.36 92.34 42 92 C42.40756967 88.73944266 43.33074026 86.21909373 44.85546875 83.3515625 C48.47311659 76.23961418 50.67542497 68.61064161 53 61 C53.34675781 59.90042969 53.69351563 58.80085938 54.05078125 57.66796875 C56.19687771 49.58196551 56.30452965 41.58060215 56.375 33.25 C56.38901855 32.10088135 56.40303711 30.9517627 56.41748047 29.76782227 C56.36957336 21.27168086 55.84319947 12.65214446 50 6 C47.54412036 5.16643587 47.54412036 5.16643587 45 6 C41.90067204 10.13660305 39.60013858 14.57481279 37.4375 19.25 C37.00147461 20.15685547 37.00147461 20.15685547 36.55664062 21.08203125 C31.48473958 31.95201157 30.14085999 42.87474441 29 54.6875 C25.93495912 86.06504088 25.93495912 86.06504088 22 90 C19.25514407 90.14507695 16.61519457 90.18652423 13.875 90.125 C13.12089844 90.11597656 12.36679688 90.10695313 11.58984375 90.09765625 C9.72642746 90.0740687 7.86317407 90.03819719 6 90 C3.14219042 86.02668854 4.1846743 81.92391678 4.8125 77.375 C5.00716098 75.84122826 5.2011671 74.30737327 5.39453125 72.7734375 C5.49483643 71.98839844 5.5951416 71.20335938 5.69848633 70.39453125 C9.78259687 38.20292417 9.78259687 38.20292417 1 8 C-0.81551542 5.72147558 -0.81551542 5.72147558 -3.43359375 5.95703125 C-6.27185502 6.80753391 -6.27185502 6.80753391 -7.66015625 9.82421875 C-8.15453312 11.10188301 -8.61996773 12.3909663 -9.0625 13.6875 C-9.31217529 14.38504395 -9.56185059 15.08258789 -9.8190918 15.80126953 C-16.51679563 35.65094567 -17.14774676 56.52022076 -17.55224609 77.23852539 C-17.6037377 79.8062559 -17.66098766 82.37381038 -17.71875 84.94140625 C-17.73232544 85.73607803 -17.74590088 86.53074982 -17.7598877 87.34950256 C-17.88697201 92.88697201 -17.88697201 92.88697201 -19 94 C-20.70750683 94.08203325 -22.41619348 94.13965342 -24.125 94.1875 C-42.33702144 95.59508786 -56.87707544 107.30234672 -70 119 C-70.71542969 119.63035156 -71.43085937 120.26070313 -72.16796875 120.91015625 C-85.52188606 133.37970818 -88.83002014 150.84420294 -89.44335938 168.30078125 C-89.48267578 169.52152344 -89.52199219 170.74226562 -89.5625 172 C-89.60568359 173.25167969 -89.64886719 174.50335938 -89.69335938 175.79296875 C-89.79878017 178.86188523 -89.90090342 181.93087389 -90 185 C-89.34 185 -88.68 185 -88 185 C-87.90203125 185.90621094 -87.8040625 186.81242188 -87.703125 187.74609375 C-86.78686985 195.21041371 -85.56907438 201.38671512 -82 208 C-81.54367188 208.90621094 -81.08734375 209.81242188 -80.6171875 210.74609375 C-78.30110368 215.21455913 -75.98898295 219.23932094 -72.625 223 C-70 226 -70 226 -70 229 C-70.99 229.33 -71.98 229.66 -73 230 C-77.67229842 226.76581494 -80.64609033 223.09915039 -83.5 218.1875 C-83.88164307 217.5387793 -84.26328613 216.89005859 -84.65649414 216.22167969 C-92.78901165 201.93200253 -96.40049523 187.22123018 -96.375 170.8125 C-96.37338867 169.72259766 -96.37177734 168.63269531 -96.37011719 167.50976562 C-96.23366616 158.46118938 -94.97571871 150.55519128 -92 142 C-91.71125 141.15953125 -91.4225 140.3190625 -91.125 139.453125 C-82.49569521 117.72576829 -62.98520984 102.38470079 -42.18359375 93.21875 C-35.93239974 90.82565487 -29.71462671 89 -23 89 C-23.11915771 87.95622192 -23.11915771 87.95622192 -23.24072266 86.89135742 C-24.07105343 78.61590853 -23.92347822 70.60334056 -23.375 62.3125 C-23.33154449 61.64413116 -23.28808899 60.97576233 -23.24331665 60.28713989 C-21.96872699 41.35523112 -19.96650432 18.14358504 -9 2 C-5.45870816 -0.36086122 -4.17249782 -0.57269578 0 0 Z " fill="#0D0C0A" transform="translate(153,10)"/>
<path d="M0 0 C-1.15173355 2.46800047 -2.04783565 4.04783565 -4 6 C-4.64767793 8.57061311 -4.64767793 8.57061311 -5 11 C-4.01 11 -3.02 11 -2 11 C-1.95875 10.401875 -1.9175 9.80375 -1.875 9.1875 C-1 7 -1 7 1.75 5.125 C5 4 5 4 7.6875 4.625 C9.86515548 5.91982218 11.43054552 7.01753118 13 9 C13 9.66 13 10.32 13 11 C11.68 11.33 10.36 11.66 9 12 C9 12.66 9 13.32 9 14 C8.34 14.33 7.68 14.66 7 15 C7 15.99 7 16.98 7 18 C9.49361571 16.79618552 11.68143083 15.54571278 14 14 C15.32 14 16.64 14 18 14 C21.18621406 17.30000742 21.18186342 20.43851528 21.1875 24.8125 C21.13951818 26.54213041 21.08172652 28.27163534 21 30 C18.69 29.67 16.38 29.34 14 29 C15.3089572 32.12197478 15.3089572 32.12197478 18 34 C18.31136532 38.05482565 17.74771365 39.99116842 15.25 43.1875 C14.48429687 44.19876953 14.48429687 44.19876953 13.703125 45.23046875 C11.34443153 47.68112962 9.10215571 48.74807869 5.8125 49.5 C5.214375 49.665 4.61625 49.83 4 50 C3.505 50.99 3.505 50.99 3 52 C-0.04487932 53.95742242 -2.41163252 54.52512695 -6 54 C-8.8125 52 -8.8125 52 -11 50 C-11 50.66 -11 51.32 -11 52 C-13.53124683 53.5029278 -15.20745988 54.2006987 -18.11328125 53.46484375 C-20.1006077 52.70591802 -22.05333083 51.85785421 -24 51 C-23.34 48.36 -22.68 45.72 -22 43 C-22.99 43 -23.98 43 -25 43 C-25.66 44.32 -26.32 45.64 -27 47 C-30.36573933 45.55754029 -32.75010389 43.916532 -35 41 C-34.81527167 37.39779751 -33.41269494 34.29628819 -32 31 C-33.98 31 -35.96 31 -38 31 C-38.04241723 28.66705225 -38.04092937 26.33297433 -38 24 C-37 23 -37 23 -34.4375 22.9375 C-33.2309375 22.9684375 -33.2309375 22.9684375 -32 23 C-32.33 22.29875 -32.66 21.5975 -33 20.875 C-34.15594797 17.55164959 -34.49916565 15.49415955 -34 12 C-31.92822679 8.57360584 -29.88066905 6.29355635 -26 5 C-25.34 6.65 -24.68 8.3 -24 10 C-23.01 10 -22.02 10 -21 10 C-20.979375 8.741875 -20.95875 7.48375 -20.9375 6.1875 C-20.64453125 3.98046875 -20.64453125 3.98046875 -20 2 C-14.74408349 -1.65628975 -5.89377829 -2.94688914 0 0 Z " fill="#FCFCFC" transform="translate(191,260)"/>
<path d="M0 0 C21.2990551 5.255611 39.68808126 19.41139253 51.30859375 37.81640625 C58.40937095 50.55098691 60.74888565 63.38272172 61.30859375 77.81640625 C61.36144531 78.71746094 61.41429687 79.61851562 61.46875 80.546875 C62.19089217 101.30061297 54.84681014 122.64243474 41.80078125 138.63671875 C40.30859375 139.81640625 40.30859375 139.81640625 36.30859375 139.81640625 C36.30859375 138.16640625 36.30859375 136.51640625 36.30859375 134.81640625 C37.29859375 134.48640625 38.28859375 134.15640625 39.30859375 133.81640625 C40.00965218 132.16391138 40.66659726 130.49273042 41.30859375 128.81640625 C42.06700148 127.68299249 42.83952584 126.55897532 43.62109375 125.44140625 C46.93396749 120.33938408 48.50187392 114.67518537 50.29296875 108.9140625 C51.30859375 105.81640625 51.30859375 105.81640625 52.30859375 104.81640625 C57.26643825 81.72805013 55.68932012 56.38465874 42.95703125 36.1875 C37.09170946 27.75088785 29.5843321 20.45427542 20.30859375 15.81640625 C20.30859375 15.15640625 20.30859375 14.49640625 20.30859375 13.81640625 C19.77492187 13.64625 19.24125 13.47609375 18.69140625 13.30078125 C2.53936298 8.04717548 2.53936298 8.04717548 0.30859375 5.81640625 C-1.54032571 5.58276744 -3.39628656 5.4033699 -5.25390625 5.25390625 C-6.26582031 5.17011719 -7.27773437 5.08632812 -8.3203125 5 C-9.49400391 4.90912109 -9.49400391 4.90912109 -10.69140625 4.81640625 C-11.02140625 3.49640625 -11.35140625 2.17640625 -11.69140625 0.81640625 C-7.44574235 -2.01403635 -4.85699582 -0.92708564 0 0 Z " fill="#0D0C0A" transform="translate(212.69140625,101.18359375)"/>
<path d="M0 0 C1.24148696 3.72446087 0.44831452 4.47161836 -1 8 C-1.28355359 9.97661465 -1.489817 11.96530828 -1.6328125 13.95703125 C-1.71660156 15.06884766 -1.80039063 16.18066406 -1.88671875 17.32617188 C-2.00466797 19.0519043 -2.00466797 19.0519043 -2.125 20.8125 C-2.21136719 21.98232422 -2.29773438 23.15214844 -2.38671875 24.35742188 C-2.59834123 27.23783897 -2.802508 30.1185853 -3 33 C-6.20162702 32.40137646 -6.91936515 32.08735442 -9.25 29.5625 C-11.559586 24.86084278 -11.92930876 21.14694084 -11 16 C-8.90449994 11.16295638 -5.76317158 7.63340704 -2 4 C-0.76487921 1.86690808 -0.76487921 1.86690808 0 0 Z " fill="#DDD1B1" transform="translate(80,241)"/>
<path d="M0 0 C13.28069477 10.726715 13.28069477 10.726715 14.23828125 19.078125 C14.44535323 25.13770516 13.04348992 28.76900171 10 34 C9.67 34 9.34 34 9 34 C8.82984375 32.97261719 8.6596875 31.94523437 8.484375 30.88671875 C6.63667094 16.86911348 6.63667094 16.86911348 0 5 C-0.125 2.375 -0.125 2.375 0 0 Z " fill="#EBDEBC" transform="translate(254,241)"/>
<path d="M0 0 C-0.42970565 5.3713206 -1.4033106 8.90377041 -5 13 C-7.75 13.375 -7.75 13.375 -10 13 C-10.66 11.68 -11.32 10.36 -12 9 C-12.66 9 -13.32 9 -14 9 C-14.33 6.69 -14.66 4.38 -15 2 C-13.06302033 1.66365624 -11.12539514 1.33102835 -9.1875 1 C-7.56908203 0.7215625 -7.56908203 0.7215625 -5.91796875 0.4375 C-3 0 -3 0 0 0 Z " fill="#EBDEBC" transform="translate(217,333)"/>
<path d="M0 0 C4.95 0.33 9.9 0.66 15 1 C12.57894737 9.47368421 12.57894737 9.47368421 9 12 C7 12.0625 7 12.0625 5 11 C1.18748844 7.18748844 0.94194683 5.65168096 0 0 Z " fill="#EBDEBC" transform="translate(131,336)"/>
<path d="M0 0 C-0.52964872 2.29514445 -1.1595016 4.41869171 -2 6.625 C-3.3104546 11.04778427 -3.65559953 15.4140359 -4 20 C-5.32 19.67 -6.64 19.34 -8 19 C-8.68792287 6.12055525 -8.68792287 6.12055525 -6.25 2.1875 C-4 0 -4 0 0 0 Z " fill="#161411" transform="translate(174,251)"/>
<path d="M0 0 C0.33 1.32 0.66 2.64 1 4 C0.43152344 4.08636719 -0.13695312 4.17273438 -0.72265625 4.26171875 C-5.09758538 5.05782438 -8.31893844 5.94621058 -11.875 8.6875 C-12.90625 9.450625 -13.9375 10.21375 -15 11 C-15.99 10.67 -16.98 10.34 -18 10 C-17.67 8.68 -17.34 7.36 -17 6 C-16.34 6 -15.68 6 -15 6 C-15 5.34 -15 4.68 -15 4 C-9.77228537 0.95842058 -6.07328688 -0.50610724 0 0 Z " fill="#312F29" transform="translate(215,268)"/>
<path d="M0 0 C0.99 0 1.98 0 3 0 C3.18175781 0.59167969 3.36351562 1.18335938 3.55078125 1.79296875 C4.96939671 6.25251375 6.53121748 10.00292355 9 14 C9 14.99 9 15.98 9 17 C6.29828286 16.92280808 4.55937051 16.5200634 2.5546875 14.65625 C-1.09776779 10.06459192 -1.59864022 6.78685542 -1 1 C-0.67 0.67 -0.34 0.34 0 0 Z " fill="#181714" transform="translate(150,266)"/>
<path d="M0 0 C-0.33 0.66 -0.66 1.32 -1 2 C-5.78069758 3.52192244 -10.93216343 3.12565488 -15.89453125 3.09765625 C-16.84188644 3.0962413 -17.78924164 3.09482635 -18.76530457 3.09336853 C-21.78106895 3.08778611 -24.79675818 3.07523682 -27.8125 3.0625 C-29.86132705 3.05748273 -31.91015527 3.05292022 -33.95898438 3.04882812 C-38.97268506 3.03782243 -43.9863298 3.02056988 -49 3 C-49 2.67 -49 2.34 -49 2 C-43.46832831 1.71222296 -37.93651054 1.42750158 -32.40454102 1.14550781 C-30.52591798 1.04932541 -28.64733615 0.95233438 -26.76879883 0.85449219 C-24.05560795 0.71332271 -21.34227806 0.57514283 -18.62890625 0.4375 C-17.38615685 0.37187866 -17.38615685 0.37187866 -16.11830139 0.30493164 C-10.73842885 0.03570949 -5.38670036 -0.03778483 0 0 Z " fill="#5E594C" transform="translate(192,331)"/>
<path d="M0 0 C4.8665386 0.41713188 6.79230533 2.45465326 10 6 C10.8971875 6.7115625 10.8971875 6.7115625 11.8125 7.4375 C13.64443328 9.84793852 13.19479285 12.07810726 13 15 C8.75196324 13.48284402 7.41464964 10.65856007 5 7 C4.0925 6.278125 3.185 5.55625 2.25 4.8125 C1.5075 4.214375 0.765 3.61625 0 3 C0 2.01 0 1.02 0 0 Z " fill="#201F1B" transform="translate(205,289)"/>
<path d="M0 0 C1.32 0.66 2.64 1.32 4 2 C4.32309043 10.23880597 4.32309043 10.23880597 2 14 C-0.625 14.8125 -0.625 14.8125 -3 15 C-2.44854729 9.76119922 -1.57077907 5.02649303 0 0 Z " fill="#2B2924" transform="translate(180,310)"/>
<path d="M0 0 C0.99 0 1.98 0 3 0 C5.43425238 4.96993194 6.34615998 8.34605369 6 14 C4.0625 14.5625 4.0625 14.5625 2 15 C0.11713701 13.11713701 0.26586276 10.03235029 -0.125 7.5 C-0.31320313 6.3140625 -0.50140625 5.128125 -0.6953125 3.90625 C-0.84613281 2.46765625 -0.84613281 2.46765625 -1 1 C-0.67 0.67 -0.34 0.34 0 0 Z " fill="#2B2924" transform="translate(196,308)"/>
<path d="M0 0 C0.99 0 1.98 0 3 0 C2.45276317 3.37462715 1.9451 5.08235 0 8 C-0.66 8 -1.32 8 -2 8 C-2 8.66 -2 9.32 -2 10 C-5.71973879 12.84450614 -8.37390802 13.3227506 -13 13 C-13 12.34 -13 11.68 -13 11 C-12.01 11 -11.02 11 -10 11 C-10 10.34 -10 9.68 -10 9 C-9.0925 8.401875 -8.185 7.80375 -7.25 7.1875 C-3.920616 5.18397214 -3.920616 5.18397214 -1.8125 2.25 C-1.214375 1.5075 -0.61625 0.765 0 0 Z " fill="#1E1C18" transform="translate(166,303)"/>
<path d="M0 0 C0 0.99 0 1.98 0 3 C-1.36125 3.6496875 -1.36125 3.6496875 -2.75 4.3125 C-8.18436815 6.98188015 -8.18436815 6.98188015 -11 12 C-11.99 12 -12.98 12 -14 12 C-14.30828481 8.92246711 -14.37086783 7.48664637 -12.4609375 4.98046875 C-5.5389628 -0.96931849 -5.5389628 -0.96931849 0 0 Z " fill="#23211C" transform="translate(200,259)"/>
<path d="M0 0 C1.51400391 0.01740234 1.51400391 0.01740234 3.05859375 0.03515625 C4.07050781 0.04417969 5.08242187 0.05320312 6.125 0.0625 C7.29869141 0.07990234 7.29869141 0.07990234 8.49609375 0.09765625 C6.74609375 3.97265625 6.74609375 3.97265625 4.49609375 5.09765625 C2.16310715 5.13788016 -0.17097291 5.14085872 -2.50390625 5.09765625 C-3.06640625 3.16015625 -3.06640625 3.16015625 -3.50390625 1.09765625 C-2.50390625 0.09765625 -2.50390625 0.09765625 0 0 Z " fill="#1F1E1A" transform="translate(150.50390625,290.90234375)"/>
<path d="M0 0 C1.32 0 2.64 0 4 0 C3.38722388 2.96175123 2.74627478 4.38058783 1 7 C0.67 6.34 0.34 5.68 0 5 C-0.99 5.33 -1.98 5.66 -3 6 C-1.125 1.125 -1.125 1.125 0 0 Z " fill="#37342C" transform="translate(170,251)"/>
<path d="M0 0 C0 0.99 0 1.98 0 3 C-2.97 3 -5.94 3 -9 3 C-7.14340032 -0.71319936 -3.69365381 -0.09982848 0 0 Z " fill="#171613" transform="translate(216,269)"/>
<path d="M0 0 C0.99 0 1.98 0 3 0 C3.33 1.65 3.66 3.3 4 5 C3.01 4.34 2.02 3.68 1 3 C0.67 4.98 0.34 6.96 0 9 C-0.33 9 -0.66 9 -1 9 C-1.09765625 2.84765625 -1.09765625 2.84765625 -1 1 C-0.67 0.67 -0.34 0.34 0 0 Z " fill="#4E4A3F" transform="translate(150,266)"/>
<path d="M0 0 C1.5 1.125 1.5 1.125 3 3 C3.1875 6.1875 3.1875 6.1875 3 9 C2.67 9 2.34 9 2 9 C2 7.35 2 5.7 2 4 C1.01 4 0.02 4 -1 4 C-1.33 4.99 -1.66 5.98 -2 7 C-2 5.35 -2 3.7 -2 2 C-1.34 2 -0.68 2 0 2 C0 1.34 0 0.68 0 0 Z " fill="#534F44" transform="translate(83,237)"/>
</svg>
