<?xml version="1.0" encoding="UTF-8"?>
<svg version="1.1" xmlns="http://www.w3.org/2000/svg" width="360" height="360">
<path d="M0 0 C2.75329021 1.79562405 4.52627461 3.05254922 6 6 C7.92349714 30.65860271 -6.67679568 50.90557788 -22 69 C-20.02 69.495 -20.02 69.495 -18 70 C-17.41734375 69.030625 -16.8346875 68.06125 -16.234375 67.0625 C-10.4429302 57.54747008 -4.1884047 48.55419676 2.63964844 39.75537109 C3.85655047 38.18510448 5.05822752 36.60306644 6.2578125 35.01953125 C13.26770551 25.93416011 21.88262973 17.70579009 33 14 C38.34113819 13.535884 43.26325529 13.26522339 48.25 15.375 C51.01251847 19.5187777 50.73099855 23.17540957 50 28 C45.28880143 46.63995954 27.16299613 61.00626099 14 74 C15.03833984 74.29390625 15.03833984 74.29390625 16.09765625 74.59375 C38.96368271 81.58310196 58.54001607 96.59786691 70.06640625 117.73046875 C80.57776973 137.62413487 83.88775069 158.41793462 78.11328125 180.37109375 C76.36692739 185.45829848 74.12518078 189.64706963 71 194 C71 194.66 71 195.32 71 196 C72.16965793 197.04497358 73.38768092 198.036096 74.625 199 C83.49673374 206.5684525 88.25605286 217.94387424 89.203125 229.47265625 C89.46778966 244.09537897 84.55716167 258.18483543 74.3671875 268.85546875 C67.78157639 274.82164119 60.56959867 279.28970814 52.63037109 283.17285156 C44.17218778 287.32755038 38.67726393 291.95393644 32.578125 299.08984375 C28.28876993 303.93161576 24.62672852 306.56221191 18.25 307.625 C15 307 15 307 12.625 304.75 C11.20022363 302.33883999 10.58308496 300.67533098 10 298 C8.97261719 298.0721875 7.94523438 298.144375 6.88671875 298.21875 C-4.64534186 299.00486819 -15.50638335 299.48581466 -26.95703125 297.4375 C-30.08554637 296.98770065 -32.84920199 296.69367242 -36 297 C-37.87196769 298.39870926 -37.87196769 298.39870926 -39.1875 300.375 C-41.10413711 302.94107613 -42.24721478 304.16480985 -45 306 C-50.22665392 306.69835741 -55.25441771 307.15049742 -59.75 304.1875 C-61.91486443 298.6670957 -61.87272969 292.61818907 -60 287 C-61.155 286.690625 -62.31 286.38125 -63.5 286.0625 C-80.68508213 280.22605701 -96.02320295 268.15798393 -106 253 C-106.81708498 251.19881581 -107.60960567 249.38624995 -108.375 247.5625 C-110.01404773 243.98502746 -110.01404773 243.98502746 -113.24609375 241.953125 C-114.96292066 241.52457156 -116.68896107 241.13143469 -118.421875 240.7734375 C-122.84498161 239.44650552 -125.91527878 236.3424525 -129 233 C-131.10787371 228.78425259 -130.50441731 223.82851275 -129.28125 219.39453125 C-127.28676839 214.07859438 -124.89899974 210.11561083 -121 206 C-121.45890625 205.55011719 -121.9178125 205.10023438 -122.390625 204.63671875 C-132.32115139 194.226356 -136.41352639 176.20286097 -137 162 C-137.03996094 161.12730469 -137.07992187 160.25460938 -137.12109375 159.35546875 C-137.58476334 138.98128162 -133.37030375 118.24385993 -119.5 102.625 C-118.00928332 101.07435501 -116.51005381 99.53182035 -115 98 C-114.45988281 97.38769531 -113.91976562 96.77539062 -113.36328125 96.14453125 C-101.8989006 83.52504927 -85.0424528 77.18918443 -69 73 C-68.16597656 72.77183594 -67.33195312 72.54367188 -66.47265625 72.30859375 C-63.15660401 71.42554818 -60.46485802 71 -57 71 C-56.82984375 70.45980225 -56.6596875 69.91960449 -56.484375 69.36303711 C-50.06278538 49.48557004 -39.97340435 27.94049577 -25 13 C-24.34 13 -23.68 13 -23 13 C-23 12.34 -23 11.68 -23 11 C-16.37322143 4.83159545 -9.50437962 -1.20964832 0 0 Z " fill="#FBEDC8" transform="translate(196,44)"/>
<path d="M0 0 C2.75329021 1.79562405 4.52627461 3.05254922 6 6 C7.92349714 30.65860271 -6.67679568 50.90557788 -22 69 C-20.02 69.495 -20.02 69.495 -18 70 C-17.41734375 69.030625 -16.8346875 68.06125 -16.234375 67.0625 C-10.4429302 57.54747008 -4.1884047 48.55419676 2.63964844 39.75537109 C3.85655047 38.18510448 5.05822752 36.60306644 6.2578125 35.01953125 C13.26770551 25.93416011 21.88262973 17.70579009 33 14 C38.34113819 13.535884 43.26325529 13.26522339 48.25 15.375 C51.01251847 19.5187777 50.73099855 23.17540957 50 28 C45.28880143 46.63995954 27.16299613 61.00626099 14 74 C15.03833984 74.29390625 15.03833984 74.29390625 16.09765625 74.59375 C38.96368271 81.58310196 58.54001607 96.59786691 70.06640625 117.73046875 C80.57776973 137.62413487 83.88775069 158.41793462 78.11328125 180.37109375 C76.36692739 185.45829848 74.12518078 189.64706963 71 194 C71 194.66 71 195.32 71 196 C72.16965793 197.04497358 73.38768092 198.036096 74.625 199 C83.49673374 206.5684525 88.25605286 217.94387424 89.203125 229.47265625 C89.46778966 244.09537897 84.55716167 258.18483543 74.3671875 268.85546875 C67.78157639 274.82164119 60.56959867 279.28970814 52.63037109 283.17285156 C44.17218778 287.32755038 38.67726393 291.95393644 32.578125 299.08984375 C28.28876993 303.93161576 24.62672852 306.56221191 18.25 307.625 C15 307 15 307 12.625 304.75 C11.20022363 302.33883999 10.58308496 300.67533098 10 298 C8.97261719 298.0721875 7.94523438 298.144375 6.88671875 298.21875 C-4.64534186 299.00486819 -15.50638335 299.48581466 -26.95703125 297.4375 C-30.08554637 296.98770065 -32.84920199 296.69367242 -36 297 C-37.87196769 298.39870926 -37.87196769 298.39870926 -39.1875 300.375 C-41.10413711 302.94107613 -42.24721478 304.16480985 -45 306 C-50.22665392 306.69835741 -55.25441771 307.15049742 -59.75 304.1875 C-61.91486443 298.6670957 -61.87272969 292.61818907 -60 287 C-61.155 286.690625 -62.31 286.38125 -63.5 286.0625 C-80.68508213 280.22605701 -96.02320295 268.15798393 -106 253 C-106.81708498 251.19881581 -107.60960567 249.38624995 -108.375 247.5625 C-110.01404773 243.98502746 -110.01404773 243.98502746 -113.24609375 241.953125 C-114.96292066 241.52457156 -116.68896107 241.13143469 -118.421875 240.7734375 C-122.84498161 239.44650552 -125.91527878 236.3424525 -129 233 C-131.10787371 228.78425259 -130.50441731 223.82851275 -129.28125 219.39453125 C-127.28676839 214.07859438 -124.89899974 210.11561083 -121 206 C-121.45890625 205.55011719 -121.9178125 205.10023438 -122.390625 204.63671875 C-132.32115139 194.226356 -136.41352639 176.20286097 -137 162 C-137.03996094 161.12730469 -137.07992187 160.25460938 -137.12109375 159.35546875 C-137.58476334 138.98128162 -133.37030375 118.24385993 -119.5 102.625 C-118.00928332 101.07435501 -116.51005381 99.53182035 -115 98 C-114.45988281 97.38769531 -113.91976562 96.77539062 -113.36328125 96.14453125 C-101.8989006 83.52504927 -85.0424528 77.18918443 -69 73 C-68.16597656 72.77183594 -67.33195312 72.54367188 -66.47265625 72.30859375 C-63.15660401 71.42554818 -60.46485802 71 -57 71 C-56.82984375 70.45980225 -56.6596875 69.91960449 -56.484375 69.36303711 C-50.06278538 49.48557004 -39.97340435 27.94049577 -25 13 C-24.34 13 -23.68 13 -23 13 C-23 12.34 -23 11.68 -23 11 C-16.37322143 4.83159545 -9.50437962 -1.20964832 0 0 Z M-15 11 C-15.845625 11.61875 -16.69125 12.2375 -17.5625 12.875 C-32.78856136 26.14900221 -42.69328438 45.97167979 -49.61328125 64.6328125 C-50.07089844 65.74398437 -50.52851563 66.85515625 -51 68 C-51.23178955 68.62334229 -51.4635791 69.24668457 -51.70239258 69.88891602 C-53.03704444 72.87640198 -54.06969352 74.57911889 -57.11108398 75.95507812 C-59.74980965 76.67842835 -62.36883568 77.20851683 -65.0625 77.6875 C-66.96835897 78.0841895 -68.87332579 78.48519118 -70.77734375 78.890625 C-72.14028564 79.17196289 -72.14028564 79.17196289 -73.53076172 79.45898438 C-87.16210621 82.44564241 -98.11702127 89.35104444 -108 99 C-109.3303125 100.2684375 -109.3303125 100.2684375 -110.6875 101.5625 C-111.450625 102.366875 -112.21375 103.17125 -113 104 C-113.52980469 104.5465625 -114.05960938 105.093125 -114.60546875 105.65625 C-128.38511912 120.50055327 -131.17662625 135.77237074 -131.1875 155.3125 C-131.19974609 156.45912109 -131.21199219 157.60574219 -131.22460938 158.78710938 C-131.24899949 173.15288782 -129.12950498 188.67481861 -120 200.375 C-116.82456707 203.15350381 -115.17292171 203.90064472 -111 204 C-111.125 205.875 -111.125 205.875 -112 208 C-115.0625 209.25 -115.0625 209.25 -118 210 C-118 210.66 -118 211.32 -118 212 C-118.99 212.33 -119.98 212.66 -121 213 C-124.7242551 217.99473678 -125.79832021 222.91280837 -125 229 C-123.13003625 232.30839741 -121.71718259 233.64974804 -118.3125 235.3125 C-112.93502023 236.42858071 -108.17375002 236.75415817 -102.9375 234.9375 C-100.63266572 233.03026917 -100.63266572 233.03026917 -100.5625 229.4375 C-100.65113568 225.94074886 -100.65113568 225.94074886 -103 224 C-105.66242821 223.53709779 -105.66242821 223.53709779 -108.625 223.375 C-109.62789062 223.30023438 -110.63078125 223.22546875 -111.6640625 223.1484375 C-112.82035156 223.07496094 -112.82035156 223.07496094 -114 223 C-113.67 221.68 -113.34 220.36 -113 219 C-103.94903339 218.36731107 -103.94903339 218.36731107 -100 221 C-99.34 221.66 -98.68 222.32 -98 223 C-97.34 223 -96.68 223 -96 223 C-95.2155309 232.9540412 -95.2155309 232.9540412 -98.25 237 C-99.61125 237.99 -99.61125 237.99 -101 239 C-101.763125 239.598125 -102.52625 240.19625 -103.3125 240.8125 C-103.869375 241.204375 -104.42625 241.59625 -105 242 C-103.66610075 246.85451858 -101.52804373 250.4670934 -98.4375 254.375 C-97.98842285 254.94444336 -97.5393457 255.51388672 -97.07666016 256.10058594 C-87.17097463 268.39802141 -73.93683239 276.51660835 -58.94140625 281.34375 C-57 282 -57 282 -56 283 C-56.00753124 286.40035286 -56.07906709 289.78817865 -56.21484375 293.18554688 C-56.29524064 295.59302631 -56.29524064 295.59302631 -56 299 C-52.50163266 301.33224489 -51.11705585 301.53814309 -47 301 C-44.63768285 299.10979741 -44.63768285 299.10979741 -42.75 296.5625 C-39.11023622 292.05511811 -39.11023622 292.05511811 -37 291 C-35.12248418 291.03755032 -33.2461739 291.1538055 -31.375 291.3125 C-30.37210937 291.39113281 -29.36921875 291.46976562 -28.3359375 291.55078125 C-25 292 -25 292 -21.16796875 293.0234375 C-16.73399377 294.17844886 -12.50352328 294.34359985 -7.9375 294.3125 C-7.11040527 294.30976074 -6.28331055 294.30702148 -5.43115234 294.30419922 C1.10336125 294.19476656 7.08853736 293.26476455 13.46484375 291.80078125 C18.92866538 290.56312 24.45726435 289.79448993 30 289 C30 290.32 30 291.64 30 293 C28.989375 293.12375 27.97875 293.2475 26.9375 293.375 C23.12062388 293.98085335 19.68499888 294.87193912 16 296 C16.33 297.65 16.66 299.3 17 301 C22.39135718 301.42414523 24.58363796 299.53361657 28.6484375 296.25 C31.10395799 293.90053189 32.9044591 291.45096772 34.875 288.6875 C40.10277437 281.96607582 46.89880365 278.98728373 54.421875 275.296875 C59.61127664 272.75105061 64.69003355 269.90002105 69 266 C69 265.34 69 264.68 69 264 C69.99 263.67 70.98 263.34 72 263 C76.80232406 256.8879512 79.92440149 250.44773582 82 243 C80.9275 242.401875 79.855 241.80375 78.75 241.1875 C71.30616438 236.89297945 71.30616438 236.89297945 70.25 233.8125 C70.1675 233.214375 70.085 232.61625 70 232 C75.08938811 233.59043379 78.87456643 236.7446951 83 240 C83.0543965 237.62468606 83.09385864 235.25064117 83.125 232.875 C83.15013672 231.87726563 83.15013672 231.87726563 83.17578125 230.859375 C83.21829658 226.52281098 82.81690323 222.9586832 81 219 C78.01668694 218.00556231 76.79161241 217.97547935 73.76953125 218.33984375 C72.96708984 218.43330078 72.16464844 218.52675781 71.33789062 218.62304688 C70.50451172 218.72681641 69.67113281 218.83058594 68.8125 218.9375 C67.96751953 219.03740234 67.12253906 219.13730469 66.25195312 219.24023438 C64.16725803 219.48757108 62.08352716 219.74301041 60 220 C60.33 219.01 60.66 218.02 61 217 C66.51686417 214.8871584 72.14154439 214.44793021 78 214 C77.11862376 208.03693889 72.18450657 203.97818267 68 200 C62.72774568 196.15027636 57.35509642 194.27101928 51 193 C51.33 192.01 51.66 191.02 52 190 C57.0302076 190.52537724 62.01885239 191.10594786 67 192 C69.16893497 188.74659754 69.95979952 186.07103687 71 182.3125 C71.33 181.13300781 71.66 179.95351562 72 178.73828125 C72.33 177.50464844 72.66 176.27101562 73 175 C73.18312744 174.36280029 73.36625488 173.72560059 73.55493164 173.0690918 C74.92662943 168.07655612 75.42005129 163.35940769 75.4375 158.1875 C75.44136719 157.38014404 75.44523438 156.57278809 75.44921875 155.7409668 C75.27683061 146.43649654 72.76693446 137.82454455 70 129 C69.34 129 68.68 129 68 129 C67.95875 128.21625 67.9175 127.4325 67.875 126.625 C64.46607545 112.5023126 50.55359779 99.04593273 39 91 C37.65615234 90.06220703 37.65615234 90.06220703 36.28515625 89.10546875 C25.26042036 81.76079898 16.15611502 79.35082973 3 79 C3 78.01 3 77.02 3 76 C4.59521484 74.53833008 4.59521484 74.53833008 6.8359375 72.95703125 C12.58729781 68.6677095 17.56786371 63.76285363 22.625 58.6875 C23.52734375 57.80126953 24.4296875 56.91503906 25.359375 56.00195312 C32.56994612 48.79663752 39.06454582 41.29546282 42.9375 31.75 C43.33839844 30.79609375 43.73929688 29.8421875 44.15234375 28.859375 C45.08208245 25.72311358 45.29870054 23.25353824 45 20 C43.0571192 17.65847757 43.0571192 17.65847757 39.5625 17.5 C29.36679548 17.81343034 20.71120919 26.07807781 14 33 C8.85800321 38.67321799 4.21174796 44.6012343 0 51 C-1.06272291 52.52470933 -2.12948422 54.04660805 -3.19921875 55.56640625 C-3.76833984 56.38173828 -4.33746094 57.19707031 -4.92382812 58.03710938 C-6.10529241 59.72884063 -7.29286521 61.41632129 -8.48632812 63.09960938 C-9.05158203 63.91365234 -9.61683594 64.72769531 -10.19921875 65.56640625 C-10.71315186 66.29802979 -11.22708496 67.02965332 -11.7565918 67.78344727 C-13.33270613 70.32582651 -13.33270613 70.32582651 -14 75 C-20.27 75 -26.54 75 -33 75 C-33 73.68 -33 72.36 -33 71 C-31.91332031 70.690625 -31.91332031 70.690625 -30.8046875 70.375 C-27.23618306 68.62553821 -25.39579594 66.14393739 -23.125 63 C-22.69082764 62.41549072 -22.25665527 61.83098145 -21.80932617 61.22875977 C-20.52740922 59.4943458 -19.26238077 57.74866154 -18 56 C-17.35417969 55.12214844 -16.70835937 54.24429688 -16.04296875 53.33984375 C-6.07027933 39.49513947 3.34901129 24.72885367 1 7 C-0.85184234 4.77328432 -0.85184234 4.77328432 -3.625 4.5 C-8.51689417 5.22472506 -11.28349804 7.88742961 -15 11 Z " fill="#0B0B09" transform="translate(196,44)"/>
<path d="M0 0 C-0.3609375 0.54269531 -0.721875 1.08539063 -1.09375 1.64453125 C-1.5578125 2.35996094 -2.021875 3.07539063 -2.5 3.8125 C-2.9640625 4.52019531 -3.428125 5.22789062 -3.90625 5.95703125 C-5.23599375 8.05458124 -5.23599375 8.05458124 -5 11 C-0.58489226 10.51286902 1.30446645 9.14946803 4.3125 5.9375 C5.00988281 5.20402344 5.70726562 4.47054687 6.42578125 3.71484375 C7.20501953 2.86599609 7.20501953 2.86599609 8 2 C11.40212299 3.61382757 14.10324519 5.58603766 17 8 C16.67 8.99 16.34 9.98 16 11 C13.66666667 11.66666667 11.33333333 12.33333333 9 13 C8.67 13.99 8.34 14.98 8 16 C8.59538574 15.92894043 9.19077148 15.85788086 9.80419922 15.78466797 C12.49328335 15.47012757 15.18396561 15.17237215 17.875 14.875 C19.28072266 14.70677734 19.28072266 14.70677734 20.71484375 14.53515625 C21.61074219 14.43847656 22.50664062 14.34179688 23.4296875 14.2421875 C24.25710449 14.1479248 25.08452148 14.05366211 25.93701172 13.95654297 C28 14 28 14 30 16 C31.22627884 20.21870771 31.11667336 24.45779555 31.0625 28.8125 C31.05798828 29.50537109 31.05347656 30.19824219 31.04882812 30.91210938 C31.03713156 32.60811068 31.01919924 34.30406703 31 36 C30.48050781 35.59007812 29.96101563 35.18015625 29.42578125 34.7578125 C25.7576223 31.92363424 22.48550294 29.40171967 18 28 C19.24976756 31.65316671 19.67098753 32.78065836 23 35 C22.25 37.875 22.25 37.875 21 41 C19 42.125 19 42.125 17 43 C16.31731862 44.32520503 15.6492959 45.65812182 15 47 C11.52176885 48.15941038 9.54104422 47.70820884 6 47 C6 48.65 6 50.3 6 52 C2.5980513 54.09350689 -0.05272412 54.17942163 -4 54 C-4.495 51.525 -4.495 51.525 -5 49 C-5.99 49 -6.98 49 -8 49 C-8.33 50.32 -8.66 51.64 -9 53 C-14.65394631 53.34615998 -18.03006806 52.43425238 -23 50 C-21.58192622 45.52761347 -19.88695626 41.28853694 -18 37 C-20.37948772 37.17625835 -21.70225849 37.69719773 -23.37890625 39.40234375 C-24.62115486 40.90649092 -25.81376056 42.45129851 -27 44 C-28.75 43.9375 -28.75 43.9375 -31 43 C-33.00840495 40.29950956 -35 37.44873267 -35 34 C-33.66666667 33 -32.33333333 32 -31 31 C-31 30.34 -31 29.68 -31 29 C-32.32 28.67 -33.64 28.34 -35 28 C-35.04254356 26.00045254 -35.04080783 23.99958364 -35 22 C-34 21 -34 21 -30.9375 20.9375 C-29.4834375 20.9684375 -29.4834375 20.9684375 -28 21 C-28 19.68 -28 18.36 -28 17 C-28.99 16.67 -29.98 16.34 -31 16 C-30.7117641 12.63724781 -29.94923335 10.92702293 -28 8.125 C-24.67246261 5.76799435 -24.04121737 5.75661192 -20.1875 6.1875 C-18.78681264 6.43199192 -17.38864434 6.69443774 -16 7 C-16.061875 6.21625 -16.12375 5.4325 -16.1875 4.625 C-16.0946875 3.325625 -16.0946875 3.325625 -16 2 C-10.44279292 -1.70480472 -6.19873102 -2.72139411 0 0 Z " fill="#FCFCFB" transform="translate(248,248)"/>
<path d="M0 0 C1.43575636 4.11182582 1.11613857 8.50078446 1.0625 12.8125 C1.05798828 13.50537109 1.05347656 14.19824219 1.04882812 14.91210938 C1.03713156 16.60811068 1.01919924 18.30406703 1 20 C-1.64 18.02 -4.28 16.04 -7 14 C-6.34 13.67 -5.68 13.34 -5 13 C-5.31008884 11.39536551 -5.62316287 9.79130769 -5.9375 8.1875 C-6.11152344 7.29417969 -6.28554688 6.40085937 -6.46484375 5.48046875 C-6.97741153 2.88602829 -6.97741153 2.88602829 -8 0 C-10.64 0 -13.28 0 -16 0 C-16 -0.33 -16 -0.66 -16 -1 C-14.08496326 -1.22281874 -12.16783494 -1.42771076 -10.25 -1.625 C-9.18265625 -1.74101562 -8.1153125 -1.85703125 -7.015625 -1.9765625 C-3.90078464 -2.0007711 -2.42822069 -1.94030719 0 0 Z " fill="#E7DBBB" transform="translate(278,264)"/>
<path d="M0 0 C1.32 0 2.64 0 4 0 C3.47327573 4.03119644 2.42327642 6.13732125 -0.3125 9.125 C-1.20388672 10.11886719 -1.20388672 10.11886719 -2.11328125 11.1328125 C-3.98324915 12.98342256 -5.79171092 14.56845064 -8 16 C-10.25 15.6875 -10.25 15.6875 -12 15 C-11.48645416 10.97271946 -9.61288468 9.47053944 -6.5625 6.9375 C-3.84539342 4.66524875 -1.97974488 2.96961731 0 0 Z " fill="#0D0C0A" transform="translate(226,285)"/>
<path d="M0 0 C2 3 2 3 3 7 C-7.395 7.495 -7.395 7.495 -18 8 C-17.67 6.68 -17.34 5.36 -17 4 C-11.21642935 1.98832325 -6.09781001 1.77915376 0 2 C0 1.34 0 0.68 0 0 Z " fill="#201F1B" transform="translate(274,256)"/>
<path d="M0 0 C0 4 0 4 -1.64453125 5.78125 C-2.71767578 6.63203125 -2.71767578 6.63203125 -3.8125 7.5 C-6.67743381 9.79612182 -8.89962937 11.97864666 -11 15 C-12.32 14.67 -13.64 14.34 -15 14 C-14.49270927 9.56120611 -13.06272483 7.22827752 -10 4 C-4.81081081 0 -4.81081081 0 0 0 Z " fill="#1B1A17" transform="translate(257,245)"/>
<path d="M0 0 C0.33 0 0.66 0 1 0 C1.05407567 2.58361518 1.093707 5.16609255 1.125 7.75 C1.14175781 8.47960937 1.15851563 9.20921875 1.17578125 9.9609375 C1.21072239 13.8044624 1.17499684 16.74606772 -1 20 C-1 19.34 -1 18.68 -1 18 C-1.57234375 17.89300781 -2.1446875 17.78601563 -2.734375 17.67578125 C-5.33689437 16.89951254 -7.06163523 15.7882483 -9.25 14.1875 C-9.95640625 13.68605469 -10.6628125 13.18460937 -11.390625 12.66796875 C-13 11 -13 11 -13 7 C-7.55674846 7.32989403 -4.84412796 10.45737227 -1 14 C-0.67 9.38 -0.34 4.76 0 0 Z " fill="#23221D" transform="translate(279,269)"/>
<path d="M0 0 C1.32 0.33 2.64 0.66 4 1 C4.21755666 6.4389165 4.10428384 10.87080814 2 16 C0.68 15.67 -0.64 15.34 -2 15 C-2.3690205 4.44191344 -2.3690205 4.44191344 0 0 Z " fill="#26241F" transform="translate(240,296)"/>
<path d="M0 0 C-0.875 5.875 -0.875 5.875 -2 7 C-2.23075082 8.34747084 -2.41153063 9.70377565 -2.5625 11.0625 C-2.706875 12.361875 -2.85125 13.66125 -3 15 C-4.9375 15.5625 -4.9375 15.5625 -7 16 C-8.56033623 14.43966377 -8.20707559 12.91052864 -8.25 10.75 C-8.21132685 6.70220987 -7.61748921 4.22152518 -5 1 C-3 0 -3 0 0 0 Z " fill="#1D1C17" transform="translate(234,240)"/>
<path d="M0 0 C1.75 0.0625 1.75 0.0625 4 1 C5.52956035 3.23932036 6.71657623 5.60427563 8 8 C8.66 8.33 9.32 8.66 10 9 C10 10.32 10 11.64 10 13 C7.7109375 13.265625 7.7109375 13.265625 5 13 C3.1640625 11.171875 3.1640625 11.171875 1.625 8.75 C1.10164062 7.96109375 0.57828125 7.1721875 0.0390625 6.359375 C-1 4 -1 4 -0.6640625 1.703125 C-0.44492188 1.14109375 -0.22578125 0.5790625 0 0 Z " fill="#1A1815" transform="translate(210,256)"/>
<path d="M0 0 C0.66 1.32 1.32 2.64 2 4 C0.89764064 4.96041171 -0.20696624 5.91824407 -1.3125 6.875 C-1.92738281 7.40867187 -2.54226562 7.94234375 -3.17578125 8.4921875 C-6.65153446 11.36507988 -8.53489529 12.24135701 -13 12 C-13.33 10.35 -13.66 8.7 -14 7 C-12.4188708 6.49307308 -10.83498617 5.99473557 -9.25 5.5 C-8.36828125 5.2215625 -7.4865625 4.943125 -6.578125 4.65625 C-4 4 -4 4 0 4 C0 2.68 0 1.36 0 0 Z " fill="#DACEAE" transform="translate(226,333)"/>
<path d="M0 0 C1.65 0 3.3 0 5 0 C5.98248524 4.0527516 6.08159574 7.83861737 6 12 C4.68 12.33 3.36 12.66 2 13 C-0.24828052 8.50343896 -0.16682272 4.92127034 0 0 Z " fill="#2A2822" transform="translate(255,295)"/>
<path d="M0 0 C-1.875 3.875 -1.875 3.875 -3 5 C-5.33944736 4.71269945 -7.6739143 4.38063221 -10 4 C-10 2.68 -10 1.36 -10 0 C-6.33694766 -0.74926071 -3.57644848 -1.2380014 0 0 Z " fill="#21201B" transform="translate(218,277)"/>
<path d="M0 0 C0.33 0.66 0.66 1.32 1 2 C0.55011719 2.37769531 0.10023437 2.75539062 -0.36328125 3.14453125 C-6.56479626 8.45123848 -12.2807538 14.18613392 -18 20 C-18 15.06965433 -14.31725431 12.40455047 -11 9 C-7.49973486 5.7169046 -3.99570589 2.66380392 0 0 Z " fill="#CDC2A4" transform="translate(97,135)"/>
<path d="M0 0 C1.32 0.33 2.64 0.66 4 1 C3.48050781 1.43570312 2.96101562 1.87140625 2.42578125 2.3203125 C-1.83222666 5.95654106 -5.55472652 9.58574336 -9 14 C-8.67 14.66 -8.34 15.32 -8 16 C-9.32 15.67 -10.64 15.34 -12 15 C-11.48645416 10.97271946 -9.61288468 9.47053944 -6.5625 6.9375 C-3.84539342 4.66524875 -1.97974488 2.96961731 0 0 Z " fill="#2F2D28" transform="translate(226,285)"/>
<path d="M0 0 C0.66 0.33 1.32 0.66 2 1 C1.28082397 1.7113208 1.28082397 1.7113208 0.54711914 2.43701172 C-1.61701838 4.58040335 -3.77729647 6.7276439 -5.9375 8.875 C-6.69224609 9.62136719 -7.44699219 10.36773437 -8.22460938 11.13671875 C-8.94326172 11.85214844 -9.66191406 12.56757812 -10.40234375 13.3046875 C-11.06741943 13.96452637 -11.73249512 14.62436523 -12.41772461 15.30419922 C-14.0813711 16.92673932 -14.0813711 16.92673932 -15 19 C-15.66 18.67 -16.32 18.34 -17 18 C-13.1362481 13.51270313 -9.24577917 9.13404814 -5 5 C-3.6078125 3.6078125 -3.6078125 3.6078125 -2.1875 2.1875 C-1.465625 1.465625 -0.74375 0.74375 0 0 Z " fill="#D2C7A8" transform="translate(184,52)"/>
<path d="M0 0 C0.66 0.33 1.32 0.66 2 1 C-0.64 3.64 -3.28 6.28 -6 9 C-6.66 8.67 -7.32 8.34 -8 8 C-5.58443874 4.80800833 -3.31996462 2.25283313 0 0 Z " fill="#32302B" transform="translate(251,246)"/>
<path d="M0 0 C0.66 0 1.32 0 2 0 C0.50902342 3.7952131 -1.75700849 5.61042731 -5 8 C-4.1875 5.5625 -4.1875 5.5625 -3 3 C-2.01 2.67 -1.02 2.34 0 2 C0 1.34 0 0.68 0 0 Z " fill="#C6BB9E" transform="translate(78,254)"/>
</svg>
