<?xml version="1.0" encoding="UTF-8"?>
<svg version="1.1" xmlns="http://www.w3.org/2000/svg" width="360" height="360">
<path d="M0 0 C5.88724848 2.77156406 11.28172625 6.53005645 16 11 C16 11.66 16 12.32 16 13 C16.55042969 13.18820313 17.10085937 13.37640625 17.66796875 13.5703125 C21.06435497 15.65251913 23.03744415 18.68417834 25.3125 21.875 C25.76044922 22.48085937 26.20839844 23.08671875 26.66992188 23.7109375 C33.99289067 33.82015609 39.46088269 44.71062554 44.4375 56.125 C44.98316632 57.35441432 45.52938825 58.58358219 46.07617188 59.8125 C50 68.7217229 50 68.7217229 50 71 C50.99644531 71.12890625 51.99289063 71.2578125 53.01953125 71.390625 C74.81716068 74.52256271 93.43187504 83.47610267 109 99 C109.7425 99.71929687 110.485 100.43859375 111.25 101.1796875 C123.90851249 114.28322582 129.35702778 132.10393999 130 150 C130.0515625 150.88171875 130.103125 151.7634375 130.15625 152.671875 C130.79480363 171.9349095 126.34917311 192.0045755 114 207 C114.7425 207.61875 115.485 208.2375 116.25 208.875 C120.89099868 213.55566534 123.12608492 220.13504173 123.6875 226.625 C123.44575565 231.32651072 121.29952312 234.04911738 118.07421875 237.33984375 C114.47049941 240.22417656 110.58942176 241.74303448 105.953125 242.203125 C102.84937611 243.46945455 102.31687167 245.83856058 100.9375 248.8125 C92.2847024 266.14690585 75.53091857 278.51215437 58 286 C54.9921875 286.75 54.9921875 286.75 53 287 C53.33 287.99 53.66 288.98 54 290 C54.47141663 294.9923794 54.59468615 299.48355032 52.75 304.1875 C48.8631632 306.7492788 45.65330863 306.80152908 41.05859375 306.6328125 C36.11861808 305.61074857 33.15252672 302.81758031 30 299 C29.67 298.34 29.34 297.68 29 297 C27.52076554 297.14514409 26.04161704 297.29116422 24.5625 297.4375 C23.6446875 297.52773438 22.726875 297.61796875 21.78125 297.7109375 C19.36911615 297.9616368 16.9681248 298.25743888 14.5625 298.5625 C4.05874418 299.71535125 -6.49778667 298.73792214 -17 298 C-17.45375 299.11375 -17.9075 300.2275 -18.375 301.375 C-20 305 -20 305 -22 307 C-27.42221348 307.75910989 -30.59179049 306.60471988 -34.953125 303.62109375 C-39.62223557 299.92322946 -43.69354251 295.735209 -47.2734375 290.98046875 C-50.13394642 287.52408831 -53.39072008 286.02780443 -57.4375 284.25 C-73.33020866 276.73981549 -86.37354449 266.89244152 -93 250 C-97.25757841 237.21009711 -97.25784077 225.08011546 -91.96875 212.55859375 C-88.90212958 206.60147637 -84.12188844 199.06094422 -78 196 C-78.96932462 194.03971406 -79.94870175 192.09357923 -81 190.17578125 C-83.67439042 185.19263972 -85.09723373 180.56839021 -86 175 C-86.19722656 173.82308594 -86.39445312 172.64617187 -86.59765625 171.43359375 C-90.17066634 148.22926368 -84.59816379 127.54922014 -71.25 108.25 C-58.26108958 91.42001101 -41.59576645 79.75842987 -21 74 C-21.62455078 73.39115967 -22.24910156 72.78231934 -22.89257812 72.1550293 C-25.2547627 69.84464318 -27.60952312 67.52714755 -29.95996094 65.20483398 C-30.96954388 64.21013551 -31.98182599 63.21816754 -32.99707031 62.22924805 C-43.60286936 51.89121918 -56.76255291 38.727012 -57.375 23.0625 C-57.30410955 19.59393174 -57.21312721 18.31969081 -55.25 15.375 C-49.4049805 12.90210714 -43.39184915 12.91600697 -37.34765625 14.84765625 C-16.46876844 24.57794362 0.88516956 49.77033913 11 70 C12.32 69.67 13.64 69.34 15 69 C14.28714844 68.11699219 13.57429688 67.23398438 12.83984375 66.32421875 C5.07227257 56.62800654 -1.67306942 46.84542362 -7.3125 35.75 C-7.65047607 35.08822754 -7.98845215 34.42645508 -8.33666992 33.74462891 C-11.65012295 27.05059794 -13.29829162 20.90776267 -13.375 13.375 C-13.40335937 12.10398437 -13.43171875 10.83296875 -13.4609375 9.5234375 C-12.92931396 5.45967113 -11.86514679 3.86514679 -9 1 C-5.94606227 -0.52696886 -3.2898293 -0.63985671 0 0 Z " fill="#FBEDC8" transform="translate(171,44)"/>
<path d="M0 0 C5.88724848 2.77156406 11.28172625 6.53005645 16 11 C16 11.66 16 12.32 16 13 C16.55042969 13.18820313 17.10085937 13.37640625 17.66796875 13.5703125 C21.06435497 15.65251913 23.03744415 18.68417834 25.3125 21.875 C25.76044922 22.48085937 26.20839844 23.08671875 26.66992188 23.7109375 C33.99289067 33.82015609 39.46088269 44.71062554 44.4375 56.125 C44.98316632 57.35441432 45.52938825 58.58358219 46.07617188 59.8125 C50 68.7217229 50 68.7217229 50 71 C50.99644531 71.12890625 51.99289063 71.2578125 53.01953125 71.390625 C74.81716068 74.52256271 93.43187504 83.47610267 109 99 C109.7425 99.71929687 110.485 100.43859375 111.25 101.1796875 C123.90851249 114.28322582 129.35702778 132.10393999 130 150 C130.0515625 150.88171875 130.103125 151.7634375 130.15625 152.671875 C130.79480363 171.9349095 126.34917311 192.0045755 114 207 C114.7425 207.61875 115.485 208.2375 116.25 208.875 C120.89099868 213.55566534 123.12608492 220.13504173 123.6875 226.625 C123.44575565 231.32651072 121.29952312 234.04911738 118.07421875 237.33984375 C114.47049941 240.22417656 110.58942176 241.74303448 105.953125 242.203125 C102.84937611 243.46945455 102.31687167 245.83856058 100.9375 248.8125 C92.2847024 266.14690585 75.53091857 278.51215437 58 286 C54.9921875 286.75 54.9921875 286.75 53 287 C53.33 287.99 53.66 288.98 54 290 C54.47141663 294.9923794 54.59468615 299.48355032 52.75 304.1875 C48.8631632 306.7492788 45.65330863 306.80152908 41.05859375 306.6328125 C36.11861808 305.61074857 33.15252672 302.81758031 30 299 C29.67 298.34 29.34 297.68 29 297 C27.52076554 297.14514409 26.04161704 297.29116422 24.5625 297.4375 C23.6446875 297.52773438 22.726875 297.61796875 21.78125 297.7109375 C19.36911615 297.9616368 16.9681248 298.25743888 14.5625 298.5625 C4.05874418 299.71535125 -6.49778667 298.73792214 -17 298 C-17.45375 299.11375 -17.9075 300.2275 -18.375 301.375 C-20 305 -20 305 -22 307 C-27.42221348 307.75910989 -30.59179049 306.60471988 -34.953125 303.62109375 C-39.62223557 299.92322946 -43.69354251 295.735209 -47.2734375 290.98046875 C-50.13394642 287.52408831 -53.39072008 286.02780443 -57.4375 284.25 C-73.33020866 276.73981549 -86.37354449 266.89244152 -93 250 C-97.25757841 237.21009711 -97.25784077 225.08011546 -91.96875 212.55859375 C-88.90212958 206.60147637 -84.12188844 199.06094422 -78 196 C-78.96932462 194.03971406 -79.94870175 192.09357923 -81 190.17578125 C-83.67439042 185.19263972 -85.09723373 180.56839021 -86 175 C-86.19722656 173.82308594 -86.39445312 172.64617187 -86.59765625 171.43359375 C-90.17066634 148.22926368 -84.59816379 127.54922014 -71.25 108.25 C-58.26108958 91.42001101 -41.59576645 79.75842987 -21 74 C-21.62455078 73.39115967 -22.24910156 72.78231934 -22.89257812 72.1550293 C-25.2547627 69.84464318 -27.60952312 67.52714755 -29.95996094 65.20483398 C-30.96954388 64.21013551 -31.98182599 63.21816754 -32.99707031 62.22924805 C-43.60286936 51.89121918 -56.76255291 38.727012 -57.375 23.0625 C-57.30410955 19.59393174 -57.21312721 18.31969081 -55.25 15.375 C-49.4049805 12.90210714 -43.39184915 12.91600697 -37.34765625 14.84765625 C-16.46876844 24.57794362 0.88516956 49.77033913 11 70 C12.32 69.67 13.64 69.34 15 69 C14.28714844 68.11699219 13.57429688 67.23398438 12.83984375 66.32421875 C5.07227257 56.62800654 -1.67306942 46.84542362 -7.3125 35.75 C-7.65047607 35.08822754 -7.98845215 34.42645508 -8.33666992 33.74462891 C-11.65012295 27.05059794 -13.29829162 20.90776267 -13.375 13.375 C-13.40335937 12.10398437 -13.43171875 10.83296875 -13.4609375 9.5234375 C-12.92931396 5.45967113 -11.86514679 3.86514679 -9 1 C-5.94606227 -0.52696886 -3.2898293 -0.63985671 0 0 Z M-8 7 C-10.61682011 22.92128447 -2.53852504 37.32155332 6.35107422 49.74560547 C14.52198242 62.01545884 14.52198242 62.01545884 25 72 C25.33 72.99 25.66 73.98 26 75 C19.73 75 13.46 75 7 75 C6.34 73.02 5.68 71.04 5 69 C4.01330388 67.1118993 4.01330388 67.1118993 2.86328125 65.484375 C2.45456787 64.87819336 2.04585449 64.27201172 1.62475586 63.64746094 C1.19171143 63.02129883 0.75866699 62.39513672 0.3125 61.75 C-0.13665771 61.09032227 -0.58581543 60.43064453 -1.04858398 59.75097656 C-1.9486754 58.43197974 -2.85200692 57.11518732 -3.75878906 55.80078125 C-4.81442165 54.26924191 -5.85776191 52.72924162 -6.8984375 51.1875 C-14.41012747 40.18446117 -22.39943818 31.04746876 -33 23 C-33.62648437 22.50113281 -34.25296875 22.00226563 -34.8984375 21.48828125 C-40.056969 17.90247277 -46.02150128 18.64659121 -52 19 C-53.16388407 29.24217984 -47.38780635 37.99664572 -41.51025391 45.9140625 C-37.17359615 51.24525819 -32.34341055 56.06311386 -27.45288086 60.88330078 C-25.66387354 62.64830952 -23.88898945 64.42670761 -22.11523438 66.20703125 C-20.97735813 67.33934177 -19.83871488 68.47088216 -18.69921875 69.6015625 C-18.17108078 70.13061188 -17.64294281 70.65966125 -17.09880066 71.20474243 C-14.73855346 73.51949257 -13.1817199 74.9394267 -10 76 C-10 76.99 -10 77.98 -10 79 C-11.86591797 79.11214844 -11.86591797 79.11214844 -13.76953125 79.2265625 C-23.81098786 79.96465247 -31.58152176 81.06879942 -40 87 C-40.8353125 87.53882813 -41.670625 88.07765625 -42.53125 88.6328125 C-48.81037427 92.79951533 -54.78264998 97.54953434 -60 103 C-60 103.66 -60 104.32 -60 105 C-60.66 105 -61.32 105 -62 105 C-70.93580128 115.35034897 -75.76035017 126.08629627 -80 139 C-80.25136719 139.76054687 -80.50273438 140.52109375 -80.76171875 141.3046875 C-84.87291421 156.2915986 -82.35709139 176.47593494 -75 190 C-73.46405108 191.72505847 -73.46405108 191.72505847 -72 193 C-70.96875 192.505 -69.9375 192.01 -68.875 191.5 C-65.47548422 190.02526098 -62.72978451 189.72708894 -59 190 C-58.67 190.99 -58.34 191.98 -58 193 C-58.99 193.33 -59.98 193.66 -61 194 C-60.01 194.33 -59.02 194.66 -58 195 C-58.474375 195.99 -58.94875 196.98 -59.4375 198 C-61.16813748 201.99189495 -61.62115314 205.68114582 -62 210 C-63.32 210 -64.64 210 -66 210 C-66.50610724 203.92671312 -65.04157942 200.22771463 -62 195 C-68.80883871 195.24317281 -73.13439277 197.12145233 -78 202 C-78 202.66 -78 203.32 -78 204 C-78.99 204.33 -79.98 204.66 -81 205 C-81.33 206.98 -81.66 208.96 -82 211 C-81.01 211.33 -80.02 211.66 -79 212 C-78.690625 212.94875 -78.38125 213.8975 -78.0625 214.875 C-76.8778842 218.35916411 -75.90313745 218.96780378 -73 221 C-73 221.99 -73 222.98 -73 224 C-74.32 224 -75.64 224 -77 224 C-78.921875 221.59375 -78.921875 221.59375 -80.75 218.5 C-81.67039062 216.96859375 -81.67039062 216.96859375 -82.609375 215.40625 C-83.06828125 214.6121875 -83.5271875 213.818125 -84 213 C-86.82174471 214.41087235 -86.93769801 216.07866953 -88 219 C-88.34417969 219.7115625 -88.68835938 220.423125 -89.04296875 221.15625 C-91.61403839 228.7959998 -91.22414197 240.35406433 -88.08984375 247.8359375 C-87.73019531 248.55007813 -87.37054688 249.26421875 -87 250 C-86.32130859 251.41152344 -86.32130859 251.41152344 -85.62890625 252.8515625 C-80.00327895 263.50922574 -72.00947819 271.18791019 -61 276 C-52.18423428 280.11661307 -45.47256515 283.55654475 -39.69140625 291.66015625 C-36.21592913 296.46803337 -32.92995299 299.53307589 -27.125 300.9375 C-26.09375 300.958125 -25.0625 300.97875 -24 301 C-22.70366379 299.93354885 -22.70366379 299.93354885 -22.9375 297.4375 C-22.958125 296.633125 -22.97875 295.82875 -23 295 C-23.68707031 294.86722656 -24.37414062 294.73445313 -25.08203125 294.59765625 C-25.98308594 294.42105469 -26.88414062 294.24445313 -27.8125 294.0625 C-29.15248047 293.80146484 -29.15248047 293.80146484 -30.51953125 293.53515625 C-33 293 -33 293 -36 292 C-36.495 290.515 -36.495 290.515 -37 289 C-35.33293526 289.26837216 -33.66638511 289.53993967 -32 289.8125 C-30.90042969 289.99167969 -29.80085938 290.17085938 -28.66796875 290.35546875 C-25.52566092 290.90763147 -22.41622743 291.54943274 -19.29663086 292.21508789 C-6.00828519 294.96039764 6.44362405 294.82870513 19.6328125 291.65625 C23.94109611 290.81658452 28.06480539 290.42467187 32.3125 291.6875 C34 293 34 293 34.9375 295.4375 C35.83288289 298.14267958 35.83288289 298.14267958 38.1875 299.875 C41.83715331 301.33486132 44.21702873 300.87299337 48 300 C49.35105374 298.87972039 49.35105374 298.87972039 49.0625 295.98046875 C49.02096203 293.45963329 48.97929616 290.93879994 48.9375 288.41796875 C48.98761624 285.67723683 49.16805519 283.58032883 50 281 C50.886875 280.896875 51.77375 280.79375 52.6875 280.6875 C56.11254509 279.97664159 58.08406617 278.86918835 61 277 C62.11955078 276.56880859 62.11955078 276.56880859 63.26171875 276.12890625 C77.98365697 270.05951945 88.98324122 259.52828045 97 246 C97.76715585 243.76301201 97.76715585 243.76301201 98 242 C97.51789063 241.67386719 97.03578125 241.34773437 96.5390625 241.01171875 C95.90742188 240.57472656 95.27578125 240.13773438 94.625 239.6875 C93.99851562 239.25824219 93.37203125 238.82898438 92.7265625 238.38671875 C91 237 91 237 89 234 C88.76953125 231.84375 88.76953125 231.84375 88.8125 229.5 C88.82216797 228.33984375 88.82216797 228.33984375 88.83203125 227.15625 C89 225 89 225 90 222 C91.9375 220.875 91.9375 220.875 94 220 C94.66 219.67 95.32 219.34 96 219 C97.49756871 218.90500497 98.99942932 218.87012802 100.5 218.875 C101.69109375 218.87113281 101.69109375 218.87113281 102.90625 218.8671875 C105 219 105 219 107 220 C107 220.99 107 221.98 107 223 C106.22914063 223.04898438 105.45828125 223.09796875 104.6640625 223.1484375 C103.15972656 223.26058594 103.15972656 223.26058594 101.625 223.375 C100.62726563 223.44460938 99.62953125 223.51421875 98.6015625 223.5859375 C95.84491121 223.76363964 95.84491121 223.76363964 94 226 C93.46189243 230.59661927 93.46189243 230.59661927 95.19140625 234.6953125 C98.88077528 237.35675798 103.67605306 236.56162998 108 236 C110.73242042 234.95322743 112.57564796 233.71724936 115 232 C115.99 231.34 116.98 230.68 118 230 C119.26108414 224.52394094 117.91049716 219.51212879 115.203125 214.7265625 C112.75587412 211.21459857 110.30604527 209.34827874 106.1875 208.25 C105.465625 208.1675 104.74375 208.085 104 208 C104 207.01 104 206.02 104 205 C105.03125 204.67 106.0625 204.34 107.125 204 C114.72137582 200.62213469 117.48513264 193.3976109 120.3125 186.0625 C120.69450562 185.07890503 120.69450562 185.07890503 121.08422852 184.07543945 C124.48776448 174.68121633 124.18223712 165.00869702 124.1875 155.125 C124.19974609 153.92230469 124.21199219 152.71960938 124.22460938 151.48046875 C124.24265311 140.401616 123.01113544 130.92034948 118 121 C117.67128906 120.2059375 117.34257812 119.411875 117.00390625 118.59375 C109.30244523 101.82729061 91.96727789 88.56111708 75.0625 82.25 C63.16080424 77.99924067 63.16080424 77.99924067 50.82421875 75.80078125 C48 75 48 75 45.98828125 72.12109375 C45.40682985 70.90388683 44.84881845 69.67525641 44.3125 68.4375 C44.03083984 67.84130859 43.74917969 67.24511719 43.45898438 66.63085938 C42.00932478 63.50722795 40.74665937 60.34770053 39.578125 57.109375 C34.65826171 43.78172174 27.0828731 31.8326385 18 21 C17.48050781 20.31808594 16.96101563 19.63617188 16.42578125 18.93359375 C11.75464407 12.95079055 4.61450161 6.22409652 -3.0625 4.875 C-6.12447731 4.67354064 -6.12447731 4.67354064 -8 7 Z " fill="#0B0A09" transform="translate(171,44)"/>
<path d="M0 0 C-0.433125 0.74443359 -0.433125 0.74443359 -0.875 1.50390625 C-3.501523 6.31007855 -4.45552263 9.5337284 -4 15 C-2.68 15 -1.36 15 0 15 C0.33 13.02 0.66 11.04 1 9 C2.58226965 8.80372609 4.16589271 8.61834462 5.75 8.4375 C6.63171875 8.33308594 7.5134375 8.22867188 8.421875 8.12109375 C10.88432451 8.00543324 12.66538064 8.26361305 15 9 C14.39009109 12.55780196 13.4216319 15.6828589 12 19 C15.65316671 17.75023244 16.78065836 17.32901247 19 14 C21.25 13.0625 21.25 13.0625 24 13 C27.3125 14.9375 27.3125 14.9375 30 17 C29.505 18.485 29.505 18.485 29 20 C28.01 20 27.02 20 26 20 C26 21.32 26 22.64 26 24 C28.97 24 31.94 24 35 24 C38.42857143 31.28571429 38.42857143 31.28571429 38 36 C37.34 36 36.68 36 36 36 C36 37.65 36 39.3 36 41 C36.66 41 37.32 41 38 41 C37.59684681 46.37537588 35.90033428 51.19433402 32 55 C29.04662148 55.71099853 27.07384326 55.41679231 24 55 C23.9175 55.78375 23.835 56.5675 23.75 57.375 C23 60 23 60 21.25 61.3125 C18.72491331 62.08405427 16.62610707 62.14589484 14 62 C13.67 60.35 13.34 58.7 13 57 C12.01 57 11.02 57 10 57 C9.34 58.98 8.68 60.96 8 63 C2.34605369 63.34615998 -1.03006806 62.43425238 -6 60 C-5.42923685 56.00465792 -4.09958585 53.411827 -2 50 C-1.30420546 47.80869466 -1.30420546 47.80869466 -1 46 C-4.59905908 46.55550695 -5.99909799 47.74887248 -8.25 50.5625 C-9.03117187 51.52349609 -9.03117187 51.52349609 -9.828125 52.50390625 C-10.21484375 52.99761719 -10.6015625 53.49132812 -11 54 C-14.25479594 53.28864254 -15.86989123 52.63727752 -18 50 C-18.495 48.515 -18.495 48.515 -19 47 C-19.66 46.67 -20.32 46.34 -21 46 C-21 45.01 -21 44.02 -21 43 C-19.35 43 -17.7 43 -16 43 C-16 42.34 -16 41.68 -16 41 C-15.01 40.505 -15.01 40.505 -14 40 C-13.34786708 37.97536745 -13.34786708 37.97536745 -13 36 C-13.928125 36.185625 -14.85625 36.37125 -15.8125 36.5625 C-19 37 -19 37 -22 36 C-21.25 29.375 -21.25 29.375 -19 26 C-16 27 -16 27 -15 29 C-13.68 29 -12.36 29 -11 29 C-11.27617533 27.05925139 -11.27617533 27.05925139 -12 25 C-12.99 24.34 -13.98 23.68 -15 23 C-15.33 21.989375 -15.66 20.97875 -16 19.9375 C-16.33 18.968125 -16.66 17.99875 -17 17 C-17.99 16.67 -18.98 16.34 -20 16 C-19.67 14.02 -19.34 12.04 -19 10 C-18.01 9.67 -17.02 9.34 -16 9 C-16 8.34 -16 7.68 -16 7 C-14.35546875 5.52734375 -14.35546875 5.52734375 -12.1875 3.9375 C-11.47980469 3.41027344 -10.77210937 2.88304687 -10.04296875 2.33984375 C-6.65719183 0.11934378 -3.94845894 -0.10671511 0 0 Z " fill="#FCFCFB" transform="translate(109,239)"/>
<path d="M0 0 C-1.33333333 2.66666667 -2.66666667 5.33333333 -4 8 C-4.32355469 8.71027344 -4.64710937 9.42054688 -4.98046875 10.15234375 C-6 12 -6 12 -8.4375 13.8125 C-11.73234769 16.62517486 -12.52711968 18.96895912 -14 23 C-15 21 -16 19 -17 17 C-17.99 16.67 -18.98 16.34 -20 16 C-19.67 14.02 -19.34 12.04 -19 10 C-18.01 9.67 -17.02 9.34 -16 9 C-16 8.34 -16 7.68 -16 7 C-14.35546875 5.52734375 -14.35546875 5.52734375 -12.1875 3.9375 C-11.47980469 3.41027344 -10.77210937 2.88304687 -10.04296875 2.33984375 C-6.65719183 0.11934378 -3.94845894 -0.10671511 0 0 Z " fill="#EDE1BF" transform="translate(109,239)"/>
<path d="M0 0 C1.32 0.33 2.64 0.66 4 1 C3.40632048 4.53832993 2.06937798 6.4154022 -0.3125 9.0625 C-0.90675781 9.73410156 -1.50101563 10.40570313 -2.11328125 11.09765625 C-3.98358099 12.98344501 -5.75769533 14.5743093 -8 16 C-10.75 15.6875 -10.75 15.6875 -13 15 C-12.61905116 12.62408224 -12.38873379 11.34066456 -10.546875 9.7265625 C-9.95390625 9.36304688 -9.3609375 8.99953125 -8.75 8.625 C-5.06358977 6.18512849 -2.68461742 3.49813785 0 0 Z " fill="#201E1A" transform="translate(105,284)"/>
<path d="M0 0 C0.33 0.66 0.66 1.32 1 2 C3.02463255 2.65213292 3.02463255 2.65213292 5 3 C5.12375 4.423125 5.12375 4.423125 5.25 5.875 C5.4975 6.90625 5.745 7.9375 6 9 C7.96672915 10.1500831 7.96672915 10.1500831 10 11 C10.75 13.125 10.75 13.125 11 15 C9.35 15.33 7.7 15.66 6 16 C3.36 12.37 0.72 8.74 -2 5 C-2.66 6.65 -3.32 8.3 -4 10 C-5 8 -5 8 -4.25 5.5625 C-3.06901019 3.14147089 -2.0168441 1.74181991 0 0 Z " fill="#21201B" transform="translate(88,253)"/>
<path d="M0 0 C2.31 0.33 4.62 0.66 7 1 C6.125 6.875 6.125 6.875 5 8 C4.76924918 9.34747084 4.58846937 10.70377565 4.4375 12.0625 C4.293125 13.361875 4.14875 14.66125 4 16 C2.34385343 16.38218767 0.67542976 16.71395102 -1 17 C-2 16 -2 16 -2.3125 12.875 C-1.92867631 8.11558628 -0.58022596 5.95097099 2 2 C1.34 1.34 0.68 0.68 0 0 Z " fill="#2D2B26" transform="translate(106,238)"/>
<path d="M0 0 C-0.125 2.25 -0.125 2.25 -1 5 C-2.95890881 6.39300182 -4.9639118 7.72245446 -7 9 C-7.70125 9.9075 -8.4025 10.815 -9.125 11.75 C-10.053125 12.86375 -10.053125 12.86375 -11 14 C-12.32 14 -13.64 14 -15 14 C-14.49105164 8.2319186 -11.08059516 4.95055796 -7 1.125 C-4.52359407 -0.26797834 -2.79734081 -0.23311173 0 0 Z " fill="#1D1C18" transform="translate(136,244)"/>
<path d="M0 0 C0.33 1.65 0.66 3.3 1 5 C-7.415 5.495 -7.415 5.495 -16 6 C-16 4.68 -16 3.36 -16 2 C-10.42932723 0.40837921 -5.78898419 -0.20674944 0 0 Z " fill="#11110E" transform="translate(151,257)"/>
<path d="M0 0 C0.66 0.99 1.32 1.98 2 3 C6.16879572 5.2070095 10.37404105 5.5295635 15 6 C15.042721 7.66611905 15.04063832 9.33382885 15 11 C14.67 11.33 14.34 11.66 14 12 C7.09032911 12 3.75910935 8.7343867 -1 4 C-0.67 2.68 -0.34 1.36 0 0 Z " fill="#D5C9AA" transform="translate(133,333)"/>
<path d="M0 0 C0.99 0 1.98 0 3 0 C3.2358396 5.77807024 2.86783046 10.51324804 1 16 C-0.32 15.67 -1.64 15.34 -3 15 C-2.5547115 9.72684667 -1.91626837 4.98229776 0 0 Z " fill="#171612" transform="translate(119,295)"/>
<path d="M0 0 C4.65078045 0.28186548 7.20117979 2.47603185 10.64453125 5.33203125 C12 7 12 7 12 11 C7.17026437 10.56093312 3.36735013 8.43393615 0 5 C-0.4375 2.1875 -0.4375 2.1875 0 0 Z " fill="#24221D" transform="translate(145,275)"/>
<path d="M0 0 C2.475 0.495 2.475 0.495 5 1 C5 4.63 5 8.26 5 12 C3.68 12 2.36 12 1 12 C0.03929566 9.11788698 -0.10581883 7.30149956 -0.0625 4.3125 C-0.05347656 3.50425781 -0.04445312 2.69601562 -0.03515625 1.86328125 C-0.02355469 1.24839844 -0.01195312 0.63351562 0 0 Z " fill="#1D1B17" transform="translate(134,294)"/>
<path d="M0 0 C-0.33 1.65 -0.66 3.3 -1 5 C-3.31 5.33 -5.62 5.66 -8 6 C-8.33 4.35 -8.66 2.7 -9 1 C-5.846632 0.29925156 -3.27275026 0 0 0 Z " fill="#22211C" transform="translate(96,275)"/>
<path d="M0 0 C0.99 0.33 1.98 0.66 3 1 C2.67 2.32 2.34 3.64 2 5 C-0.97 5 -3.94 5 -7 5 C-7 4.34 -7 3.68 -7 3 C-4.36 3 -1.72 3 1 3 C0.67 2.01 0.34 1.02 0 0 Z " fill="#49453B" transform="translate(276,263)"/>
<path d="M0 0 C0.33 0.66 0.66 1.32 1 2 C1.99 2.33 2.98 2.66 4 3 C2.68 3 1.36 3 0 3 C-0.33 3.99 -0.66 4.98 -1 6 C-1.33 5.67 -1.66 5.34 -2 5 C-2.66 6.65 -3.32 8.3 -4 10 C-5 8 -5 8 -4.25 5.5625 C-3.06901019 3.14147089 -2.0168441 1.74181991 0 0 Z " fill="#837C69" transform="translate(88,253)"/>
</svg>
