<?xml version="1.0" encoding="UTF-8"?>
<svg version="1.1" xmlns="http://www.w3.org/2000/svg" width="360" height="360">
<path d="M0 0 C7.65747686 4.37570106 9.72072804 12.65047534 12.09375 20.71875 C13.27645931 25.66884696 13.54479451 30.61513077 13.75 35.6875 C13.79092773 36.68700684 13.83185547 37.68651367 13.87402344 38.71630859 C14.30281924 52.74942485 14.44121545 71.1175691 8 84 C13.445 84.495 13.445 84.495 19 85 C19.17015625 83.4015625 19.3403125 81.803125 19.515625 80.15625 C25.91169812 21.49782293 25.91169812 21.49782293 40.4375 2.875 C43.79787614 0.41618819 45.83341244 -0.14619605 50 0 C55.68416611 3.34362712 58.13319532 7.76235938 60 14 C65.45740412 40.26375735 58.77270138 65.65220446 49 90 C49.64324219 90.01417969 50.28648437 90.02835937 50.94921875 90.04296875 C70.44715857 91.07210395 89.04501726 102.89405805 102 117 C115.33130502 132.29887715 120.22528665 149.02178607 121 169 C121.07927734 170.35158203 121.07927734 170.35158203 121.16015625 171.73046875 C121.78321658 189.63668071 116.23288892 209.29536605 106 224 C105.50886719 224.7115625 105.01773438 225.423125 104.51171875 226.15625 C103.36330736 227.78667067 102.18537737 229.39625414 101 231 C101.99 230.566875 101.99 230.566875 103 230.125 C107.82661292 229.92389113 110.54418225 232.86532895 114 236 C118.74906172 240.77239863 120.13019649 244.53821947 120.3125 251.1875 C120.25262734 256.7930778 119.09552156 261.29906468 116 266 C115.15695312 266.77472656 114.31390625 267.54945313 113.4453125 268.34765625 C110.53662912 271.50260196 110.17866033 273.36401216 109.5625 277.5625 C107.25372571 289.76966571 101.78042789 298.35488693 93 307 C92.3503125 307.64839844 91.700625 308.29679687 91.03125 308.96484375 C85.43687434 314.20383899 78.63052416 318.64806981 71.23046875 320.80859375 C70.49441406 321.20175781 69.75835937 321.59492188 69 322 C68.14085432 324.66295944 68.14085432 324.66295944 68 327.75 C67.24011775 333.50438106 66.57268321 336.3219722 62 340 C58.08819507 341.37784222 55.11812642 341.43200339 51.25 339.9375 C46.53587596 335.87811541 44.8435665 332.04837184 44 326 C43.25016846 326.09087891 42.50033691 326.18175781 41.7277832 326.27539062 C38.25691651 326.69147854 34.78476831 327.09578208 31.3125 327.5 C30.13365234 327.64308594 28.95480469 327.78617187 27.74023438 327.93359375 C17.76654208 329.08125149 7.92434849 329.85256965 -2 328 C-2.15855469 328.59167969 -2.31710938 329.18335938 -2.48046875 329.79296875 C-4.01374357 334.98577242 -5.33244597 338.85447446 -10 342 C-13.20802343 342.82424262 -15.80221104 342.89515571 -19 342 C-22.94147191 339.00214319 -25.73967992 334.7892163 -27 330 C-27.125 327.1875 -27.125 327.1875 -27 325 C-28.60875 324.690625 -28.60875 324.690625 -30.25 324.375 C-41.02193446 321.61540548 -49.27775586 315.81641785 -57 308 C-57.95519531 307.07767578 -57.95519531 307.07767578 -58.9296875 306.13671875 C-66.67812877 298.09555859 -70.57560666 287.94552204 -73.4375 277.375 C-74.74937179 272.31764669 -74.74937179 272.31764669 -77.9453125 268.3125 C-80.02979919 267.3520181 -80.02979919 267.3520181 -82.12890625 266.671875 C-84 266 -84 266 -86.5 263.625 C-89.11756519 257.29921745 -89.15781979 250.12391992 -87.3046875 243.5234375 C-85.13272639 238.79622803 -81.9660648 235.31854402 -78 232 C-75.125 231.125 -75.125 231.125 -73 231 C-74.10021484 229.95972656 -74.10021484 229.95972656 -75.22265625 228.8984375 C-90.38152535 213.69154664 -96.21223202 191.42062859 -96.4375 170.625 C-96.40292952 160.50787347 -95.33015848 151.57420562 -92 142 C-91.71125 141.15953125 -91.4225 140.3190625 -91.125 139.453125 C-82.49569521 117.72576829 -62.98520984 102.38470079 -42.18359375 93.21875 C-35.93239974 90.82565487 -29.71462671 89 -23 89 C-23.11915771 87.95622192 -23.11915771 87.95622192 -23.24072266 86.89135742 C-24.07105343 78.61590853 -23.92347822 70.60334056 -23.375 62.3125 C-23.33154449 61.64413116 -23.28808899 60.97576233 -23.24331665 60.28713989 C-21.96872699 41.35523112 -19.96650432 18.14358504 -9 2 C-5.45870816 -0.36086122 -4.17249782 -0.57269578 0 0 Z " fill="#FAECC8" transform="translate(153,10)"/>
<path d="M0 0 C7.65747686 4.37570106 9.72072804 12.65047534 12.09375 20.71875 C13.27645931 25.66884696 13.54479451 30.61513077 13.75 35.6875 C13.79092773 36.68700684 13.83185547 37.68651367 13.87402344 38.71630859 C14.30281924 52.74942485 14.44121545 71.1175691 8 84 C13.445 84.495 13.445 84.495 19 85 C19.17015625 83.4015625 19.3403125 81.803125 19.515625 80.15625 C25.91169812 21.49782293 25.91169812 21.49782293 40.4375 2.875 C43.79787614 0.41618819 45.83341244 -0.14619605 50 0 C55.68416611 3.34362712 58.13319532 7.76235938 60 14 C65.21861965 39.11460707 59.93899354 66.01615839 49 89 C47.3203125 91.41015625 47.3203125 91.41015625 46 93 C44.68 92.67 43.36 92.34 42 92 C42.62650829 87.90127706 43.9941374 84.65248385 45.8125 80.9375 C48.72467291 74.72997353 51.13266126 68.59793021 53 62 C53.30035156 60.96488281 53.60070312 59.92976563 53.91015625 58.86328125 C56.00769968 50.30725527 56.31095684 41.96912217 56.375 33.1875 C56.39578613 31.4703479 56.39578613 31.4703479 56.41699219 29.71850586 C56.37021578 21.24028242 55.83020836 12.63643553 50 6 C47.54412036 5.16643587 47.54412036 5.16643587 45 6 C31.02310895 24.65464087 28.81530114 47.65819233 26.69897461 70.09082031 C25.08201566 86.91798434 25.08201566 86.91798434 22 90 C19.25514407 90.14507695 16.61519457 90.18652423 13.875 90.125 C13.12089844 90.11597656 12.36679688 90.10695313 11.58984375 90.09765625 C9.72642746 90.0740687 7.86317407 90.03819719 6 90 C6 88.35 6 86.7 6 85 C5.34 85 4.68 85 4 85 C4.2165625 83.85273437 4.433125 82.70546875 4.65625 81.5234375 C6.82287572 68.80382814 7.33398418 56.24557907 7.375 43.375 C7.38623901 42.14701691 7.38623901 42.14701691 7.39770508 40.89422607 C7.81423976 22.7288709 7.81423976 22.7288709 0 7 C-2.62766389 6.03780298 -2.62766389 6.03780298 -5 6 C-11.34046324 17.54870089 -13.82136864 29.87272803 -15.6796875 42.77832031 C-15.96962098 44.78929186 -16.28046974 46.79722058 -16.59375 48.8046875 C-18.67280501 63.75553899 -18.66070604 78.92900362 -19 94 C-19.77851318 94.0417334 -20.55702637 94.0834668 -21.35913086 94.12646484 C-42.96057744 95.55468717 -60.70880541 108.76497972 -75.0625 124.25 C-81.62767396 131.9053762 -84.39036911 139.24129625 -87 149 C-87.18240234 149.64308105 -87.36480469 150.28616211 -87.55273438 150.94873047 C-89.3027281 157.73851929 -89.29642664 164.39552783 -89.25 171.375 C-89.25773437 172.53 -89.26546875 173.685 -89.2734375 174.875 C-89.23052508 193.88520103 -83.62510624 212.45311148 -69.9375 226.25 C-68.0130434 228.33191214 -67.07970388 229.3756529 -66.71875 232.203125 C-67.06520258 235.84087704 -68.04760415 239.16813 -69.04296875 242.68359375 C-73.0547551 258.79444805 -69.59114178 276.59665843 -61.89453125 291.015625 C-56.75378457 299.11362596 -50.46735825 306.70349356 -42.36328125 311.94921875 C-41.91339844 312.29597656 -41.46351562 312.64273437 -41 313 C-41 313.66 -41 314.32 -41 315 C-39.906875 315.28875 -38.81375 315.5775 -37.6875 315.875 C-34 317 -34 317 -31 319 C-2.63168717 327.7102707 47.9344724 326.20568129 74.66796875 312.84765625 C88.31607329 305.22311464 98.07442766 294.93874243 103 280 C103.66 280 104.32 280 105 280 C104.91792421 276.06172251 104.80519889 272.12486113 104.6875 268.1875 C104.66494141 267.08728516 104.64238281 265.98707031 104.61914062 264.85351562 C104.32079202 255.65895403 103.26827842 246.77698243 98 239 C98 238.34 98 237.68 98 237 C97.34 237 96.68 237 96 237 C96.33 235.68 96.66 234.36 97 233 C100 233 100 233 101.4296875 234.23046875 C107.59500055 242.57863588 108.9685347 253.03218603 111 263 C111.49751836 261.74298228 111.98841631 260.48334311 112.4765625 259.22265625 C112.75064941 258.52148682 113.02473633 257.82031738 113.30712891 257.09790039 C114.94747887 252.13118889 114.38307877 247.48100473 112.1953125 242.765625 C110.20364879 239.82369037 107.52027544 237.75582031 104.7421875 235.578125 C103 234 103 234 102 231 C103.75390625 230.33984375 103.75390625 230.33984375 106 230 C111.2769501 232.6961753 117.71440095 238.08551573 119.609375 243.85546875 C121.04925769 251.7604247 120.48342512 259.19136013 116 266 C115.15695312 266.77472656 114.31390625 267.54945313 113.4453125 268.34765625 C110.53662912 271.50260196 110.17866033 273.36401216 109.5625 277.5625 C107.25372571 289.76966571 101.78042789 298.35488693 93 307 C92.3503125 307.64839844 91.700625 308.29679687 91.03125 308.96484375 C85.43687434 314.20383899 78.63052416 318.64806981 71.23046875 320.80859375 C70.49441406 321.20175781 69.75835937 321.59492188 69 322 C68.14085432 324.66295944 68.14085432 324.66295944 68 327.75 C67.24011775 333.50438106 66.57268321 336.3219722 62 340 C58.08819507 341.37784222 55.11812642 341.43200339 51.25 339.9375 C46.53587596 335.87811541 44.8435665 332.04837184 44 326 C43.25016846 326.09087891 42.50033691 326.18175781 41.7277832 326.27539062 C38.25691651 326.69147854 34.78476831 327.09578208 31.3125 327.5 C30.13365234 327.64308594 28.95480469 327.78617187 27.74023438 327.93359375 C17.76654208 329.08125149 7.92434849 329.85256965 -2 328 C-2.15855469 328.59167969 -2.31710938 329.18335938 -2.48046875 329.79296875 C-4.01374357 334.98577242 -5.33244597 338.85447446 -10 342 C-13.20802343 342.82424262 -15.80221104 342.89515571 -19 342 C-22.94147191 339.00214319 -25.73967992 334.7892163 -27 330 C-27.125 327.1875 -27.125 327.1875 -27 325 C-28.60875 324.690625 -28.60875 324.690625 -30.25 324.375 C-41.02193446 321.61540548 -49.27775586 315.81641785 -57 308 C-57.95519531 307.07767578 -57.95519531 307.07767578 -58.9296875 306.13671875 C-66.67812877 298.09555859 -70.57560666 287.94552204 -73.4375 277.375 C-74.74937179 272.31764669 -74.74937179 272.31764669 -77.9453125 268.3125 C-80.02979919 267.3520181 -80.02979919 267.3520181 -82.12890625 266.671875 C-84 266 -84 266 -86.5 263.625 C-89.11756519 257.29921745 -89.15781979 250.12391992 -87.3046875 243.5234375 C-85.13272639 238.79622803 -81.9660648 235.31854402 -78 232 C-75.125 231.125 -75.125 231.125 -73 231 C-74.10021484 229.95972656 -74.10021484 229.95972656 -75.22265625 228.8984375 C-90.38152535 213.69154664 -96.21223202 191.42062859 -96.4375 170.625 C-96.40292952 160.50787347 -95.33015848 151.57420562 -92 142 C-91.71125 141.15953125 -91.4225 140.3190625 -91.125 139.453125 C-82.49569521 117.72576829 -62.98520984 102.38470079 -42.18359375 93.21875 C-35.93239974 90.82565487 -29.71462671 89 -23 89 C-23.11915771 87.95622192 -23.11915771 87.95622192 -23.24072266 86.89135742 C-24.07105343 78.61590853 -23.92347822 70.60334056 -23.375 62.3125 C-23.33154449 61.64413116 -23.28808899 60.97576233 -23.24331665 60.28713989 C-21.96872699 41.35523112 -19.96650432 18.14358504 -9 2 C-5.45870816 -0.36086122 -4.17249782 -0.57269578 0 0 Z " fill="#0C0B09" transform="translate(153,10)"/>
<path d="M0 0 C7.65747686 4.37570106 9.72072804 12.65047534 12.09375 20.71875 C13.27645931 25.66884696 13.54479451 30.61513077 13.75 35.6875 C13.79092773 36.68700684 13.83185547 37.68651367 13.87402344 38.71630859 C14.30281924 52.74942485 14.44121545 71.1175691 8 84 C13.445 84.495 13.445 84.495 19 85 C19.17015625 83.4015625 19.3403125 81.803125 19.515625 80.15625 C25.91169812 21.49782293 25.91169812 21.49782293 40.4375 2.875 C43.79787614 0.41618819 45.83341244 -0.14619605 50 0 C55.68416611 3.34362712 58.13319532 7.76235938 60 14 C65.21861965 39.11460707 59.93899354 66.01615839 49 89 C47.3203125 91.41015625 47.3203125 91.41015625 46 93 C44.68 92.67 43.36 92.34 42 92 C42.62650829 87.90127706 43.9941374 84.65248385 45.8125 80.9375 C48.72467291 74.72997353 51.13266126 68.59793021 53 62 C53.30035156 60.96488281 53.60070312 59.92976563 53.91015625 58.86328125 C56.00769968 50.30725527 56.31095684 41.96912217 56.375 33.1875 C56.39578613 31.4703479 56.39578613 31.4703479 56.41699219 29.71850586 C56.37021578 21.24028242 55.83020836 12.63643553 50 6 C47.54412036 5.16643587 47.54412036 5.16643587 45 6 C31.02310895 24.65464087 28.81530114 47.65819233 26.69897461 70.09082031 C25.08201566 86.91798434 25.08201566 86.91798434 22 90 C19.25514407 90.14507695 16.61519457 90.18652423 13.875 90.125 C13.12089844 90.11597656 12.36679688 90.10695313 11.58984375 90.09765625 C9.72642746 90.0740687 7.86317407 90.03819719 6 90 C6 88.35 6 86.7 6 85 C5.34 85 4.68 85 4 85 C4.2165625 83.85273437 4.433125 82.70546875 4.65625 81.5234375 C6.82287572 68.80382814 7.33398418 56.24557907 7.375 43.375 C7.38623901 42.14701691 7.38623901 42.14701691 7.39770508 40.89422607 C7.81423976 22.7288709 7.81423976 22.7288709 0 7 C-2.62766389 6.03780298 -2.62766389 6.03780298 -5 6 C-11.34046324 17.54870089 -13.82136864 29.87272803 -15.6796875 42.77832031 C-15.96962098 44.78929186 -16.28046974 46.79722058 -16.59375 48.8046875 C-18.67280501 63.75553899 -18.66070604 78.92900362 -19 94 C-19.77851318 94.0417334 -20.55702637 94.0834668 -21.35913086 94.12646484 C-42.96057744 95.55468717 -60.70880541 108.76497972 -75.0625 124.25 C-81.62767396 131.9053762 -84.39036911 139.24129625 -87 149 C-87.18240234 149.64308105 -87.36480469 150.28616211 -87.55273438 150.94873047 C-89.3027281 157.73851929 -89.29642664 164.39552783 -89.25 171.375 C-89.25773437 172.53 -89.26546875 173.685 -89.2734375 174.875 C-89.23350211 192.56637654 -84.19824405 207.58458943 -74 222 C-72.88818359 223.08087891 -72.88818359 223.08087891 -71.75390625 224.18359375 C-70 226 -70 226 -70 229 C-70.99 229.33 -71.98 229.66 -73 230 C-77.67229842 226.76581494 -80.64609033 223.09915039 -83.5 218.1875 C-83.88164307 217.5387793 -84.26328613 216.89005859 -84.65649414 216.22167969 C-92.78901165 201.93200253 -96.40049523 187.22123018 -96.375 170.8125 C-96.37338867 169.72259766 -96.37177734 168.63269531 -96.37011719 167.50976562 C-96.23366616 158.46118938 -94.97571871 150.55519128 -92 142 C-91.71125 141.15953125 -91.4225 140.3190625 -91.125 139.453125 C-82.49569521 117.72576829 -62.98520984 102.38470079 -42.18359375 93.21875 C-35.93239974 90.82565487 -29.71462671 89 -23 89 C-23.11915771 87.95622192 -23.11915771 87.95622192 -23.24072266 86.89135742 C-24.07105343 78.61590853 -23.92347822 70.60334056 -23.375 62.3125 C-23.33154449 61.64413116 -23.28808899 60.97576233 -23.24331665 60.28713989 C-21.96872699 41.35523112 -19.96650432 18.14358504 -9 2 C-5.45870816 -0.36086122 -4.17249782 -0.57269578 0 0 Z " fill="#0A0908" transform="translate(153,10)"/>
<path d="M0 0 C-1.15173355 2.46800047 -2.04783565 4.04783565 -4 6 C-4.64767793 8.57061311 -4.64767793 8.57061311 -5 11 C-4.01 11 -3.02 11 -2 11 C-1.95875 10.401875 -1.9175 9.80375 -1.875 9.1875 C-1 7 -1 7 1.75 5.125 C5 4 5 4 7.6875 4.625 C9.86515548 5.91982218 11.43054552 7.01753118 13 9 C13 9.66 13 10.32 13 11 C11.68 11.33 10.36 11.66 9 12 C9 12.66 9 13.32 9 14 C8.34 14.33 7.68 14.66 7 15 C7 15.99 7 16.98 7 18 C9.49361571 16.79618552 11.68143083 15.54571278 14 14 C16 14.0625 16 14.0625 18 15 C21.58271913 18.96658189 21.26056131 22.92930968 21.10546875 27.98828125 C21.07066406 28.65214844 21.03585938 29.31601562 21 30 C18.69 29.67 16.38 29.34 14 29 C15.3089572 32.12197478 15.3089572 32.12197478 18 34 C18.31136532 38.05482565 17.74771365 39.99116842 15.25 43.1875 C14.48429687 44.19876953 14.48429687 44.19876953 13.703125 45.23046875 C11.34443153 47.68112962 9.10215571 48.74807869 5.8125 49.5 C5.214375 49.665 4.61625 49.83 4 50 C3.505 50.99 3.505 50.99 3 52 C-0.04487932 53.95742242 -2.41163252 54.52512695 -6 54 C-8.8125 52 -8.8125 52 -11 50 C-11 50.66 -11 51.32 -11 52 C-13.53124683 53.5029278 -15.20745988 54.2006987 -18.11328125 53.46484375 C-20.1006077 52.70591802 -22.05333083 51.85785421 -24 51 C-23.34 48.36 -22.68 45.72 -22 43 C-22.99 43 -23.98 43 -25 43 C-25.66 44.32 -26.32 45.64 -27 47 C-30.36573933 45.55754029 -32.75010389 43.916532 -35 41 C-34.8125 38.5625 -34.8125 38.5625 -34 36 C-33.814375 35.071875 -33.62875 34.14375 -33.4375 33.1875 C-33.293125 32.465625 -33.14875 31.74375 -33 31 C-34.65 31 -36.3 31 -38 31 C-38.04241723 28.66705225 -38.04092937 26.33297433 -38 24 C-37 23 -37 23 -34.4375 22.9375 C-33.2309375 22.9684375 -33.2309375 22.9684375 -32 23 C-32.33 22.319375 -32.66 21.63875 -33 20.9375 C-34.24776118 17.27220154 -34.54069251 14.85243413 -34 11 C-32.29844728 8.61991398 -30.39008451 6.69039656 -28 5 C-27.34 5 -26.68 5 -26 5 C-25.34 6.65 -24.68 8.3 -24 10 C-23.01 10 -22.02 10 -21 10 C-20.979375 8.741875 -20.95875 7.48375 -20.9375 6.1875 C-20.64453125 3.98046875 -20.64453125 3.98046875 -20 2 C-14.74408349 -1.65628975 -5.89377829 -2.94688914 0 0 Z " fill="#FCFCFC" transform="translate(191,260)"/>
<path d="M0 0 C21.03121443 8.36725735 38.26449389 21.8380872 48.40625 42.46875 C53.09091342 53.36935186 54.57438136 64.24957678 55.03125 76.03125 C55.08410156 76.93230469 55.13695312 77.83335937 55.19140625 78.76171875 C55.91354842 99.51545672 48.56946639 120.85727849 35.5234375 136.8515625 C34.03125 138.03125 34.03125 138.03125 30.03125 138.03125 C30.03125 136.38125 30.03125 134.73125 30.03125 133.03125 C31.02125 132.70125 32.01125 132.37125 33.03125 132.03125 C33.73835678 130.38133418 34.39687656 128.7104738 35.03125 127.03125 C35.64871094 126.15597656 36.26617187 125.28070313 36.90234375 124.37890625 C39.31871458 120.57921855 40.72898309 116.90029235 42.15625 112.65625 C42.53330078 111.58117187 42.53330078 111.58117187 42.91796875 110.484375 C49.84290461 90.3984354 51.59221709 64.48512661 42.44140625 44.76953125 C35.80652401 31.88572945 27.33054952 20.68089976 14.03125 14.03125 C14.03125 13.37125 14.03125 12.71125 14.03125 12.03125 C13.3196875 11.92683594 12.608125 11.82242188 11.875 11.71484375 C8.70062921 10.95177385 6.37386066 9.69076615 3.53125 8.09375 C-2.06714324 5.19036492 -7.11400042 4.05102423 -13.3515625 3.35546875 C-15.96875 3.03125 -15.96875 3.03125 -17.96875 2.03125 C-17.59375 0.09375 -17.59375 0.09375 -16.96875 -1.96875 C-12.16419078 -4.37102961 -4.85154544 -1.58313588 0 0 Z " fill="#0C0C0A" transform="translate(218.96875,102.96875)"/>
<path d="M0 0 C1.12625197 3.37875592 0.57522996 4.52827283 -0.44824219 7.79736328 C-1.60445338 12.41299927 -1.76665724 17.20561327 -2.125 21.9375 C-2.21136719 23.00291016 -2.29773438 24.06832031 -2.38671875 25.16601562 C-2.59746345 27.77690827 -2.80171135 30.38813684 -3 33 C-6.20162702 32.40137646 -6.91936515 32.08735442 -9.25 29.5625 C-11.559586 24.86084278 -11.92930876 21.14694084 -11 16 C-8.90449994 11.16295638 -5.76317158 7.63340704 -2 4 C-0.76487921 1.86690808 -0.76487921 1.86690808 0 0 Z " fill="#DFD3B2" transform="translate(80,241)"/>
<path d="M0 0 C12.80782509 10.3447818 12.80782509 10.3447818 14 17 C14.64679183 23.4679183 12.60366614 28.22311575 10 34 C9.67 34 9.34 34 9 34 C8.82984375 32.97261719 8.6596875 31.94523437 8.484375 30.88671875 C6.63667094 16.86911348 6.63667094 16.86911348 0 5 C-0.125 2.375 -0.125 2.375 0 0 Z " fill="#ECDFBC" transform="translate(254,241)"/>
<path d="M0 0 C-0.42970565 5.3713206 -1.4033106 8.90377041 -5 13 C-7.75 13.375 -7.75 13.375 -10 13 C-10.66 11.68 -11.32 10.36 -12 9 C-12.66 9 -13.32 9 -14 9 C-14.33 6.69 -14.66 4.38 -15 2 C-12.6132527 0.80662635 -10.71678465 0.68305056 -8.0625 0.4375 C-7.18722656 0.35371094 -6.31195313 0.26992188 -5.41015625 0.18359375 C-3 0 -3 0 0 0 Z " fill="#E6D9B8" transform="translate(217,333)"/>
<path d="M0 0 C5.28 0.66 10.56 1.32 16 2 C13.57894737 10.47368421 13.57894737 10.47368421 10 13 C8.0625 13.125 8.0625 13.125 6 12 C1.59272199 7.59272199 1.09746773 6.58480637 0 0 Z " fill="#E4D8B6" transform="translate(130,335)"/>
<path d="M0 0 C0.99 0 1.98 0 3 0 C3.18175781 0.59167969 3.36351562 1.18335938 3.55078125 1.79296875 C4.96939671 6.25251375 6.53121748 10.00292355 9 14 C9 14.99 9 15.98 9 17 C6.29828286 16.92280808 4.55937051 16.5200634 2.5546875 14.65625 C-1.09776779 10.06459192 -1.59864022 6.78685542 -1 1 C-0.67 0.67 -0.34 0.34 0 0 Z " fill="#1A1916" transform="translate(150,266)"/>
<path d="M0 0 C1.32 0 2.64 0 4 0 C3.47035128 2.29514445 2.8404984 4.41869171 2 6.625 C0.6895454 11.04778427 0.34440047 15.4140359 0 20 C-1.32 19.67 -2.64 19.34 -4 19 C-4.28573751 11.99943109 -4.01476736 6.02215104 0 0 Z " fill="#161512" transform="translate(170,251)"/>
<path d="M0 0 C0 0.99 0 1.98 0 3 C-0.56847656 3.08636719 -1.13695312 3.17273438 -1.72265625 3.26171875 C-6.09758538 4.05782438 -9.31893844 4.94621058 -12.875 7.6875 C-13.90625 8.450625 -14.9375 9.21375 -16 10 C-16.99 9.67 -17.98 9.34 -19 9 C-18.67 7.68 -18.34 6.36 -18 5 C-17.34 5 -16.68 5 -16 5 C-16 4.34 -16 3.68 -16 3 C-11.37347931 -1.1479151 -5.81806416 -0.27510986 0 0 Z " fill="#262520" transform="translate(216,269)"/>
<path d="M0 0 C-0.33 0.66 -0.66 1.32 -1 2 C-5.78069758 3.52192244 -10.93216343 3.12565488 -15.89453125 3.09765625 C-16.84188644 3.0962413 -17.78924164 3.09482635 -18.76530457 3.09336853 C-21.78106895 3.08778611 -24.79675818 3.07523682 -27.8125 3.0625 C-29.86132705 3.05748273 -31.91015527 3.05292022 -33.95898438 3.04882812 C-38.97268506 3.03782243 -43.9863298 3.02056988 -49 3 C-49 2.67 -49 2.34 -49 2 C-43.46832831 1.71222296 -37.93651054 1.42750158 -32.40454102 1.14550781 C-30.52591798 1.04932541 -28.64733615 0.95233438 -26.76879883 0.85449219 C-24.05560795 0.71332271 -21.34227806 0.57514283 -18.62890625 0.4375 C-17.38615685 0.37187866 -17.38615685 0.37187866 -16.11830139 0.30493164 C-10.73842885 0.03570949 -5.38670036 -0.03778483 0 0 Z " fill="#5E594C" transform="translate(192,331)"/>
<path d="M0 0 C5.33443552 0.60964977 8.16591215 3.10266774 11.8125 6.875 C13.37965521 9.679383 13.21536726 11.84128011 13 15 C8.75196324 13.48284402 7.41464964 10.65856007 5 7 C4.0925 6.278125 3.185 5.55625 2.25 4.8125 C1.5075 4.214375 0.765 3.61625 0 3 C0 2.01 0 1.02 0 0 Z " fill="#21201B" transform="translate(205,289)"/>
<path d="M0 0 C0.99 0 1.98 0 3 0 C5.43425238 4.96993194 6.34615998 8.34605369 6 14 C4.0625 14.5625 4.0625 14.5625 2 15 C0.11713701 13.11713701 0.26586276 10.03235029 -0.125 7.5 C-0.31320313 6.3140625 -0.50140625 5.128125 -0.6953125 3.90625 C-0.84613281 2.46765625 -0.84613281 2.46765625 -1 1 C-0.67 0.67 -0.34 0.34 0 0 Z " fill="#2B2923" transform="translate(196,308)"/>
<path d="M0 0 C1.32 0.66 2.64 1.32 4 2 C4.34203764 6.27547053 4.21269922 8.59660493 2.1875 12.4375 C1.465625 13.283125 0.74375 14.12875 0 15 C-0.99 15 -1.98 15 -3 15 C-2.44854729 9.76119922 -1.57077907 5.02649303 0 0 Z " fill="#282621" transform="translate(180,310)"/>
<path d="M0 0 C0.99 0 1.98 0 3 0 C2.58311525 4.86365546 0.58780535 6.82938132 -3 10 C-3.639375 10.598125 -4.27875 11.19625 -4.9375 11.8125 C-7.70365208 13.40513301 -9.86597201 13.21368373 -13 13 C-13 12.34 -13 11.68 -13 11 C-12.01 11 -11.02 11 -10 11 C-10 10.34 -10 9.68 -10 9 C-9.0925 8.401875 -8.185 7.80375 -7.25 7.1875 C-3.920616 5.18397214 -3.920616 5.18397214 -1.8125 2.25 C-1.214375 1.5075 -0.61625 0.765 0 0 Z " fill="#1C1B17" transform="translate(166,303)"/>
<path d="M0 0 C0 0.99 0 1.98 0 3 C-1.36125 3.6496875 -1.36125 3.6496875 -2.75 4.3125 C-8.18436815 6.98188015 -8.18436815 6.98188015 -11 12 C-11.99 12 -12.98 12 -14 12 C-14.30828481 8.92246711 -14.37086783 7.48664637 -12.4609375 4.98046875 C-5.5389628 -0.96931849 -5.5389628 -0.96931849 0 0 Z " fill="#23211C" transform="translate(200,259)"/>
<path d="M0 0 C1.37478516 0.01740234 1.37478516 0.01740234 2.77734375 0.03515625 C3.69644531 0.04417969 4.61554688 0.05320312 5.5625 0.0625 C6.27277344 0.07410156 6.98304688 0.08570313 7.71484375 0.09765625 C7.33984375 2.03515625 7.33984375 2.03515625 6.71484375 4.09765625 C3.75819856 5.57597885 0.97254638 5.15798408 -2.28515625 5.09765625 C-2.84765625 3.16015625 -2.84765625 3.16015625 -3.28515625 1.09765625 C-2.28515625 0.09765625 -2.28515625 0.09765625 0 0 Z " fill="#1C1B17" transform="translate(150.28515625,290.90234375)"/>
<path d="M0 0 C1.31223496 3.93670488 0.24296256 6.12488144 -1 10 C-1.99 10 -2.98 10 -4 10 C-6.67398476 11.93897879 -6.67398476 11.93897879 -9 14 C-7.59347226 9.52468445 -5.3202902 7.23728294 -2 4 C-0.70480005 1.83379456 -0.70480005 1.83379456 0 0 Z " fill="#CCC1A3" transform="translate(80,241)"/>
<path d="M0 0 C0 0.99 0 1.98 0 3 C-2.97 3 -5.94 3 -9 3 C-7.14340032 -0.71319936 -3.69365381 -0.09982848 0 0 Z " fill="#171613" transform="translate(216,269)"/>
<path d="M0 0 C1.32 0 2.64 0 4 0 C3.67 1.32 3.34 2.64 3 4 C1.68 4.33 0.36 4.66 -1 5 C-0.67 3.35 -0.34 1.7 0 0 Z " fill="#2F2D26" transform="translate(170,251)"/>
<path d="M0 0 C0.99 0 1.98 0 3 0 C3.33 1.65 3.66 3.3 4 5 C3.01 4.34 2.02 3.68 1 3 C0.67 4.98 0.34 6.96 0 9 C-0.33 9 -0.66 9 -1 9 C-1.09765625 2.84765625 -1.09765625 2.84765625 -1 1 C-0.67 0.67 -0.34 0.34 0 0 Z " fill="#4E4A3F" transform="translate(150,266)"/>
<path d="M0 0 C1.5 1.125 1.5 1.125 3 3 C3.1875 6.1875 3.1875 6.1875 3 9 C2.67 9 2.34 9 2 9 C2 7.35 2 5.7 2 4 C1.01 4 0.02 4 -1 4 C-1.33 4.99 -1.66 5.98 -2 7 C-2 5.35 -2 3.7 -2 2 C-1.34 2 -0.68 2 0 2 C0 1.34 0 0.68 0 0 Z " fill="#534F44" transform="translate(83,237)"/>
</svg>
