<?xml version="1.0" encoding="UTF-8"?>
<svg version="1.1" xmlns="http://www.w3.org/2000/svg" width="360" height="360">
<path d="M0 0 C5.88724848 2.77156406 11.28172625 6.53005645 16 11 C16 11.66 16 12.32 16 13 C16.55042969 13.18820313 17.10085937 13.37640625 17.66796875 13.5703125 C21.06435497 15.65251913 23.03744415 18.68417834 25.3125 21.875 C25.76044922 22.48085937 26.20839844 23.08671875 26.66992188 23.7109375 C33.99289067 33.82015609 39.46088269 44.71062554 44.4375 56.125 C44.98316632 57.35441432 45.52938825 58.58358219 46.07617188 59.8125 C50 68.7217229 50 68.7217229 50 71 C50.99644531 71.12890625 51.99289063 71.2578125 53.01953125 71.390625 C74.81716068 74.52256271 93.43187504 83.47610267 109 99 C109.7425 99.71929687 110.485 100.43859375 111.25 101.1796875 C123.90851249 114.28322582 129.35702778 132.10393999 130 150 C130.0515625 150.88171875 130.103125 151.7634375 130.15625 152.671875 C130.79480363 171.9349095 126.34917311 192.0045755 114 207 C114.7425 207.61875 115.485 208.2375 116.25 208.875 C120.89099868 213.55566534 123.12608492 220.13504173 123.6875 226.625 C123.44575565 231.32651072 121.29952312 234.04911738 118.07421875 237.33984375 C114.47049941 240.22417656 110.58942176 241.74303448 105.953125 242.203125 C102.84937611 243.46945455 102.31687167 245.83856058 100.9375 248.8125 C92.2847024 266.14690585 75.53091857 278.51215437 58 286 C54.9921875 286.75 54.9921875 286.75 53 287 C53.33 287.99 53.66 288.98 54 290 C54.47141663 294.9923794 54.59468615 299.48355032 52.75 304.1875 C48.8631632 306.7492788 45.65330863 306.80152908 41.05859375 306.6328125 C36.11861808 305.61074857 33.15252672 302.81758031 30 299 C29.67 298.34 29.34 297.68 29 297 C27.52076554 297.14514409 26.04161704 297.29116422 24.5625 297.4375 C23.6446875 297.52773438 22.726875 297.61796875 21.78125 297.7109375 C19.36911615 297.9616368 16.9681248 298.25743888 14.5625 298.5625 C4.05874418 299.71535125 -6.49778667 298.73792214 -17 298 C-17.45375 299.11375 -17.9075 300.2275 -18.375 301.375 C-20 305 -20 305 -22 307 C-27.42221348 307.75910989 -30.59179049 306.60471988 -34.953125 303.62109375 C-39.62223557 299.92322946 -43.69354251 295.735209 -47.2734375 290.98046875 C-50.13394642 287.52408831 -53.39072008 286.02780443 -57.4375 284.25 C-73.33020866 276.73981549 -86.37354449 266.89244152 -93 250 C-97.25757841 237.21009711 -97.25784077 225.08011546 -91.96875 212.55859375 C-88.90212958 206.60147637 -84.12188844 199.06094422 -78 196 C-78.96932462 194.03971406 -79.94870175 192.09357923 -81 190.17578125 C-83.67439042 185.19263972 -85.09723373 180.56839021 -86 175 C-86.19722656 173.82308594 -86.39445312 172.64617187 -86.59765625 171.43359375 C-90.17066634 148.22926368 -84.59816379 127.54922014 -71.25 108.25 C-58.26108958 91.42001101 -41.59576645 79.75842987 -21 74 C-21.62455078 73.39115967 -22.24910156 72.78231934 -22.89257812 72.1550293 C-25.2547627 69.84464318 -27.60952312 67.52714755 -29.95996094 65.20483398 C-30.96954388 64.21013551 -31.98182599 63.21816754 -32.99707031 62.22924805 C-43.60286936 51.89121918 -56.76255291 38.727012 -57.375 23.0625 C-57.30410955 19.59393174 -57.21312721 18.31969081 -55.25 15.375 C-49.4049805 12.90210714 -43.39184915 12.91600697 -37.34765625 14.84765625 C-16.46876844 24.57794362 0.88516956 49.77033913 11 70 C12.32 69.67 13.64 69.34 15 69 C14.28714844 68.11699219 13.57429688 67.23398438 12.83984375 66.32421875 C5.07227257 56.62800654 -1.67306942 46.84542362 -7.3125 35.75 C-7.65047607 35.08822754 -7.98845215 34.42645508 -8.33666992 33.74462891 C-11.65012295 27.05059794 -13.29829162 20.90776267 -13.375 13.375 C-13.40335937 12.10398437 -13.43171875 10.83296875 -13.4609375 9.5234375 C-12.92931396 5.45967113 -11.86514679 3.86514679 -9 1 C-5.94606227 -0.52696886 -3.2898293 -0.63985671 0 0 Z " fill="#FBEDC8" transform="translate(171,44)"/>
<path d="M0 0 C5.88724848 2.77156406 11.28172625 6.53005645 16 11 C16 11.66 16 12.32 16 13 C16.55042969 13.18820313 17.10085937 13.37640625 17.66796875 13.5703125 C21.06435497 15.65251913 23.03744415 18.68417834 25.3125 21.875 C25.76044922 22.48085937 26.20839844 23.08671875 26.66992188 23.7109375 C33.99289067 33.82015609 39.46088269 44.71062554 44.4375 56.125 C44.98316632 57.35441432 45.52938825 58.58358219 46.07617188 59.8125 C50 68.7217229 50 68.7217229 50 71 C50.99644531 71.12890625 51.99289063 71.2578125 53.01953125 71.390625 C74.81716068 74.52256271 93.43187504 83.47610267 109 99 C109.7425 99.71929687 110.485 100.43859375 111.25 101.1796875 C123.90851249 114.28322582 129.35702778 132.10393999 130 150 C130.0515625 150.88171875 130.103125 151.7634375 130.15625 152.671875 C130.79480363 171.9349095 126.34917311 192.0045755 114 207 C114.7425 207.61875 115.485 208.2375 116.25 208.875 C120.89099868 213.55566534 123.12608492 220.13504173 123.6875 226.625 C123.44575565 231.32651072 121.29952312 234.04911738 118.07421875 237.33984375 C114.47049941 240.22417656 110.58942176 241.74303448 105.953125 242.203125 C102.84937611 243.46945455 102.31687167 245.83856058 100.9375 248.8125 C92.2847024 266.14690585 75.53091857 278.51215437 58 286 C54.9921875 286.75 54.9921875 286.75 53 287 C53.33 287.99 53.66 288.98 54 290 C54.47141663 294.9923794 54.59468615 299.48355032 52.75 304.1875 C48.8631632 306.7492788 45.65330863 306.80152908 41.05859375 306.6328125 C36.11861808 305.61074857 33.15252672 302.81758031 30 299 C29.67 298.34 29.34 297.68 29 297 C27.52076554 297.14514409 26.04161704 297.29116422 24.5625 297.4375 C23.6446875 297.52773438 22.726875 297.61796875 21.78125 297.7109375 C19.36911615 297.9616368 16.9681248 298.25743888 14.5625 298.5625 C4.05874418 299.71535125 -6.49778667 298.73792214 -17 298 C-17.45375 299.11375 -17.9075 300.2275 -18.375 301.375 C-20 305 -20 305 -22 307 C-27.42221348 307.75910989 -30.59179049 306.60471988 -34.953125 303.62109375 C-39.62223557 299.92322946 -43.69354251 295.735209 -47.2734375 290.98046875 C-50.13394642 287.52408831 -53.39072008 286.02780443 -57.4375 284.25 C-73.33020866 276.73981549 -86.37354449 266.89244152 -93 250 C-97.25757841 237.21009711 -97.25784077 225.08011546 -91.96875 212.55859375 C-88.90212958 206.60147637 -84.12188844 199.06094422 -78 196 C-78.96932462 194.03971406 -79.94870175 192.09357923 -81 190.17578125 C-83.67439042 185.19263972 -85.09723373 180.56839021 -86 175 C-86.19722656 173.82308594 -86.39445312 172.64617187 -86.59765625 171.43359375 C-90.17066634 148.22926368 -84.59816379 127.54922014 -71.25 108.25 C-58.26108958 91.42001101 -41.59576645 79.75842987 -21 74 C-21.62455078 73.39115967 -22.24910156 72.78231934 -22.89257812 72.1550293 C-25.2547627 69.84464318 -27.60952312 67.52714755 -29.95996094 65.20483398 C-30.96954388 64.21013551 -31.98182599 63.21816754 -32.99707031 62.22924805 C-43.60286936 51.89121918 -56.76255291 38.727012 -57.375 23.0625 C-57.30410955 19.59393174 -57.21312721 18.31969081 -55.25 15.375 C-49.4049805 12.90210714 -43.39184915 12.91600697 -37.34765625 14.84765625 C-16.46876844 24.57794362 0.88516956 49.77033913 11 70 C12.32 69.67 13.64 69.34 15 69 C14.28714844 68.11699219 13.57429688 67.23398438 12.83984375 66.32421875 C5.07227257 56.62800654 -1.67306942 46.84542362 -7.3125 35.75 C-7.65047607 35.08822754 -7.98845215 34.42645508 -8.33666992 33.74462891 C-11.65012295 27.05059794 -13.29829162 20.90776267 -13.375 13.375 C-13.40335937 12.10398437 -13.43171875 10.83296875 -13.4609375 9.5234375 C-12.92931396 5.45967113 -11.86514679 3.86514679 -9 1 C-5.94606227 -0.52696886 -3.2898293 -0.63985671 0 0 Z M-8 7 C-10.64459384 23.09026565 -2.38569538 37.4410127 6.54492188 49.99560547 C10.24580057 55.09362797 14.05992879 60.08369011 18 65 C19.03833984 66.35351562 19.03833984 66.35351562 20.09765625 67.734375 C21.97616483 70.18670786 21.97616483 70.18670786 25 72 C25.33 72.99 25.66 73.98 26 75 C24.82244141 74.98259766 24.82244141 74.98259766 23.62109375 74.96484375 C17.96280225 74.91624493 12.57121122 74.98705251 7 76 C7.08894531 75.30519531 7.17789063 74.61039062 7.26953125 73.89453125 C6.90620237 69.99269502 5.00568444 67.69585065 2.6875 64.6875 C1.76382315 63.44795524 0.84201855 62.20701362 -0.078125 60.96484375 C-0.55958984 60.3188623 -1.04105469 59.67288086 -1.53710938 59.00732422 C-3.49301806 56.32349892 -5.33473079 53.5699211 -7.18066406 50.80981445 C-14.48509941 39.92155986 -22.33232719 30.76807047 -33 23 C-33.58265625 22.54367188 -34.1653125 22.08734375 -34.765625 21.6171875 C-40.0456072 17.95195714 -45.87909677 18.63817321 -52 19 C-53.16388407 29.24217984 -47.38780635 37.99664572 -41.51025391 45.9140625 C-37.17359615 51.24525819 -32.34341055 56.06311386 -27.45288086 60.88330078 C-25.66387354 62.64830952 -23.88898945 64.42670761 -22.11523438 66.20703125 C-20.97735813 67.33934177 -19.83871488 68.47088216 -18.69921875 69.6015625 C-18.17108078 70.13061188 -17.64294281 70.65966125 -17.09880066 71.20474243 C-14.73855346 73.51949257 -13.1817199 74.9394267 -10 76 C-10 76.99 -10 77.98 -10 79 C-11.45019531 79.03867188 -11.45019531 79.03867188 -12.9296875 79.078125 C-20.96996486 79.42839451 -27.78006489 80.20771085 -35 84 C-35.80695313 84.4228125 -36.61390625 84.845625 -37.4453125 85.28125 C-53.81963641 94.52068042 -65.37523365 107.57282874 -74 124 C-74.40992188 124.69480469 -74.81984375 125.38960938 -75.2421875 126.10546875 C-83.72712211 141.00343534 -84.30888675 160.91812112 -79.921875 177.12109375 C-77.36851302 185.88264159 -77.36851302 185.88264159 -72 193 C-70.1746875 192.2575 -70.1746875 192.2575 -68.3125 191.5 C-65.07513262 190.27520559 -62.49900643 189.67196815 -59 190 C-58.67 190.99 -58.34 191.98 -58 193 C-58.7734375 193.14695313 -59.546875 193.29390625 -60.34375 193.4453125 C-71.94705376 195.94404376 -78.55289833 201.06753626 -85 211 C-90.43634698 221.13137392 -91.47225793 232.39103411 -89.5390625 243.6953125 C-85.55713882 256.76539141 -76.54016905 267.12234507 -65 274 C-64.02289063 274.58910156 -63.04578125 275.17820312 -62.0390625 275.78515625 C-57.68154526 278.37003109 -53.42581726 280.85582205 -48.75 282.8125 C-43.4410855 285.35106619 -40.43164307 290.39966287 -37 295 C-34.00239024 298.67207196 -32.31182803 300.19700275 -27.6875 300.8125 C-26.470625 300.874375 -25.25375 300.93625 -24 301 C-23.67 299.35 -23.34 297.7 -23 296 C-24.5811292 295.49307308 -26.16501383 294.99473557 -27.75 294.5 C-29.07257813 294.08234375 -29.07257813 294.08234375 -30.421875 293.65625 C-33.20267529 292.83554715 -33.20267529 292.83554715 -37 293 C-37 291.68 -37 290.36 -37 289 C-30.73521448 289.97528712 -24.59213478 291.0954029 -18.4375 292.625 C-5.67408648 295.38617997 7.08167947 294.74022312 19.703125 291.65625 C23.98532643 290.80386867 28.08866594 290.43176555 32.3125 291.6875 C34 293 34 293 34.9375 295.4375 C35.83288289 298.14267958 35.83288289 298.14267958 38.1875 299.875 C41.81256003 301.32502401 44.23696384 300.81163525 48 300 C48.91692961 297.24921116 49.10886083 295.64051087 49.0625 292.8125 C49.0315625 290.9253125 49.0315625 290.9253125 49 289 C48.34 289 47.68 289 47 289 C47.33 286.69 47.66 284.38 48 282 C49.216875 281.731875 50.43375 281.46375 51.6875 281.1875 C55.24904675 280.30338364 57.9074705 279.00596508 61 277 C61.77601563 276.69320313 62.55203125 276.38640625 63.3515625 276.0703125 C78.00743999 270.14743576 91.26068441 258.35767235 98 244 C96.66195697 239.98587091 94.47584633 239.26994046 91 237 C88.90259164 233.85388747 88.74671781 233.08811922 88.8125 229.5 C88.82216797 228.33984375 88.82216797 228.33984375 88.83203125 227.15625 C89 225 89 225 90 222 C91.9375 220.875 91.9375 220.875 94 220 C94.66 219.67 95.32 219.34 96 219 C97.49756871 218.90500497 98.99942932 218.87012802 100.5 218.875 C101.69109375 218.87113281 101.69109375 218.87113281 102.90625 218.8671875 C105 219 105 219 107 220 C107 220.99 107 221.98 107 223 C106.22914063 223.04898438 105.45828125 223.09796875 104.6640625 223.1484375 C103.15972656 223.26058594 103.15972656 223.26058594 101.625 223.375 C100.62726563 223.44460938 99.62953125 223.51421875 98.6015625 223.5859375 C95.84491121 223.76363964 95.84491121 223.76363964 94 226 C93.46189243 230.59661927 93.46189243 230.59661927 95.19140625 234.6953125 C98.88324575 237.35854013 103.67324454 236.55595182 108 236 C110.79980839 234.97273217 112.54258543 233.79186479 115 232 C115.9590625 231.38125 115.9590625 231.38125 116.9375 230.75 C118.81773325 227.65314523 118.5528906 224.44635143 118 221 C116.23795594 215.7612346 113.80162854 211.92782228 109 209 C106.31492671 208.21053391 106.31492671 208.21053391 104 208 C104 207.01 104 206.02 104 205 C105.03125 204.67 106.0625 204.34 107.125 204 C114.72137582 200.62213469 117.48513264 193.3976109 120.3125 186.0625 C120.69450562 185.07890503 120.69450562 185.07890503 121.08422852 184.07543945 C124.48776448 174.68121633 124.18223712 165.00869702 124.1875 155.125 C124.19974609 153.92230469 124.21199219 152.71960938 124.22460938 151.48046875 C124.24265311 140.401616 123.01113544 130.92034948 118 121 C117.67128906 120.2059375 117.34257812 119.411875 117.00390625 118.59375 C109.83802353 102.99327089 93.61041986 89.29970952 77.70898438 83.10791016 C69.79705527 80.2554515 62.08807556 78.1309114 53.75 77 C49.77493149 76.12951031 48.40653563 75.52819406 45.8984375 72.26953125 C44.3344236 69.22073764 42.99580206 66.22606523 41.77832031 63.03076172 C40.46280343 59.59836856 38.97185313 56.24258702 37.5 52.875 C37.2100415 52.20162598 36.92008301 51.52825195 36.62133789 50.83447266 C32.06294012 40.36478025 25.98009517 31.01421472 19 22 C18.44699219 21.27941406 17.89398438 20.55882812 17.32421875 19.81640625 C12.26235258 13.61894242 5.10083622 6.32360872 -3.0625 4.875 C-6.12447731 4.67354064 -6.12447731 4.67354064 -8 7 Z " fill="#0B0A09" transform="translate(171,44)"/>
<path d="M0 0 C0.89203125 0.10183594 1.7840625 0.20367187 2.703125 0.30859375 C3.37859375 0.39238281 4.0540625 0.47617188 4.75 0.5625 C4.14009109 4.12030196 3.1716319 7.2453589 1.75 10.5625 C5.40316671 9.31273244 6.53065836 8.89151247 8.75 5.5625 C11 4.625 11 4.625 13.75 4.5625 C17.0625 6.5 17.0625 6.5 19.75 8.5625 C19.42 9.5525 19.09 10.5425 18.75 11.5625 C17.76 11.5625 16.77 11.5625 15.75 11.5625 C15.75 13.2125 15.75 14.8625 15.75 16.5625 C18.72 16.2325 21.69 15.9025 24.75 15.5625 C27.13948428 19.14672642 27.71014208 22.32958883 27.75 26.5625 C26.8125 30.0625 26.8125 30.0625 25.75 32.5625 C26.41 32.5625 27.07 32.5625 27.75 32.5625 C27.28199289 36.61856165 26.87046792 40.02838679 24.75 43.5625 C24.09 43.5625 23.43 43.5625 22.75 43.5625 C22.42 44.5525 22.09 45.5425 21.75 46.5625 C19.11 46.5625 16.47 46.5625 13.75 46.5625 C13.75 48.2125 13.75 49.8625 13.75 51.5625 C10.24223216 53.16605101 7.60645121 53.78286864 3.75 53.5625 C3.42 51.9125 3.09 50.2625 2.75 48.5625 C1.76 48.5625 0.77 48.5625 -0.25 48.5625 C-0.91 50.5425 -1.57 52.5225 -2.25 54.5625 C-8.32328688 55.06860724 -12.02228537 53.60407942 -17.25 50.5625 C-16.62065798 47.21324302 -16.02649465 46.29538385 -13.6875 43.5 C-10.93071377 40.8139038 -10.93071377 40.8139038 -11.25 37.5625 C-14.84905908 38.11800695 -16.24909799 39.31137248 -18.5 42.125 C-19.28117187 43.08599609 -19.28117187 43.08599609 -20.078125 44.06640625 C-20.46484375 44.56011719 -20.8515625 45.05382812 -21.25 45.5625 C-25.48973563 44.74648394 -26.80639982 43.14644692 -29.25 39.5625 C-30.5 36.75 -30.5 36.75 -31.25 34.5625 C-29.6 34.5625 -27.95 34.5625 -26.25 34.5625 C-25.92 33.5725 -25.59 32.5825 -25.25 31.5625 C-24.59 31.5625 -23.93 31.5625 -23.25 31.5625 C-23.25 30.2425 -23.25 28.9225 -23.25 27.5625 C-24.178125 27.748125 -25.10625 27.93375 -26.0625 28.125 C-29.25 28.5625 -29.25 28.5625 -32.25 27.5625 C-31.59 24.5925 -30.93 21.6225 -30.25 18.5625 C-29.5075 18.8925 -28.765 19.2225 -28 19.5625 C-25.11116688 20.79032871 -25.11116688 20.79032871 -21.25 20.5625 C-21.52617533 18.62175139 -21.52617533 18.62175139 -22.25 16.5625 C-23.24 15.9025 -24.23 15.2425 -25.25 14.5625 C-24.77379711 10.18596871 -23.58100111 8.49711995 -20.1875 5.75 C-19.45402344 5.14542969 -18.72054687 4.54085937 -17.96484375 3.91796875 C-17.39894531 3.47066406 -16.83304688 3.02335938 -16.25 2.5625 C-15.59 3.8825 -14.93 5.2025 -14.25 6.5625 C-12.93 6.5625 -11.61 6.5625 -10.25 6.5625 C-9.92 4.5825 -9.59 2.6025 -9.25 0.5625 C-5.98086376 -0.46865279 -3.38958652 -0.4013984 0 0 Z " fill="#FCFCFB" transform="translate(119.25,247.4375)"/>
<path d="M0 0 C-0.847126 5.36513131 -1.91681831 10.6787385 -3 16 C-4.65 16.33 -6.3 16.66 -8 17 C-8.66 15.68 -9.32 14.36 -10 13 C-11.3218362 14.07192184 -12.63217927 15.15802695 -13.9375 16.25 C-14.66839844 16.85328125 -15.39929688 17.4565625 -16.15234375 18.078125 C-18.10326334 20.10741134 -18.61731779 21.254407 -19 24 C-18.360625 24.2475 -17.72125 24.495 -17.0625 24.75 C-15 26 -15 26 -14.25 28.125 C-14.12625 29.053125 -14.12625 29.053125 -14 30 C-15.65 30.33 -17.3 30.66 -19 31 C-20.36946622 29.26194659 -21.72015954 27.50908767 -23.0625 25.75 C-23.81660156 24.77546875 -24.57070312 23.8009375 -25.34765625 22.796875 C-27 20 -27 20 -26.90625 17.8828125 C-23.24524769 10.2767646 -17.19820977 4.08843032 -9.3359375 0.9296875 C-2.50856766 -1.25428383 -2.50856766 -1.25428383 0 0 Z " fill="#E7DAB9" transform="translate(113,238)"/>
<path d="M0 0 C1.32 0.33 2.64 0.66 4 1 C2.96562783 7.08374159 -1.96377439 11.43731523 -6.6875 15.0625 C-9.30624846 16.12415478 -10.41508908 16.05311186 -13 15 C-12.875 13.25 -12.875 13.25 -12 11 C-10.00715862 9.6559907 -8.00580329 8.32458708 -6 7 C-3.86646728 4.77014527 -1.91563743 2.41832243 0 0 Z " fill="#201F1B" transform="translate(105,284)"/>
<path d="M0 0 C-0.125 2.25 -0.125 2.25 -1 5 C-2.95890881 6.39300182 -4.9639118 7.72245446 -7 9 C-7.70125 9.9075 -8.4025 10.815 -9.125 11.75 C-10.053125 12.86375 -10.053125 12.86375 -11 14 C-12.32 14 -13.64 14 -15 14 C-14.49105164 8.2319186 -11.08059516 4.95055796 -7 1.125 C-4.52359407 -0.26797834 -2.79734081 -0.23311173 0 0 Z " fill="#1E1C18" transform="translate(136,244)"/>
<path d="M0 0 C-1 5 -2 10 -3 15 C-4.65614657 15.38218767 -6.32457024 15.71395102 -8 16 C-9 15 -9 15 -9.3125 11.3125 C-9.2728859 6.90741205 -7.82854952 4.41089795 -5 1 C-3 0 -3 0 0 0 Z " fill="#292823" transform="translate(113,239)"/>
<path d="M0 0 C0.66 1.65 1.32 3.3 2 5 C-3.94 5.33 -9.88 5.66 -16 6 C-16 4.68 -16 3.36 -16 2 C-10.42932723 0.40837921 -5.78898419 -0.20674944 0 0 Z " fill="#131210" transform="translate(151,257)"/>
<path d="M0 0 C1.65 0 3.3 0 5 0 C5.0825 0.94875 5.165 1.8975 5.25 2.875 C5.4975 3.90625 5.745 4.9375 6 6 C7.96672915 7.1500831 7.96672915 7.1500831 10 8 C10.75 10.125 10.75 10.125 11 12 C9.35 12.33 7.7 12.66 6 13 C4.98528829 11.78294994 3.9887539 10.55073116 3 9.3125 C2.443125 8.62800781 1.88625 7.94351562 1.3125 7.23828125 C-0.22741897 4.61216944 -0.25168194 2.99396644 0 0 Z " fill="#181613" transform="translate(88,256)"/>
<path d="M0 0 C0.33 1.32 0.66 2.64 1 4 C2.2375 4.185625 2.2375 4.185625 3.5 4.375 C7.39772067 5.07102155 11.16739669 6.00880949 15 7 C14.67 8.65 14.34 10.3 14 12 C9.63549987 12 7.15454335 11.92246453 3.6875 9.15234375 C1.71623154 7.15643444 -0.17538865 5.1303308 -2 3 C-1.34 2.67 -0.68 2.34 0 2 C0 1.34 0 0.68 0 0 Z " fill="#D7CBAC" transform="translate(133,333)"/>
<path d="M0 0 C0.99 0 1.98 0 3 0 C3.2358396 5.77807024 2.86783046 10.51324804 1 16 C-0.32 15.67 -1.64 15.34 -3 15 C-2.69257097 12.68682039 -2.37892298 10.37446648 -2.0625 8.0625 C-1.88847656 6.77472656 -1.71445313 5.48695313 -1.53515625 4.16015625 C-1 1 -1 1 0 0 Z " fill="#151411" transform="translate(119,295)"/>
<path d="M0 0 C1.32 0 2.64 0 4 0 C4 0.66 4 1.32 4 2 C4.5775 2.268125 5.155 2.53625 5.75 2.8125 C8.09634823 4.05085045 10.05207752 5.19121484 12 7 C12 8.32 12 9.64 12 11 C7.17026437 10.56093312 3.36735013 8.43393615 0 5 C-0.4375 2.1875 -0.4375 2.1875 0 0 Z " fill="#22211C" transform="translate(145,275)"/>
<path d="M0 0 C2.475 0.495 2.475 0.495 5 1 C6.17571451 4.67410785 6.07366746 8.16929183 6 12 C4.68 12.33 3.36 12.66 2 13 C0.21590198 9.93753253 -0.22880021 7.77920727 -0.125 4.25 C-0.10695312 3.45078125 -0.08890625 2.6515625 -0.0703125 1.828125 C-0.04710937 1.22484375 -0.02390625 0.6215625 0 0 Z " fill="#2B2923" transform="translate(134,294)"/>
<path d="M0 0 C0 1.32 0 2.64 0 4 C-3.22791555 6.1519437 -4.28400809 6.20086443 -8 6 C-8.66 4.68 -9.32 3.36 -10 2 C-6.38026598 0.68373308 -3.90432869 0 0 0 Z " fill="#25231E" transform="translate(96,275)"/>
<path d="M0 0 C1.4370809 -0.05422947 2.87475462 -0.09289723 4.3125 -0.125 C5.11300781 -0.14820313 5.91351563 -0.17140625 6.73828125 -0.1953125 C9 0 9 0 12 2 C11.67 3.32 11.34 4.64 11 6 C8.03 6 5.06 6 2 6 C2 5.34 2 4.68 2 4 C4.64 4 7.28 4 10 4 C10 3.34 10 2.68 10 2 C6.7 1.67 3.4 1.34 0 1 C0 0.67 0 0.34 0 0 Z " fill="#4F4A3F" transform="translate(267,262)"/>
<path d="M0 0 C0.33 0.99 0.66 1.98 1 3 C-1.64 5.64 -4.28 8.28 -7 11 C-7 7.22089522 -6.00296038 6.53893899 -3.5 3.8125 C-2.8503125 3.09707031 -2.200625 2.38164062 -1.53125 1.64453125 C-1.0259375 1.10183594 -0.520625 0.55914062 0 0 Z " fill="#C2B79B" transform="translate(113,145)"/>
<path d="M0 0 C0.66 0.33 1.32 0.66 2 1 C1.67 2.32 1.34 3.64 1 5 C-1.4375 4.625 -1.4375 4.625 -4 4 C-4.33 3.34 -4.66 2.68 -5 2 C-3.68 2 -2.36 2 -1 2 C-0.67 1.34 -0.34 0.68 0 0 Z " fill="#4C4940" transform="translate(97,264)"/>
</svg>
