<?xml version="1.0" encoding="UTF-8"?>
<svg version="1.1" xmlns="http://www.w3.org/2000/svg" width="360" height="360">
<path d="M0 0 C2.20598802 2.80586196 1.91967862 5.33309623 1.828125 8.796875 C0.64289676 15.78595896 -3.31744697 22.19089517 -7.6640625 27.69921875 C-7.18839844 27.23773438 -6.71273437 26.77625 -6.22265625 26.30078125 C5.49970108 15.37718492 20.21478749 4.68949422 36.6484375 3.44921875 C42.07160742 3.81689129 46.6359749 4.78676083 50.3359375 8.94921875 C52.32863319 14.42913188 51.70068029 18.42789342 49.3359375 23.63671875 C41.77555834 37.51841493 27.07596142 44.16342359 13.3359375 50.69921875 C14.11195313 50.88355469 14.88796875 51.06789062 15.6875 51.2578125 C29.61689328 54.99780473 40.05381274 62.73261046 50.3359375 72.69921875 C51.25246094 73.50552734 51.25246094 73.50552734 52.1875 74.328125 C64.96783231 85.97048252 71.89227305 102.79631416 73.3359375 119.69921875 C73.408125 120.52808594 73.4803125 121.35695313 73.5546875 122.2109375 C73.89077147 130.4589982 71.90588345 138.64390084 70.3359375 146.69921875 C71.6559375 147.02921875 72.9759375 147.35921875 74.3359375 147.69921875 C74.1709375 148.31796875 74.0059375 148.93671875 73.8359375 149.57421875 C73.25959106 151.65985261 73.25959106 151.65985261 73.3359375 153.69921875 C78.26087177 159.01927669 83.12597233 160.40261691 90.2109375 160.69140625 C91.2628125 160.69527344 91.2628125 160.69527344 92.3359375 160.69921875 C92.0059375 162.34921875 91.6759375 163.99921875 91.3359375 165.69921875 C89.3559375 165.69921875 87.3759375 165.69921875 85.3359375 165.69921875 C85.68527344 166.50746094 86.03460938 167.31570312 86.39453125 168.1484375 C86.84957031 169.21707031 87.30460938 170.28570312 87.7734375 171.38671875 C88.22589844 172.44246094 88.67835938 173.49820313 89.14453125 174.5859375 C90.19041205 177.31894404 90.87114498 179.81964212 91.3359375 182.69921875 C92.9859375 183.02921875 94.6359375 183.35921875 96.3359375 183.69921875 C95.96074633 206.71525645 95.96074633 206.71525645 91.3359375 216.69921875 C90.975 217.49199219 90.6140625 218.28476562 90.2421875 219.1015625 C81.76611117 235.8532674 65.47623121 244.8667577 48.3359375 250.69921875 C46.71159278 251.13914544 45.08669808 251.5770536 43.4609375 252.01171875 C38.68028806 253.51293203 36.01039839 256.81602 32.66796875 260.41015625 C27.06191574 265.91291515 18.87433893 270.9326976 10.8359375 271.07421875 C7.61527876 270.98296675 6.28276857 270.6715266 3.3359375 269.13671875 C0.79223107 266.03657654 0.77523442 263.62085897 0.3359375 259.69921875 C-4.35834706 259.40601735 -9.05236674 259.15534553 -13.75097656 258.94238281 C-15.34597749 258.86427876 -16.94047272 258.77495333 -18.53417969 258.67382812 C-29.03894224 257.66477139 -29.03894224 257.66477139 -38.44921875 261.51171875 C-39.53988195 262.55465588 -40.61451936 263.61491102 -41.6640625 264.69921875 C-47.75201398 268.55462249 -53.38637707 271.0993068 -60.6640625 269.69921875 C-64.2265625 268.44921875 -64.2265625 268.44921875 -66.6640625 265.69921875 C-67.56009279 259.91941979 -67.43800262 254.88020512 -64.6640625 249.69921875 C-65.27572266 249.53703857 -65.88738281 249.3748584 -66.51757812 249.20776367 C-72.81147476 247.44347417 -78.41347754 245.10185915 -84.1640625 242.01171875 C-84.99067383 241.57110107 -85.81728516 241.1304834 -86.66894531 240.67651367 C-92.89378303 237.28153768 -98.45648002 233.53920717 -103.6640625 228.69921875 C-104.58832031 227.87550781 -104.58832031 227.87550781 -105.53125 227.03515625 C-109.14375529 223.64742906 -111.68175483 220.12113587 -114.3515625 215.94921875 C-117.45877455 211.49473897 -119.53312968 209.95829634 -124.8515625 208.82421875 C-125.87507813 208.64890625 -126.89859375 208.47359375 -127.953125 208.29296875 C-131.74274181 207.46296622 -133.39316667 205.77591632 -135.6640625 202.69921875 C-136.5303125 201.55453125 -136.5303125 201.55453125 -137.4140625 200.38671875 C-139.90963275 195.02124271 -140.17269745 190.58208544 -138.4765625 185.01171875 C-137.10916013 181.31019232 -135.12501377 178.77540784 -132.6640625 175.69921875 C-133.00965212 172.23626969 -134.45485666 170.61179681 -136.8515625 168.19921875 C-146.01180113 158.07969435 -150.26143453 144.73070412 -150.1640625 131.26171875 C-150.15761719 130.31087402 -150.15117187 129.3600293 -150.14453125 128.38037109 C-149.56956116 105.64257357 -139.87294575 85.25315471 -123.5390625 69.63671875 C-109.83534035 57.61292948 -89.47410487 45.69921875 -70.6640625 45.69921875 C-70.41527344 44.99925781 -70.16648437 44.29929688 -69.91015625 43.578125 C-60.41747676 21.64676204 -40.07389841 7.64174796 -18.9296875 -1.48046875 C-12.63110481 -3.76099007 -5.57243856 -4.35592028 0 0 Z M-11.6640625 29.69921875 C-12.55544922 30.55193359 -12.55544922 30.55193359 -13.46484375 31.421875 C-18.85485191 36.44304901 -24.28650575 40.60350612 -30.609375 44.38671875 C-31.28742188 44.81984375 -31.96546875 45.25296875 -32.6640625 45.69921875 C-32.6640625 46.02921875 -32.6640625 46.35921875 -32.6640625 46.69921875 C-28.93815774 47.28063432 -26.82168297 47.51978162 -23.68017578 45.29296875 C-21.60723991 43.33090966 -19.65675042 41.3017787 -17.7265625 39.19921875 C-16.70079102 38.12607422 -16.70079102 38.12607422 -15.65429688 37.03125 C-13.97396651 35.2686657 -12.3121337 33.49191336 -10.6640625 31.69921875 C-10.9940625 31.03921875 -11.3240625 30.37921875 -11.6640625 29.69921875 Z " fill="#FBEDC8" transform="translate(204.6640625,81.30078125)"/>
<path d="M0 0 C2.20598802 2.80586196 1.91967862 5.33309623 1.828125 8.796875 C0.64289676 15.78595896 -3.31744697 22.19089517 -7.6640625 27.69921875 C-7.18839844 27.23773438 -6.71273437 26.77625 -6.22265625 26.30078125 C5.49970108 15.37718492 20.21478749 4.68949422 36.6484375 3.44921875 C42.07160742 3.81689129 46.6359749 4.78676083 50.3359375 8.94921875 C52.32863319 14.42913188 51.70068029 18.42789342 49.3359375 23.63671875 C41.77555834 37.51841493 27.07596142 44.16342359 13.3359375 50.69921875 C14.11195313 50.88355469 14.88796875 51.06789062 15.6875 51.2578125 C29.61689328 54.99780473 40.05381274 62.73261046 50.3359375 72.69921875 C51.25246094 73.50552734 51.25246094 73.50552734 52.1875 74.328125 C64.96783231 85.97048252 71.89227305 102.79631416 73.3359375 119.69921875 C73.408125 120.52808594 73.4803125 121.35695313 73.5546875 122.2109375 C73.89077147 130.4589982 71.90588345 138.64390084 70.3359375 146.69921875 C71.6559375 147.02921875 72.9759375 147.35921875 74.3359375 147.69921875 C74.1484375 149.57421875 74.1484375 149.57421875 73.3359375 151.69921875 C72.5315625 152.00859375 71.7271875 152.31796875 70.8984375 152.63671875 C68.12099303 153.45666237 68.12099303 153.45666237 67.1484375 156.13671875 C66.8803125 156.98234375 66.6121875 157.82796875 66.3359375 158.69921875 C65.6759375 159.68921875 65.0159375 160.67921875 64.3359375 161.69921875 C63.0159375 161.69921875 61.6959375 161.69921875 60.3359375 161.69921875 C60.09533897 157.48874441 60.6519485 155.90919125 62.3359375 151.69921875 C58.0459375 150.70921875 53.7559375 149.71921875 49.3359375 148.69921875 C49.3359375 153.31921875 49.3359375 157.93921875 49.3359375 162.69921875 C48.0159375 162.36921875 46.6959375 162.03921875 45.3359375 161.69921875 C44.07356019 159.17446413 44.23737346 157.38721409 44.2734375 154.57421875 C44.28246094 153.66414062 44.29148438 152.7540625 44.30078125 151.81640625 C44.31818359 150.76839844 44.31818359 150.76839844 44.3359375 149.69921875 C42.6859375 149.69921875 41.0359375 149.69921875 39.3359375 149.69921875 C39.3359375 148.37921875 39.3359375 147.05921875 39.3359375 145.69921875 C44.7301768 142.10305921 52.55692419 143.00779045 58.8125 144.15234375 C60.7109375 144.69921875 60.7109375 144.69921875 63.3359375 145.69921875 C63.4803125 144.81234375 63.6246875 143.92546875 63.7734375 143.01171875 C64.09757793 141.10289177 64.44600017 139.19715065 64.8605957 137.3059082 C65.67204189 132.85608237 65.52044386 128.39813279 65.5234375 123.88671875 C65.53568359 122.92701172 65.54792969 121.96730469 65.56054688 120.97851562 C65.59454159 104.37776213 57.63386602 88.83270349 46.44921875 76.73046875 C33.81939361 64.5908956 17.94435766 55.8218199 0.1484375 55.13671875 C-8.22928061 54.7731428 -8.22928061 54.7731428 -11.6640625 53.69921875 C-11.6640625 52.70921875 -11.6640625 51.71921875 -11.6640625 50.69921875 C-10.84164062 50.51746094 -10.01921875 50.33570313 -9.171875 50.1484375 C9.46548806 45.95180263 32.11699297 39.63580718 43.3359375 22.69921875 C45.13699475 18.8313745 45.53466123 15.97177898 45.3359375 11.69921875 C40.47017405 8.88813964 35.81604212 9.00707012 30.3359375 9.69921875 C26.42768242 10.96397352 22.93115723 12.72578427 19.3359375 14.69921875 C18.11970703 15.3334375 18.11970703 15.3334375 16.87890625 15.98046875 C9.23786851 20.22686129 2.85122099 25.93775273 -3.6640625 31.69921875 C-4.56640625 32.48941406 -5.46875 33.27960938 -6.3984375 34.09375 C-16.1620422 41.98039869 -16.1620422 41.98039869 -23.6640625 51.69921875 C-32.5740625 51.69921875 -41.4840625 51.69921875 -50.6640625 51.69921875 C-50.6640625 50.37921875 -50.6640625 49.05921875 -50.6640625 47.69921875 C-49.6328125 47.34859375 -48.6015625 46.99796875 -47.5390625 46.63671875 C-31.25765772 40.45902261 -12.19229028 29.34056437 -4.6640625 12.69921875 C-4.093828 9.70934055 -3.68923999 6.74569493 -3.6640625 3.69921875 C-5.24063682 2.12264443 -6.78532137 2.37704723 -8.9765625 2.26171875 C-15.8107659 2.30088324 -20.81108709 5.48925361 -26.6640625 8.69921875 C-28.4275 9.37984375 -28.4275 9.37984375 -30.2265625 10.07421875 C-45.48824507 17.28883233 -60.0504313 32.04427423 -65.91015625 48.1171875 C-66.15894531 48.96925781 -66.40773438 49.82132813 -66.6640625 50.69921875 C-67.37046875 50.76238281 -68.076875 50.82554687 -68.8046875 50.890625 C-82.75251845 52.55525307 -97.55012676 56.8997765 -108.6640625 65.69921875 C-109.51613281 66.27027344 -110.36820313 66.84132813 -111.24609375 67.4296875 C-122.11635108 74.8032187 -131.98118525 84.50301859 -136.4140625 97.13671875 C-137.0328125 98.90015625 -137.0328125 98.90015625 -137.6640625 100.69921875 C-138.3240625 100.69921875 -138.9840625 100.69921875 -139.6640625 100.69921875 C-139.79683594 101.43527344 -139.92960937 102.17132813 -140.06640625 102.9296875 C-140.24300781 103.90550781 -140.41960937 104.88132812 -140.6015625 105.88671875 C-140.77558594 106.84964844 -140.94960937 107.81257813 -141.12890625 108.8046875 C-141.45192894 110.55183945 -141.79672169 112.29543564 -142.18261719 114.02978516 C-143.06878318 118.94324303 -142.93300357 123.90648141 -142.9765625 128.88671875 C-143.00556641 129.97275391 -143.03457031 131.05878906 -143.06445312 132.17773438 C-143.12252523 139.61543085 -141.77095818 144.99334142 -138.6640625 151.69921875 C-138.3959375 152.70984375 -138.1278125 153.72046875 -137.8515625 154.76171875 C-134.65851012 162.660322 -128.16557202 168.44735002 -121.6640625 173.69921875 C-121.9940625 174.68921875 -122.3240625 175.67921875 -122.6640625 176.69921875 C-124.05625 177.03953125 -124.05625 177.03953125 -125.4765625 177.38671875 C-129.50614399 179.04595819 -130.24165199 180.66572579 -131.90234375 184.5546875 C-133.67331913 189.54066434 -134.21971758 193.09409561 -132.1640625 198.01171875 C-130.43603894 201.06082517 -129.79483832 201.63767719 -126.4765625 203.19921875 C-120.0724134 204.10862875 -120.0724134 204.10862875 -113.6640625 203.69921875 C-111.85978132 202.42139396 -111.85978132 202.42139396 -110.6640625 200.69921875 C-110.34504659 198.12332011 -110.34504659 198.12332011 -111.6640625 195.69921875 C-114.94272638 193.99917081 -118.16873101 192.86432925 -121.6640625 191.69921875 C-121.3340625 190.04921875 -121.0040625 188.39921875 -120.6640625 186.69921875 C-114.27070913 187.17872025 -109.14457624 190.21870501 -104.6640625 194.69921875 C-104.19637886 199.65666536 -104.51998995 202.76912806 -107.6640625 206.69921875 C-109.8515625 208.01171875 -109.8515625 208.01171875 -111.6640625 208.69921875 C-111.6640625 210.01921875 -111.6640625 211.33921875 -111.6640625 212.69921875 C-110.6740625 213.02921875 -109.6840625 213.35921875 -108.6640625 213.69921875 C-107.65317188 214.99315874 -106.70315934 216.33517787 -105.7890625 217.69921875 C-98.70875642 226.97383456 -88.15536599 232.14399412 -78.0390625 237.51171875 C-77.18103027 237.96788574 -76.32299805 238.42405273 -75.43896484 238.89404297 C-69.34945743 242.04026914 -63.15225636 244.4979504 -56.6640625 246.69921875 C-56.6640625 248.01921875 -56.6640625 249.33921875 -56.6640625 250.69921875 C-57.6540625 251.02921875 -58.6440625 251.35921875 -59.6640625 251.69921875 C-61.94051914 254.93418345 -61.92206855 257.82912804 -61.6640625 261.69921875 C-60.45184435 263.11392027 -60.45184435 263.11392027 -56.9140625 263.19921875 C-49.63838819 263.17578663 -41.74435312 258.77950937 -36.6640625 253.69921875 C-33.98210936 253.47654317 -31.39601101 253.37346743 -28.7109375 253.35546875 C-27.0527342 253.32707713 -25.39453108 253.29867503 -23.73632812 253.27026367 C-22.86661377 253.25901459 -21.99689941 253.2477655 -21.10083008 253.23617554 C-16.62650575 253.17463071 -12.15318659 253.07329039 -7.6796875 252.96875 C-6.80248047 252.94831131 -5.92527344 252.92787262 -5.02148438 252.90681458 C10.29287012 252.52466056 24.67494131 251.31471755 39.3359375 246.69921875 C40.69704205 246.30943285 42.05905712 245.92281512 43.421875 245.5390625 C60.3241897 240.68523694 76.25202063 231.40576775 85.3359375 215.69921875 C89.47834977 206.30890382 90.07666755 196.79778345 90.3359375 186.69921875 C89.41748047 186.26222656 89.41748047 186.26222656 88.48046875 185.81640625 C85.8476454 184.44484436 84.18279607 183.0248925 82.3359375 180.69921875 C82.5859375 178.44921875 82.5859375 178.44921875 83.3359375 176.69921875 C85.2109375 176.94921875 85.2109375 176.94921875 87.3359375 177.69921875 C87.738125 178.65828125 87.738125 178.65828125 88.1484375 179.63671875 C89.26940882 182.12114177 89.26940882 182.12114177 92.91015625 182.828125 C94.04066406 183.11558594 95.17117188 183.40304687 96.3359375 183.69921875 C95.96074633 206.71525645 95.96074633 206.71525645 91.3359375 216.69921875 C90.975 217.49199219 90.6140625 218.28476562 90.2421875 219.1015625 C81.76611117 235.8532674 65.47623121 244.8667577 48.3359375 250.69921875 C46.71159278 251.13914544 45.08669808 251.5770536 43.4609375 252.01171875 C38.68028806 253.51293203 36.01039839 256.81602 32.66796875 260.41015625 C27.06191574 265.91291515 18.87433893 270.9326976 10.8359375 271.07421875 C7.61527876 270.98296675 6.28276857 270.6715266 3.3359375 269.13671875 C0.79223107 266.03657654 0.77523442 263.62085897 0.3359375 259.69921875 C-4.35834706 259.40601735 -9.05236674 259.15534553 -13.75097656 258.94238281 C-15.34597749 258.86427876 -16.94047272 258.77495333 -18.53417969 258.67382812 C-29.03894224 257.66477139 -29.03894224 257.66477139 -38.44921875 261.51171875 C-39.53988195 262.55465588 -40.61451936 263.61491102 -41.6640625 264.69921875 C-47.75201398 268.55462249 -53.38637707 271.0993068 -60.6640625 269.69921875 C-64.2265625 268.44921875 -64.2265625 268.44921875 -66.6640625 265.69921875 C-67.56009279 259.91941979 -67.43800262 254.88020512 -64.6640625 249.69921875 C-65.27572266 249.53703857 -65.88738281 249.3748584 -66.51757812 249.20776367 C-72.81147476 247.44347417 -78.41347754 245.10185915 -84.1640625 242.01171875 C-84.99067383 241.57110107 -85.81728516 241.1304834 -86.66894531 240.67651367 C-92.89378303 237.28153768 -98.45648002 233.53920717 -103.6640625 228.69921875 C-104.58832031 227.87550781 -104.58832031 227.87550781 -105.53125 227.03515625 C-109.14375529 223.64742906 -111.68175483 220.12113587 -114.3515625 215.94921875 C-117.45877455 211.49473897 -119.53312968 209.95829634 -124.8515625 208.82421875 C-125.87507813 208.64890625 -126.89859375 208.47359375 -127.953125 208.29296875 C-131.74274181 207.46296622 -133.39316667 205.77591632 -135.6640625 202.69921875 C-136.5303125 201.55453125 -136.5303125 201.55453125 -137.4140625 200.38671875 C-139.90963275 195.02124271 -140.17269745 190.58208544 -138.4765625 185.01171875 C-137.10916013 181.31019232 -135.12501377 178.77540784 -132.6640625 175.69921875 C-133.00965212 172.23626969 -134.45485666 170.61179681 -136.8515625 168.19921875 C-146.01180113 158.07969435 -150.26143453 144.73070412 -150.1640625 131.26171875 C-150.15761719 130.31087402 -150.15117187 129.3600293 -150.14453125 128.38037109 C-149.56956116 105.64257357 -139.87294575 85.25315471 -123.5390625 69.63671875 C-109.83534035 57.61292948 -89.47410487 45.69921875 -70.6640625 45.69921875 C-70.41527344 44.99925781 -70.16648437 44.29929688 -69.91015625 43.578125 C-60.41747676 21.64676204 -40.07389841 7.64174796 -18.9296875 -1.48046875 C-12.63110481 -3.76099007 -5.57243856 -4.35592028 0 0 Z M-11.6640625 29.69921875 C-12.55544922 30.55193359 -12.55544922 30.55193359 -13.46484375 31.421875 C-18.85485191 36.44304901 -24.28650575 40.60350612 -30.609375 44.38671875 C-31.28742188 44.81984375 -31.96546875 45.25296875 -32.6640625 45.69921875 C-32.6640625 46.02921875 -32.6640625 46.35921875 -32.6640625 46.69921875 C-28.93815774 47.28063432 -26.82168297 47.51978162 -23.68017578 45.29296875 C-21.60723991 43.33090966 -19.65675042 41.3017787 -17.7265625 39.19921875 C-16.70079102 38.12607422 -16.70079102 38.12607422 -15.65429688 37.03125 C-13.97396651 35.2686657 -12.3121337 33.49191336 -10.6640625 31.69921875 C-10.9940625 31.03921875 -11.3240625 30.37921875 -11.6640625 29.69921875 Z " fill="#0C0B09" transform="translate(204.6640625,81.30078125)"/>
<path d="M0 0 C10.625 0.75 10.625 0.75 14 3 C13.01 6.3 12.02 9.6 11 13 C14.91431421 12.47588916 14.91431421 12.47588916 16.16015625 10.40625 C16.45792969 9.7771875 16.75570312 9.148125 17.0625 8.5 C17.97265625 6.59375 17.97265625 6.59375 19 5 C19.99 4.67 20.98 4.34 22 4 C24.2265625 5.1796875 24.2265625 5.1796875 26.625 6.875 C27.42164063 7.42929688 28.21828125 7.98359375 29.0390625 8.5546875 C31 10 31 10 32 11 C33.84891946 11.23363881 35.70488031 11.41303635 37.5625 11.5625 C38.57441406 11.64628906 39.58632813 11.73007813 40.62890625 11.81640625 C41.41136719 11.87699219 42.19382812 11.93757812 43 12 C42.67 13.65 42.34 15.3 42 17 C40.02 17 38.04 17 36 17 C36.34933594 17.81984375 36.69867188 18.6396875 37.05859375 19.484375 C37.74115234 21.10085937 37.74115234 21.10085937 38.4375 22.75 C38.88996094 23.81734375 39.34242188 24.8846875 39.80859375 25.984375 C40.73979553 28.3413841 41.4784072 30.52992835 42 33 C41.34 33 40.68 33 40 33 C39.525625 32.34 39.05125 31.68 38.5625 31 C38.046875 30.34 37.53125 29.68 37 29 C36.01 29 35.02 29 34 29 C34.47455366 31.21458376 34.95240773 32.92067954 36.125 34.875 C37.43323833 38.05215024 37.02702554 39.72635609 36 43 C34.17631569 45.51072327 32.15610564 47.77136481 30 50 C29.34 49.01 28.68 48.02 28 47 C26.02 47.495 26.02 47.495 24 48 C23.67 50.31 23.34 52.62 23 55 C19.12315913 56.19287411 16.08378077 57 12 57 C12 54.69 12 52.38 12 50 C11.01 50 10.02 50 9 50 C8.01 52.31 7.02 54.62 6 57 C0.33557626 56.63495936 -4.00703705 55.9445679 -9 53 C-9 48.23788124 -7.61498173 46.84075441 -5 43 C-5 42.01 -5 41.02 -5 40 C-5.99 40 -6.98 40 -8 40 C-8.474375 40.825 -8.94875 41.65 -9.4375 42.5 C-9.953125 43.325 -10.46875 44.15 -11 45 C-12.32 45 -13.64 45 -15 45 C-15.99 41.535 -15.99 41.535 -17 38 C-16.34 37.34 -15.68 36.68 -15 36 C-15.28718326 34.3247643 -15.63128912 32.65919896 -16 31 C-16.03824623 28.66698014 -16.04574284 26.33288492 -16 24 C-14.02 24 -12.04 24 -10 24 C-10.11859375 23.40832031 -10.2371875 22.81664062 -10.359375 22.20703125 C-11.42538593 15.67238422 -11.42538593 15.67238422 -9.0625 11.9375 C-8.381875 11.298125 -7.70125 10.65875 -7 10 C-4 11 -4 11 -3 13 C-2.01 13.33 -1.02 13.66 0 14 C0 9.38 0 4.76 0 0 Z " fill="#FCFCFB" transform="translate(254,230)"/>
<path d="M0 0 C0 0.66 0 1.32 0 2 C-2.49531427 4.22287301 -5.26543962 6.08325207 -8 8 C-8.86625 8.61875 -9.7325 9.2375 -10.625 9.875 C-13.66319551 11.31414524 -15.67439432 11.42454541 -19 11 C-21.375 9.875 -21.375 9.875 -23 8 C-23.06512835 6.00106071 -23.07041702 3.99875998 -23 2 C-22.02417969 1.93941406 -21.04835937 1.87882812 -20.04296875 1.81640625 C-18.77066406 1.73261719 -17.49835938 1.64882813 -16.1875 1.5625 C-14.92292969 1.48128906 -13.65835938 1.40007812 -12.35546875 1.31640625 C-8.03676408 0.909171 -4.4095741 -0.09799054 0 0 Z " fill="#EADDBB" transform="translate(233,337)"/>
<path d="M0 0 C1.27230469 0.01804688 2.54460937 0.03609375 3.85546875 0.0546875 C5.31919922 0.08949219 5.31919922 0.08949219 6.8125 0.125 C6.8125 0.455 6.8125 0.785 6.8125 1.125 C5.56533203 1.21587891 5.56533203 1.21587891 4.29296875 1.30859375 C2.66294922 1.43427734 2.66294922 1.43427734 1 1.5625 C-0.07894531 1.64371094 -1.15789062 1.72492188 -2.26953125 1.80859375 C-5.24739905 2.02712461 -5.24739905 2.02712461 -8.1875 3.125 C-8.5175 3.785 -8.8475 4.445 -9.1875 5.125 C-8.1975 4.795 -7.2075 4.465 -6.1875 4.125 C-4.3778182 4.00619646 -2.56353553 3.9498035 -0.75 3.9375 C0.19746094 3.92332031 1.14492187 3.90914062 2.12109375 3.89453125 C4.8125 4.125 4.8125 4.125 8.8125 6.125 C5.8425 5.795 2.8725 5.465 -0.1875 5.125 C-0.1875 9.745 -0.1875 14.365 -0.1875 19.125 C-1.5075 18.795 -2.8275 18.465 -4.1875 18.125 C-5.44987731 15.60024538 -5.28606404 13.81299534 -5.25 11 C-5.24097656 10.08992187 -5.23195312 9.17984375 -5.22265625 8.2421875 C-5.21105469 7.54351562 -5.19945312 6.84484375 -5.1875 6.125 C-6.8375 6.125 -8.4875 6.125 -10.1875 6.125 C-10.1875 4.805 -10.1875 3.485 -10.1875 2.125 C-6.4507157 -0.36618953 -4.44298181 -0.0815226 0 0 Z " fill="#444037" transform="translate(254.1875,224.875)"/>
<path d="M0 0 C1.65 0 3.3 0 5 0 C5 1.32 5 2.64 5 4 C5.99 4.33 6.98 4.66 8 5 C10.75 7.8125 10.75 7.8125 13 11 C12.8125 13.375 12.8125 13.375 12 15 C7.33244585 14.28904804 5.41465848 11.61954692 2.484375 8.14453125 C0.63418291 5.47149058 0.08093395 3.23735816 0 0 Z " fill="#201E1A" transform="translate(232,240)"/>
<path d="M0 0 C1.17949219 0.01804688 2.35898437 0.03609375 3.57421875 0.0546875 C4.92966797 0.08949219 4.92966797 0.08949219 6.3125 0.125 C5.9825 1.775 5.6525 3.425 5.3125 5.125 C4.66023438 5.18558594 4.00796875 5.24617187 3.3359375 5.30859375 C-1.37466217 5.76019991 -6.02951638 6.26695039 -10.6875 7.125 C-10.375 4.75 -10.375 4.75 -9.6875 2.125 C-6.05554504 -0.29630331 -4.30400652 -0.08522785 0 0 Z " fill="#141312" transform="translate(290.6875,241.875)"/>
<path d="M0 0 C1.32 0.33 2.64 0.66 4 1 C3.38635599 6.36938511 0.85472171 9.20510802 -2.9375 12.875 C-5 14 -5 14 -7.75 13.6875 C-8.4925 13.460625 -9.235 13.23375 -10 13 C-9.875 11.25 -9.875 11.25 -9 9 C-7.00669158 7.65668346 -5.00615134 6.32405988 -3 5 C-1.13689678 2.39975951 -1.13689678 2.39975951 0 0 Z " fill="#201F1B" transform="translate(246,269)"/>
<path d="M0 0 C1.32 0.33 2.64 0.66 4 1 C3.855625 1.66 3.71125 2.32 3.5625 3 C2.87700084 6.65599551 2.43824485 10.30622195 2 14 C0.0625 14.5625 0.0625 14.5625 -2 15 C-3 14 -3 14 -3.25 10.875 C-2.96525447 6.46144436 -1.92474062 3.92967877 0 0 Z " fill="#12110E" transform="translate(263,279)"/>
<path d="M0 0 C10.625 0.75 10.625 0.75 14 3 C13.67 3.66 13.34 4.32 13 5 C10.69 4.67 8.38 4.34 6 4 C6 4.66 6 5.32 6 6 C4.35 6.33 2.7 6.66 1 7 C1 8.98 1 10.96 1 13 C0.67 13 0.34 13 0 13 C0 8.71 0 4.42 0 0 Z " fill="#EDE0C0" transform="translate(254,230)"/>
<path d="M0 0 C3.39192363 0.59283621 5.2107757 1.76743189 7.75 4.0625 C8.67039063 4.88427734 8.67039063 4.88427734 9.609375 5.72265625 C10.29773438 6.35494141 10.29773438 6.35494141 11 7 C10.67 8.32 10.34 9.64 10 11 C5.64122922 10.49706491 3.01940914 8.01940914 0 5 C-0.375 2.1875 -0.375 2.1875 0 0 Z " fill="#23211C" transform="translate(229,256)"/>
<path d="M0 0 C1.32 0.33 2.64 0.66 4 1 C4 4.63 4 8.26 4 12 C2.68 12 1.36 12 0 12 C-1.58969234 8.52254801 -2.41465662 5.83557374 -2 2 C-1.34 1.34 -0.68 0.68 0 0 Z " fill="#363430" transform="translate(279,276)"/>
<path d="M0 0 C0 3.46132304 -0.35176518 3.74508628 -2.625 6.13671875 C-3.16640625 6.71357422 -3.7078125 7.29042969 -4.265625 7.88476562 C-4.83796875 8.47966797 -5.4103125 9.07457031 -6 9.6875 C-6.57234375 10.29400391 -7.1446875 10.90050781 -7.734375 11.52539062 C-9.1496339 13.02320629 -10.57397277 14.5124329 -12 16 C-12 12.32180832 -11.23156682 11.77617345 -8.8125 9.125 C-8.17828125 8.42632812 -7.5440625 7.72765625 -6.890625 7.0078125 C-4.64038137 4.61809096 -2.35642724 2.28502036 0 0 Z " fill="#CDC2A4" transform="translate(159,101)"/>
<path d="M0 0 C1.32 0.33 2.64 0.66 4 1 C3.67 2.65 3.34 4.3 3 6 C2.34 5.34 1.68 4.68 1 4 C-0.88391785 7.26545761 -1.49287967 10.28111761 -2 14 C-2.33 14 -2.66 14 -3 14 C-3.34615998 8.34605369 -2.43425238 4.96993194 0 0 Z " fill="#484640" transform="translate(263,279)"/>
<path d="M0 0 C0.33 1.32 0.66 2.64 1 4 C2.65 4.33 4.3 4.66 6 5 C3 7 3 7 1 7 C1 8.98 1 10.96 1 13 C0.67 13 0.34 13 0 13 C0 8.71 0 4.42 0 0 Z " fill="#DED8C7" transform="translate(254,230)"/>
<path d="M0 0 C0 0.66 0 1.32 0 2 C-1.98 2.99 -1.98 2.99 -4 4 C-4 3.34 -4 2.68 -4 2 C-5.65 2 -7.3 2 -9 2 C-5.5647952 -0.29013653 -4.014669 -0.17842973 0 0 Z " fill="#D1C5A7" transform="translate(233,337)"/>
<path d="M0 0 C0.66 0 1.32 0 2 0 C2 2.64 2 5.28 2 8 C0.4375 6.8125 0.4375 6.8125 -1 5 C-0.6875 2.3125 -0.6875 2.3125 0 0 Z " fill="#010101" transform="translate(251,235)"/>
</svg>
